<svg xmlns="http://www.w3.org/2000/svg" id="Слой_1" x="0" y="0" version="1.1" viewBox="0 0 151 82" xml:space="preserve"><style>.st1{fill:#363636}.st2{font-family:&apos;Gilroy-Light&apos;}.st3{font-size:14.93px}</style><path id="_6" fill="#EA0C6F" fill-rule="evenodd" stroke="#FFF" stroke-linejoin="round" d="M27.5 48.2c0-9.6-4.2-14.4-12.6-14.4-3.4 0-6.8.9-9.7 2.7V13.1C5.2 7 9 3.8 14.3 3.8s9.1 3.2 9.1 9.3v6.7c0 1 .7 1.4 2.1 1.4s2.1-.5 2.1-1.4v-6.6C27.6 5.3 22.4.5 14.3.5 6 .5 1 5.3 1 13.2v54.9C1 76 6 80.8 14.3 80.8c8.1 0 13.3-4.8 13.3-12.7l-.1-19.9s0 0 0 0zm-4.2 20c0 6.1-3.8 9.3-9.1 9.3s-9.1-3.2-9.1-9.4V39.7c2.8-1.8 6.1-2.8 9.4-2.7 6.1 0 8.7 3.2 8.7 11.5l.1 19.7s0 0 0 0z" clip-rule="evenodd"/><text class="st1 st2 st3" transform="matrix(1.0066 0 0 1 34.776 22.885)">оттенков белого</text><text class="st1 st2 st3" transform="matrix(1.0066 0 0 1 34.776 34.95)">цвета</text></svg>