<svg xmlns="http://www.w3.org/2000/svg" id="Слой_1" x="0" y="0" version="1.1" viewBox="0 0 31.8 31.9" xml:space="preserve"><style>.st0{fill:#363636}</style><path d="M28.1 9.5l-.7-.7 3.5-3.5c.6-.6.9-1.3.9-2.2 0-1.7-1.4-3.1-3.1-3.1-.8 0-1.6.3-2.2.9L23 4.4l-.7-.7c-.2-.2-.5-.2-.7 0l-1.5 1.5c-.2.2-.2.5 0 .7l.7.7-4 4c-1.7-.9-3.6-1.4-5.5-1.4C5.1 9.2 0 14.3 0 20.5s5.1 11.4 11.3 11.4 11.3-5 11.3-11.3c0-1.9-.5-3.8-1.4-5.5l4-4 .7.7c0 .1.2.1.3.1s.3-.1.4-.2l1.5-1.5c.2-.2.2-.5 0-.7zm-.7-7.8c.4-.4.9-.6 1.4-.6 1.1 0 2 .9 2 2 0 .5-.2 1.1-.6 1.4L26.7 8l-2.9-2.9 3.6-3.4zm-3 8.7h-2.3c-.8 0-1.6.3-2.2.9-.4.4-.9.6-1.5.6h-1.3l4.4-4.4 2.9 2.9zm-5.9 10.7h3.1c-.1 2.4-1.1 4.7-2.6 6.4l-2.2-2.2c.9-1.1 1.6-2.6 1.7-4.2zm-7.7-7.6c-1.6.1-3 .7-4.2 1.7L4.4 13c1.7-1.5 3.9-2.5 6.4-2.6v3.1zm-4.9 2.4c-1 1.1-1.6 2.6-1.7 4.2H1.1c.1-2.4 1.1-4.7 2.6-6.4l2.2 2.2zm-1.7 5.2c.1 1.6.7 3 1.7 4.2l-2.2 2.2c-1.5-1.7-2.5-3.9-2.6-6.4h3.1zm2.4 5c1.1 1 2.6 1.6 4.2 1.7v3.1c-2.4-.1-4.7-1.1-6.4-2.6l2.2-2.2zm5.2 1.7c1.6-.1 3-.7 4.2-1.7l2.2 2.2c-1.7 1.5-3.9 2.5-6.4 2.6v-3.1zm-.5-1c-3.4 0-6.2-2.8-6.2-6.2s2.8-6.2 6.2-6.2c1.1 0 2.1.3 3.1.8l-1.1 1.1c-.3.3-.5.7-.5 1.1 0 .9.7 1.6 1.6 1.6.4 0 .8-.2 1.1-.5l1.1-1.1c.5.9.8 2 .8 3.1.1 3.5-2.7 6.3-6.1 6.3zm3.6-8.9c-.1.1-.3.2-.4.2-.3 0-.6-.3-.6-.6 0-.2.1-.3.2-.4l2.8-2.8c.1-.1.2-.3.1-.5l-.4-.9h1.8c.8 0 1.6-.3 2.2-.9.4-.4.9-.6 1.5-.6h1.3l-4 4-1.2-.4c-.2-.1-.4 0-.5.1l-2.8 2.8zm.7-5.8c-.1.1-.2.3-.1.5l.4 1.2-.7.7c-1-.6-2.1-1-3.3-1.1v-3.1c1.5.1 2.9.5 4.3 1.2l-.6.6zm6 8h-3.1c-.1-1.2-.5-2.3-1.1-3.3l.7-.7 1.2.4c.2.1.4 0 .5-.1l.5-.5c.8 1.3 1.2 2.7 1.3 4.2zm4.6-9.4l-4.9-4.9.8-.8L27 9.9l-.8.8zm5.1 16.1h-4.1c-.3 0-.5.2-.5.5v4.1c0 .3.2.5.5.5h4.1c.3 0 .5-.2.5-.5v-4.1c0-.3-.2-.5-.5-.5zm-.5 4.1h-3.1v-3.1h3.1v3.1zm.5-10.3h-4.1c-.3 0-.5.2-.5.5v4.1c0 .3.2.5.5.5h4.1c.3 0 .5-.2.5-.5v-4.1c0-.2-.2-.5-.5-.5zm-.5 4.1h-3.1v-3.1h3.1v3.1z" class="st0"/><path d="M31.3 14.5h-4.1c-.3 0-.5.2-.5.5v4.1c0 .3.2.5.5.5h4.1c.3 0 .5-.2.5-.5V15c0-.3-.2-.5-.5-.5zm-.5 4.1h-3.1v-3.1h3.1v3.1zM4.1 21.2c.1 1.6.7 3 1.7 4.1l-2.1 2.1c-1.5-1.7-2.4-3.8-2.5-6.2h2.9z" class="st0"/></svg>