<svg xmlns="http://www.w3.org/2000/svg" id="Слой_1" x="0" y="0" version="1.1" viewBox="0 0 28.9 29" xml:space="preserve"><style>.st0{fill-rule:evenodd;clip-rule:evenodd;fill:#363636}</style><path d="M14.1 20.7c-1.3 0-2.4 1.1-2.4 2.4s1.1 2.4 2.4 2.4 2.4-1.1 2.4-2.4-1.1-2.4-2.4-2.4zm0 3.9c-.8 0-1.4-.7-1.4-1.5s.7-1.4 1.5-1.4 1.4.7 1.4 1.4c-.1.8-.7 1.5-1.5 1.5z" class="st0"/><path d="M28.9 15.9c-.7-3.2-2.2-6.1-4.3-8.6L28.3 3c.6-.6.6-1.6-.1-2.2-.6-.6-1.5-.6-2.1-.1l-4.4 3.8C15.3-.8 7.3-1.6 2.9 2.8-1.4 7.1-.7 15.1 4.4 21.4c-.2.2-.4.4-.4.5v.1c-2.4 1-4 3.4-4 6v.5c0 .3.2.5.5.5 1.5 0 2.8-.5 3.9-1.4 1-.8 1.8-1.8 2.2-3.1 0 0 .2-.2.4-.3 3.2 2.9 7.4 4.6 11.8 4.8 1.2 0 2.5-.2 3.6-.6 1.8-.6 2.7-2.5 2.1-4.3 0-.1-.1-.3-.2-.4l-2-3.9c-.3-.5-.2-1.2.3-1.6.4-.4 1.1-.5 1.6-.2l1 .5c1.2.7 2.6.2 3.3-.9.4-.5.5-1.1.4-1.7zM26.8 1.5c.3-.2.6-.2.8.1.2.2.2.6 0 .8l-8.6 10c-1.1 1.3-2.8 2.9-4.6 4.5L12 14.5c1.2-1.2 2.2-2.3 2.9-2.9L26.8 1.5zm-13.2 16c-.3.2-.5.5-.8.7L10.6 16c.2-.3.5-.5.7-.8l2.3 2.3zm-10-14C7.6-.4 15.1.3 21 5.1l-6.8 5.8C12 12.8 7.1 18.3 5 20.7.3 14.8-.4 7.4 3.6 3.5zm2.1 20.7C5 26.3 3.2 27.8 1 28c0-2.2 1.3-4.2 3.4-5.1h.2l1.1 1.3c.1-.1 0-.1 0 0zm.8-.8c-.1 0-.1.1-.2.1L5 22.2s.1-.1.1-.2c.8-.9 2.7-3.1 4.7-5.3l2.2 2.1c-2.3 2.1-4.5 3.8-5.5 4.6zm20.3-5.6c-.3.1-.7 0-1-.2l-1-.5c-.9-.5-2-.3-2.8.4-.7.7-.9 1.8-.5 2.8l2 3.9c0 .1.1.2.1.3.4 1.3-.2 2.6-1.5 3.1-4.3 1.4-9.8-.2-14.3-3.9 2.7-2.1 9.1-7.3 11.8-10.5l4.2-4.9c2 2.3 3.3 5.1 4 8 .3.6-.2 1.4-1 1.5z" class="st0"/><path d="M23.1 11.6c-1.2 0-2.2 1-2.2 2.2s1 2.2 2.2 2.2 2.2-1 2.2-2.2c-.1-1.3-1-2.2-2.2-2.2zm0 3.3c-.7 0-1.2-.5-1.2-1.2s.5-1.2 1.2-1.2 1.2.5 1.2 1.2-.6 1.2-1.2 1.2zm-7.5-7.2c1.3 0 2.4-1.1 2.4-2.4 0-1.3-1.1-2.4-2.4-2.4S13.2 4 13.2 5.3s1 2.4 2.4 2.4zm0-3.9c.8 0 1.4.7 1.4 1.4 0 .8-.7 1.4-1.5 1.4s-1.4-.7-1.4-1.5c0-.6.7-1.3 1.5-1.3zM7.3 8.7c0-1.3-1.1-2.4-2.4-2.4-1.3 0-2.4 1.1-2.4 2.4 0 1.3 1.1 2.4 2.4 2.4S7.3 10 7.3 8.7zm-3.9-.1c0-.8.7-1.4 1.5-1.4s1.4.7 1.4 1.4c0 .8-.7 1.4-1.5 1.4-.7.1-1.4-.6-1.4-1.4zm4.9 5.8c0-1.3-1.1-2.4-2.4-2.4-1.3 0-2.4 1.1-2.4 2.4s1.1 2.4 2.4 2.4c1.3.1 2.4-1 2.4-2.4zm1-7.7c1.3 0 2.4-1.1 2.4-2.4 0-1.3-1.1-2.4-2.4-2.4S6.9 3 6.9 4.3c0 1.4 1 2.4 2.4 2.4zm0-3.8c.8 0 1.4.7 1.4 1.4 0 .8-.7 1.5-1.5 1.4-.8 0-1.4-.7-1.4-1.5 0-.7.7-1.3 1.5-1.3z" class="st0"/></svg>