<svg xmlns="http://www.w3.org/2000/svg" id="Слой_1" x="0" y="0" version="1.1" viewBox="0 0 170 86" xml:space="preserve"><style>.st2{fill:#363636}.st3{font-family:&apos;Gilroy-Light&apos;}.st4{font-size:15.9448px}</style><path fill="#EA0C6F" stroke="#FFF" stroke-linejoin="round" d="M82.9 15.2c0 .4.1.8.1 1.2v55.9c0 6.2-3.8 9.5-9.2 9.5s-9.2-3.3-9.2-9.5V16.5c0-6.2 3.8-9.5 9.2-9.5 1.8 0 3.5.4 4.9 1.1V6.9h4.7c-2.3-2.1-5.6-3.2-9.5-3.2-8.2 0-13.4 4.8-13.4 12.9v55.7c0 8 5.3 12.9 13.4 12.9 8.2 0 13.4-4.8 13.4-12.9V16.6c0-.4 0-.9-.1-1.3h-4.3v-.1zM27.2 32.1V16.6c0-8-5.3-12.9-13.4-12.9C5.6 3.7.4 8.5.4 16.6v15.6c0 5.5 2.5 9.3 7.3 11.4C3 45.4.1 50 .4 55v17.3c0 8 5.3 12.9 13.4 12.9s13.4-4.8 13.4-12.9V55c.2-5-2.7-9.6-7.4-11.4 4.7-1.9 7.7-6.5 7.4-11.5zM23 54.9v17.5c0 6.2-3.8 9.5-9.2 9.5s-9.2-3.3-9.2-9.5V54.9c0-6.2 3.8-9.7 9.2-9.7s9.2 3.5 9.2 9.7zm0-22.7c0 6.2-3.8 9.7-9.2 9.7s-9.2-3.5-9.2-9.7V16.5c0-6.2 3.8-9.5 9.2-9.5s9.2 3.3 9.2 9.5v15.7zM43.8 3.7c-8.2 0-13.4 4.8-13.4 12.9v55.7c0 8 5.3 12.9 13.4 12.9s13.4-4.8 13.4-12.9V16.6C57.3 8.5 52 3.7 43.8 3.7zM53 72.4c0 6.2-3.8 9.5-9.2 9.5s-9.2-3.3-9.2-9.5V16.5c0-6.2 3.8-9.5 9.2-9.5s9.2 3.3 9.2 9.5v55.9z"/><path id="_" fill="#EA0C6F" fill-rule="evenodd" stroke="#FFF" stroke-linejoin="round" d="M89.4 20.9c0 .8.4 1.1 1.4 1.1s1.4-.4 1.4-1.1v-8.6h7.6c.6.1 1.1-.3 1.2-.9v-.3c.1-.6-.3-1.1-.9-1.2h-7.9V1.4c0-.8-.4-1.1-1.4-1.1s-1.4.4-1.4 1.1v8.5h-7.6c-.6-.1-1.1.4-1.2.9v.3c-.1.6.3 1.1.9 1.2h7.9v8.6h0z" clip-rule="evenodd"/><text class="st2 st3 st4" transform="matrix(1.0133 0 0 1 102.07 26.05)">фактур и</text><text class="st2 st3 st4" transform="matrix(1.0133 0 0 1 102.07 39.557)">цветов</text></svg>