<svg xmlns="http://www.w3.org/2000/svg" id="Слой_1" x="0" y="0" version="1.1" viewBox="0 0 251 87" xml:space="preserve"><style>.st2{fill:#363636}.st3{font-family:&apos;Gilroy-Light&apos;}.st4{font-size:14.9313px}</style><path fill="#EA0C6F" stroke="#FFF" stroke-linejoin="round" d="M73.7 3.7c-8.2 0-13.4 4.8-13.4 12.8V72c0 8 5.3 12.8 13.4 12.8 8.2 0 13.4-4.8 13.4-12.8V16.5c0-8-5.2-12.8-13.4-12.8zm9.2 68.5c0 6.2-3.8 9.5-9.2 9.5s-9.2-3.3-9.2-9.5V16.4c0-6.2 3.8-9.5 9.2-9.5s9.2 3.3 9.2 9.5v55.8zM13.8 3.7C5.6 3.7.4 8.5.4 16.5v14.7c0 9.7 4.2 19 12.7 19 3.5 0 6.7-.3 9.8-2.2v24.2c0 6.2-3.9 9.5-9.4 9.5-4 .1-7.7-2.4-8.9-6.3-.3-.9-1.1-1.1-2.3-.6-.9.1-1.5.9-1.4 1.8 0 .1.1.3.1.4 1.3 4.1 5.8 7.9 12.5 7.9 8.4 0 13.6-4.8 13.6-12.8V16.5c.1-8-4.9-12.8-13.3-12.8zm9.2 41c-2.7 1.8-5.8 2.2-9.5 2.2-6.1 0-8.8-7.7-8.8-16.1V16.4c0-6.2 3.8-9.5 9.2-9.5s9.2 3.3 9.2 9.5L23 44.7zm89.8-29.2v56.7c0 6.2-3.8 9.5-9.2 9.5s-9.2-3.3-9.2-9.5V16.4c0-6.2 3.8-9.5 9.2-9.5 2.3 0 4.2.6 5.8 1.7V7.5h4.4c-2.3-2.4-5.8-3.8-10.1-3.8-8.2 0-13.4 4.8-13.4 12.8V72c0 8 5.3 12.8 13.4 12.8S117.1 80 117.1 72V15.4h-4.3v.1zM43.7 3.7c-8.2 0-13.4 4.8-13.4 12.8V72c0 8 5.3 12.8 13.4 12.8 8.2 0 13.4-4.8 13.4-12.8V16.5c.1-8-5.2-12.8-13.4-12.8zm9.2 68.5c0 6.2-3.8 9.5-9.2 9.5s-9.2-3.3-9.2-9.5V16.4c0-6.2 3.8-9.5 9.2-9.5s9.2 3.3 9.2 9.5v55.8z"/><path id="_copy" fill="#EA0C6F" fill-rule="evenodd" stroke="#FFF" stroke-linejoin="round" d="M120.6 20.8c0 .8.4 1.1 1.4 1.1s1.4-.4 1.4-1.1v-8.6h7.6c.6.1 1.1-.3 1.2-.9V11c.1-.6-.3-1.1-.9-1.2h-7.9V1.3c0-.8-.4-1.1-1.4-1.1s-1.4.4-1.4 1.1v8.5H113c-.6-.1-1.1.3-1.2.9v.3c-.1.6.3 1.1.9 1.2h7.9v8.6h0z" clip-rule="evenodd"/><text class="st2 st3 st4" transform="matrix(1.0044 0 0 1 137.442 23.06)">конфигураций и</text><text class="st2 st3 st4" transform="matrix(1.0044 0 0 1 137.442 36.588)">изображений</text><text class="st2 st3 st4" transform="matrix(1.0044 0 0 1 137.442 50.115)">для фотопечати</text></svg>