<svg xmlns="http://www.w3.org/2000/svg" viewBox="0 0 37.3 32.2"><path fill-rule="evenodd" d="M36.5 10.3L16 .5c-.2-.1-.5 0-.6.2L10.9 10h2.4l3.3-6.8 17.8 8.5-5.6 11.6-3.1-1.5v6.1l1.9.9c.2.1.5 0 .6-.2l8.5-17.7c.1-.2 0-.5-.2-.6zm-12.8.8H1c-.3 0-.5.2-.5.5v19.6c0 .3.2.5.5.5h22.7c.3 0 .5-.2.5-.5V11.6c0-.2-.2-.5-.5-.5zm-1.3 15.1H21c-.8-2.1-1.9-5.2-3.4-4.8-1.8.5-2.8 4.8-2.8 4.8s-.9-4.8-3.5-7.4-5.1 7.4-5.1 7.4H2.8V13.3h19.7l-.1 12.9zM5.9 14.5c.9 0 1.6.7 1.6 1.6 0 .9-.7 1.6-1.6 1.6-.9 0-1.6-.7-1.6-1.6 0-.9.7-1.6 1.6-1.6zm10.8 2.7c.3 0 .7 0 1-.1.4.2.8.2 1.2.2 1.2 0 2.1-.6 2.1-1.3 0-.7-1-1.3-2.1-1.3-.4 0-.8.1-1.2.2-.1-.1-.3-.2-.5-.2h-.3c-.4 0-.7.3-.8.7-1 .1-1.7.4-1.7.9s1 .9 2.3.9z" clip-rule="evenodd"/><path fill="#363636" stroke="#FFF" stroke-miterlimit="10" d="M36.5 10.3L16 .5c-.2-.1-.5 0-.6.2L10.9 10h2.4l3.3-6.8 17.8 8.5-5.6 11.6-3.1-1.5v6.1l1.9.9c.2.1.5 0 .6-.2l8.5-17.7c.1-.2 0-.5-.2-.6h0zm-12.8.8H1c-.3 0-.5.2-.5.5v19.6c0 .3.2.5.5.5h22.7c.3 0 .5-.2.5-.5V11.6c0-.2-.2-.5-.5-.5h0zm-1.3 15.1H21c-.8-2.1-1.9-5.2-3.4-4.8-1.8.5-2.8 4.8-2.8 4.8s-.9-4.8-3.5-7.4-5.1 7.4-5.1 7.4H2.8V13.3h19.7l-.1 12.9h0zM5.9 14.5c.9 0 1.6.7 1.6 1.6 0 .9-.7 1.6-1.6 1.6-.9 0-1.6-.7-1.6-1.6 0-.9.7-1.6 1.6-1.6h0zm10.8 2.7c.3 0 .7 0 1-.1.4.2.8.2 1.2.2 1.2 0 2.1-.6 2.1-1.3 0-.7-1-1.3-2.1-1.3-.4 0-.8.1-1.2.2-.1-.1-.3-.2-.5-.2h-.3c-.4 0-.7.3-.8.7-1 .1-1.7.4-1.7.9s1 .9 2.3.9h0z"/></svg>