<svg xmlns="http://www.w3.org/2000/svg" id="Layer_1" x="0" y="0" version="1.1" viewBox="0 0 64.3 82.1" xml:space="preserve"><style>.st0{fill:#373737}.st1{fill:#231F20}.st2{fill:#292929}</style><path d="M62 2.3L64.3 0H0l2.3 2.3z" class="st0"/><path d="M2.3 2.3L0 0v82.1l2.3-2.2z" class="st1"/><path d="M.2.5l1.9 1.9v77.4L.2 81.6z" class="st2"/><path d="M62.1 79.9H2.3L0 82.1v.1h64.4l-2.3-2.3z" class="st0"/><path d="M.5 82l1.8-1.9H62l1.8 1.9z" class="st2"/><path d="M64.3 0L62 2.3h.1v77.6l2.3 2.3V0z" class="st1"/><path d="M2.4 2.1L.6.2h63.1l-1.8 1.9zm59.9 77.7V2.3L64.1.5v81.1z" class="st2"/></svg>