<svg xmlns="http://www.w3.org/2000/svg" id="Capa_1" x="0" y="0" version="1.1" viewBox="0 0 595.3 595.3" xml:space="preserve"><style>.st0{fill:#E50469}.st1{fill:#2E2E2E}</style><path d="M192.3 281.7c-1.3 5-3.7 15.4-3.7 28.4 0 34.8 15.8 67 49.3 91.2 7.8 5.6 17.7 5.6 25.4 0 33.5-24.1 49.3-56.3 49.3-91.2 0-13-2.3-23.3-3.7-28.4-1.1-4-3.7-7.3-7.2-8.9l-42-19.9c-2.9-1.4-6-2.1-9.2-2.1-8.1 0-9.2 2.8-51.2 22-3.3 1.6-5.9 4.8-7 8.9zm7.6 28.4c0-11.7 2-20.9 3.3-25.4.3-1 .8-1.6 1.2-1.7 43.9-20.5 42.5-20.9 46.4-20.9 4 0 2.4.4 46.4 20.9.4.1.9.7 1.2 1.7 1.2 4.5 3.3 13.7 3.3 25.4 0 31.2-14.2 60.1-44.6 82-3.8 2.8-8.4 2.8-12.2 0-30.9-22-45-51-45-82z" class="st0"/><path d="M160.2 132.9v315.4c0 22.1 18 40.2 40.2 40.2h233.9c20 0 36.2-16.2 36.2-36.2v-33.8c0-16.2-13.1-29.3-29.3-29.3h-32.3V133.5c0-14.8-12-26.8-26.8-26.8h-196c-14.2.1-25.9 11.8-25.9 26.2zm248.7 319.3v-51.7h32.3c9.9 0 18 8.1 18 18v33.8c0 15.9-14.8 28.3-31.6 24.2-10.8-2.9-18.7-12.7-18.7-24.3zm-237.4-4V132.9c0-8.2 6.6-14.8 14.8-14.8h195.9c8.6 0 15.5 6.9 15.5 15.5v309.2c.1 7.3-2.2 21.7 10 34.4H200.5c-16.1 0-29-13-29-29z" class="st1"/><path d="M374.5 161.1H231.2c-3.1 0-5.7-2.5-5.7-5.7s2.5-5.7 5.7-5.7h143.3c3.1 0 5.7 2.5 5.7 5.7s-2.6 5.7-5.7 5.7zm-165.8 0h-10.9c-3.1 0-5.7-2.5-5.7-5.7s2.5-5.7 5.7-5.7h10.9c3.1 0 5.7 2.5 5.7 5.7s-2.6 5.7-5.7 5.7zm-10.9 272.2h133.6c3.1 0 5.7 2.5 5.7 5.7 0 3.1-2.5 5.7-5.7 5.7H197.8c-3.1 0-5.7-2.5-5.7-5.7.1-3.1 2.6-5.7 5.7-5.7zm156.1 0h20.6c3.1 0 5.7 2.5 5.7 5.7 0 3.1-2.5 5.7-5.7 5.7h-20.6c-3.1 0-5.7-2.5-5.7-5.7.1-3.1 2.6-5.7 5.7-5.7zm20.6-231.7H197.8c-3.1 0-5.7-2.5-5.7-5.7s2.5-5.7 5.7-5.7h176.7c3.1 0 5.7 2.5 5.7 5.7s-2.6 5.7-5.7 5.7zm-176.7 29.2h102.8c3.1 0 5.7 2.5 5.7 5.7 0 3.1-2.5 5.7-5.7 5.7H197.8c-3.1 0-5.7-2.5-5.7-5.7.1-3.1 2.6-5.7 5.7-5.7zm176.7 11.3h-51.4c-3.1 0-5.7-2.5-5.7-5.7 0-3.1 2.5-5.7 5.7-5.7h51.4c3.1 0 5.7 2.5 5.7 5.7s-2.6 5.7-5.7 5.7zm0 40.5h-41.6c-3.1 0-5.7-2.5-5.7-5.7 0-3.1 2.5-5.7 5.7-5.7h41.6c3.1 0 5.7 2.5 5.7 5.7s-2.6 5.7-5.7 5.7zm0 40.6h-41.6c-3.1 0-5.7-2.5-5.7-5.7s2.5-5.7 5.7-5.7h41.6c3.1 0 5.7 2.5 5.7 5.7s-2.6 5.7-5.7 5.7zm0 40.4h-51.4c-3.1 0-5.7-2.5-5.7-5.7s2.5-5.7 5.7-5.7h51.4c3.1 0 5.7 2.5 5.7 5.7s-2.6 5.7-5.7 5.7zm0 40.6H305c-3.1 0-5.7-2.5-5.7-5.7 0-3.1 2.5-5.7 5.7-5.7h69.5c3.1 0 5.7 2.5 5.7 5.7s-2.6 5.7-5.7 5.7z" class="st1"/><path d="M458.1 323.1c-12.3-12.3-28.5-19-45.9-19s-33.7 6.8-45.9 19c-12.3 12.3-19 28.5-19 45.9s6.8 33.7 19 45.9c12.3 12.3 28.5 19 45.9 19s33.7-6.8 45.9-19c12.2-12.2 19-28.5 19-45.9 0-17.3-6.8-33.6-19-45.9z" class="st1"/><circle cx="412.1" cy="369" r="59.5" fill="#FFF"/><path d="M440.6 348.8l-33 34.1-18-17.4c-1.5-1.5-4-1.4-5.4.1-1.5 1.5-1.4 4 .1 5.4l20.7 20.1c.7.7 1.7 1.1 2.7 1 1 0 1.9-.4 2.7-1.2l35.7-36.9c1.5-1.5 1.4-4-.1-5.4-1.5-1.3-3.9-1.3-5.4.2z" class="st0"/><path d="M263.2 308.4c0 7.1-5.7 12.9-12.9 12.9-7.1 0-12.9-5.7-12.9-12.9 0-7.1 5.7-12.9 12.9-12.9 7.1 0 12.9 5.8 12.9 12.9zm13.1 37.9c-.3.3-.7.4-1 .1l-9.4-5.5c-.1 1-.2 2.6-.4 4.2-.1 1.4-.2 2.8-.4 3.8-.1.5-.1 1-.1 1.3-.1.5-.1 1.2-.9 1.3-.2 0-.4-.1-.6-.2-.1-.1-.2-.3-.2-.5-.3-1-5.1-12.1-9-21.1l-.7.6c-.3.2-.6.4-.9.5-1.4.6-3.1.4-4.3-.4l-1.3-1c-3.8 8.9-8.3 19.5-8.6 20.6 0 .2-.1.4-.2.5-.1.1-.4.2-.6.2-.7 0-.8-.7-.9-1.3 0-.3-.1-.7-.1-1.3-.1-1-.2-2.5-.4-3.8-.1-1.6-.3-3.1-.4-4.2l-9.3 5.6c-.4.2-.7.1-1-.1-.3-.3-.3-.7-.1-1l11.5-18.8c-1.6-.4-2.8-1.8-3.1-3.4l-1.1-6-3.7-4.9c-1.1-1.5-1.2-3.6-.1-5.1l3.5-5.1.9-6.1c.2-1.5 1.2-2.8 2.6-3.4.3-.1.7-.2 1-.3l6-1.1 4.9-3.7c.3-.2.6-.4.9-.5 1.4-.6 3-.4 4.3.4l5.1 3.5 6.1.9c1.9.3 3.4 1.7 3.7 3.6l1.1 6 3.7 4.9c1.1 1.5 1.2 3.6.1 5.1l-3.5 5.1-.9 6.1c-.2 1.5-1.2 2.8-2.6 3.4-.3.1-.7.2-1 .3l-.3.1 12.4 19.8c-.4.2-.4.6-.7.9zm-11.1-37.9c0-8.2-6.6-14.8-14.8-14.8s-14.8 6.6-14.8 14.8 6.6 14.8 14.8 14.8c8.1 0 14.8-6.6 14.8-14.8z" class="st1"/></svg>