<svg xmlns="http://www.w3.org/2000/svg" viewBox="0 0 511 201"><path fill="#0F6BE2" d="M185 1c9.9 3.1 18.6 8.1 25.3 16 11 12.9 18.4 27.9 24.7 43.6 9.5 23.5 15.3 48 20.9 72.6.2.9 0 1.9-.3 2.9-6.1-22.9-13.4-45.3-24.7-66.2-6.8-12.6-15.1-24-27.5-31.9-14.7-9.4-38.3-4.8-47.5 9.7-5.9 9.2-4.1 19.3.5 27.8 6 11.1 12.9 22.1 21.3 31.4 12.9 14.3 27 27.5 41.3 40.5 10.4 9.4 21.8 17.7 32.8 26.5 1 .8 2 1.6 2.4 3.3-7.6-5.3-15.3-10.5-22.9-15.8-22.9-16.2-44.8-33.6-64.2-53.9C154.3 94 142.5 79.7 136 61.9c-7.8-21.4-2.3-39.1 16.9-51.4 6.2-4 13.4-6.4 20.1-9.5h12zm78.9 162.8c0-19.2-.2-38.4.1-57.6.2-15.2 2.7-30.1 8-44.4 6.6-17.9 16.8-29.1 33.3-29 12.9.1 24.2 4.6 34.2 12.3 9.5 7.3 15.1 17 13.3 29.1-1.2 8.2-3.4 16.4-6.7 24-7.1 15.8-17.9 29.3-29.7 41.8-8.1 8.6-16.6 16.7-25 25.1-1.1 1.1-2.1 2.3-2.7 4 5.3-3.7 10.6-7.5 15.9-11.2 27.1-18.7 55.5-34.8 86.9-45.2 16.9-5.5 34.1-8.2 51.7-6.6 20.5 1.9 37.2 11.6 49.5 28.3 9 12.3 14.6 26.3 17.8 41.3-3.1-4-6.1-8.1-9.2-12.1-12.3-15.8-28.5-26.1-47.8-30.5-10.8-2.5-22.2-4.1-33.2-3.8-29.6.8-57.8 8.6-84.6 20.5-20.8 9.3-41.1 19.8-60.9 29.5.9-1 2.5-3 4.3-4.9 16.5-17 31.8-35.1 43.6-55.7 5.4-9.4 9.4-19.8 12.7-30.2 3.6-11.2-1-22.3-10.4-28.8-10-7-22.9-7.9-32-1.7-9.5 6.4-14.8 16.3-17.6 26.8-3.7 13.9-6.3 28.1-8.3 42.4-1.7 12.1-2 24.4-2.9 36.6h-.3zm-4.2 18.4c-8.2-2.2-16.3-4.8-24.6-6.6-21.2-4.4-42.4-8.7-63.6-12.6-22.4-4.1-45.2-5.1-67.9-3.9-28 1.5-55.3 6.3-79.3 22.2-7.9 5.3-14.9 11.9-22.7 18.2 1.4-5.7 2.5-11.7 4.5-17.4 10.7-30.9 32.3-48.6 64.8-53.3 27.2-4 53.6.5 79.6 7.5 36.1 9.7 70.4 24.3 103.3 42 2 1.1 4 2.1 6.1 3.1 0 .3-.1.6-.2.8z"/></svg>