<svg xmlns="http://www.w3.org/2000/svg" viewBox="0 0 200 200"><path fill="#e5046a" d="M60.8 44.2H162c.1 0 .1.1.2.1 3 .4 6 3.1 5.9 7.2-.1 3 0 6 0 9v.6h28.4c1.1 0 2 .4 2.7 1.2.3.4.5 1 .8 1.5v1.3s-.1 0-.1.1c-.6 1.9-1.7 2.6-3.6 2.6h-28.2v11.3h3.6c2 0 3.5 1.5 3.5 3.4s-1.5 3.3-3.5 3.3h-3.6v11.4h21.6c2 .1 3.4 2 3 4-.3 1.6-1.7 2.7-3.4 2.7h-21.4v30.3c0 4-3 7-7 7h-20.5c0 .1 0 .2-.1.2-1.6 6.7-5.6 11.3-12.1 13.5-1.3.5-2.8.6-4.2.9h-2.7c-.1 0-.3-.1-.4-.1-7.3-1-12.4-4.9-15.1-11.8-.3-.9-.5-1.8-.8-2.7H61.7c-.4 0-.8 0-1.1-.1-.7-.2-1.4-.3-2.1 0-.2.1-.5 0-.7 0h-9.5c0 .2-.1.3-.1.5-1.7 6.8-5.9 11.3-12.6 13.4-1.2.4-2.4.5-3.6.7h-2.8c-.1 0-.3-.1-.4-.1-6-.7-10.6-3.7-13.7-8.9-1-1.7-1.7-3.6-2.1-5.6H3.3c-1.2 0-2.1-.5-2.8-1.5l-.6-1.2V99.8l.1-.1c.6-1.9 1.7-2.6 3.6-2.6h7.2c.4 0 .6-.1.8-.4 4.4-7.6 8.7-15.2 13.1-22.8.8-1.4 1.9-2 3.5-2h26.4V51.3c0-3.1 1.8-5.7 4.7-6.7.6-.2 1-.3 1.5-.4zm.9 6.8c-.1 27.8-.2 55.5-.2 83.3 14.6.1 29.2.1 43.8.2 2-9.7 11-15.8 20.4-14.4 7 1.1 13.2 6.3 14.9 13.9.1.4.2.5.6.5h20v-30.6h-22.7c-.5 0-1-.1-1.5-.3-1.4-.6-2.2-2.2-1.9-3.7.3-1.6 1.6-2.7 3.2-2.7h22.8V85.8h-40.6c-2.4-.1-4-2.3-3.2-4.5.5-1.4 1.7-2.2 3.3-2.2h40.5V67.8h-15.7c-.2 0-.5 0-.7-.1-1.7-.3-2.9-1.9-2.7-3.6.2-1.8 1.6-3.1 3.4-3.1h15.9V51c-33.2.2-66.3.1-99.6 0zm-7 52.9h-48v30.6h5.8c.5 0 .6-.2.7-.6 2.1-9.2 10.9-15.2 20.3-13.8 7.3 1.1 13.3 6.7 14.8 14 .1.4.2.5.6.4h5.8v-30.6zm0-25.2H30.1c-.2 0-.4.2-.5.3L19.4 96.7c-.1.1-.1.3-.2.4h35.5V78.7zm-12.6 59.1c0-6.2-5.1-11.3-11.3-11.3-6.3 0-11.3 5.1-11.3 11.3 0 6.2 5.1 11.3 11.3 11.3 6.2 0 11.3-5 11.3-11.3zm92.2.1c0-6.3-5-11.4-11.3-11.4-6.3 0-11.4 5.1-11.4 11.4 0 6.2 5.1 11.3 11.3 11.3 6.2 0 11.3-5.1 11.4-11.3z"/></svg>