<svg xmlns="http://www.w3.org/2000/svg" id="Layer_552_xA0_Изображение_1_" x="0" y="0" version="1.1" viewBox="0 0 75 75" xml:space="preserve"><style>.st0{fill:#e5046a}</style><path d="M36.1 67c-.1-.1-.1-.2-.2-.2L13.4 44.3.2 31.1c0-.1-.1-.1-.2-.2.1 0 .1-.1.2-.1l6.2-6.2 8-8 .1-.1c12 12 24.1 24 36.1 36.1l-.2.2C47 56.2 43.6 59.6 40.3 63l-3.9 3.9c-.2 0-.2.1-.3.1zm-31-36.1l31 31 9.3-9.3c-10.3-10.3-20.7-20.6-31-31l-9.3 9.3zM36.1 8c.1.2.1.4.2.6 3.5 10.9 7 21.9 10.5 32.8.7 2.1 1.3 4.2 2 6.2 0 .1 0 .1.1.3l-.1-.1-.1-.1-11.2-11.2-19.8-19.8c-.1-.1-.2-.2-.2-.4l-.6-1.8c0-.1 0-.1-.1-.2.1 0 .1-.1.2-.1 4.8-1.5 9.5-3.1 14.3-4.6 1.6-.5 3.2-1 4.7-1.5 0-.1 0-.1.1-.1zM41 34.9c-2.4-7.5-4.8-14.9-7.2-22.4-.2 0-11.4 3.6-11.5 3.7L41 34.9zm34-5.8c-.1 0-.1.1-.2.1-5.3 5-10.5 10-15.8 15-2.1 2-4.1 3.9-6.2 5.9-.1.1-.1.1-.2.1 2.8-11.9 5.6-23.9 8.4-35.8l.2.2c2.9 3 5.7 6 8.6 9.1 1.6 1.7 3.3 3.5 4.9 5.2.2 0 .2.1.3.2 0-.1 0 0 0 0zm-11.9-7.5c-1.4 5.9-2.8 11.8-4.1 17.7 3.7-3.5 7.3-7 11-10.5-2.3-2.3-4.6-4.7-6.9-7.2zM39 8.2c6.6 1.6 13.2 3.1 19.9 4.7-2.6 11.1-5.2 22.3-7.8 33.4 0-.1-.1-.1-.1-.2-.6-2-1.3-3.9-1.9-5.9-3-9.5-6.1-19-9.1-28.6-.3-1-.6-1.9-.9-2.9-.2-.1-.2-.3-.1-.5zm11.5 24.7c0-.1 0-.1 0 0 1.4-5.8 2.7-11.5 4.1-17.3h-.1c-3.4-.8-6.8-1.6-10.3-2.4 2.1 6.5 4.2 13.1 6.3 19.7z" class="st0"/><path d="M36.2 49.7c1.7 0 3.1 1.4 3.1 3.1 0 1.7-1.4 3.1-3.1 3.1-1.7 0-3.1-1.4-3.1-3.1 0-1.7 1.4-3.1 3.1-3.1z" class="st0"/></svg>