<svg xmlns="http://www.w3.org/2000/svg" id="Слой_1" x="0" y="0" version="1.1" viewBox="0 0 212.6 212.6" xml:space="preserve"><style>.st0{fill:#e5046a}</style><path d="M188.8 185v-13.7H182V37.7C182 16.9 165.1 0 144.3 0c-20.8 0-37.7 16.9-37.7 37.7v61.7c0 1.9-1.5 3.4-3.4 3.4H80.3c-5.8-1.6-11.9-2.7-18.2-3.2V89.1H31.2v10.3h-6.9c-13.2 0-24 10.8-24 24v44.5C.3 177.3 8 185 17.4 185h19.1c4.1 10 13.9 17.1 25.4 17.1 11.5 0 21.3-7.1 25.4-17.1h29.4c9.4 0 17.1-7.7 17.1-17.1 0-17.9-7.5-33.9-19.9-46 7.6-3 13.1-10.4 13.1-19.1V37.7c0-9.4 7.7-17.1 17.1-17.1s17.1 7.7 17.1 17.1v133.6h-6.9V185h-24v27.4h82.2V185h-23.7zM38.1 95.9h17.1v3.4H38.1v-3.4zm24 99.4c-11.3 0-20.6-9.2-20.6-20.6s9.2-20.6 20.6-20.6c11.3 0 20.6 9.2 20.6 20.6s-9.3 20.6-20.6 20.6zm65.1-27.5c0 5.7-4.6 10.3-10.3 10.3H89.2c.1-1.1.2-2.3.2-3.4 0-15.1-12.3-27.4-27.4-27.4s-27.4 12.3-27.4 27.4c0 1.2.1 2.3.2 3.4H17.5c-5.7 0-10.3-4.6-10.3-10.3v-44.5c0-9.4 7.7-17.1 17.1-17.1h30.8c40.5 0 72.1 27.1 72.1 61.6zm17.1-154.1c-13.2 0-24 10.8-24 24v65.1c0 7.2-5.6 13-12.6 13.6-3.2-2.5-6.7-4.7-10.4-6.7h5.9c5.7 0 10.3-4.6 10.3-10.3V37.7c0-17 13.8-30.8 30.8-30.8s30.8 13.8 30.8 30.8v133.6h-6.9V37.7c.1-13.2-10.7-24-23.9-24zm17.1 164.4H182v6.9h-20.6v-6.9zm44.5 27.4h-68.5v-13.7h68.5v13.7zm0 0" class="st0"/><path d="M14.1 116.5H21v6.9h-6.9zm0 13.7H21v6.9h-6.9zm48 30.8c-7.6 0-13.7 6.1-13.7 13.7s6.1 13.7 13.7 13.7 13.7-6.1 13.7-13.7S69.6 161 62.1 161zm0 20.5c-3.8 0-6.9-3.1-6.9-6.9 0-3.8 3.1-6.9 6.9-6.9s6.9 3.1 6.9 6.9c-.1 3.9-3.1 6.9-6.9 6.9zm0 0" class="st0"/></svg>