<svg xmlns="http://www.w3.org/2000/svg" id="Layer_1" x="0" y="0" version="1.1" viewBox="-49 141 512 512" xml:space="preserve"><style>.st0{fill:#e5046a}</style><path d="M449.4 316.7L287.3 154.6c-8.8-8.8-20.4-13.6-32.9-13.6-12.4 0-24.1 4.8-32.9 13.6l-257 257C-44.2 420.3-49 432-49 444.4c0 12.4 4.8 24.1 13.6 32.9l20 20L119 631.7h-18.6c-5.9 0-10.7 4.8-10.7 10.7 0 5.9 4.8 10.7 10.7 10.7h213.3c5.9 0 10.7-4.8 10.7-10.7 0-5.9-4.8-10.7-10.7-10.7H200.2l249.2-249.2c18.1-18.2 18.1-47.7 0-65.8zm-457.3 158l-12.5-12.5c-4.7-4.7-7.3-11-7.3-17.8 0-6.7 2.6-13.1 7.3-17.8l257-257c4.7-4.7 11-7.3 17.8-7.3 6.7 0 13.1 2.6 17.8 7.3l57.7 57.7L83.1 474.2c-4.2 4.2-4.2 10.9 0 15.1 2.1 2.1 4.8 3.1 7.5 3.1s5.5-1 7.5-3.1L345 242.5l89.3 89.3c9.8 9.8 9.8 25.8 0 35.6l-257 257c-4.7 4.7-11 7.3-17.7 7.3h-.1c-6.7 0-13-2.6-17.7-7.3L7.2 489.7" class="st0"/><path d="M213.8 449.1c-4.2-4.2-10.9-4.2-15.1 0L114.8 533c-4.2 4.2-4.2 10.9 0 15.1 2.1 2.1 4.8 3.1 7.5 3.1s5.5-1 7.5-3.1l83.9-83.9c4.3-4.2 4.3-11 .1-15.1zm-34.4 79.6L145 563.2c-4.2 4.2-4.2 10.9 0 15.1 2.1 2.1 4.8 3.1 7.5 3.1s5.5-1 7.5-3.1l34.4-34.4c4.2-4.2 4.2-10.9 0-15.1-4.1-4.2-10.9-4.2-15-.1zm31.7-31.6l-4.5 4.5c-4.2 4.2-4.2 10.9 0 15.1 2.1 2.1 4.8 3.1 7.5 3.1s5.5-1 7.5-3.1l4.5-4.5c4.2-4.2 4.2-10.9 0-15.1-4.1-4.2-10.9-4.2-15 0zm147-192.3c-2-2-4.7-3.1-7.5-3.1s-5.5 1.1-7.5 3.1L297.7 350c-2 2-3.1 4.7-3.1 7.5s1.1 5.5 3.1 7.5l30.2 30.2c2.1 2.1 4.8 3.1 7.5 3.1s5.5-1 7.5-3.1l45.3-45.3c4.2-4.2 4.2-10.9 0-15.1l-30.1-30zm-22.7 67.9l-15.1-15.1 30.2-30.2 15.1 15.1-30.2 30.2zM58.2 499.1l-4.5 4.5c-4.2 4.2-4.2 10.9 0 15.1 2.1 2.1 4.8 3.1 7.5 3.1s5.5-1 7.5-3.1l4.5-4.5c4.2-4.2 4.2-10.9 0-15.1-4.1-4.2-10.8-4.2-15 0z" class="st0"/><path id="MF7hBB.tif" d="M48.4 392.7c4.9-4.9 9.4-9.5 14-13.9.4-.4 1.8-.2 2.6.1 6.5 2.6 13 5.4 19.5 8 3.6-4.5-2.2-12.9-10.8-14.6-1.4-2.8-.8-5.6.9-8.2 5.2-7.7 14.6-8.7 19.5-2 3.8 5.2 4.5 11.1 3.3 17.2-.5 2.9-1.4 5.7-2.6 8.3-1 2.2-.3 3.1 1.6 3.7 4.3 1.3 8.7 2.5 13 3.7 4 1.1 7.9 2.3 11.9 3.4.6.2 1.1.7 2.5 1.4-3.1 2.9-5.9 5.5-8.7 8.1-1.2 1.1-2.2 2.2-3.4 3.4-4.1 4.1-4.4 4-9.8 1.5-5.1-2.4-10.4-4.4-15.5-6.6-2.1 3.7.1 9.1 4.5 11.5.2.1.4.2.5.2 2.5 1 5.7 1.2 5.7 5-.1 4.8-1.6 8.8-6 11.3-9.3 5.2-17.6-3.2-18.6-11.5-.8-6.7.7-12.9 3.7-18.8.8-1.6.4-2.2-1.2-2.7-8.8-2.8-17.4-5.6-26.6-8.5zm153.7-77.5c-6-.1-10.3-1.9-14-5.4-9.6-9-15.6-20-16.7-33.2-.7-8.3 2.1-15.6 9-20.8 5-3.8 13.4-1.7 15.7 3.7 1.8 4.2 1.9 8.4.2 12.4-1.7 3.9-4.1 7.5-6.2 11.2-.3.5-.8.9-.9 1.5-.1.7.1 1.4.2 2.1.6-.3 1.4-.4 1.9-.8 1.8-2.1 3.3-4.4 5.3-6.3 7.3-7 16.2-4.8 21.5 3.3 7.6 11.7.3 28.1-12.5 31.7-1.4.4-2.9.5-3.5.6zm8.6-15.8c-1.3-2.9-2-5.6-3.5-7.7-3.6-5-9.4-5.3-12.5.6-.3.6-.4 1.9 0 2.3 2.6 2.8 5.2 5.7 8.2 8.1 1.1.9 3.3 1 4.6.5 1.3-.5 2-2.3 3.2-3.8zM187 280.1c.1-4 .3-7.7 0-11.3-.1-.9-1.9-1.9-3-2.3-.6-.2-1.8 1.1-2.3 1.9-1.1 2.3 2 9.9 5.3 11.7zm-64.6 69.7c-3.3-5-3.3-5 .8-9.1 2.3-2.3 4.5-4.7 7.1-7.4 1.7 2.3 3.2 4.3 4.7 6.2 4.4 5.5 8.8 11.1 13.3 16.5 1.7 2.1 3.7 3.7 6.8 3.3.5-.1 1.7.9 1.7 1.5 0 6.2-3.6 13.4-11.3 13.1-1.3-.1-2.6-1.1-4-1.6-.6-.2-1.2-.1-1.9-.2.8 6.3.9 11.9-4.2 16.4-4.4 3.9-9.1 3.1-13.8 1.1-6.1-2.6-10.4-7.2-13.6-12.9-2.9-5.2-4.3-10.6-3-16.3 1.5-6.8 7.6-12.9 15.9-10.5.3 0 .7-.1 1.5-.1zm-3.9 11.6c1.1 4.7 3.8 9.6 8.8 12.9 2 1.3 4.5 2 6.7.3s2.3-4.1 1.7-6.6c-1.3-5.1-4.4-9.1-8.6-11.9-4.4-2.9-8.7-.5-8.6 5.3zm143.7-109.6c1 5.1-.2 9.3-3.9 12.5-3.8 3.4-8 3-12.8.2 0 3.3.4 6-.1 8.6-1.8 10.5-10.2 13.2-17.8 9.5-8.7-4.3-14.9-11.3-17-21.1-1.2-5.9-.3-11.3 4.2-15.9 3.2-3.2 6.8-4 11-3.1.5.1 1 .3 2.1-.1-.7-.9-1.5-1.6-1.9-2.6-.4-.9-.7-2.5-.2-3 3.3-3.5 6.8-6.8 10.5-10.5 2.3 3.1 4.4 6.1 6.7 9 3.8 4.8 7.6 9.5 11.5 14.2 2.1 2.5 4.6 3 7.7 2.3zm-19.9 11.6c-.6-5.6-5.7-12.1-9.9-14.4-2.1-1.2-4.4-1.9-6.4.1-2 1.9-1.8 4.2-1.2 6.8 1.2 5 4.7 8.1 8.3 11.1 1.5 1.3 3.9 2.7 5.9 1 1.4-1.2 2.2-3.1 3.3-4.6zm-48.9 65c-3.7 3.9-7.1 7.5-11 11.6-3.9-5.1-7.5-9.7-11.1-14.4-2.9-3.7-5.8-7.4-8.8-11.1-1.1-1.4-2.1-1.2-3.2 0-.6.7-1.2 1.3-1.9 1.9-1.5 1.2-1.1 2.2-.1 3.5 4.4 5.7 8.9 11.3 12.8 17.3 1.8 2.7 2.5 6.3 3 9.6.8 5.3-4.8 10.8-9.7 11-3.9.2-6.4-2.3-6.3-6.2.3-6.1-1.7-11.6-4.8-16.7-2.9-4.7-6-9.2-9.1-13.8 6.8-9.5 14.6-17.9 24.6-24.7 8.7 10.8 17.1 21.3 25.6 32zm84.5-126.7c1.2.9 2.3 1.3 2.8 2.1 2.6 4.1 2.2 10.7-1.4 14-3.6 3.4-7.8 6.1-11.8 9.1-3.7 2.8-7 6-7.2 11.1-3.4-2.2-5-9.2-3.5-13 2.1-5.2 6.6-8 11.1-10.5 5.1-2.8 9.7-5.6 10-12.8zM40.6 459.8c-4.8-2.6-5.3-12.9-1-16.6 3.7-3.2 7.9-5.8 11.9-8.5 3.9-2.6 6.8-5.8 7.1-10.7 4.5 2.3 6 10.2 1.8 14.9-2.8 3.2-6.3 5.9-9.8 8.3-4.7 3.2-9.2 6.3-10 12.6z" class="st0"/></svg>