<svg xmlns="http://www.w3.org/2000/svg" id="Layer_8370_Изображение" data-name="Layer 8370 Изображение" viewBox="0 0 414 446"><defs><style>.cls-1{fill:#e50469}</style></defs><path d="M257 1c-.08 1.83-.22 3.65-.22 5.48v287.31l1.42.85 112.1-112.09 30.7 30.79c-5.92 6.07-12.83 13.09-19.67 20.17-6.67 6.9-13.13 14-19.94 20.75-9.45 9.38-19.23 18.42-28.69 27.8-11.91 11.82-23.59 23.88-35.46 35.76-9.43 9.44-19 18.78-28.49 28.16-6.18 6.1-12.42 12.15-18.57 18.28a21.75 21.75 0 0 1-31.13 0q-26.93-26.81-53.73-53.71l-64.88-64.95q-14.37-14.37-28.74-28.75c-1.28-1.29-2.49-2.65-3.55-3.78L99 182.82c11.72 11.71 24.32 24.35 37 36.93s25.28 24.86 37.82 37.38 24.34 25.56 37.65 37.09c.52-.45 1-.9 1.57-1.34.07-1.47.22-2.94.22-4.41V4.98c0-1.32-.14-2.65-.22-4z" class="cls-1" transform="translate(-28 -1)"/><path d="M28 369h21.52c.1 2.21.24 4 .24 5.72 0 14.83.14 29.66-.06 44.48-.07 4.44 1.09 6.12 5.87 6.12q179.45-.18 358.87 0c4.76 0 5.94-1.59 5.87-6.08-.22-15.81-.08-31.63-.08-48.24H442v76H36l-8-8z" class="cls-1" transform="translate(-28 -1)"/><path d="M28 439l8 8h-8z" class="cls-1" transform="translate(-28 -1)"/></svg>