<svg xmlns="http://www.w3.org/2000/svg" id="Layer_545_xA0_Изображение_1_" x="0" y="0" version="1.1" viewBox="0 0 75 75" xml:space="preserve"><style>.st0{fill:#e5046a}</style><path d="M38 0c.3.1.6.1.9.2 2.2.7 3.7 2.7 3.6 5 0 1.1-.4 2.1-1.1 3-.1.1-.1.2-.1.3v27.7c0 .1 0 .2.1.2 1.3 1 2 2.3 2.3 3.9.8.2 1.5.3 2.3.6 3.3 1 6.3 2.7 8.8 5.1 1.8 1.7 3.2 3.6 4.3 5.8 1 2 1.7 4 2 6.2.1.7.2 1.4.2 2.1v4.2c-.3 1.9-1.8 3.2-3.7 3.2H46.5c-.1 0-.1 0-.2.1 0 .3-.1.5-.2.8-1 3.5-3.3 5.7-6.9 6.5-.3.1-.6.1-.9.1h-1.4c-.3 0-.5-.1-.8-.1-3.4-.6-6.2-3.2-7-6.6-.1-.2-.1-.5-.2-.7H17.5c-1.8 0-3.3-1.2-3.7-3 0-.2-.1-.4-.1-.6v-3.1c.1-3 .7-5.9 2-8.6 1.1-2.3 2.6-4.4 4.4-6.2 3-2.9 6.6-4.8 10.7-5.6.3-.1.4-.2.5-.5.3-1.4 1.1-2.6 2.2-3.6.1-.1.1-.2.1-.2V8.5c0-.1 0-.2-.1-.3-1.2-1.5-1.5-3.2-.8-5 .7-1.8 2.1-2.9 4-3.1h.1c.5-.1.9-.1 1.2-.1zm5.6 42.8c-.7 2.8-3.3 4.6-5.6 4.6-3.3.1-5.4-1.6-6.5-4.6-.3.1-.6.1-.8.2-.5.1-1.1.3-1.6.5-4.1 1.4-7.4 3.9-9.7 7.5-1.8 2.8-2.8 5.9-3 9.2-.1 1.2 0 2.3 0 3.5 0 .1 0 .3.1.4.2.5.7.8 1.3.8h39.7c.8 0 1.4-.5 1.4-1.4v-2.4c0-1.2-.1-2.3-.3-3.4-.8-4-2.6-7.4-5.5-10.1-2.1-2.1-4.7-3.5-7.5-4.4-.8-.1-1.4-.2-2-.4zm-4.9-7.7V9.8c-.8.2-1.6.2-2.5 0v25.3c.9-.1 1.7-.1 2.5 0zm4.9 32.4H31.4c.4 2.5 2.8 4.9 6 5 3.3.1 5.8-2.4 6.2-5zm-6.1-30c-2.1 0-3.7 1.7-3.7 3.7 0 2.1 1.7 3.8 3.7 3.8 2.1 0 3.8-1.7 3.8-3.8 0-2-1.7-3.7-3.8-3.7zM40 5c0-1.4-1.1-2.5-2.5-2.5S35 3.7 35 5c0 1.4 1.1 2.5 2.5 2.5S40 6.4 40 5z" class="st0"/><path d="M18.8 60.7c.2-4.2 1.7-7.8 4.6-10.8.7-.7 1.4-1.4 2.2-1.9.7-.5 1.6-.2 1.9.6.2.5 0 1.1-.5 1.5-1.3.9-2.3 2-3.2 3.3-1.3 1.9-2.1 3.9-2.4 6.2-.1.6-.1 1.1-.1 1.7 0 .7-.6 1.3-1.3 1.3-.7 0-1.2-.6-1.2-1.3v-.6zm8.7-13.1c0-.4.2-.8.7-1.1.9-.4 1.8-.8 2.8-1 .7-.2 1.4.2 1.5.9.2.7-.2 1.3-.9 1.5-.8.3-1.6.5-2.3.8-.9.4-1.8-.2-1.8-1.1z" class="st0"/></svg>