<svg xmlns="http://www.w3.org/2000/svg" id="Layer_1" x="0" y="0" version="1.1" viewBox="0 0 595.3 595.3" xml:space="preserve"><style>.st1{fill:#FFFFFF}</style><path fill="#2E2E2E" d="M308.6 359.4c-31.6 0-54.6-7.2-68.4-21.5-13.9-14.3-21.8-30.2-23.6-47.2v-1h48.6c1.5 9.6 5.8 17.9 12.9 24.9 7.9 7.8 18.6 11.8 31.9 11.8 13.2 0 23.3-3.4 29.7-10 6.2-6.3 10.5-13.4 12.9-21.1 1.4-4.5 2.3-9 2.7-13.4.3-4.2.5-7.8.5-10.5 0-17.1-4.6-29.8-13.8-37.8-9-7.8-19.1-11.9-30-12.1h-1.1c-1.9 0-3.9.1-6.1.4-2.1.2-4.3.6-6.4 1.1-5.7 1.2-11.2 3.2-16.4 6.1-4.8 2.6-8.7 6.1-11.4 10.3h-49.2l15-126.8h152.8V149H268.5l-8.5 65.3 6.6-4.8c8.8-6.4 18-10.9 27.4-13.4 9.5-2.5 19.8-3.8 30.4-3.8 20.8 0 39.7 6.6 56.2 19.7 16.2 12.9 24.4 33.3 24.4 60.5v3.6c-.9 20.8-8.7 40.2-23.4 57.5-14.5 17.1-39.1 25.8-73 25.8z"/><path d="M385.6 116.1v29.4H265.5l-.8 6.1-7.1 54.1-2.1 16.2 13.2-9.7c8.4-6.2 17.3-10.5 26.2-12.8 9.3-2.4 19.2-3.6 29.5-3.6 20 0 38.2 6.4 54 19 15.5 12.4 23.1 31.3 23.1 57.7v3.5c-.9 20-8.4 38.6-22.6 55.3-13.8 16.3-37.4 24.6-70.3 24.6-30.6 0-52.8-6.9-65.9-20.4-12.6-12.9-20-27.1-22.2-42.3h41.8c2 9.1 6.5 17.1 13.4 23.9 8.6 8.5 20.2 12.8 34.3 12.8 14.2 0 25.1-3.7 32.2-11 6.6-6.7 11.2-14.3 13.8-22.5 1.5-4.7 2.4-9.5 2.8-14.2.4-4.3.5-8 .5-10.8 0-18.2-5.1-31.8-15-40.4-9.6-8.3-20.5-12.7-32.2-13h-1.2c-2 0-4.1.1-6.5.4-2.2.3-4.5.6-6.7 1.1-6 1.3-11.9 3.4-17.3 6.4-4.7 2.6-8.6 5.9-11.6 9.9h-43.5L239.5 116l146.1.1m7-7H233.3l-15.8 133.8h55.1c2.5-4.5 6.2-8.1 11.1-10.8s10.1-4.6 15.5-5.7c2-.4 4-.8 6.1-1 2-.2 3.9-.3 5.7-.3h1c10.1.2 19.3 4 27.7 11.3s12.6 19 12.6 35.1c0 2.7-.2 6.1-.5 10.3-.3 4.2-1.2 8.4-2.5 12.6-2.2 7.2-6.3 13.7-12.1 19.7-5.8 5.9-14.9 8.9-27.2 8.9-12.3 0-22.1-3.6-29.4-10.8-7.3-7.2-11.4-15.8-12.3-25.9h-55.5c0 .7.1 1.4.2 2.2.1.8.2 1.6.2 2.5 1.8 17.9 10 34.4 24.5 49.4 14.6 15 38.2 22.5 71 22.5 35.2 0 60.4-9 75.7-27.1 15.2-18 23.3-37.9 24.2-59.7v-3.6c0-28.5-8.6-49.5-25.7-63.2s-36.6-20.5-58.3-20.5c-11 0-21.4 1.3-31.3 3.9s-19.4 7.2-28.6 14l7.1-54.1h120.8v-43.5z" class="st1"/><path fill="#2E2E2E" stroke="#FFF" stroke-linecap="square" stroke-miterlimit="5" stroke-width="7" d="M206.5 430.4v18.7h-40.1v37h-22.8v-96.5h70.2v18.7h-47.4v22.1h40.1zm12.4-40.8h49.5c10.7 0 18.7 2.5 24 7.5s7.9 11.7 7.9 20c0 7-1.6 12.5-4.9 16.3-3.3 3.9-6.9 6.4-11 7.7v.4c5 1.4 8.5 3.8 10.3 7.1 1.8 3.3 2.9 6.9 3.3 10.6.1 1 .2 1.9.2 2.9s.1 1.9.1 2.9v1.4c.1 5.1.3 8.9.6 11.5.3 2.5 1.1 4.8 2.3 6.8.1.3.2.5.4.8.2.3.3.5.5.8h-23.2c-1.4-2-2.3-4.3-2.8-7s-.8-7.2-1-13.5c-.1-3.8-.9-7.3-2.4-10.4s-6-4.7-13.3-4.7h-17.8v35.7h-22.8v-96.8h.1zm22.7 43.3h20.8c.5 0 1 0 1.6-.1.5 0 1-.1 1.6-.1 2.9-.3 5.5-1.4 7.9-3.1s3.6-4.7 3.6-8.9c0-5.4-1.5-8.8-4.6-10.3s-6.7-2.2-10.9-2.2h-20v24.7h0zm139-4.9v17.7h-47.3v21.7h54.9v18.7h-77.6v-96.5H387v18.7h-53.6V428h47.2zm84.1 0v17.7h-47.3v21.7h54.9v18.7h-77.7v-96.5H471v18.7h-53.6V428h47.3z"/><path fill="#2E2E2E" stroke="#FFF" stroke-linecap="square" stroke-miterlimit="5" d="M494.6 249.2c-11.8-11.8-27.6-18.3-44.3-18.3-16.7 0-32.5 6.5-44.3 18.3s-18.3 27.6-18.3 44.3 6.5 32.5 18.3 44.3 27.6 18.3 44.3 18.3c16.7 0 32.5-6.5 44.3-18.3s18.3-27.6 18.3-44.3-6.5-32.4-18.3-44.3h0z"/><circle cx="450.3" cy="293.5" r="55.3" class="st1"/><path fill="#E50469" d="M477.8 274l-31.9 32.9-17.3-16.7c-1.5-1.4-3.8-1.4-5.2.1-1.4 1.5-1.4 3.8.1 5.2l20 19.3c.7.7 1.7 1 2.6 1s1.9-.4 2.6-1.1l34.4-35.6c1.4-1.5 1.4-3.8-.1-5.2-1.5-1.3-3.8-1.3-5.2.1z"/><path fill="#E50469" stroke="#E50469" stroke-miterlimit="5" stroke-width="3" d="M135.5 227.8v-53.2h16.4v53.2h53.2v16.4h-53.3v53.2h-16.3v-53.2H82.3v-16.4h53.2z"/></svg>