<svg xmlns="http://www.w3.org/2000/svg" id="Capa_1" x="0" y="0" version="1.1" viewBox="0 0 595.3 595.3" xml:space="preserve"><style>.st1{fill:#FFFFFF}</style><path fill="#2E2E2E" d="M338.8 394.7c-3.4 0-6.3-2.6-6.8-6l-3.2-25.1-1.2-.1c-11.5-.9-22.6-3.9-33.1-8.9l-1.1-.5-15.4 20c-1.3 1.7-3.3 2.7-5.4 2.7-1.5 0-3-.5-4.2-1.4l-18.5-14.2c-1.4-1.1-2.4-2.7-2.6-4.5-.2-1.8.2-3.6 1.4-5l15.4-20-.8-.9c-7.5-8.8-13.2-18.8-17.1-29.7l-.4-1.1-25.1 3.3c-.3 0-.6.1-.9.1-1.5 0-3-.5-4.2-1.4-1.4-1.1-2.4-2.7-2.6-4.5l-3-23.2c-.2-1.8.2-3.6 1.4-5 1.1-1.4 2.7-2.4 4.5-2.6l25.1-3.2.1-1.2c.9-11.5 3.9-22.6 8.9-33.1l.5-1.1-20-15.4c-3-2.3-3.5-6.6-1.2-9.6l14.3-18.5c1.1-1.4 2.7-2.4 4.5-2.6.3 0 .6-.1.9-.1 1.5 0 3 .5 4.2 1.4l20 15.4.9-.8c8.8-7.5 18.8-13.2 29.7-17.1l1.1-.4-3.3-25.1c-.2-1.8.3-3.6 1.4-5 .6-.8 1.3-1.4 2.2-1.9.7-.4 1.5-.6 2.3-.7l23.2-3c.3 0 .6-.1.9-.1 3.4 0 6.3 2.6 6.8 6l3.3 25.1 1.2.1c11.5.9 22.6 3.9 33.1 8.9l1.1.5 15.4-20c1.1-1.4 2.7-2.4 4.5-2.6.3 0 .6-.1.9-.1 1.5 0 3 .5 4.2 1.4l18.5 14.2c1.4 1.1 2.4 2.8 2.6 4.5.2 1.8-.2 3.6-1.4 5.1l-15.4 20 .8.9c7.5 8.8 13.2 18.8 17.1 29.7l.4 1.1 25.1-3.3c.3 0 .6-.1.9-.1 3.4 0 6.3 2.6 6.8 6l3 23.2c.2 1.8-.3 3.6-1.4 5.1-1.1 1.4-2.7 2.4-4.5 2.6l-25.1 3.3-.1 1.2c-.9 11.5-3.9 22.6-8.9 33.1l-.5 1.1 20 15.4c3 2.3 3.5 6.6 1.2 9.6l-14.3 18.5c-1.1 1.4-2.7 2.4-4.5 2.6-.3 0-.6.1-.9.1-1.5 0-3-.5-4.2-1.4l-20-15.4-.9.8c-8.8 7.5-18.8 13.2-29.7 17.1l-1.1.4 3.3 25.1c.2 1.8-.3 3.6-1.4 5.1-1.1 1.4-2.7 2.4-4.5 2.6l-23.2 3c-.4-.5-.7-.4-1-.4zm-3.4-183.2c-2.5 0-5.1.2-7.6.5-7 .9-13.7 3-19.9 6.3-21.1 11.3-33.2 34.9-30.2 58.6 2 15.4 9.8 29 22.1 38.5 10.2 7.9 22.4 12.1 35.3 12.1 2.5 0 5.1-.2 7.6-.5 7-.9 13.7-3.1 19.9-6.3 21.1-11.3 33.2-34.9 30.2-58.6-2-15.4-9.9-29-22.1-38.5-10.3-8-22.5-12.1-35.3-12.1z"/><path d="M331.7 145.8c2.7 0 4.9 2 5.3 4.6l3.1 23.9.3 2.4 2.4.2c11.3.9 22.3 3.9 32.5 8.8l2.2 1 1.5-1.9 14.7-19.1c.9-1.1 2.1-1.9 3.5-2h.7c1.2 0 2.3.4 3.3 1.1l18.5 14.3c1.1.9 1.9 2.1 2 3.5.2 1.4-.2 2.8-1.1 3.9l-14.7 19.1-1.5 1.9 1.6 1.9c7.4 8.7 13 18.5 16.8 29.2l.8 2.3 2.4-.3 23.9-3.1h.7c2.7 0 4.9 2 5.3 4.7l3 23.1c.2 1.4-.2 2.8-1.1 3.9s-2.1 1.9-3.5 2l-23.9 3.1-2.4.3-.2 2.4c-.9 11.3-3.9 22.3-8.8 32.5l-1 2.2 1.9 1.5 19.1 14.7c2.3 1.8 2.8 5.2 1 7.5l-14.3 18.5c-.8 1.1-2.1 1.8-3.5 2h-.7c-1.2 0-2.3-.4-3.2-1.1l-19.1-14.7-1.9-1.5-1.9 1.6c-8.7 7.4-18.5 13-29.2 16.8l-2.3.8.3 2.4 3.1 23.9c.2 1.4-.2 2.8-1.1 3.9s-2.1 1.9-3.5 2l-23.2 3h-.7c-2.7 0-4.9-2-5.3-4.7l-3.1-23.9-.3-2.4-2.4-.2c-11.3-.9-22.3-3.9-32.5-8.8l-2.2-1-1.5 1.9-14.7 19.1c-1 1.3-2.6 2.1-4.2 2.1-1.2 0-2.3-.4-3.2-1.1l-18.5-14.2c-1.1-.9-1.8-2.1-2-3.5s.2-2.8 1.1-3.9l14.7-19.1 1.5-1.9-1.6-1.9c-7.4-8.7-13-18.5-16.8-29.2l-.8-2.3-2.4.3-23.9 3.1h-.7c-1.2 0-2.3-.4-3.2-1.1-1.1-.9-1.9-2.1-2-3.5l-3-23.2c-.2-1.4.2-2.8 1.1-3.9.9-1.1 2.1-1.9 3.5-2l23.9-3.1 2.4-.3.2-2.4c.9-11.3 3.9-22.3 8.8-32.5l1-2.2-1.9-1.5-19.1-14.7c-2.3-1.8-2.8-5.2-1-7.5L245 185c.8-1.1 2.1-1.8 3.5-2h.7c1.2 0 2.3.4 3.3 1.1l19.1 14.7 1.9 1.5 1.9-1.6c8.7-7.4 18.5-13 29.2-16.8l2.3-.8-.3-2.4-3.1-23.9c-.2-1.4.2-2.8 1.1-3.9.5-.6 1-1.1 1.7-1.4.6-.3 1.2-.5 1.8-.6l23.2-3c-.1-.1.1-.1.4-.1m3.4 183.2c2.6 0 5.2-.2 7.8-.5 7.2-.9 14.1-3.1 20.4-6.5 21.7-11.6 34.1-35.8 30.9-60.1-2-15.8-10.1-29.8-22.7-39.5-10.5-8.1-23-12.4-36.2-12.4-2.6 0-5.2.2-7.8.5-7.2.9-14.1 3.1-20.4 6.5-21.7 11.6-34.1 35.8-30.9 60.1 2 15.8 10.1 29.8 22.7 39.5 10.5 8.1 23.1 12.4 36.2 12.4m-3.4-186.2c-.4 0-.7 0-1.1.1l-23.2 3c-1 .1-2 .4-2.9.9-1 .6-1.9 1.3-2.7 2.3-1.3 1.7-1.9 4-1.7 6.2l3.1 23.9c-11 3.9-21.3 9.8-30.2 17.3l-18.9-14.8c-1.5-1.1-3.3-1.7-5.1-1.7-.4 0-.7 0-1.1.1-2.2.3-4.2 1.4-5.5 3.2l-14.2 18.4c-2.8 3.6-2.1 8.9 1.5 11.7l19.1 14.7c-5 10.5-8.1 21.9-9.1 33.6l-23.9 3.1c-4.6.6-7.8 4.8-7.2 9.3l3 23.2c.3 2.2 1.4 4.2 3.2 5.5 1.5 1.1 3.3 1.7 5.1 1.7.4 0 .7 0 1.1-.1l23.9-3.1c3.9 11 9.8 21.3 17.3 30.2l-14.7 19.1c-1.4 1.8-1.9 4-1.7 6.2.3 2.2 1.4 4.2 3.2 5.5l18.5 14.2c1.5 1.2 3.3 1.7 5.1 1.7 2.5 0 5-1.1 6.6-3.2l14.7-19.1c10.5 5 22 8.1 33.6 9.1l3.1 23.9c.5 4.2 4.1 7.3 8.3 7.3.4 0 .7 0 1.1-.1l23.2-3c2.2-.3 4.2-1.4 5.5-3.2 1.3-1.8 1.9-4 1.7-6.2l-3.1-23.9c11-3.9 21.3-9.8 30.2-17.3l19.1 14.7c1.5 1.1 3.3 1.7 5.1 1.7.4 0 .7 0 1.1-.1 2.2-.3 4.2-1.4 5.5-3.2l14.3-18.5c2.8-3.7 2.1-8.9-1.5-11.7l-19.4-14.6c5-10.5 8.1-21.9 9.1-33.6l23.9-3.1c2.2-.3 4.2-1.4 5.5-3.2 1.3-1.8 1.9-4 1.7-6.2l-3-23.1c-.5-4.2-4.1-7.3-8.3-7.3-.4 0-.7 0-1.1.1l-23.9 3.1c-3.9-11-9.8-21.3-17.3-30.2l14.7-19.1c1.3-1.8 1.9-4 1.7-6.2-.3-2.2-1.4-4.2-3.2-5.5L403 162.3c-1.5-1.1-3.3-1.7-5.1-1.7-.4 0-.7 0-1.1.1-2.2.3-4.2 1.4-5.5 3.2L376.6 183c-10.5-5-21.9-8.1-33.6-9.1l-3.1-23.9c-.5-4.2-4.1-7.2-8.2-7.2zm3.4 183.2c-12.4 0-24.4-4.1-34.4-11.7-12-9.2-19.6-22.5-21.5-37.5-3-23.2 8.8-46.1 29.4-57.1 6-3.2 12.5-5.3 19.4-6.2 2.5-.3 4.9-.5 7.4-.5 12.4 0 24.4 4.1 34.4 11.7 12 9.2 19.6 22.5 21.6 37.5 3 23.1-8.8 46.1-29.4 57.1-6 3.2-12.5 5.3-19.4 6.2-2.6.3-5 .5-7.5.5z" class="st1"/><path fill="#FFF" stroke="#E50469" stroke-miterlimit="10" stroke-width="7" d="M109 407.4c1.8.5 3.7.3 5.4-.6l11.7-6.3c4.3 4.8 9.3 8.8 14.8 12l-3.8 12.7c-1.1 3.7 1 7.7 4.8 8.8l13.8 4.1c1.8.5 3.7.3 5.4-.6 1.6-.9 2.9-2.4 3.4-4.2l3.8-12.8c6.4.3 12.8-.3 19-2l6.3 11.7c1.9 3.4 6.1 4.7 9.6 2.8l12.6-6.9c3.4-1.9 4.7-6.1 2.8-9.6l-6.3-11.7c4.8-4.3 8.8-9.3 12-14.8l12.8 3.8c1.8.5 3.7.3 5.4-.6 1.6-.9 2.9-2.4 3.4-4.2l4.1-13.8c1.1-3.7-1-7.7-4.8-8.8l-12.7-3.8c.3-6.4-.3-12.8-2-19l11.7-6.3c3.4-1.9 4.7-6.1 2.8-9.6l-6.9-12.7c-.9-1.6-2.4-2.9-4.2-3.4s-3.7-.3-5.4.6l-11.7 6.3c-4.3-4.7-9.3-8.8-14.8-12l3.8-12.8c.5-1.8.3-3.7-.6-5.4-.9-1.6-2.4-2.9-4.2-3.4l-13.8-4.1c-1.8-.5-3.7-.3-5.4.6-1.6.9-2.9 2.4-3.4 4.2l-3.7 13.2c-6.4-.3-12.8.3-19 2l-6.3-11.7c-1.9-3.4-6.1-4.7-9.6-2.8l-12.7 6.9c-.1 0-.2.1-.3.1-1.5.9-2.6 2.3-3.1 4-.5 1.8-.3 3.7.6 5.4l6.3 11.7c-4.8 4.3-8.8 9.3-12 14.8l-12.8-3.8c-1.8-.5-3.7-.3-5.4.6-1.6.9-2.9 2.4-3.4 4.2L92.9 344c-1.1 3.7 1 7.7 4.8 8.8l12.8 3.8c-.3 6.4.3 12.8 2 19l-11.7 6.3c-3.4 1.9-4.7 6.1-2.8 9.6l6.9 12.6c.8 1.5 2.3 2.8 4.1 3.3h0zm33.5-32c-8.6-16-2.8-35.9 13.2-44.6 15.9-8.6 36-2.7 44.6 13.2 8.4 15.5 3.2 34.8-12 43.9-.4.2-.8.5-1.3.7-15.8 8.7-35.8 2.7-44.5-13.2h0z"/><path fill="#2E2E2E" stroke="#FFF" stroke-linecap="square" stroke-miterlimit="5" d="M488.3 345.7c-11.8-11.8-27.6-18.3-44.3-18.3-16.7 0-32.5 6.5-44.3 18.3s-18.3 27.6-18.3 44.3c0 16.7 6.5 32.5 18.3 44.3s27.6 18.3 44.3 18.3c16.7 0 32.5-6.5 44.3-18.3s18.3-27.6 18.3-44.3-6.5-32.5-18.3-44.3z"/><circle cx="444" cy="390" r="55.3" class="st1"/><path fill="#E50469" d="M471.5 370.5l-31.9 32.9-17.4-16.7c-1.5-1.4-3.8-1.4-5.2.1s-1.4 3.8.1 5.2l20 19.3c.7.7 1.7 1 2.6 1s1.9-.4 2.6-1.1l34.4-35.6c1.4-1.5 1.4-3.8-.1-5.2-1.4-1.4-3.7-1.3-5.1.1z"/></svg>