<svg xmlns="http://www.w3.org/2000/svg" viewBox="0 0 48.5 48.5"><path d="M17.6 29.5c-3.1 0-5.8 1.9-5.8 4.2 0 2.3 2.2 4.3 5.3 4.3 4.3 0 5.8-1.8 5.8-4.2 0-.3 0-.6-.1-.8-.3-1.3-1.5-2-3.2-3.1-.6-.3-1.3-.4-2-.4zM43.4 0H5.1C2.3 0 0 2.3 0 5.1v38.3c0 2.8 2.3 5.1 5.1 5.1h38.2c2.8 0 5.1-2.3 5.1-5.1V5.1c.1-2.8-2.2-5.1-5-5.1zM23.9 19.2c-.1 1.7-.9 3.2-2.3 4.2-1.3 1-1.5 1.4-1.5 2.3 0 .7 1.4 2 2.1 2.5 1.9 1.1 2.9 3.1 2.8 5.2 0 2.9-2.8 5.8-7.9 5.8-4.5 0-8.2-1.8-8.2-4.7 0-2.9 3.4-5.8 7.9-5.8h1.4c-.7-.6-1-1.4-1.1-2.2 0-.5.2-1 .4-1.5h-.7c-3.2.2-5.9-2.3-6.1-5.5v-.4c0-3.2 3.4-5.9 7-5.9h8l-1.8 1.3h-2.6c1.7.7 2.6 2.7 2.6 4.7zm15.7.6h-5.2V25h-1.3v-5.2h-5.2v-1.3h5.2v-5.2h1.3v5.2h5.2v1.3zm-23-5.4c-2.1-.1-3.5 2-3.1 4.7s2.3 5 4.4 5 3.5-2.1 3.1-4.8-2.3-4.8-4.4-4.9z"/></svg>