<svg xmlns="http://www.w3.org/2000/svg" id="L0001_xA0_Изображение_1_" x="0" y="0" version="1.1" viewBox="0 0 75 75" xml:space="preserve"><style>.st0{fill:#e5046a}</style><path d="M58.6 0c.2.5.6.9.6 1.4v27.5h-2.4V2.5H10.9v2.4h31.3c1.3 0 2.2.4 3.1 1.3 2.6 2.7 5.2 5.3 7.9 7.9.9.9 1.3 1.8 1.3 3.1-.1 3.1 0 6.2 0 9.5h-2.4v-9.6h-7.6c-1.8 0-2-.3-2.1-2V7.6H6.2v65.2H46v2.5H3.5V6.2c.6-.3 1.2-.8 1.9-1 1-.2 2 0 2.7 0 .4-2.2.7-3.7 1-5.2h49.5zM44.9 9.3v5.1h5.2c-1.8-1.8-3.5-3.4-5.2-5.1z" class="st0"/><path d="M52.7 75c-3.5-2-7-4.1-10.5-6.1-4.7-2.7-7.2-6.7-7.2-12.2V38.3c0-1.7.2-2 1.9-2 6 .1 11.1-2 15-6.5.9-1 1.6-.9 2.4.1 3.9 4.5 8.9 6.6 14.9 6.5.7 0 1.4.6 2.1.9v20.8c-.1.2-.2.4-.2.7-.6 4.6-3 7.9-7 10.2-2.3 1.3-4.6 2.6-6.8 3.9-1.2.7-2.4 1.5-3.5 2.2-.3-.1-.7-.1-1.1-.1zm.5-42.9c-4.3 4.4-9.5 6.6-15.7 6.6v18.1c0 4.3 1.9 7.6 5.6 9.8 3 1.8 6.1 3.5 9.1 5.2.7.4 1.3.4 2 0 2.9-1.7 5.9-3.4 8.9-5.1 3.9-2.2 5.9-5.6 5.8-10.1V40.1c0-.5-.1-.9-.1-1.4-6.2 0-11.3-2.2-15.6-6.6zM8.5 21.7v-2.2h31.3v2.2H8.5zm31.3 7.4v2.2H8.5v-2.2h31.3zM8.5 41v-2.2h24V41h-24zm24.1 17.1v2.2h-24v-2.2h24zm0 12h-24v-2.3h24v2.3zm6.3-54.3H23.4v-2.2h15.5v2.2zm-27.8 0H8.9v-2.2h2.2v2.2zm4.9-2.2v2.2h-2.3v-2.2H16zm2.6-.1h2.2v2.2h-2.2v-2.2z" class="st0"/><path d="M66.5 53.1c0 7.4-5.9 13.4-13.2 13.4-7.3 0-13.4-6-13.4-13.3 0-7.3 6.1-13.4 13.3-13.3 7.3 0 13.3 6 13.3 13.2zM42.4 53c-.1 6 4.7 11 10.7 11.1 5.9.1 10.9-4.7 11-10.6.2-6-4.6-11-10.7-11.1-6-.2-10.9 4.6-11 10.6z" class="st0"/><path d="M48.8 56.5c.6-.6 1-1.1 1.6-1.7.8.7 1.5 1.4 2.3 2.1 1-3.4 2-6.7 3.1-10.1.8.3 1.5.5 2.3.7-1.2 4-2.4 8-3.6 11.9-.3 1.1-1.3 1.3-2.2.5-.9-.8-1.7-1.7-2.6-2.6-.3-.2-.6-.4-.9-.8z" class="st0"/></svg>