<svg xmlns="http://www.w3.org/2000/svg" viewBox="0 0 841.9 595.3"><style>.st0{fill:#FAB41E}.st1{fill:#E40520}.st2{fill:#FFFFFF}.st3{fill:none;stroke:#FFFFFF;stroke-width:0.215}.st4{fill-rule:evenodd;clip-rule:evenodd;fill:#4DB45E}.st5{fill-rule:evenodd;clip-rule:evenodd;fill:url(#path24_1_)}.st7{fill:#005CA9}.st8{fill:#F7A823}</style><g id="Слой_3"><linearGradient id="SVGID_1_" x1="420.945" x2="420.945" y1="201.618" y2="390.157" gradientTransform="matrix(1 0 0 -1 0 593.528)" gradientUnits="userSpaceOnUse"><stop offset="0" stop-color="#E71A4A"/><stop offset=".378" stop-color="#F23D44"/><stop offset=".778" stop-color="#FB5D3F"/><stop offset="1" stop-color="#FF693D"/></linearGradient><path fill="url(#SVGID_1_)" d="M196.8 385.3c-4.8-9.2-9.7-18.3-14.5-27.5L159.2 314c-1.8-3.4-3.5-6.7-5.3-10.1 16.2-4.9 31.7-13.2 43.5-25.4 12-12.4 20.2-29.5 16.2-47-1.8-7.8-6.1-15-12.5-19.8-6.8-5-15.2-7-23.5-6.7-7.9.3-16.1 2.3-22.5 7.2-3 2.3-6.1 5.3-7.5 9-.6 1.5-.6 2.3.3 3.5 1.1 1.3 1.9 2.8 2.7 4.3 4.2 8.1 6.4 17.9 5.3 27-1.1 9.3-6.3 16.7-14.2 21.5-5.8-14.9-11.6-29.7-17.5-44.6-2.6-6.6-5-13.3-7.8-19.8-.7-1.7-1.6-2.1-3.3-2.1H73c-6.7 0-13.6-.4-20.3 0-2.3.2-1.8 1.6-1.1 3 1.2 2.3 2.3 4.6 3.5 6.9 4.2 8.3 8.3 16.6 12.5 24.8 4.7 9.4 9.5 18.9 14.2 28.3 1.8 3.6 3.6 7.1 5.4 10.7 1 2 2.4 4.1 3.1 6.2.1.3.3.6.4.9-16.1 4.7-31.4 12.8-43.7 24.3-12.3 11.5-21.9 27.6-19.4 45 2.4 16.4 15.5 29.2 32 30.6 8.2.7 16.5-1.4 23.4-5.9 3.3-2.2 6.4-4.9 8.8-8 1.5-1.9 5.3-6.5 4-9.2-.7-1.5-2.2-3-3-4.6-1-1.9-1.9-3.9-2.6-5.9-1.6-4.8-2.4-9.8-2.1-14.9.6-9.5 6.1-17.3 13.6-22.7 7.7 18.8 15.4 37.7 23.1 56.5 1.1 2.7 2.1 5.5 3.3 8.1 1 2 3.7 1.4 5.7 1.4h60.4c.5 0 1 .1 1.4 0 .7-.1 2.2-.7 1.2-1.2zm157.6-50c2.1-15.6 4.5-31.2 6.8-46.7 1.1-7.2 2.2-14.4 3.3-21.7.2-1.2 1.5-4.9-.1-5.6-.3-.1-1 0-1.3 0h-42.9c-1.5 0-3.6-.4-5 .1-2 .7-1.8 5.1-2 6.7-.5 3.9-1 7.7-1.5 11.6-3.4-7.9-8.8-15-16.5-19.2-7.9-4.3-17.3-4.8-26-3.3-18.4 3.3-32.2 17.5-40.1 33.8-8.4 17.4-11.1 37.9-7.7 56.9 3 17 11.9 35.9 30 40.7 21.3 5.6 40.4-9.6 51.2-26.5.5 8 3.5 15.9 9.7 21.2 6.4 5.4 15.2 7.4 23.4 6.6 8.8-.9 17.7-5.1 24-11.2 1.8-1.8 6.8-6.6 3.8-9-1.4-1.2-3.1-1.9-4.5-3.2-1.3-1.3-2.3-2.8-3-4.5-3.7-8.2-2.6-18.3-1.6-26.7zm-68.9 20.5c-12.2-.2-14.8-14.5-14.8-24.1 0-11.1 2.2-23.7 8.4-33.2 2.9-4.3 6.9-8.1 12.2-8.9 5.5-.9 10.3 1.7 13.2 6.4 5.7 9.4 4.6 22.8 2.4 33.1-2.1 10.8-8.1 26.5-21.4 26.7zm237.1-91.4c0-.4-.2-1-.7-1 .6 0-.8-.2-1-.3-1-.2-2-.4-2.9-.6-2.1-.4-4.2-.8-6.2-1.1-4-.7-7.9-1.3-11.9-1.8-7.7-1-15.5-1.6-23.2-1.9-15.7-.5-31.4.5-46.9 2.9-3.9.6-7.8 1.3-11.7 2.2-1.5.3-3 .2-3.4 1.8-.3 1.2-.3 2.5-.5 3.7-.9 7-2.1 14.1-3.3 21.1-2.6 15.1-5.9 29.9-12.6 43.7-2.9 6.1-6.5 12-10.8 17.2-2.1 2.5-4.3 4.9-6.8 7.1-2.2 1.9-5.5 3.6-7.1 6.1-1.5 2.3-.2 6.1.5 8.4 1.1 3.4 2.8 6.7 5.1 9.5 4.3 5.4 10.3 9 17.1 10 14 2.1 27.1-4.1 35-15.6 8-11.6 11.2-25.9 13.9-39.5 3.1-15.8 4.9-31.8 5.7-47.8.1-2.3-.4-2.6 1.6-2.6H471c-3 24.4-6 48.9-9 73.3-.7 5.7-1.4 11.5-2.1 17.2-.3 2.2-.5 4.4-.8 6.6-.2 1.2-.8 3 .7 3.4.7.2 1.8 0 2.5 0h41.5c.9 0 2.2.3 3.1 0 1-.3.9-.8 1.1-1.7.4-2.2.6-4.5.9-6.8 1.4-11.5 2.8-23.1 4.3-34.6 2.9-26.3 6.1-52.6 9.4-78.9zm64.4 27.2c.2-1 .5-1.9.7-2.9.1-.4.2-1.4.4-1.7.5-.7 1.6-.5 2.6-.7 5.2-.7 10.3-1.5 15.4-2.6 9.4-2 18.6-5 27.2-9.3 16.9-8.6 32.8-25.5 27.3-45.9-2.5-9.3-9.3-16.8-17.8-21.1-9.4-4.7-20.2-4.9-30.3-3.2-20.3 3.5-37.2 16.6-49.4 32.8-13.2 17.5-21.7 38.7-26.1 60.1-4.3 20.7-6.1 43.8 3.4 63.4 8.9 18.3 26.6 29.1 46.7 30.2 20.6 1.1 41.9-6.4 55.7-22 6.7-7.6 11.3-16.8 13.3-26.7 2-9.8 2.1-20.7-1.7-30.1-8.1-20.2-32.3-26-52-23.8-5.2.7-10.4 1.8-15.4 3.5zm26.8-56.1c4.6 0 6.8 2.7 6 7.3-.8 4.5-3.4 8.3-6.4 11.5-3.1 3.4-6.9 6.3-10.7 8.7-1.7 1.1-3.5 2.2-5.3 3.1-.9.5-2.6 1.9-3.7 1.9 1.8-6.5 3.9-13.1 6.8-19.2 2.5-5.1 6.6-13.2 13.3-13.3zm-1 100.5c-.1 4.4-1.6 9-3.3 13-1.8 4.3-4.4 8.6-8.1 11.4-3.4 2.5-8 3.7-11.9 1.9-3.7-1.7-5.8-5.9-6.8-9.6-2.7-9.8-1.9-20.5-.7-30.4.3-2.3.6-4.6 1-6.9.1-.6.1-1.6.4-2 .4-.4 2-.5 2.5-.6 4.6-1.1 9.6-1.5 14.2-.2 10.6 3 13.3 13.3 12.7 23.4zm190.9-.7c2.1-15.6 4.5-31.2 6.8-46.7 1.1-7.2 2.2-14.4 3.3-21.7.2-1.2 1.5-4.9-.1-5.6-.3-.1-1 0-1.3 0h-42.9c-1.5 0-3.6-.4-5 .1-2 .7-1.8 5.1-2 6.7-.5 3.9-1 7.7-1.5 11.6-3.4-7.9-8.8-15-16.5-19.2-7.9-4.3-17.3-4.8-26-3.3-18.4 3.3-32.2 17.5-40.1 33.8-8.4 17.4-11.1 37.9-7.7 56.9 3 16.9 11.9 35.9 30 40.7 21.3 5.6 40.4-9.6 51.2-26.5.5 8 3.5 15.9 9.7 21.2 6.4 5.4 15.2 7.4 23.4 6.6 8.8-.9 17.7-5.1 24-11.2 1.8-1.8 6.8-6.5 3.8-9-1.4-1.2-3.1-1.9-4.5-3.2-1.3-1.3-2.3-2.8-3-4.5-3.6-8.2-2.5-18.3-1.6-26.7zm-68.9 20.5c-12.2-.2-14.8-14.5-14.8-24.1 0-11.1 2.2-23.7 8.4-33.2 2.9-4.3 6.9-8.1 12.2-8.9 5.5-.9 10.3 1.7 13.2 6.4 5.7 9.4 4.6 22.8 2.4 33.1-2.1 10.8-8.1 26.5-21.4 26.7z"/></g></svg>