<svg xmlns="http://www.w3.org/2000/svg" id="Слой_1" x="0" y="0" version="1.1" viewBox="0 0 595.3 595.3" xml:space="preserve"><style>.st0{fill:#2E2E2E}</style><path d="M246 383c3.1-3.1 3.1-8.2 0-11.3-3.1-3.1-8.2-3.1-11.3 0s-3.1 8.2 0 11.3 8.2 3.1 11.3 0z" class="st0"/><path d="M149.9 512.4c3.1 3.1 8.1 3.2 11.3.1l38.8-38.2c6.6-6.6 8.6-16.3 5.7-24.8l8.3-8c4.5-4.3 10.4-6.7 16.7-6.7H337c18.9 0 36.7-7.2 50.2-20.4.6-.5-4.2 5.1 72.5-86.7 11.4-13.5 9.7-33.7-3.8-45.1-13.4-11.3-33.5-9.7-44.9 3.6l-47.2 48.5c-6-7.3-15-11.9-24.9-11.9h-89.1c-12.7-5.3-26.2-8-40.1-8-38.5 0-72.1 17.8-90.2 51.1-7.6-1.4-15.6.9-21.4 6.6l-38 38.2c-3.1 3.1-3.1 8.2 0 11.3l89.8 90.4zm59.9-181.7c12.2 0 24.1 2.5 35.2 7.3 1 .4 2.1.7 3.2.7H339c8.7 0 16 7.1 16 16 0 8.8-7.2 16-16 16h-65.3c-4.4 0-8 3.6-8 8s3.6 8 8 8H339c17.6 0 32-14.4 32-32 0-1.4-.1-2.8-.3-4.2 45.7-46.9 52.1-53.5 52.4-53.9 5.7-6.7 15.8-7.6 22.6-1.9 6.7 5.7 7.6 15.8 1.9 22.6l-71.8 85.8c-10.5 10.1-24.2 15.6-38.8 15.6H230.7c-10.4 0-20.3 4-27.8 11.2l-6.8 6.6-62.6-62.7c14.6-27.5 42.1-43.1 76.3-43.1zm-100.3 53.1c2.6-2.6 6.7-3.1 9.9-1.1 1.4.8-2.6-2.8 69.3 69 3.2 3.2 3 8.3 0 11.3l-33.1 32.6L77 416.4l32.5-32.6z" class="st0"/><path d="M515.9 333.9C502 320 483.6 312.4 464 312.4s-38.1 7.6-51.9 21.5c-13.9 13.9-21.5 32.3-21.5 51.9s7.6 38.1 21.5 51.9c13.9 13.9 32.3 21.5 51.9 21.5s38.1-7.6 51.9-21.5c13.8-13.9 21.5-32.3 21.5-51.9s-7.6-38-21.5-51.9z" class="st0"/><circle cx="464" cy="385.9" r="67.3" fill="#FFF"/><path fill="#E50469" d="M496.2 363l-37.4 38.7-20.3-19.7c-1.7-1.7-4.4-1.6-6.1.1s-1.6 4.4.1 6.1l23.4 22.7c.9.8 2 1.2 3.1 1.2s2.2-.5 3-1.3l40.4-41.7c1.7-1.7 1.6-4.4-.1-6.1s-4.4-1.7-6.1 0zm-196.7-72.7c-16.3 0-29.4-4.7-39.2-14.2-9.9-9.5-16.8-21.6-20.7-36.3-4-14.7-5.9-30.7-5.9-48 0-17.2 2-33.2 5.9-47.9 4-14.7 10.9-26.8 20.7-36.3 9.8-9.5 22.9-14.2 39.2-14.2 16.4 0 29.5 4.7 39.4 14.2s16.8 21.6 20.8 36.4 6 30.7 6 47.8c0 17.2-2 33.1-6 47.9-4 14.8-10.9 26.9-20.8 36.3-9.9 9.5-23.1 14.3-39.4 14.3zm0-20.4c27.5 0 41.2-26 41.2-78.1 0-52-13.7-78-41.2-78-27.3 0-41 26-41 78 0 8.9.4 17.5 1.2 25.9.8 8.4 2.6 16.7 5.4 24.7s6.9 14.6 12.6 19.7c5.6 5.2 12.9 7.8 21.8 7.8z"/><path d="M367.8 108.1c0-6.6 1.2-11.9 3.5-16.1 2.4-4.1 5.3-7.1 8.8-8.9s7-2.7 10.5-2.7c3.1 0 6.4.8 9.9 2.4s6.5 4.5 9 8.6 3.8 9.6 3.8 16.5c0 4.1-.7 8.2-2 12.4-1.3 4.2-3.7 7.7-7.1 10.7-3.4 2.9-7.9 4.4-13.6 4.4-5.4 0-9.8-1.4-13.2-4.1-3.4-2.7-5.9-6.2-7.4-10.5-1.4-4-2.2-8.4-2.2-12.7zm8.9 0c0 4.8 1 9.4 3.1 13.7s5.7 6.5 10.8 6.5c5.7 0 9.4-2.3 11.2-6.9 1.8-4.6 2.7-9 2.7-13.3 0-6.7-1.3-11.7-3.9-15.2-2.6-3.4-5.9-5.2-9.9-5.2-2.4 0-4.7.7-6.8 2.2-2.1 1.5-3.9 3.8-5.2 6.8-1.3 3.1-2 6.9-2 11.4zm11 70.1l62.7-96.7h9.7l-62.7 96.7h-9.7zm46.1-26.6c0-4.1.7-8.3 2-12.4 1.3-4.2 3.7-7.7 7.1-10.7 3.4-2.9 7.9-4.4 13.6-4.4 4.8 0 8.9 1.2 12.4 3.6 3.4 2.4 6 5.7 7.7 9.8 1.7 4.2 2.6 8.9 2.6 14.1 0 5.6-.8 10.3-2.5 14-1.6 3.7-3.7 6.5-6.1 8.5s-4.9 3.3-7.4 4-4.7 1.1-6.7 1.1c-3.1 0-6.4-.8-9.9-2.5-3.5-1.6-6.5-4.5-9-8.7-2.6-4-3.8-9.5-3.8-16.4zm8.9 0c0 6.7 1.3 11.8 3.9 15.2s5.9 5.1 9.9 5.1c2.5 0 4.8-.7 6.9-2.2s3.8-3.7 5-6.8c1.3-3.1 1.9-6.9 1.9-11.4 0-5.5-1.1-10.3-3.4-14.2-2.2-4-5.7-6-10.4-6-5.7 0-9.4 2.3-11.2 6.9-1.8 4.7-2.6 9.2-2.6 13.4z" class="st0"/></svg>