<svg xmlns="http://www.w3.org/2000/svg" id="Слой_1" x="0" y="0" version="1.1" viewBox="0 0 595.3 595.3" xml:space="preserve"><style>.st0{fill:#2E2E2E}.st1{fill:#E50469}</style><path d="M246 370.6c3.1-3.1 3.1-8.2 0-11.3-3.1-3.1-8.2-3.1-11.3 0s-3.1 8.2 0 11.3c3.1 3.1 8.2 3.1 11.3 0z" class="st0"/><path d="M208.2 180.8c0 48.5 39.5 88 88 88s88-39.5 88-88-39.5-88-88-88c-48.6 0-88 39.5-88 88zm159.9 0c0 39.7-32.3 72-72 72s-72-32.3-72-72 32.3-72 72-72 72 32.3 72 72z" class="st1"/><path d="M149.9 500c3.1 3.1 8.1 3.2 11.3.1l38.8-38.2c6.6-6.6 8.6-16.3 5.7-24.8l8.3-8c4.5-4.3 10.4-6.7 16.7-6.7H337c18.9 0 36.7-7.2 50.2-20.4.6-.5-4.2 5.1 72.5-86.7 11.4-13.5 9.7-33.7-3.8-45.1-13.4-11.3-33.5-9.7-44.9 3.6l-47.2 48.5c-6-7.3-15-11.9-24.9-11.9h-89.1c-12.7-5.3-26.2-8-40.1-8-38.5 0-72.1 17.8-90.2 51.1-7.6-1.4-15.6.9-21.4 6.6l-38 38.2c-3.1 3.1-3.1 8.2 0 11.3l89.8 90.4zm59.9-181.7c12.2 0 24.1 2.5 35.2 7.3 1 .4 2.1.7 3.2.7H339c8.7 0 16 7.1 16 16 0 8.8-7.2 16-16 16h-65.3c-4.4 0-8 3.6-8 8s3.6 8 8 8H339c17.6 0 32-14.4 32-32 0-1.4-.1-2.8-.3-4.2 45.7-46.9 52.1-53.5 52.4-53.9 5.7-6.7 15.8-7.6 22.6-1.9 6.7 5.7 7.6 15.8 1.9 22.6l-71.8 85.8c-10.5 10.1-24.2 15.6-38.8 15.6H230.7c-10.4 0-20.3 4-27.8 11.2l-6.8 6.6-62.7-62.7c14.7-27.4 42.2-43.1 76.4-43.1zm-100.3 53.1c2.6-2.6 6.7-3.1 9.9-1.1 1.4.8-2.6-2.8 69.3 69 3.2 3.2 3 8.3 0 11.3l-33.1 32.6L77 404l32.5-32.6z" class="st0"/><path d="M278.8 202.5h-18.3c-2.2-.3-3.4-2.5-3.1-5.6.2-2.4 1.6-3.9 3.8-3.9h17.6v-4.6h-4.5c-4.4.2-8.7.4-13.1.6-1.7.1-3.1-.9-3.5-2.6-.3-1.1-.3-2.4-.2-3.5.2-1.8 1.5-3.4 4.1-3.3 5.2.2 10.5.2 15.7.3h1.6v-46.1c0-.8 0-1.5.1-2.3.2-2.3 1.9-3.9 4.2-3.9 7.9 0 15.8-.2 23.6.1 6.9.2 13.6 1.6 19.3 5.9 6.4 4.7 9.8 11.1 10.7 18.8.8 7-.1 13.7-3.4 19.9-4.4 8.3-11.6 13.1-20.6 15-4 .8-8.1 1-12.1 1.2-3.6.2-7.2 0-10.8 0h-1.4v4.7h17.4c1.9 0 3.3.9 3.7 2.8.2 1.3.2 2.6 0 3.9-.4 1.9-1.8 2.9-3.7 2.9h-17.4v1.5c0 7.3-.1 14.6 0 21.8 0 2.6-1.5 3.9-3.5 4.2-1.1.1-2.2.1-3.3-.2-1.8-.4-2.7-1.7-2.7-3.6v-22.2c-.2-.7-.2-1.1-.2-1.8zm9.6-22.7c.5 0 .8.1 1.2.1 4.2 0 8.5.1 12.7 0 2.2 0 4.4-.1 6.6-.5 8.1-1.5 14-5.8 16.7-13.8 1.3-3.9 1.6-7.9 1-12-1.1-7.5-4.9-13.2-12.2-15.8-2.8-1-5.8-1.4-8.8-1.6-5.4-.3-10.9-.1-16.3-.1-.3 0-.6.1-.9.1v43.6z" class="st1"/><path d="M515.9 321.6c-13.9-13.9-32.3-21.5-51.9-21.5s-38.1 7.6-51.9 21.5c-13.9 13.9-21.5 32.3-21.5 51.9s7.6 38.1 21.5 51.9c13.9 13.9 32.3 21.5 51.9 21.5s38.1-7.6 51.9-21.5 21.5-32.3 21.5-51.9-7.6-38-21.5-51.9z" class="st0"/><circle cx="464" cy="373.5" r="67.3" fill="#FFF"/><path d="M496.2 350.7l-37.4 38.6-20.3-19.7c-1.7-1.7-4.4-1.6-6.1.1s-1.6 4.4.1 6.1l23.4 22.7c.9.8 2 1.2 3.1 1.2s2.2-.5 3-1.3l40.4-41.7c1.7-1.7 1.6-4.4-.1-6.1-1.7-1.6-4.4-1.6-6.1.1z" class="st1"/></svg>