<svg xmlns="http://www.w3.org/2000/svg" id="Layer_6_xA0_Изображение_1_" x="0" y="0" version="1.1" viewBox="0 0 85 85" xml:space="preserve"><style>.st0{fill:#e5046a}</style><path d="M51.5 0c.5.1 1 .2 1.5.4 1.2.6 2 1.6 2.3 3 0 .1.1.2.2.2 5 1.8 9.5 4.5 13.4 8.2 3.2 3 5.8 6.5 7.8 10.5 1.8 3.5 3 7.2 3.6 11.1.3 1.6.4 3.1.5 4.7v.1c.6 0 1.1.1 1.6.3 1.6.6 2.7 2.2 2.7 3.9v2.9c0 2.1-1.7 4-3.8 4.2h-77C2.2 49.5.4 48 .1 45.9v-4.1c.3-1.6 1.2-2.7 2.6-3.3.5-.2 1.1-.3 1.6-.3v-.3c.1-2.1.3-4.1.8-6.1.7-3.3 1.8-6.5 3.4-9.6 2.2-4.4 5.2-8.1 8.9-11.4 3.7-3.2 7.8-5.6 12.3-7.2.1 0 .2-.1.2-.2.3-1.4 1-2.3 2.3-3 .5-.2 1-.4 1.5-.4h17.8zm26.4 38.3c.3-1.7-1-8-2.3-11.3-2.3-5.9-5.9-10.8-10.8-14.8-2.9-2.3-6-4.1-9.5-5.5v24.5c0 .8-.7 1.5-1.5 1.4-.8 0-1.4-.7-1.4-1.5V4.3c0-.9-.6-1.5-1.5-1.5h-7V34c0 .6-.3 1-.8 1.2s-1 .2-1.5-.2c-.4-.3-.6-.7-.6-1.2v-31h-7.4c-.7.2-1.1.7-1.1 1.5v26.8c0 .7-.5 1.2-1.1 1.4-.7.2-1.3-.1-1.6-.8-.1-.3-.1-.6-.1-.8V6.6c-6.9 2.7-12.5 7.1-16.6 13.2-3.7 5.5-5.7 11.7-6 18.4 23.7.1 47.2.1 70.8.1zm-35.4 2.8H4.3c-.8 0-1.5.6-1.5 1.4v2.9c0 .6.4 1.2 1 1.3.2.1.4.1.6.1h76.2c.9 0 1.4-.6 1.4-1.5v-3c-.2-.7-.7-1.1-1.5-1.1-12.5-.1-25.2-.1-38-.1zM0 64.9c.1-.2.3-.5.4-.7.2-.3.6-.4 1-.4h5.7c0-.4.1-.8.1-1.2.4-2.8 2.7-5.2 5.5-5.7.5-.1 1.1-.2 1.6-.2h56.5c3.3 0 6.1 2.2 6.9 5.5 0 .1 0 .1.1.2h5.8c.8 0 1.3.4 1.5 1.2v11.6c0 .8-.6 1.4-1.4 1.4H78c-.1.3-.1.7-.2 1-1 3.9-4.1 6.8-8.1 7.4-.5.1-1 .1-1.5.1h-8.7c-2.7 0-5.3-.6-7.8-1.8-3.4-1.6-6-4-7.9-7.1-.6-1-1.8-1-2.4 0-2.7 4.4-6.6 7.2-11.6 8.4-1.4.3-2.8.4-4.1.4h-8.8c-2.6 0-4.8-1-6.6-2.7-1.2-1.2-2.1-2.6-2.6-4.2-.2-.1-.2-.1-.4-.1H1.7c-.9 0-1.5-.4-1.7-1.2V64.9zm42.5-5.4H14.2c-2.4 0-4.3 1.9-4.3 4.3v11.4c0 .3 0 .7.1 1 .5 3.5 3.5 6 7.1 6h8.3c1 0 1.9-.1 2.9-.3 3.4-.6 6.3-2.2 8.7-4.8.7-.8 1.4-1.6 1.9-2.5.8-1.3 2.1-2.1 3.6-2.1 1.6 0 2.8.7 3.6 2 .7 1.2 1.5 2.2 2.5 3.2 3 2.9 6.7 4.4 10.9 4.4h8.4c.5 0 1 0 1.5-.1 3.2-.6 5.7-3.5 5.7-6.8V63.7c0-2.3-1.9-4.2-4.2-4.2H42.5zm39.7 14.2v-4.2H78v4.2h4.2zM7.1 70.9H2.9v4.2h4.2v-4.2zm75.1-4.3v-1.4H78v1.4h4.2zM2.9 68h4.2v-1.4H2.9V68z" class="st0"/><path d="M26.1 62.4h9.3c.8 0 1.4.4 1.5 1.1.2.8-.4 1.6-1.3 1.7H17.2c-.8 0-1.3.4-1.5 1.1v5.9c0 .8-.5 1.3-1.3 1.4-.7.1-1.4-.4-1.5-1.2v-6.1c0-2 1.6-3.8 3.6-4.1.3 0 .5-.1.8-.1 2.8.3 5.8.3 8.8.3zm16.4 0h1.6c.7 0 1.3.7 1.3 1.4s-.6 1.4-1.3 1.4H41c-.7 0-1.3-.7-1.3-1.4s.5-1.4 1.3-1.4h1.5z" class="st0"/></svg>