<svg xmlns="http://www.w3.org/2000/svg" viewBox="0 0 409.7 409.7"><style>.st1{fill:#e5046a}</style><g id="ла_1_"><path d="M409.1 209.9c-1.4 4.6-3.4 8.8-6.6 12.5-2.7 3.2-5.4 6.4-8.1 9.7-15.7 18.9-31.6 37.9-47.4 56.8-5.4 6.5-10.7 13-16.3 19.4-4.2 4.8-9.4 8.4-14.9 11.6-11.1 6.4-23 9.7-35.9 9.7H174.3c-7.2 0-13.4 2.4-18.5 7.6-2.2 2.2-4.4 4.3-6.6 6.4-.6.5-.7 1-.5 1.8 2.4 9.2.5 17.3-6.2 24-12.6 12.6-25.4 25.1-38.1 37.6-1.3 1.3-2.9 2.2-4.7 2.7h-2.9c-2.4-.6-4.1-2.2-5.8-3.9-7.5-7.6-15-15.1-22.5-22.6-10.7-10.8-21.4-21.5-32-32.3-10.7-11-21.5-21.9-32.3-32.8-1.7-1.7-3.3-3.4-3.6-6-.2-2.3.3-4.3 1.7-6 .3-.4.7-.8 1.1-1.1 12.5-12.5 25-25.1 37.6-37.6 5.7-5.6 12.6-7.8 20.5-6.8.9.1 1.1-.3 1.4-.9 5.7-10.3 13.1-19.4 22.2-27 11.9-10 25.6-16.5 40.6-20.1 7.3-1.7 14.8-2.7 22.3-3 15.2-.6 29.8 1.9 43.9 7.6.6.3 1.4.3 2.1.3 28.9 0 57.8.1 86.7 0 10.3 0 18.7 3.7 25.5 11.4.1.1.2.3.2.3 2.1-2 4.1-3.8 6.1-5.8 5.4-5.5 10.7-11 16.1-16.5 9.1-9.4 18.1-18.9 27.4-28.1 7-6.9 15.7-9.9 25.4-8.7 14 1.7 23.1 9.6 27.6 22.9l.3.6c-.2 5.5-.2 10.9-.2 16.3zM139.3 331.6c1.8-2.1 3.6-4.1 5.4-6 8-8.1 17.8-12.1 29.2-12.1h105.7c9.7 0 18.7-2.3 27.2-7 4.4-2.5 8.7-5.3 12-9.1 6.8-7.9 13.4-15.9 20-23.9 17-20.4 34.1-40.7 51.1-61.1 3.1-3.6 4.5-7.8 3.8-12.6-.9-6.5-4.5-11-10.7-13.1-6.3-2.1-11.9-.6-16.6 4.1-8.8 8.9-17.4 18-26.2 26.9-8.7 9-17.5 18-26.2 27-.3.3-.5.9-.5 1.4 0 2 .2 4.1 0 6.1-.8 9-4.7 16.4-11.7 22.1-5.9 4.9-12.8 7.2-20.5 7.2h-64.6c-5.7 0-9.5-5.1-8-10.4 1-3.6 4.2-5.8 8.4-5.8h64.7c6.4 0 11.1-3.1 14-8.7 2.9-5.7 2.4-11.3-1.3-16.5-3.3-4.6-7.9-6.7-13.5-6.6h-89.4c-1.5 0-3.1-.3-4.5-.9-12.1-5.1-24.6-7.4-37.7-7-6.7.2-13.3 1-19.8 2.5-19.7 4.7-35.9 14.9-47.7 31.4-2.1 2.9-3.8 5.9-5.6 8.8 21 21.1 41.8 41.9 63 63.3zm-40.9 58.6c10.9-10.8 21.8-21.4 32.6-32.1 3.7-3.6 3.7-8.3.1-12-1.3-1.3-2.6-2.5-3.8-3.8-21.2-21.1-42.3-42.2-63.5-63.3-3.6-3.6-8.3-3.6-11.9 0l-31.2 31.2c-.3.3-.5.6-.8.9 26.2 26.5 52.4 52.8 78.5 79.1zM326.9 88c0 48.9-39.4 88.2-88.6 88-49-.2-88.2-40.7-87.4-89.4.7-47 39.1-86.8 88.5-86.5C288.5.3 327 40.5 326.9 88zm-88-71.8c-39.7 0-72 32.1-72 71.8 0 39.5 31.8 71.3 70.7 71.9 40.5.6 73.2-32.1 73.1-71.9.1-39.7-32.1-71.8-71.8-71.8z" class="st1"/><path d="M183.2 264.1c4.5 0 8 3.6 8 8.1 0 4.4-3.7 8-8.1 8-4.5 0-7.9-3.6-7.9-8.3 0-4.3 3.6-7.8 8-7.8z" class="st1"/><path id="ла" d="M279.2 52.4c-1-3-2.5-5.8-4.3-8.1-1.9-2.4-4.2-4.4-6.8-6-2.7-1.6-5.3-2.8-7.9-3.4-2.6-.6-4.8-1-6.8-1.2-1.9-.2-3.9-.3-5.9-.3H227c-.9 0-1.9.4-2.9 1.1-1 .7-1.5 2-1.5 3.9v47.4l-18.3-.3c-.3 0-.6.1-.9.2-.1.1-2.4.7-2.4 4.5 0 4.5 3.1 4.8 3.2 4.8l18.3-.8V99h-18.3c-.3 0-.6.1-.9.2-.1.1-2.4.7-2.4 4.5 0 4.9 3.6 4.8 3.2 4.8h18.3V133c0 .3.1.6.2.9.1.1.7 2.4 4.5 2.4 4.9 0 4.8-3.6 4.8-3.2v-24.5h18.2c-.4 0 3.2.1 3.2-4.8 0-3.8-2.3-4.4-2.4-4.5-.3-.2-.5-.2-.9-.2h-18v-4.7h13.1c6 0 11.2-.8 15.5-2.3 4.3-1.6 7.9-3.7 10.9-6.6 3-2.8 5.2-6.2 6.8-10.1 1.6-3.9 2.4-8.2 2.4-12.9 0-3.7-.5-7.1-1.5-10.1zm-10.2 20c-1.1 2.8-2.6 5.2-4.6 7.1-2 2-4.5 3.5-7.5 4.6-3 1.1-6.7 1.7-11.1 1.7H232V41.9h14.4c2.4 0 4.9.2 7.6.6 2.7.4 5.3 1.3 7.7 2.8 2.5 1.5 4.6 3.7 6.3 6.8 1.7 3 2.6 6.8 2.6 11.1 0 3.3-.5 6.4-1.6 9.2z" class="st1"/></g></svg>