<svg xmlns="http://www.w3.org/2000/svg" viewBox="0 0 48.5 48.5"><path d="M43.4 48.5H5.1c-2.8 0-5.1-2.3-5.1-5.1V5.1C0 2.3 2.3 0 5.1 0h38.3c2.8 0 5.1 2.3 5.1 5.1v38.3c0 2.8-2.3 5.1-5.1 5.1z"/><path fill="#494f61" d="M32.5 6.2H16.1c-5.3 0-9.6 4.4-9.6 9.8v16.6c0 5.4 4.3 9.8 9.6 9.8h16.3c5.3 0 9.6-4.4 9.6-9.8V16c.1-5.4-4.2-9.8-9.5-9.8zM40 32.6c0 4.2-3.4 7.6-7.5 7.7H16.1c-4.2 0-7.6-3.5-7.5-7.7V16c0-4.2 3.4-7.6 7.5-7.7h16.3c4.2 0 7.6 3.5 7.5 7.7.1 0 .1 16.6.1 16.6z"/><path fill="#494f61" d="M24.3 14.4c-5.4 0-9.7 4.5-9.7 9.9s4.4 9.9 9.7 9.9 9.7-4.5 9.7-9.9-4.4-9.9-9.7-9.9zm0 17.7c-4.3.1-7.8-3.4-7.9-7.6-.1-4.3 3.4-7.8 7.6-7.9 4.3-.1 7.9 3.4 7.9 7.7v.1c.1 4.1-3.4 7.6-7.6 7.7zm10-21.2c-1.6 0-2.9 1.3-3 2.9s1.3 2.9 2.9 3c1.6 0 2.9-1.3 3-2.9v-.1c0-1.6-1.3-2.9-2.9-2.9zm0 4.5c-.9 0-1.7-.7-1.7-1.6 0-.9.7-1.7 1.6-1.7.9 0 1.7.7 1.7 1.6 0 1-.8 1.7-1.6 1.7z"/></svg>