<svg xmlns="http://www.w3.org/2000/svg" id="Group_1_1_" x="0" y="0" version="1.1" viewBox="0 0 60 60" xml:space="preserve"><style>.st0{fill:#f06}</style><path id="Rectangle_1" d="M58.8 4.4v51.1H1.2V4.4h57.6M60 3.2H0v53.5h60V3.2z" class="st0"/><path id="Forma_1" d="M22.7 45.9c-.1-1.1-.7-2.2-1.6-2.9-.8-.6-1.7-.9-2.7-.9-1.3 0-2.6.6-3.4 1.6-.7.9-1.1 2-.9 3.2.1 1.1.7 2.2 1.6 2.9.8.6 1.7.9 2.7.9 1.3 0 2.6-.6 3.4-1.6.7-1 1-2.1.9-3.2zm-1.9 2.4c-.6.7-1.5 1.2-2.5 1.2-.7 0-1.4-.2-2-.7-.7-.5-1.1-1.3-1.2-2.1-.1-.8.1-1.6.7-2.3.6-.7 1.5-1.2 2.5-1.2.7 0 1.4.2 2 .7.7.5 1.1 1.3 1.2 2.1.1.9-.1 1.7-.7 2.3z" class="st0"/><path id="Forma_1_copy" d="M14.1 29c-.1-1.1-.7-2.2-1.6-2.9-.8-.6-1.7-.9-2.7-.9-1.3 0-2.6.6-3.4 1.6-.7.9-1.1 2-.9 3.2.1 1.1.7 2.2 1.6 2.9.8.6 1.7.9 2.7.9 1.3 0 2.6-.6 3.4-1.6.7-.9 1-2 .9-3.2zm-1.9 2.5c-.6.7-1.5 1.2-2.5 1.2-.7 0-1.4-.2-2-.7-.7-.5-1.1-1.3-1.2-2.1-.1-.8.1-1.6.7-2.3.6-.7 1.5-1.2 2.5-1.2.7 0 1.4.2 2 .7.7.5 1.1 1.3 1.2 2.1 0 .8-.2 1.6-.7 2.3z" class="st0"/><path id="Forma_1_copy_2" d="M22.7 12.1c-.1-1.1-.7-2.2-1.6-2.9-.8-.6-1.7-.9-2.7-.9-1.3 0-2.6.6-3.4 1.6-.7.9-1.1 2-.9 3.2.1 1.1.7 2.2 1.6 2.9.8.6 1.7.9 2.7.9 1.3 0 2.6-.6 3.4-1.6.7-.9 1-2.1.9-3.2zm-1.9 2.4c-.6.7-1.5 1.2-2.5 1.2-.7 0-1.4-.2-2-.7-.7-.5-1.1-1.3-1.2-2.1-.1-.8.1-1.6.7-2.3.6-.7 1.5-1.2 2.5-1.2.7 0 1.4.2 2 .7.7.5 1.1 1.3 1.2 2.1.1.9-.1 1.7-.7 2.3z" class="st0"/><path id="Forma_1_copy_5" d="M48.3 12.1c-.1-1.1-.7-2.2-1.6-2.9-.8-.6-1.7-.9-2.7-.9-1.3 0-2.6.6-3.4 1.6-.7.9-1.1 2-.9 3.2s.7 2.2 1.6 2.9c.8.6 1.7.9 2.7.9 1.3 0 2.6-.6 3.4-1.6.7-.9 1-2.1.9-3.2zm-1.9 2.4c-.6.7-1.5 1.2-2.5 1.2-.7 0-1.4-.2-2-.7-.7-.5-1.1-1.3-1.2-2.1-.1-.8.1-1.6.7-2.3.6-.7 1.5-1.2 2.5-1.2.7 0 1.4.2 2 .7.7.5 1.1 1.3 1.2 2.1.1.9-.2 1.7-.7 2.3z" class="st0"/><path id="Forma_1_copy_3" d="M54.6 29c-.1-1.1-.7-2.2-1.6-2.9-.8-.6-1.7-.9-2.7-.9-1.3 0-2.6.6-3.4 1.6-.7.9-1.1 2-.9 3.2.1 1.1.7 2.2 1.6 2.9.8.6 1.7.9 2.7.9 1.3 0 2.6-.6 3.4-1.6.7-.9 1-2 .9-3.2zm-1.9 2.5c-.6.7-1.5 1.2-2.5 1.2-.7 0-1.4-.2-2-.7-.7-.5-1.1-1.3-1.2-2.1-.1-.8.1-1.6.7-2.3.6-.7 1.5-1.2 2.5-1.2.7 0 1.4.2 2 .7.7.5 1.1 1.3 1.2 2.1 0 .8-.2 1.6-.7 2.3z" class="st0"/><path id="Forma_1_copy_4" d="M48.3 45.9c-.1-1.1-.7-2.2-1.6-2.9-.8-.6-1.8-1-2.7-1-1.3 0-2.6.6-3.4 1.6-.7.9-1.1 2-.9 3.2s.7 2.2 1.6 2.9c.8.6 1.7.9 2.7.9 1.3 0 2.6-.6 3.4-1.6.7-.9 1-2 .9-3.1zm-1.9 2.4c-.6.7-1.5 1.2-2.5 1.2-.7 0-1.4-.2-2-.7-.7-.5-1.1-1.3-1.2-2.1-.1-.8.1-1.6.7-2.3.6-.7 1.5-1.2 2.5-1.2.7 0 1.4.2 2 .7.7.5 1.1 1.3 1.2 2.1.1.9-.2 1.7-.7 2.3z" class="st0"/></svg>