<svg xmlns="http://www.w3.org/2000/svg" viewBox="0 0 58.2 58.2"><path fill="#f06" d="M37.7 37.2c-.1-.2-.3-.3-.6-.3-.1 0-.2 0-.3.1-.3.2-.4.6-.2.9l4.8 8.5c.1.2.3.3.6.3.1 0 .2 0 .3-.1.3-.2.4-.6.2-.9l-4.8-8.5zm4.4-2.7c-.1-.1-.3-.2-.4-.2-.2 0-.4.1-.5.2-.1.2-.2.4-.2.6s.1.3.2.5l7.4 6.3c.1.1.3.2.4.2.2 0 .4-.1.5-.2.1-.1.2-.3.2-.5s-.1-.3-.2-.5l-7.4-6.4zm-10.5 3.8h-.1c-.2 0-.3.1-.4.3s-.2.3-.1.5l1.7 9.6c.1.3.3.6.7.6h.1c.2 0 .3-.1.4-.3.1-.1.1-.3.1-.5l-1.7-9.6c-.1-.3-.4-.6-.7-.6zm-4.9 0h-.1c-.3 0-.6.2-.7.6l-1.7 9.6c0 .2 0 .4.1.5s.3.2.4.3h.1c.3 0 .6-.2.7-.6l1.7-9.6c0-.2 0-.4-.1-.5s-.2-.2-.4-.3zm-9.6-3.2c0-.2 0-.4-.2-.5-.1-.2-.3-.2-.5-.2s-.3.1-.4.2l-7.4 6.2c-.3.2-.3.7-.1 1 .1.2.3.2.5.2s.3-.1.4-.2l7.4-6.2c.2-.2.3-.3.3-.5zm4.3 2c-.1-.1-.2-.1-.3-.1-.2 0-.5.1-.6.3l-4.8 8.4c-.1.2-.1.3-.1.5s.2.3.3.4c.1.1.2.1.3.1.2 0 .5-.1.6-.3l4.8-8.4c.1-.2.1-.3.1-.5s-.1-.3-.3-.4zm22.1-10.6c0-.3 0-.6-.1-.9.1-.1.1-.2.1-.3V23c-.1-2.5-1.6-4.8-4.3-6.5-2.7-1.7-6.3-2.7-10.1-2.7s-7.4 1-10.1 2.7c-2.7 1.7-4.2 4-4.3 6.5v2.2c0 .1 0 .2.1.3-.1.3-.1.6-.1.9 0 2.4 1.6 4.6 4.4 6.2 2.7 1.6 6.3 2.4 10.1 2.4s7.4-.9 10.1-2.5c2.7-1.5 4.2-3.7 4.2-6zm-23.9-9.1c2.5-1.6 5.9-2.5 9.5-2.5s7 .9 9.5 2.5c2.4 1.5 3.8 3.6 3.8 5.7-.7-1-1.8-2-3-2.8-2.7-1.8-6.4-2.8-10.3-2.8s-7.6 1-10.4 2.8c-1.2.8-2.2 1.7-2.9 2.7 0-2 1.4-4.1 3.8-5.6zM29.2 34c-3.6 0-7-.8-9.6-2.3-2.5-1.4-3.8-3.3-3.8-5.3s1.3-3.8 3.8-5.3 5.9-2.3 9.5-2.3 7 .8 9.6 2.3c2.5 1.4 3.8 3.3 3.8 5.3s-1.3 3.8-3.8 5.3c-2.6 1.5-5.9 2.3-9.5 2.3zm6.1-11c-1.7-1-3.9-1.5-6.2-1.5s-4.6.5-6.2 1.5c-1.8 1-2.7 2.4-2.7 4 0 1.5 1 2.9 2.8 4 1.7 1 3.9 1.5 6.2 1.5s4.6-.5 6.2-1.5c1.8-1 2.7-2.4 2.7-4 0-1.5-1-2.9-2.8-4zm-.5 7c-1.5.9-3.5 1.4-5.7 1.4s-4.2-.5-5.7-1.4c-1.4-.8-2.2-1.9-2.2-3s.8-2.2 2.2-3c1.5-.9 3.5-1.4 5.7-1.4s4.2.5 5.7 1.4c1.4.8 2.2 1.9 2.2 3s-.8 2.2-2.2 3zM58 18l-.9-1.1c-.4-.6-1.1-1-1.8-.8l-5.5 1.1c-1-1.9-2.9-3.6-5.7-5-4-2.1-9.4-3.3-15.1-3.3-5.7 0-11 1.2-15.1 3.2-2.7 1.4-4.6 3.1-5.6 5L2.9 16c-.7-.1-1.5.2-1.8.8l-.9 1.1c-.2.5-.2 1 0 1.5s.7.8 1.2.9c4.4.8 5.8 1 6.3 1.1.5 2.7 2.7 5.2 6.4 7 .1 0 .2.1.2.1.2 0 .4-.1.5-.3.1-.3 0-.6-.2-.7-3.8-2-5.9-4.5-5.9-7.2s2.1-5.2 5.8-7.2c8-4.2 21.2-4.2 29.3 0 3.8 2 5.9 4.5 5.9 7.2s-2.1 5.2-5.8 7.2c-.3.1-.4.5-.2.7.1.3.5.4.7.2 3.6-1.9 5.8-4.4 6.3-7 .5-.1 1.9-.3 6.2-1.1.5-.1.9-.4 1.2-.9.2-.4.2-1-.1-1.4zM7.5 20.3c-.9-.1-3-.5-6-1-.2 0-.3-.1-.4-.3-.1-.2-.1-.3 0-.5l.9-1.1c.1-.2.4-.4.6-.3l5.2 1.1c-.2.7-.3 1.4-.3 2.1zM57.1 19c-.1.2-.2.3-.4.3-3 .5-5.1.9-6 1.1 0-.7-.1-1.5-.4-2.2l5.2-1.1c.3-.1.5.1.6.3l.9 1.1c.1.2.1.3.1.5z"/></svg>