<svg xmlns="http://www.w3.org/2000/svg" viewBox="0 0 107.2 33.4"><path d="M11 33.1H7.8v-12H3.2v12H0v-15h11v15zm9.2.3c-2 0-3.8-.8-5.2-2.2-2.8-3.1-2.8-7.9 0-11.1 2.7-2.8 7.1-3 10-.4l.4.4c1.4 1.5 2.2 3.5 2.1 5.5.1 4.3-3.1 7.8-7 7.8h-.3zm0-12.5c-1.2 0-2.2.5-2.9 1.4-.8.9-1.2 2.1-1.2 3.3s.4 2.4 1.2 3.3c.7.9 1.7 1.5 2.9 1.5s2.2-.6 3-1.5c.7-.9 1.2-2.1 1.2-3.3s-.4-2.4-1.2-3.3c-.9-.9-1.9-1.5-3-1.4zm16.1.2h-2.8v12h-3.1v-12h-2.8v-3h8.7c.1.1 0 3 0 3zm7.6 12.3c-2 0-3.8-.8-5.2-2.2-1.4-1.5-2.2-3.5-2.1-5.6-.1-2 .7-4.1 2.1-5.5 2.7-2.8 7.1-3 10-.4l.4.4c1.4 1.5 2.2 3.5 2.1 5.5.1 4.3-3.1 7.8-7.1 7.8h-.2zm0-12.5c-1.2 0-2.2.5-2.9 1.4-.8.9-1.2 2.1-1.2 3.3s.4 2.4 1.2 3.3c.7.9 1.7 1.5 2.9 1.5s2.2-.6 3-1.5c.7-.9 1.2-2.1 1.2-3.3s-.4-2.4-1.2-3.3c-.8-.9-1.9-1.5-3-1.4zm20 12.2h-3.3l-3-11-3.1 11h-3.2l4.6-15h3.6l4.4 15zm12.7 0h-3.8l-4.1-6.8v6.8h-3.1v-15h3.1v7l4.4-7h3.4l-4.9 7.5 5 7.5z"/><path d="M83.6 33.4c-4 .1-7.3-3.4-7.3-7.7v-.1c-.1-2 .7-4.1 2.1-5.5 1.3-1.5 3.2-2.2 5.2-2.2s3.8.8 5.2 2.2c1.4 1.5 2.2 3.5 2.1 5.5-.1 4.2-3.3 7.7-7.3 7.8.1 0 0 0 0 0zm0-12.5c-1.2 0-2.2.5-2.9 1.4-.8.9-1.2 2.1-1.2 3.3s.4 2.4 1.2 3.3c1.2 1.6 3.6 1.9 5.2.7.1-.1.2-.1.3-.3l.4-.4c1.5-2 1.5-4.6 0-6.6-.8-.9-1.9-1.5-3-1.4zm19 7.6c0 3-1.7 4.6-5.1 4.6h-4.7v-15h4.6c1.1-.1 2.2.2 3.1.9s1.5 1.8 1.4 3c.1 1.2-.6 2.4-1.6 3 1.5.4 2.5 1.9 2.3 3.5zm-3.8-6c0-.9-.5-1.4-1.6-1.4h-1.3v3h1.2c1.1 0 1.6-.6 1.7-1.6zm-3 4.2v3.4h1.7c1.4 0 2-.6 2-1.7s-.7-1.7-1.9-1.7h-1.8zM36.3 2.3l.1 13.6h-1.7V1h2.9l4.1 12 4.1-12h2.8v14.9h-1.7L47 2.3l-4.7 13.6H41L36.3 2.3zm23.8 13.6l-1.5-4.4H53l-1.5 4.4h-2L54.9 1h1.8l5.4 14.9h-2zM55.7 3.4l-2.2 6.2h4.4l-2.2-6.2zm17.1 9h2.3c-1 2.5-3.5 4.1-6.2 3.8-2 0-3.8-.8-5-2.3-1.4-1.5-2.1-3.5-2-5.6 0-2 .7-3.9 2.1-5.4 1.2-1.5 3-2.2 5-2.2 1.3 0 2.5.3 3.6 1 1.2.7 2 1.7 2.5 3h-2.2c-.9-1.3-2.4-2.1-4-2-1.4 0-2.8.7-3.6 1.7-.9 1.1-1.5 2.5-1.5 3.9 0 1.5.5 3 1.5 4.1.9 1.1 2.2 1.8 3.6 1.8 1.5.1 3-.6 3.9-1.8zm7.8-9.7v13.1h-1.8V2.7H76V.9h7.4v1.8h-2.8zM91.9 14v1.9h-7.1V1h7.1v1.8h-5.3v4.8h5.3v1.7h-5.3v4.8l5.3-.1zm4.2-4.2v6.1h-1.8V1H98c1.2-.1 2.3.3 3.3 1 .9.9 1.4 2 1.3 3.3.1 1.3-.4 2.5-1.4 3.4-.9.8-2.2 1.2-3.4 1.1h-1.7zm0-7.1V8h1.6c2.1 0 3.1-.9 3.1-2.6s-1-2.7-3-2.7h-1.7z"/><path fill="none" stroke="#000" stroke-miterlimit="10" stroke-width=".2" d="M107.1 1.8c-.1.9-.9 1.6-1.7 1.5-.9-.1-1.6-.9-1.5-1.7.1-.9.8-1.5 1.6-1.5.9 0 1.7.8 1.6 1.7h0z"/><path d="M104.7.6h.9c.2 0 .4.1.6.2.3.3.3.7-.1 1-.1.1-.2.1-.4.2l.7 1h-.3l-.6-.9h-.5V3h-.2l-.1-2.4zm.9 1.2c.3 0 .5-.1.5-.4v-.1c0-.3-.2-.5-.5-.5h-.6v1h.6z"/></svg>