<svg xmlns="http://www.w3.org/2000/svg" viewBox="0 0 107 66"><linearGradient id="a" x1="11.79" x2="11.79" y1="143.785" y2="84.517" gradientTransform="matrix(1 0 0 -1 0 138.757)" gradientUnits="userSpaceOnUse"><stop offset="0" stop-color="#FF0024"/><stop offset="1" stop-color="#D6569B"/></linearGradient><path fill="url(#a)" d="M13.6 36.3V0H9.9v40l3.7-3.7z"/><linearGradient id="b" x1="17.558" x2="17.558" y1="143.503" y2="87.561" gradientTransform="matrix(1 0 0 -1 0 138.757)" gradientUnits="userSpaceOnUse"><stop offset="0" stop-color="#FF0024"/><stop offset="1" stop-color="#D6569B"/></linearGradient><path fill="url(#b)" d="M19.4 30.4V0h-3.8v34.1l3.8-3.7z"/><linearGradient id="c" x1="26.3" x2="26.3" y1="143.101" y2="91.901" gradientTransform="matrix(1 0 0 -1 0 138.757)" gradientUnits="userSpaceOnUse"><stop offset="0" stop-color="#FF0024"/><stop offset="1" stop-color="#D6569B"/></linearGradient><path fill="url(#c)" d="M30.3 19.6V0h-7.9v27.5l7.9-7.9z"/><linearGradient id="d" x1="3.083" x2="3.083" y1="144.19" y2="80.088" gradientTransform="matrix(1 0 0 -1 0 138.757)" gradientUnits="userSpaceOnUse"><stop offset="0" stop-color="#FF0024"/><stop offset="1" stop-color="#D6569B"/></linearGradient><path fill="url(#d)" d="M0 0v50l.7-.7 5.5-5.5V0H0z"/><path d="M11 65.7H7.8v-12H3.2v12H0v-15h11v15zm9.2.3c-2 0-3.8-.8-5.2-2.2-2.8-3.1-2.8-7.9 0-11.1 2.7-2.8 7.1-3 10-.4l.4.4c1.4 1.5 2.2 3.5 2.1 5.5.1 4.3-3.1 7.8-7 7.8h-.3zm0-12.5c-1.2 0-2.2.5-2.9 1.4-.8.9-1.2 2.1-1.2 3.3 0 1.2.4 2.4 1.2 3.3.7.9 1.7 1.5 2.9 1.5s2.2-.6 3-1.5c.7-.9 1.2-2.1 1.2-3.3s-.4-2.4-1.2-3.3c-.9-.9-1.9-1.5-3-1.4zm16.1.2h-2.8v12h-3.1v-12h-2.8v-3h8.7c.1.1 0 3 0 3zM43.9 66c-2 0-3.8-.8-5.2-2.2-1.4-1.5-2.2-3.5-2.1-5.6-.1-2 .7-4.1 2.1-5.5 2.7-2.8 7.1-3 10-.4l.4.4c1.4 1.5 2.2 3.5 2.1 5.5.1 4.3-3.1 7.8-7.1 7.8h-.2zm0-12.5c-1.2 0-2.2.5-2.9 1.4-.8.9-1.2 2.1-1.2 3.3 0 1.2.4 2.4 1.2 3.3.7.9 1.7 1.5 2.9 1.5s2.2-.6 3-1.5c.7-.9 1.2-2.1 1.2-3.3s-.4-2.4-1.2-3.3c-.8-.9-1.9-1.5-3-1.4zm20 12.2h-3.3l-3-11-3.1 11h-3.2l4.6-15h3.6l4.4 15zm12.7 0h-3.8l-4.1-6.8v6.8h-3.1v-15h3.1v7l4.4-7h3.4l-4.9 7.5 5 7.5z"/><path d="M83.6 66c-4 .1-7.3-3.4-7.3-7.7v-.1c-.1-2 .7-4.1 2.1-5.5 1.3-1.5 3.2-2.2 5.2-2.2s3.8.8 5.2 2.2c1.4 1.5 2.2 3.5 2.1 5.5-.1 4.2-3.3 7.7-7.3 7.8.1 0 0 0 0 0zm0-12.5c-1.2 0-2.2.5-2.9 1.4-.8.9-1.2 2.1-1.2 3.3 0 1.2.4 2.4 1.2 3.3 1.2 1.6 3.6 1.9 5.2.7.1-.1.2-.1.3-.3l.4-.4c1.5-2 1.5-4.6 0-6.6-.8-.9-1.9-1.5-3-1.4zm19 7.6c0 3-1.7 4.6-5.1 4.6h-4.7v-15h4.6c1.1-.1 2.2.2 3.1.9.9.7 1.5 1.8 1.4 3 .1 1.2-.6 2.4-1.6 3 1.5.4 2.5 1.9 2.3 3.5zm-3.8-6c0-.9-.5-1.4-1.6-1.4h-1.3v3h1.2c1.1 0 1.6-.6 1.7-1.6zm-3 4.2v3.4h1.7c1.4 0 2-.6 2-1.7s-.7-1.7-1.9-1.7h-1.8zM36.3 34.9l.1 13.6h-1.7V33.6h2.9l4.1 12 4.1-12h2.8v14.9h-1.7l.1-13.6-4.7 13.6H41l-4.7-13.6zm23.8 13.6l-1.5-4.4H53l-1.5 4.4h-2l5.4-14.9h1.8l5.4 14.9h-2zM55.7 36l-2.2 6.2h4.4L55.7 36zm17.1 9h2.3c-1 2.5-3.5 4.1-6.2 3.8-2 0-3.8-.8-5-2.3-1.4-1.5-2.1-3.5-2-5.6 0-2 .7-3.9 2.1-5.4 1.2-1.5 3-2.2 5-2.2 1.3 0 2.5.3 3.6 1 1.2.7 2 1.7 2.5 3h-2.2c-.9-1.3-2.4-2.1-4-2-1.4 0-2.8.7-3.6 1.7-.9 1.1-1.5 2.5-1.5 3.9 0 1.5.5 3 1.5 4.1.9 1.1 2.2 1.8 3.6 1.8 1.5.1 3-.6 3.9-1.8zm7.8-9.7v13.1h-1.8V35.3H76v-1.8h7.4v1.8h-2.8zm11.3 11.3v1.9h-7.1V33.6h7.1v1.8h-5.3v4.8h5.3v1.7h-5.3v4.8l5.3-.1zm4.2-4.2v6.1h-1.8V33.6H98c1.2-.1 2.3.3 3.3 1 .9.9 1.4 2 1.3 3.3.1 1.3-.4 2.5-1.4 3.4-.9.8-2.2 1.2-3.4 1.1h-1.7zm0-7.1v5.3h1.6c2.1 0 3.1-.9 3.1-2.6s-1-2.7-3-2.7h-1.7z"/><path fill="none" stroke="#000" stroke-miterlimit="10" stroke-width=".2" d="M107.1 34.4c-.1.9-.9 1.6-1.7 1.5-.9-.1-1.6-.9-1.5-1.7.1-.9.8-1.5 1.6-1.5.9 0 1.7.8 1.6 1.7h0z"/><path d="M104.7 33.2h.9c.2 0 .4.1.6.2.3.3.3.7-.1 1-.1.1-.2.1-.4.2l.7 1h-.3l-.6-.9h-.5v.9h-.2l-.1-2.4zm.9 1.2c.3 0 .5-.1.5-.4v-.1c0-.3-.2-.5-.5-.5h-.6v1h.6z"/></svg>