<svg xmlns="http://www.w3.org/2000/svg" id="svg4987" x="0" y="0" version="1.1" viewBox="0 0 841.9 595.3" xml:space="preserve"><style>.st0{fill:#0066CB}.st3{fill:#231F20}.st4{fill:#FFFFFF}</style><path id="path618" d="M421 455.7c43.1-39 70.1-95.4 70.1-158.1 0-62.7-27-119-70.1-158-37.7-34.3-88.1-55.2-143-55.2-118 0-213.4 95.5-213.4 213.2 0 117.8 95.4 213.3 213.4 213.3 54.8 0 105.2-20.9 143-55.2" class="st0"/><path id="path620" d="M421 455.7c43.1-39 70.1-95.4 70.1-158.1 0-62.7-27-119-70.1-158" class="st0"/><path id="path622" fill="none" stroke="#0066CB" stroke-width=".31" d="M421 455.7c43.1-39 70.1-95.4 70.1-158.1 0-62.7-27-119-70.1-158"/><path id="path624" fill="#CC0001" d="M564.3 84.4c-55.2 0-105.6 20.9-143.3 55.2-7.6 7-14.9 14.6-21.6 22.6h43.1c6 7.1 11.4 14.7 16.2 22.6h-75.5c-4.4 7.2-8.6 14.8-12.4 22.6H471c3.5 7.3 6.3 14.9 8.9 22.6H362c-2.5 7.3-4.8 14.9-6.3 22.6h130.6c3.2 14.6 4.8 29.7 4.8 45.1 0 23.7-3.8 46.5-11.1 67.7H362c2.5 7.7 5.4 15.3 8.9 22.6H471c-3.8 7.8-7.6 15.3-12.4 22.6h-75.5c4.8 7.9 10.5 15.4 16.2 22.6h43.1c-6.7 8-14 15.6-21.6 22.6 37.7 34.3 88.1 55.2 143.3 55.2 117.6 0 213.1-95.5 213.1-213.3.2-117.8-95.3-213.3-212.9-213.3"/><path id="path626" d="M754.8 416.1h1c.3 0 .6 0 .6-.1.3-.2.6-.4.6-.7 0-.3-.3-.5-.6-.7 0-.1-.6-.1-.6-.1h-1v1.6zm0 3.4h-1.3v-6.1h2.5c.6 0 .9 0 1.6.3.3.3.6.9.6 1.5 0 .7-.3 1.3-1 1.5l1 2.7h-1.6l-.6-2.4h-1.3l.1 2.5zm1 2.3c2.9 0 5.4-2.3 5.4-5.2s-2.5-5.2-5.4-5.2c-2.8 0-5.1 2.3-5.1 5.2s2.2 5.2 5.1 5.2zm-7-5.3c0-3.8 3.2-6.9 7-6.9s7 3.1 7 6.9c0 3.8-3.2 6.9-7 6.9s-7-3.1-7-6.9" class="st3"/><path id="path628" d="M244.6 357h-27l15.9-83.1-36.4 83.1h-22.2l-4.4-82.6-17.8 82.6h-24.4l20.6-108.1h42.2l.6 66.9 29.2-66.9h44.7l-21 108.1" class="st3"/><path id="path630" d="M541.1 355.9c-7.3 2-13 2.9-19 2.9-13.6 0-20.9-6.8-20.9-19.3 0-2.5 0-5.1.6-7.9l1.6-8.6 1.3-6.9 12.4-67.1h26.3l-3.8 20.2h13.6l-3.8 21.4h-13.6l-7 36.7c-.3 1.6-.3 2.8-.3 3.6 0 4.5 2.5 6.5 8.9 6.5 3.2 0 5.4-.3 7.3-.8l-3.6 19.3" class="st3"/><path id="path632" d="M435.9 296.8c0 11.1 6 18.8 20.3 24.5 10.8 4.4 12.7 5.7 12.7 9.7 0 5.5-4.8 8-15.5 8-7.9 0-15.5-1.1-24.1-3.5l-3.5 20.3 1 .2 5.1.9c1.6.3 3.8.5 7 .8 6.3.5 11.4.7 14.9.7 28.2 0 41.2-9.3 41.2-29.4 0-12-5.4-19.1-18.7-24.5-11.4-4.5-12.7-5.4-12.7-9.5 0-4.8 4.4-7.2 13-7.2 5.4 0 12.7.5 19.3 1.3l3.8-20.4c-7-1-17.4-1.7-23.5-1.7-30.2.1-40.7 13.6-40.3 29.8" class="st3"/><path id="path634" d="M312.5 317.8c-2.8-.3-4.1-.4-6-.4-14.9 0-22.5 4.5-22.5 13.4 0 5.5 3.8 9 9.5 9 10.8 0 18.7-9 19-22zm18.1 39.2h-22.2l.6-9.1c-7 7.2-15.9 10.7-27.9 10.7-14.6 0-24.4-9.8-24.4-24 0-21.4 17.1-33.9 46.6-33.9 3.2 0 7 .2 10.8.7.9-2.9 1.3-4.2 1.3-5.7 0-5.8-4.8-8-17.1-8-7.6 0-16.2 1-22.2 2.5l-3.5.9-2.5.6 3.8-19.7c13.3-3.4 21.9-4.7 31.7-4.7 22.8 0 34.9 8.9 34.9 25.8 0 4.3-.3 7.6-2.2 17.4l-5.4 31.2-.9 5.6-.6 4.5-.6 3.1-.2 2.1" class="st3"/><path id="path636" d="M404.8 302.7c0-1.8.3-3.3.3-4.5 0-7.1-4.8-11.4-12.7-11.4-8.6 0-14.6 5.6-16.8 15.8l29.2.1zm13 52.4c-9.2 2.4-18.1 3.6-27.3 3.5-29.8 0-45-13.5-45-39.4 0-30.2 19.7-52.4 46.3-52.4 21.9 0 35.8 12.4 35.8 32 0 6.5-1 12.8-3.5 21.7h-52.6c-.3 1.3-.3 2-.3 2.8 0 10.2 7.9 15.4 23.5 15.4 9.5 0 18.1-1.7 27.6-5.5l-4.5 21.9" class="st3"/><path id="path638" d="M674 306.6c0-9.2-3.8-17.9-14.6-17.9-13.6 0-21.9 16-21.9 30.1 0 11.9 5.7 19.9 15.2 19.7 5.7 0 18.1-7.8 20.3-21.5.7-3.1 1-6.6 1-10.4zm26.9 10.5c-3.8 29.2-24.4 42.2-51.7 42.2-29.8 0-41.9-18.2-41.9-40.5 0-31.2 20.3-52.3 52-52.3 27.6 0 42.2 17.4 42.2 39.7.1 5.4.1 5.8-.6 10.9" class="st3"/><path id="path640" d="M709.8 343.5h.9s.3 0 .6-.1.3-.4.3-.7c0-.2 0-.5-.3-.6 0-.1-.6-.1-.9-.1h-.6v1.5zm0 3.4h-1.3v-6.1h2.5c.3 0 1 0 1.6.4.3.3.6.9.6 1.5s-.3 1.3-.9 1.6l.9 2.6h-1.6l-1-2.4h-.9v2.4h.1zm1 2.2c2.9 0 5.1-2.3 5.1-5.2 0-2.9-2.2-5.2-5.1-5.2-2.8 0-5.4 2.3-5.4 5.2 0 2.8 2.5 5.2 5.4 5.2zm-7-5.3c0-3.8 3.2-6.8 7-6.8s7 3.1 7 6.8c0 3.8-3.2 6.9-7 6.9s-7-3-7-6.9" class="st4"/><path id="path642" d="M251.3 350.7h-26.6l15.9-83.1-36.5 83.1H180l-4.4-82.6-15.9 82.6h-24.1l20.6-108.1h41.5l1.9 67 29.5-67h43.1l-20.9 108.1" class="st4"/><path id="path644" d="M547.8 349.7c-7.3 2-13 2.9-19 2.9-13.6 0-20.9-6.8-20.9-19.3 0-2.5.3-5.1.6-7.9l1.6-8.6 1.3-7 12.4-67.1H550l-3.8 20.2h13.6l-3.8 21.4h-13.6l-7 36.7c-.3 1.6-.3 2.8-.3 3.6 0 4.6 2.9 6.5 9.2 6.5 2.9 0 5.1-.3 7-.8l-3.5 19.4" class="st4"/><path id="path646" d="M616 288.1l-.6-2.8 5.4-13.8c-1.3-.1-1.9-.2-1.9-.3-1.6-.3-2.2-.5-2.5-.5-.6-.2-1.6-.2-2.5-.2-8.9 0-14.9 3.9-23.2 14.3l2.9-15.6H566L549.7 357H576c3.5-20.1 5.1-31.6 7.3-41.1 3.5-15.8 15.2-23 23.8-21.4.9.2 1.6.2 2.8.7l1.6.6 4.5-7.7" class="st3"/><path id="path648" d="M625.2 263.5c-2.2-.9-2.5-.9-2.8-1-1.3-.3-2.2-.5-2.2-.5-.9-.1-1.9-.2-2.9-.2-8.6 0-14.9 3.9-23.1 14.3l2.5-13.3h-24.1l-16.2 87.9H583c9.5-53.7 13.6-63.2 26.3-63.2 1 0 1.9.1 3.2.2l3.2.6 9.5-24.8" class="st4"/><path id="path650" d="M442.5 290.6c0 11.1 6.3 18.8 20.6 24.5 10.8 4.4 12.4 5.7 12.4 9.7 0 5.5-4.8 7.9-15.2 7.9-8.2 0-15.5-1.1-24.1-3.5l-3.8 20.3 1.3.2 4.8.9c1.6.3 4.1.6 7.3.8 6.3.5 11.1.7 14.6.7 28.5 0 41.5-9.3 41.5-29.3 0-12.1-5.4-19.1-19-24.5-11.1-4.5-12.4-5.5-12.4-9.6 0-4.7 4.4-7.1 13-7.1 5.4 0 12.4.5 19.3 1.3l3.8-20.4c-7-1-17.4-1.7-23.8-1.7-29.8.1-40.3 13.6-40.3 29.8" class="st4"/><path id="path652" d="M318.2 311.6c-2.9-.3-4.1-.3-6-.3-14.9 0-22.5 4.5-22.5 13.4 0 5.5 3.5 9 9.5 9 10.8-.1 18.4-9.1 19-22.1zm19.4 39.1h-22.2l.6-9.1c-6.7 7.2-15.9 10.6-27.9 10.6-14.3 0-24.1-9.8-24.1-24 0-21.4 17.1-33.9 46.6-33.9 2.9 0 6.7.3 10.8.7.6-2.9.9-4.1.9-5.7 0-5.8-4.8-8-17.1-8-7.6 0-16.2.9-21.9 2.4l-3.8 1-2.2.6 3.5-19.8c13.3-3.4 21.9-4.6 31.7-4.6 22.8 0 34.9 8.9 34.9 25.8 0 4.3-.3 7.6-1.9 17.4l-5.7 31.2-.9 5.6-.6 4.5-.3 3-.4 2.3" class="st4"/><path id="path654" d="M410.5 296.5V292c0-7.1-4.4-11.3-12.4-11.3-8.6 0-14.6 5.6-17.1 15.8h29.5zm13.9 52.4c-8.9 2.4-17.8 3.6-27 3.6-29.8 0-45.3-13.5-45.3-39.4 0-30.1 19.7-52.4 46.3-52.4 21.9 0 35.8 12.4 35.8 31.9 0 6.5-1 12.8-3.2 21.7h-52.6c-.3 1.3-.3 2-.3 2.8 0 10.2 7.9 15.4 23.1 15.4 9.5 0 18.1-1.7 27.6-5.6l-4.4 22" class="st4"/><path id="path656" d="M680.3 299.6c0-9.2-3.8-17.9-14.6-17.9-13.6 0-21.9 16-21.9 30.1 0 12 5.7 20 15.2 19.8 5.7 0 18.1-7.8 20.3-21.5.7-3.2 1-6.7 1-10.5zm27.6 11.3c-4.1 29.2-24.4 42.2-51.7 42.2-30.1 0-42.2-18.2-42.2-40.5 0-31.1 20.6-52.3 52.3-52.3 27.6 0 42.2 17.4 42.2 39.7 0 5.4 0 5.8-.6 10.9" class="st4"/></svg>