<svg xmlns="http://www.w3.org/2000/svg" viewBox="0 0 841.9 595.3"><style>.st0{fill:#FAB41E}.st1{fill:#E40520}.st2{fill:#FFFFFF}.st3{fill:none;stroke:#FFFFFF;stroke-width:0.215}.st4{fill-rule:evenodd;clip-rule:evenodd;fill:#4DB45E}.st5{fill-rule:evenodd;clip-rule:evenodd;fill:url(#path24_1_)}.st6{fill:url(#SVGID_1_)}.st7{fill:#005CA9}.st8{fill:#F7A823}</style><g id="Layer_1"><path d="M563.9 512.1c5.5-.1 11-.3 16.4-.7 5.4-.4 10.8-.9 16.1-1.8 5.5-.9 11-2 16.5-3.2 5-1.1 9.9-2.4 14.8-4 5.7-1.9 11.2-3.9 16.8-6.1 4.5-1.8 9-3.8 13.4-6 2.7-1.4 5.4-2.6 8-4.1 2.7-1.5 5.4-3.1 8.1-4.7 4.3-2.5 8.5-5.3 12.5-8.1 4.6-3.3 9.1-6.6 13.4-10.2 4.3-3.6 8.5-7.4 12.5-11.3 3.6-3.4 7.1-6.9 10.3-10.6 4-4.7 7.9-9.3 11.7-14.2 3-3.8 5.8-7.9 8.4-12 3.1-4.9 6.2-9.8 9-14.9 2.6-4.7 4.8-9.5 7-14.4 2.1-4.7 4.2-9.5 5.9-14.4 2-5.6 3.7-11.2 5.4-17 1.3-4.7 2.5-9.4 3.4-14.2 1.1-6 2-12 2.8-18.1.6-4.8 1-9.6 1.1-14.4.1-3.2.2-6.3.2-9.5 0-2.9-.1-5.9-.2-8.8-.1-4.8-.4-9.6-1-14.3-.4-3.1-.7-6.2-1.2-9.3-.5-3-1.1-6-1.6-9-.9-4.7-2-9.5-3.3-14.1-.8-2.7-1.4-5.4-2.3-8-1-3.1-2.1-6.2-3.2-9.3-1.7-4.9-3.7-9.6-5.9-14.3-2.2-4.9-4.5-9.8-7.1-14.5-2.8-5.1-5.9-9.9-9-14.8-2.6-4.1-5.4-8.2-8.5-12-3.8-4.8-7.7-9.4-11.6-14.1-3.2-3.8-6.8-7.3-10.4-10.7-4.1-3.9-8.2-7.7-12.6-11.2-4.3-3.6-8.8-6.9-13.3-10.1-4-2.9-8.2-5.7-12.5-8.2-2.7-1.6-5.4-3.2-8.1-4.7-2.6-1.4-5.3-2.7-7.9-4-4.3-2.2-8.8-4.2-13.3-6-5.6-2.2-11.2-4.3-16.9-6.1-4.8-1.6-9.8-2.8-14.7-4-5.5-1.3-11-2.4-16.6-3.3-5.3-.8-10.7-1.4-16-1.8-5.5-.4-11-.7-16.5-.7-5.4 0-10.8.3-16.2.7-5.5.4-10.9.9-16.3 1.8-5.5.8-10.9 1.9-16.2 3.2-5 1.2-10 2.4-14.9 4-5.6 1.8-11.1 3.9-16.6 6.1-4.5 1.8-9 3.8-13.4 6-2.6 1.3-5.3 2.6-7.9 4-2.7 1.5-5.4 3.1-8.1 4.7-4.3 2.5-8.4 5.2-12.4 8.1-4.6 3.3-9.1 6.6-13.4 10.2-4.3 3.6-8.5 7.4-12.5 11.3-3.6 3.4-7.1 7-10.4 10.7-4 4.7-7.9 9.4-11.7 14.2-3.1 3.9-5.9 8.1-8.5 12.3-3 4.7-5.9 9.4-8.6 14.3-2.7 5-5.2 10.2-7.5 15.4-2 4.5-4 9.1-5.6 13.8-1.9 5.8-3.8 11.6-5.4 17.5-1.3 4.6-2.4 9.4-3.2 14.2-.5 2.8-1.1 5.5-1.5 8.3-.5 3.2-.8 6.5-1.2 9.7-.6 4.8-.9 9.7-1 14.5-.1 2.8-.2 5.5-.2 8.3 0 3.3.2 6.6.3 9.9.1 4.8.6 9.7 1.2 14.5.8 6 1.7 12 2.8 17.9.9 4.9 2.2 9.7 3.5 14.5 1.6 5.5 3.2 11 5.1 16.4 1.8 5.1 4 10 6.2 15 2.1 4.7 4.3 9.3 6.8 13.8 2.9 5.2 6 10.3 9.2 15.4 2.6 4.1 5.5 8.2 8.5 12 3.7 4.7 7.5 9.4 11.5 13.9 3.4 3.9 7.2 7.6 10.9 11.2 3.8 3.6 7.6 7.2 11.6 10.4 4.7 3.8 9.5 7.4 14.4 10.9 4 2.8 8.1 5.5 12.3 7.9 2.4 1.4 4.8 2.9 7.3 4.2 2.8 1.5 5.7 2.9 8.6 4.4 4.5 2.3 9.3 4.3 14 6.2 5.1 2 10.2 3.9 15.4 5.5 5.4 1.7 10.8 3 16.3 4.3 4.9 1.1 9.9 2.2 14.9 2.9 5.9.8 11.8 1.4 17.8 1.9 4.5.6 9.3.7 14.1.8z" class="st0"/><path d="M278.3 512.1c5.5-.1 10.9-.3 16.4-.7 5.4-.4 10.7-.9 16.1-1.8 5.5-.8 11-2 16.4-3.2 5-1.1 9.9-2.4 14.8-4 5.6-1.9 11.2-3.9 16.7-6.1 4.5-1.8 9-3.8 13.4-6 2.6-1.3 5.3-2.6 7.9-4 2.7-1.5 5.4-3.2 8.1-4.7 4.3-2.5 8.4-5.3 12.5-8.2 4.5-3.2 9-6.6 13.4-10.1 4.3-3.6 8.5-7.4 12.5-11.3 3.6-3.4 7.1-7 10.3-10.7 4-4.7 7.9-9.4 11.7-14.2 3.1-3.9 5.8-8.1 8.5-12.3 3-4.8 6-9.6 8.7-14.5 2.7-4.9 5-9.9 7.3-15 2-4.6 4.1-9.2 5.7-14 1.9-5.7 3.7-11.4 5.4-17.3 1.3-4.6 2.5-9.3 3.3-14 1.1-6.1 2-12.1 2.8-18.2.6-4.7.9-9.6 1-14.3.1-3.1.2-6.1.2-9.2 0-3.1-.2-6.1-.2-9.2-.1-4.8-.5-9.6-1.1-14.3-.4-3-.7-5.9-1.1-8.9-.5-3.1-1.1-6.2-1.7-9.3-.9-4.8-2-9.5-3.4-14.2-1.6-5.7-3.4-11.4-5.3-17-1.7-4.9-3.8-9.7-5.9-14.4-2.2-4.8-4.5-9.6-7-14.2-2.9-5.2-6-10.2-9.1-15.2-2.6-4.1-5.4-8.2-8.5-12.1-3.8-4.8-7.6-9.4-11.6-14-3.4-3.9-7.1-7.5-10.8-11.1-3.8-3.6-7.7-7.2-11.8-10.6-4.6-3.8-9.4-7.3-14.2-10.7-4-2.9-8.1-5.5-12.4-8-2.4-1.4-4.8-2.9-7.3-4.2-2.8-1.5-5.7-2.9-8.5-4.4-4.5-2.3-9.2-4.3-14-6.2-5.1-2-10.3-4-15.6-5.6-5.3-1.7-10.7-3-16.1-4.3-5-1.1-10-2.2-15.1-2.9-5.8-.8-11.6-1.4-17.5-1.9-5-.4-10.1-.6-15.1-.6-5.9.1-11.8.4-17.6.8-5 .4-10 .9-15 1.7-5.9 1-11.7 2.1-17.5 3.5-4.7 1.1-9.5 2.3-14.1 3.9-5.8 2-11.5 4-17.2 6.3-4.5 1.8-8.9 3.9-13.2 6-5.3 2.7-10.6 5.5-15.7 8.5-4.5 2.6-8.8 5.6-13 8.6-4.3 3-8.5 6.2-12.5 9.5-4.6 3.8-8.9 7.8-13.2 11.9-3.5 3.3-7 6.8-10.1 10.5-4 4.6-7.8 9.2-11.5 14-3.2 4-6 8.4-8.8 12.7-2.9 4.5-5.7 9-8.2 13.7-2.8 5.2-5.3 10.6-7.8 16-2 4.4-3.9 9-5.5 13.6-1 2.8-2 5.6-2.9 8.5-.9 3-1.7 6-2.6 9-1.3 4.7-2.3 9.5-3.2 14.3-1.1 5.9-1.9 11.8-2.7 17.8-.6 4.9-.8 9.9-.9 14.8-.2 6-.1 11.9.1 17.9.1 5 .6 10 1.3 14.9.8 5.8 1.6 11.6 2.7 17.4 1 5 2.3 10 3.7 14.9 1.5 5.3 3.1 10.5 5 15.7 1.9 5.3 4.2 10.5 6.5 15.6 2.1 4.5 4.2 9.1 6.7 13.4 3.1 5.3 6.2 10.5 9.5 15.6 2.6 4.1 5.6 8.1 8.6 12 3.6 4.6 7.3 9.2 11.2 13.6 3.6 4 7.4 7.7 11.2 11.4 3.7 3.5 7.4 7 11.4 10.2 4.8 3.8 9.6 7.4 14.6 11 4 2.8 8.1 5.4 12.3 7.9 5.2 3 10.4 5.8 15.8 8.5 4.6 2.3 9.3 4.3 14.1 6.2 5.1 2 10.2 3.9 15.4 5.5 5.4 1.7 10.8 3 16.3 4.3 4.9 1.1 9.9 2.2 15 2.9 5.9.8 11.8 1.4 17.8 1.9 4.6.5 9.4.6 14.2.7z" class="st1"/><path d="M396.1 167.1h112.4c.1 0 .9.1 1 0 .2-.2 0-1.3 0-1.6v-8.1c0-.3.2-1.7 0-1.8-.1-.1-.9 0-1 0H407.7c-.5 0-1.2-.1-1.7 0-.6.2-1.1 1.1-1.5 1.5-1.8 2.1-3.6 4.2-5.4 6.4-.9 1.1-1.9 2.3-3 3.6zm-17 25.7h129.2c.2 0 1.2.1 1.3 0 .1-.1 0-1.1 0-1.3v-9.1c0-.2.1-1.1 0-1.2-.2-.2-1.2 0-1.4 0h-121c-.2 0-.9-.1-1.1 0-.4.3-.9 1.5-1.1 1.9-.8 1.4-1.6 2.7-2.4 4.1-1.2 1.9-2.4 3.8-3.5 5.6zm-12.6 25.7h141.4c.3 0 1.3.2 1.6 0 .2-.1 0-.9 0-1.2v-9.6c0-.2.1-.7-.1-.8-.3-.2-1.4 0-1.7 0H373.5c-.4 0-1.4-.2-1.8 0-.2.1-.2.4-.3.6-.6 1.3-1.2 2.7-1.7 4-1.2 2.4-2.2 4.7-3.2 7zm-8.7 25.8h150.1c.3 0 1.4.2 1.6 0 .2-.1.1-1 .1-1.2v-5.4c0-1.5.1-3.1 0-4.6 0-.4.1-.3-.1-.4-.4-.2-1.6 0-2 0H364.1c-.6 0-1.6-.2-2.2 0-.2.1-.1 0-.3.1-.2.2-.3 1-.4 1.3-.2.8-.5 1.5-.7 2.3-1.1 2.6-1.9 5.3-2.7 7.9zm5 124.6h144.8c.6 0 1.6.2 2.2 0h.3c.1-.1 0-.8 0-1v-9.7c0-.1.1-.8 0-.9-.1-.1-.9 0-1.1 0H359.4c1 3.8 2.2 7.7 3.4 11.6zm10.9 25.7h134.5c.3 0 1.4.2 1.6 0 .2-.1.1-.4.1-.6v-9.1c0-.3.2-1.7 0-1.8-.1-.1-1 0-1.2 0H368.4c1.7 3.8 3.5 7.7 5.3 11.5zm15.2 25.8h120c.1 0 .9.1 1 0 .2-.2 0-1.9 0-2.2v-8.4c0-.2.1-.9 0-1-.2-.1-1 0-1.2 0h-127c2.4 3.8 4.8 7.7 7.2 11.6zm21.1 25.7h98.1c.4 0 1.2.2 1.6 0 .4-.2.2-1.3.2-1.8v-7.5c0-.5.2-2.2-.1-2.4-.2-.2-1.1 0-1.3 0H399.9c3.3 4 6.7 7.8 10.1 11.7zM352.6 270h155.1c.3 0 1.5.2 1.7 0 .2-.1 0-1.2 0-1.4v-8.4c0-.4.2-1.3 0-1.7-.1-.3.1-.1-.2-.2-.5-.2-1.6 0-2.2 0H357.6c-.8 0-1.7-.1-2.5 0h-.3c-.1.1-.1.6-.1.8-.1.7-.3 1.5-.4 2.2-.5 3-1.1 5.8-1.7 8.7zm95.7 73.2h58.9c.2 0 .8.1 1 0 .2-.1.1-.7.1-1v-9.1c0-.3.1-1.4 0-1.5-.1-.1-.7 0-.8 0H452c-.3 0-.9-.1-1.2 0-.3.1-.2.2-.3.6-.5 2.9-1.1 5.8-1.6 8.7-.4.7-.5 1.5-.6 2.3zm4.7-25.7h54.4c.1 0 .6.1.7 0 .2-.2 0-1.3 0-1.5v-8.6c0-.2.2-1.4 0-1.5-.1-.1-.7 0-.8 0h-51.2c-.2 0-.7-.1-.9 0-.2.1-.2.9-.3 1.1-.5 2.8-1 5.6-1.6 8.5 0 .6-.2 1.3-.3 2zm-104.3-11.7h14.6c.2 0 .9-.1 1 0 .2.2 0 1.5 0 1.7v7.3c0 .6.3 1.9 0 2.4-.1.3 0 .2-.5.2h-13c-.2 0-1.2.1-1.4 0-.2-.2-.1-1.4-.1-1.7-.1-1.3-.2-2.6-.2-4-.2-1.9-.3-3.9-.4-5.9z" class="st0"/><path d="M319.7 291.8c-2.6-.2-5.1-.7-7.7-1.1-2.6-.4-5.3-.4-8-.3-2.7.2-5.5.2-8.1 1.2-2.4.9-5.1 2.6-5.2 5.5-.2 2.8 2.1 5.1 4.3 6.5 2.2 1.4 4.8 2.1 7.3 2.9 2.7.9 5.5 1.7 8 3.2 1.1.7 2.3 1.4 3.2 2.3 1.2 1.1 2 2.1 2.9 3.4 1.4 2.1 2.1 4.9 2.2 7.3.2 2.8.2 5.5-.2 8.3-.8 5.6-3 10.8-7.4 14.6-4.2 3.6-9.5 5.5-14.8 6.4-5.6 1-11.3.7-16.9.6-5.4-.1-10.6-.5-15.8-1.8-1.3-.3-2.6-.8-3.9-1.3-.5-.2-.4-.1-.4-.5.1-.6.2-1.1.3-1.7.8-3.8 1.5-7.5 2.3-11.3.2-.9.3-1.7.5-2.6 4.7 1.1 9.4 2.3 14.3 2.8 2.4.3 4.9.4 7.4.5 2.6 0 5.2 0 7.6-1 2.3-.9 3.6-3.1 4.2-5.3.3-1.1.6-2.5.2-3.6-.4-1.2-1-2.1-2-2.9-2-1.4-4.3-2.5-6.6-3.3-2.6-.9-5.1-2-7.6-3.1-4.4-2-8.6-5.3-10.4-9.9-.9-2.3-1.5-4.7-1.4-7.2 0-2.7.2-5.2.8-7.9 1-5 3.4-9.6 7.3-12.8 3.7-3.1 8.8-4.5 13.4-5.3 5.1-.8 10.4-1 15.5-.8 5 .2 9.8.5 14.7 1.3 1.2.2 2.3.4 3.5.6-1.1 5.4-2.3 10.8-3.5 16.3z" class="st2"/><path d="M319.7 291.8c-2.6-.2-5.1-.7-7.7-1.1-2.6-.4-5.3-.4-8-.3-2.7.2-5.5.2-8.1 1.2-2.4.9-5.1 2.6-5.2 5.5-.2 2.8 2.1 5.1 4.3 6.5 2.2 1.4 4.8 2.1 7.3 2.9 2.7.9 5.5 1.7 8 3.2 1.1.7 2.3 1.4 3.2 2.3 1.2 1.1 2 2.1 2.9 3.4 1.4 2.1 2.1 4.9 2.2 7.3.2 2.8.2 5.5-.2 8.3-.8 5.6-3 10.8-7.4 14.6-4.2 3.6-9.5 5.5-14.8 6.4-5.6 1-11.3.7-16.9.6-5.4-.1-10.6-.5-15.8-1.8-1.3-.3-2.6-.8-3.9-1.3-.5-.2-.4-.1-.4-.5.1-.6.2-1.1.3-1.7.8-3.8 1.5-7.5 2.3-11.3.2-.9.3-1.7.5-2.6 4 .9 7.9 1.9 12 2.5 4.3.7 8.7.9 13 .7 1.9-.1 4.2-.6 5.7-1.8 1.6-1.3 2.6-3.4 2.9-5.4.3-2.1-.2-4-1.9-5.4-1.7-1.4-4-2.3-6.1-3.2-3.9-1.6-7.9-2.8-11.5-5.1-3.7-2.4-6.6-5.7-7.9-10-1.2-4-.8-8.6 0-12.6.8-4.4 2.6-8.1 5.4-11.5 2.7-3.2 7.1-5.1 11.1-6.2 4-1.1 8.2-1.6 12.3-1.7 1.2 0 2.4 0 3.6-.1 5.8 0 11.8 0 17.5 1.1 1.5.3 3.1.6 4.6.8-.9 5.4-2.1 10.8-3.3 16.3" class="st3"/><path d="M336.7 257.7h20c-.9 5.1-1.7 10.2-2.6 15.2-.1.7-.2 1.5-.4 2.2h12c-.5 3-.9 5.9-1.4 8.9l-.9 5.7c-.1.4 0 1.1-.2 1.5-.2.3.1.1-.3.2-.5.1-1.3 0-1.8-.1-1 0-2-.1-2.9-.1-2-.1-4-.1-6-.2-.5 0-1.4-.2-1.7.1-.3.5-.3 1.6-.4 2.2-1.3 7.5-2.6 14.9-3.9 22.4-.6 3.7-1.3 7.3-1.9 11-.3 1.6-.7 3.2-.8 4.8-.1 1.6.4 2.8 1.7 3.8 1 .8 2.5 1.1 3.8 1.3 2.8.5 5.7.3 8.4-.6.6-.2 1.3-.3 1.8-.6-.4 2.3-.9 4.5-1.3 6.8-.3 1.5-.6 3.1-.9 4.6-.1.6-.1 1.6-.4 2-.5.7-1.9 1.2-2.7 1.5-1 .4-2 .7-3.1.9-2 .4-4.1.8-6.2.9-4.4.3-9 0-13.3-1-2.2-.5-4.4-1.3-6.1-2.7-1.7-1.5-2.5-3.6-2.7-5.8-.3-2.8.2-5.6.7-8.3.7-3.9 1.4-7.8 2-11.7 1.1-6.1 2.2-12.3 3.2-18.4 1.2-6.7 2.4-13.5 3.5-20.2 1-5.7 2-11.3 3-17 .5-3 1.1-6 1.6-9 .2 0 .2-.2.2-.3z" class="st2"/><path d="M336.7 257.7h20c-.9 5.1-1.7 10.2-2.6 15.2-.1.7-.2 1.5-.4 2.2h12c-.5 3-.9 5.9-1.4 8.9l-.9 5.7c-.1.4 0 1.1-.2 1.5-.2.3.1.1-.3.2-.5.1-1.3 0-1.8-.1-1 0-2-.1-2.9-.1-2-.1-4-.1-6-.2-.5 0-1.4-.2-1.7.1-.3.5-.3 1.6-.4 2.2-1.3 7.5-2.6 14.9-3.9 22.4-.6 3.7-1.3 7.3-1.9 11-.3 1.6-.7 3.2-.8 4.8-.1 1.6.4 2.8 1.7 3.8 1 .8 2.5 1.1 3.8 1.3 2.8.5 5.7.3 8.4-.6.6-.2 1.3-.3 1.8-.6-.4 2.1-.8 4.1-1.2 6.2-.3 1.5-.6 3-.8 4.4-.1.8-.1 1.9-.5 2.6-.3.6-1.4 1-2 1.3-.8.4-1.6.6-2.5.9-1.9.6-4 .8-6 1-2.3.3-4.7.2-7 .2-6.2-.5-15.3-1-16.5-8.7-.7-4.4.5-9.1 1.3-13.4 1.5-8.6 3-17.1 4.5-25.7 1.7-10 3.5-20 5.2-30 1-5.5 1.9-11.1 2.9-16.6.1.3.1.2.1.1" class="st3"/><path d="M381.7 318.5c-.7 3.8.5 7.2 2.7 10.3 2.1 2.9 5.2 5.3 8.7 6.3 1.7.5 3.5.6 5.2.8 1.8.2 3.6.4 5.4.4 3.6.1 7.1-.3 10.7-1 4.1-.9 7.8-2.8 11.3-4.9-.8 5.2-1.7 10.4-2.5 15.6-.1.5 0 1.6-.3 2.1-.2.3-.9.5-1.2.6-.5.3-1 .5-1.5.7-2.1.8-4.2 1.5-6.4 1.9-4.6.8-9.2.8-13.9.8-4.7 0-9.3-.5-13.8-1.6-4.4-1.1-8.6-2.8-12.4-5.4-3.8-2.6-7-5.9-9.2-10.1-2.1-4-3.4-8.6-3.7-13.1-.3-4.7-.2-9.4.6-14.1.8-4.7 2-9.2 4-13.6 1.9-4.3 4.8-8 8.1-11.3 3.2-3.1 7.4-5.6 11.6-7.1 4.4-1.6 9.1-2.1 13.8-2.4 4.5-.2 9.2.2 13.5 1.5 4.1 1.2 8.4 3.5 11.2 6.7 1.5 1.7 2.9 3.5 3.9 5.7.9 2.1 1.7 4.2 2.1 6.4.8 4.8.7 9.6.1 14.4-.3 2.1-.9 4.2-1.1 6.4-.1.7-.1 1.5-.2 2.2 0 .3.1 1.6-.2 1.9-.1.1-.4 0-.6 0h-52l2.7-11.4c.1-.6.3-2.5.7-2.7.2-.1.9 0 1.1 0h28.7c.4 0 1 .1 1.3 0 .5-.1.3-.3.3-.9.1-1.7 0-3.4-.3-5.1-.7-3.3-2.8-6-5.7-7.6-2.9-1.6-6.5-1.9-9.6-.9-3.3 1-5.8 3.3-7.7 6.1-1.7 2.4-2.4 5.3-3 8.1-.8 4.3-1.7 8.7-2.5 13 .2.6.1 1 .1 1.3z" class="st2"/><path d="M381.7 318.5c-.7 3.8.5 7.2 2.7 10.3 2.1 2.9 5.2 5.3 8.7 6.3 1.7.5 3.5.6 5.2.8 1.8.2 3.6.4 5.4.4 3.6.1 7.1-.3 10.7-1 4.1-.9 7.8-2.8 11.3-4.9-.4 2.7-.9 5.3-1.3 8-.3 2-.6 3.9-1 5.9-.1.8-.2 1.5-.4 2.3-.1.4-.1.9-.2 1.3-.3.6-1.8 1.2-2.5 1.4-1.3.5-2.6 1-3.9 1.4-2.6.8-5.3 1-8 1.2-3 .3-6.1.2-9.2.2-7.8-.2-15.9-1.3-22.9-5.1-1.6-.9-3.3-1.9-4.7-3.1-1.8-1.4-3.2-2.9-4.6-4.6-2.5-3-4.1-6.7-5.1-10.5-2.1-7.3-1.7-15.4-.3-22.8 1.4-7.6 4.4-15.4 9.9-21 2.7-2.8 5.9-5.4 9.4-7.2 3.6-1.8 7.5-2.8 11.4-3.5 7.6-1.3 15.8-1 23 2 3.8 1.6 7 4 9.7 7.2 2.3 2.8 3.8 6.7 4.5 10.3.8 4 .7 8.1.4 12.1-.4 4-1.3 7.9-1.6 11.9 0 .4.1.9-.2 1.1-.2.1-.7 0-1 0h-51.4l2.7-11.4c.1-.6.3-2.5.7-2.7.2-.1.9 0 1.1 0h28.7c.4 0 1 .1 1.3 0 .5-.1.3-.3.3-.9.1-1.7 0-3.4-.3-5.1-.7-3.3-2.8-6-5.7-7.6-2.9-1.6-6.5-1.9-9.6-.9-3.3 1-5.8 3.3-7.7 6.1-1.7 2.4-2.4 5.3-3 8.1-.8 4.3-1.7 8.7-2.5 13 .1.3 0 .7 0 1" class="st3"/><path d="M553.4 279.4c-3.7-2-7.7-3.6-11.9-4.4-4.3-.8-8.7-1-13-.6-4.4.4-8.5 1.7-12.1 4.2-3.5 2.5-6.2 6-8.1 9.8-3.9 7.7-6.4 16.6-5.6 25.3.4 4.2 1.8 8.5 4.5 11.8 2.7 3.4 6.7 5.7 10.8 6.7 4.3 1 8.6 1.6 13 1.2 4-.4 8.4-1.3 11.7-3.8.8-.6 1.6-1.3 2.4-2-.7 4.3-1.4 8.6-2.2 12.9-.3 2-.4 4.1-1 6-.3 1.1-2.3 2.3-3.4 2.8-3.5 1.7-7.3 2.3-11.2 2.7-3.8.3-7.6.3-11.3.1-1.9-.1-3.9-.2-5.8-.5-2.1-.3-4.1-1-6.1-1.6-3.6-1.2-7.1-3.2-10-5.5-3.1-2.4-5.8-5.4-7.9-8.6-2.2-3.5-3.6-7.3-4.8-11.2-1-3.5-1.4-7.3-1.4-10.9 0-4 .3-8 1-11.9 1.5-7.9 3.7-15.4 7.3-22.6 3.4-6.8 8.5-12.9 14.9-17 6.7-4.3 14.4-6.4 22.2-7.2 7.7-.8 15.5-.1 23 1.9 1.9.5 3.8 1 5.6 1.7.9.3 1.7.6 2.6 1 .6.3.4.3.3.9-.9 5-1.8 10.1-2.7 15.1-.3 1-.6 2.4-.8 3.7z" class="st2"/><path d="M553.4 279.4c-5.1-2.7-10.5-4.5-16.3-5-1.7-.1-3.4-.1-5.1-.1-3.5 0-7.1.3-10.4 1.6-3.5 1.4-6.5 3.4-9.1 6.2-5 5.5-7.3 12.9-9.1 20-1.6 6.5-1.6 14.5 1.7 20.5 1.7 3 4.1 5.8 7.2 7.5 3.2 1.7 6.8 2.8 10.4 3.2 6.9.8 14.6.3 20.3-4.1.6-.5 1.2-1.1 1.8-1.6-.7 4.3-1.4 8.6-2.2 12.9-.3 2-.4 4.1-1 6-.3 1.1-2.3 2.3-3.4 2.8-3.5 1.7-7.3 2.3-11.2 2.7-3.8.3-7.6.3-11.3.1-1.9-.1-3.9-.2-5.8-.5-2.1-.3-4.1-1-6.1-1.6-3.6-1.2-7.1-3.2-10-5.5-3.1-2.4-5.8-5.4-7.9-8.6-2.2-3.5-3.6-7.3-4.8-11.2-1-3.5-1.4-7.3-1.4-10.9 0-4 .3-8 1-11.9 1.5-7.9 3.7-15.4 7.3-22.6 3.4-6.8 8.5-12.9 14.9-17 6.7-4.3 14.4-6.4 22.2-7.2 7.7-.8 15.5-.1 23 1.9 1.9.5 3.8 1 5.6 1.7.9.3 1.7.6 2.6 1 .6.3.4.3.3.9-.9 5-1.8 10.1-2.7 15.1 0 1-.3 2.4-.5 3.7" class="st3"/><path d="M730.7 352.2h-20c.3-1.5.6-3.1.8-4.6.2-1.4.6-2.7.6-4.1-3.3 4.1-7.4 7.4-12.6 8.7-5.2 1.4-10.5 1.4-15.7.1-5-1.3-9.2-4.7-12.3-8.8-3.2-4.2-5.1-9.3-6.1-14.5-1-5-1.1-10.2-.3-15.2.9-5.2 2.2-10.5 4.5-15.3 2.3-4.8 5.2-9.3 9-13.1 3.7-3.7 8.1-6.7 13-8.4 4.8-1.7 10.3-2.5 15.4-1.5s9.9 3.5 13.2 7.7c.8 1 1.5 2 2 3.1 1.2-6.9 2.5-13.7 3.7-20.6.3-1.8.6-3.5.9-5.3.1-.6.2-1.1.3-1.7 0-.1 0-.6.1-.7.3-.3 2 0 2.4 0h17.2c-.5 3.1-1.1 6.2-1.6 9.4l-3.9 22.5c-1.6 9.1-3.1 18.1-4.7 27.2-1.4 7.8-2.7 15.7-4.1 23.5-.7 3.8-1.3 7.6-2 11.4.2.1.2.2.2.2z" class="st2"/><path d="M730.7 352.2h-20c.3-1.5.6-3.1.8-4.6.2-1.4.6-2.7.6-4.1-4.1 5.1-9.3 8.4-15.8 9.4-1.9.3-3.7.4-5.6.4-2.4-.2-4.6-.4-6.9-1-2.1-.6-4.2-1.6-6.1-2.8-3.7-2.3-6.5-6.1-8.6-9.8-2.1-3.7-3.3-8-4-12.3-.7-4.4-.7-8.8-.1-13.2.6-4.4 1.7-8.8 3.4-12.9 1.8-4.3 3.9-8.4 6.8-12.1 2.7-3.5 6-6.5 9.7-8.9 3.6-2.3 7.6-4 11.8-4.7 4.4-.7 8.9-.8 13.2.6 4.2 1.3 8 3.8 10.6 7.4.6.9 1.2 1.7 1.6 2.7 1.2-6.9 2.5-13.7 3.7-20.6.3-1.8.6-3.5.9-5.3.1-.6.2-1.1.3-1.7 0-.1 0-.6.1-.7.3-.3 2 0 2.4 0h17.2c-.5 3.1-1.1 6.2-1.6 9.4l-3.9 22.5c-1.6 9.1-3.1 18.1-4.7 27.2-1.4 7.8-2.7 15.7-4.1 23.5-.7 3.8-1.3 7.6-2 11.4.3.1.3.2.3.2" class="st3"/><path d="M698 334.8c3.8-.3 7.3-1.4 10.2-3.8 2.9-2.4 4.9-5.5 6.4-8.9 2.8-6.6 3.9-14.8 1.5-21.6-1.2-3.3-3.5-6.7-7.1-7.7-3.6-.9-7.8.2-10.8 2.3-3 2.2-5.3 5.3-6.9 8.6-1.5 3.1-2.7 6.7-3.2 10.2-.6 3.8-.3 7.7.7 11.4.5 1.8 1.1 3.5 2.1 5.1 1 1.5 2.4 3.1 4.2 3.8 1 .4 2 .4 2.9.6z" class="st0"/><path d="M255.9 336.2l-2.7 14.7c0 .3-.1 1.1-.3 1.3-.3.2-1.7 0-2.1 0h-16c.5-2.9.7-5.9 1.4-8.7-3.7 4.3-9.1 7-14.5 8.5-2.8.8-5.6 1.2-8.5 1.4-2.9.1-5.7-.3-8.5-1.1-5.8-1.7-10.4-5.4-12.7-11-2.2-5.4-2-11.6-.5-17.1 1.6-5.7 5.3-10.4 10-13.9 4.6-3.4 10.1-5.4 15.7-6 5.7-.6 11.3-1.4 17-1.2 1.5.1 2.9 0 4.4.1.4 0 1.6.3 2 .2.3-.2.6-1.4.7-1.8.4-1.4.7-2.9.2-4.4-.4-1.4-1.3-2.6-2.3-3.6-2.2-2-4.9-2.4-7.8-2.5-2.8-.1-5.7-.2-8.5 0-5.8.4-11.7.9-17.3 2.5-1.3.4-2.5.9-3.7 1.5 1.3-4.6 2.7-9.2 4-13.7l.9-3c.2-.8.4-.7 1.3-1.1 1.8-.7 3.7-1.3 5.6-1.7 8.2-1.7 16.6-1.5 24.9-1.2 7.8.2 16.8 3.4 21.6 9.8 2.5 3.3 3.8 7.3 3.4 11.4-.3 3.1-1.1 6.2-1.7 9.3-2 10.3-3.9 20.5-5.9 30.8 0 .1-.1.3-.1.5z" class="st2"/><path d="M255.9 336.2l-2.7 14.7c0 .3-.1 1.1-.3 1.3-.3.2-1.7 0-2.1 0h-16c.5-2.9.7-5.9 1.4-8.7-4.4 5.1-10.8 7.8-17.2 9.1-6.6 1.4-13.7.9-19.6-2.6-6-3.6-8.7-9.9-9.1-16.7-.4-6.6 2-13.5 6.2-18.6 4.3-5.1 10.5-8.6 17-10 .8-.2 1.7-.3 2.5-.4 1.2 0 2.5-.3 3.7-.4 1.2-.1 2.4-.3 3.6-.4 2.5-.3 5.1-.6 7.7-.6 2 0 4 .1 6 .1 1 0 1.9.1 2.9.1.2 0 .5.1.7.1.4-.1.2.1.3-.2.2-.4.4-1.1.5-1.5.6-2 .6-3.7-.3-5.6-.8-1.6-2.2-3-3.8-3.8-1.8-.9-3.6-1.1-5.5-1.2-1.9-.1-3.9-.2-5.8-.1-3.8.1-7.7.4-11.5.9-4.2.6-8.8 1.1-12.5 3.2 1.3-4.6 2.7-9.2 4-13.7l.9-3c.2-.8.4-.7 1.3-1.1 1.8-.7 3.7-1.3 5.6-1.7 8.2-1.7 16.6-1.5 24.9-1.2 7.8.2 16.8 3.4 21.6 9.8 2.5 3.3 3.8 7.3 3.4 11.4-.3 3.1-1.1 6.2-1.7 9.3-2 10.3-3.9 20.5-5.9 30.8-.1.3-.2.5-.2.7" class="st3"/><path d="M238.5 317.5c0-1.8-5.4-1.3-6.5-1.2-2.4.2-4.8.5-7.1 1.2-2.3.6-4.6 1.7-6.5 3-2 1.3-4 3-5 5.2-.9 2-1.1 4.9-.3 6.9 1 2.6 3.3 3.7 6 3.8 4.8.1 9.9-1 13.6-4.2 3.8-3.2 4.5-8.2 5.4-12.8.2-.7.3-1.3.4-1.9z" class="st1"/><path d="M104.4 352.2H84.9c.5-3 1-5.9 1.5-8.9 1.2-7.2 2.5-14.4 3.7-21.6 1.5-8.8 3.1-17.7 4.6-26.5 1.4-7.9 2.7-15.8 4.1-23.7.8-4.4 1.5-8.8 2.3-13.2 0-.1 0-.7.1-.7.2-.2 1.1 0 1.4 0h32.1c.4 0 .5-.1.6.2.2.4.1 1.4.1 1.8.2 2.8.3 5.6.5 8.4.5 8.6 1 17.2 1.5 25.7.4 6.3.7 12.7 1.1 19 0 .3 0 .7.1 1 1.8-4.3 3.6-8.5 5.4-12.8 3.5-8.4 7-16.7 10.5-25.1 2.4-5.8 4.9-11.6 7.3-17.4.1-.2.2-.7.4-.8.3-.2 1.5 0 1.9 0h24.6c2.9 0 5.8-.1 8.6 0h.4c-.8 4.4-1.6 8.9-2.3 13.3-1.8 9.9-3.5 19.8-5.3 29.8-1.9 10.6-3.7 21.1-5.6 31.7-1.1 6.3-2.2 12.6-3.3 18.8 0 .2 0 .9-.2 1-.1.1-.8 0-1 0h-18.6c.4-2.3.8-4.7 1.2-7 1-5.6 2-11.2 3-16.9l3.6-20.4c1-5.9 2.1-11.8 3.1-17.6.3-1.9.7-3.9 1-5.8l.3-1.8c0-.2.2-.8.2-1v-.1c-.8 0-.7-.1-1 .4l-.6 1.5c-.8 2-1.7 4-2.5 6-2.7 6.6-5.5 13.2-8.2 19.8-3.1 7.6-6.3 15.1-9.4 22.7-2.3 5.6-4.6 11.2-6.9 16.7-.3.7-.6 1.5-.9 2.2-.1.3-.2.9-.5 1.1-.2.2-.4.1-.8.1h-20.3c-.2 0-.8.1-1 0-.2-.1-.1-.7-.2-1-.3-5.8-.7-11.7-1-17.5l-.9-16.2c-.3-5.2-.6-10.4-.9-15.5-.3-5.7-.7-11.5-1-17.2 0-.9 0-1.8-.1-2.7-.1-.4.1-.3-.2-.4-.2-.1-.7 0-.9 0-.4 2.3-.8 4.7-1.2 7-1 5.6-1.9 11.2-2.9 16.9-1.2 6.8-2.3 13.6-3.5 20.4-1 5.9-2 11.8-3 17.6-.5 2.9-1 5.7-1.5 8.6v.1z" class="st2"/><path d="M104.4 352.2H84.9c.5-3 1-5.9 1.5-8.9 1.2-7.2 2.5-14.4 3.7-21.6 1.5-8.8 3.1-17.7 4.6-26.5 1.4-7.9 2.7-15.8 4.1-23.7.8-4.4 1.5-8.8 2.3-13.2 0-.1 0-.7.1-.7.2-.2 1.1 0 1.4 0h32.1c.4 0 .5-.1.6.2.2.4.1 1.4.1 1.8.2 2.8.3 5.6.5 8.4.5 8.6 1 17.2 1.5 25.7.4 6.3.7 12.7 1.1 19 0 .3 0 .7.1 1 1.8-4.3 3.6-8.5 5.4-12.8 3.5-8.4 7-16.7 10.5-25.1 2.4-5.8 4.9-11.6 7.3-17.4.1-.2.2-.7.4-.8.3-.2 1.5 0 1.9 0h24.6c2.9 0 5.8-.1 8.6 0h.4c-.8 4.4-1.6 8.9-2.3 13.3-1.8 9.9-3.5 19.8-5.3 29.8-1.9 10.6-3.7 21.1-5.6 31.7-1.1 6.3-2.2 12.6-3.3 18.8 0 .2 0 .9-.2 1-.1.1-.8 0-1 0h-18.6c.4-2.3.8-4.7 1.2-7 1-5.6 2-11.2 3-16.9l3.6-20.4c1-5.9 2.1-11.8 3.1-17.6.3-1.9.7-3.9 1-5.8l.3-1.8c0-.2.2-.8.2-1v-.1c-.8 0-.8-.1-1 .6l-.9 2.1c-1.1 2.6-2.2 5.3-3.3 7.9-3.4 8.1-6.7 16.3-10.1 24.4-3.4 8.2-6.8 16.5-10.3 24.7l-3.3 8.1c-.3.7-.6 1.5-.9 2.2-.1.2-.2.6-.3.7-.2.1-.8 0-1 0h-21.1c-.2-4.3-.5-8.7-.8-13-.3-5-.6-9.9-.9-14.9-.3-4.9-.5-9.8-.8-14.6-.3-4.9-.6-9.8-.8-14.7-.1-2-.2-4-.4-6-.1-1.3-.2-2.6-.2-3.8 0-.4 0-.7-.1-1.1 0-.5.2-1.8-.1-2.3-.1-.2-.7-.1-1.1-.1-.4 2.3-.8 4.7-1.2 7-1 5.6-1.9 11.2-2.9 16.9-1.2 6.8-2.3 13.6-3.5 20.4-1 5.9-2 11.8-3 17.6-.5 2.9-1 5.7-1.5 8.6l.1-.1" class="st3"/><path d="M613.2 336.2l-2.7 14.7c0 .3-.1 1.2-.3 1.3-.3.2-1.7 0-2.1 0h-16c.1-1.4.1-2.8.2-4.2 0-1.4 0-2.8.2-4.2-3.8 4.4-9 6.9-14.5 8.4-2.8.8-5.7 1-8.6 1.1-2.8.1-5.7-.7-8.3-1.5-5.6-1.7-9.8-5.8-11.8-11.2-2-5.3-1.8-11.7-.2-17.1 1.7-5.6 5.5-10.3 10.2-13.7 4.6-3.4 10.1-5.1 15.7-5.8 5.5-.7 11.1-1.4 16.7-1.1 1.5.1 3 0 4.5.1.4 0 1.7.3 2 .2.4-.2.4-1.5.4-1.9.2-1.5.5-2.9.1-4.4-.4-1.4-1.3-2.5-2.3-3.6-2.1-2.1-4.9-2.4-7.7-2.5-2.8-.1-5.6-.1-8.4 0-5.7.4-11.5.9-17 2.4-1.3.4-2.5.9-3.7 1.5 1.3-4.6 2.7-9.2 4-13.7l.9-3c.2-.8.4-.7 1.3-1.1 1.8-.7 3.7-1.3 5.6-1.7 8.2-1.7 16.6-1.5 24.9-1.2 4 .1 8 1.1 11.6 2.6 3.7 1.6 7.4 3.9 9.9 7.1 2.5 3.3 3.9 7.3 3.5 11.4-.2 3.1-1 6.2-1.6 9.3-2 10.3-4.1 20.5-6.1 30.8-.3.6-.3.8-.4 1z" class="st2"/><path d="M610.3 352.7c.7-.7.6-1.5.8-2.4.3-1.8.7-3.7 1-5.5.5-2.8 1-5.7 1.6-8.5-1-.2-.9-.2-1 .8-.2 1.2-.4 2.4-.7 3.6-.6 3.1-1.1 6.1-1.7 9.2-.1.7-.3 1.5-.4 2.2l.4-.4v1c.3 0 .5-.1.4-.4l-.4.4z" class="st2"/><path d="M591.8 352.2c.6.7.9.5 1.8.5H608c.3 0 2 .2 2.2 0 .1-.1 0-1 0-1-.1-.1-.7 0-.8 0h-17.2c.1.2.3.3.4.5-.7 0-.8-.2-.9.5h.5c-.2-.1-.3-.3-.4-.5z" class="st2"/><path d="M592.9 344.2l-.6-.6c-.7 2.8-.4 5.8-.5 8.6.3 0 .7.1.9-.1.2-.2.1-1.2.1-1.5 0-.8.1-1.6.1-2.4 0-.9.1-1.7.1-2.6v-1.2c-.1-.5-.2-.6-.7-.9.1.3.4.5.6.7z" class="st2"/><path d="M564.9 353.4c2 .3 3.9.5 6 .4 2-.1 4.1-.3 6.1-.8 3.9-.9 7.7-2.4 11-4.6 1.9-1.2 3.4-2.6 4.9-4.3-.6-.5-.6-.7-1.1-.1-.4.4-.7.8-1.1 1.2-.7.7-1.5 1.3-2.3 1.9-1.7 1.2-3.6 2.2-5.5 3.1-3.7 1.7-7.8 2.5-11.9 2.8-1.2.1-2.3 0-3.5-.1-.5-.1-1-.1-1.5-.2-1-.2-.9-.2-1.1.7z" class="st2"/><path d="M547.5 331.6c.2 3.8.5 8.1 2.4 11.5 1.8 3.5 4.8 6.5 8.4 8.2 2.1 1 4.4 1.6 6.7 2.1.1-.6.3-.7-.2-.9-.6-.3-1.4-.3-2-.5-.9-.2-1.7-.5-2.6-.8-1.9-.7-3.8-1.8-5.3-3.1-3-2.5-5-6.2-5.8-10-.4-2.2-.7-4.3-.6-6.5h-1z" class="st2"/><path d="M573.3 303.9c-5.4.9-10.4 2.7-14.8 6.1-2.2 1.7-4.1 3.6-5.8 5.8-.7 1-1.5 2-2 3-.7 1.3-1.2 2.7-1.7 4.1-1 2.7-1.3 5.8-1.5 8.7.2 0 .9.1 1 0 .1-.1 0-.7 0-.8 0-.7 0-1.3.1-2 .1-1.5.5-3 .9-4.4.7-2.6 1.9-5.1 3.5-7.3 3.2-4.6 7.5-7.7 12.5-10 1.4-.6 2.8-1.1 4.2-1.5.7-.2 1.4-.4 2.2-.5.3-.1 1.2-.1 1.4-.3.1-.1 0-.6 0-.9z" class="st2"/><path d="M588.2 302.4c-2.1 0-4.3.3-6.4.5-2 .2-4.1.4-6.1.7-.5.1-1 .1-1.5.2-.6.1-1 0-.9.7.1.4-.1.3.3.3.2 0 .5-.1.7-.1.5-.1 1-.1 1.6-.2 2-.2 4-.5 6-.7 1.2-.1 2.3-.2 3.5-.3.6 0 1.3-.1 1.9-.1.2 0 .7.1.8 0 .2-.1.1-.8.1-1z" class="st2"/><path d="M597.9 303.2c.1-.1.3-.2.4-.4-1.4.1-2.8-.3-4.2-.3-1.4 0-2.8-.1-4.3-.1h-1.2c-.6 0-.6-.1-.6.5 0 .5-.1.4.4.5.4.1.9 0 1.3 0 1.5 0 2.9.1 4.4.1h2.3c.8 0 1.6.3 2.2-.2-.1.1-.3.2-.4.4.1 0 .3.1.4.1.3-.6-.2-.5-.7-.6z" class="st2"/><path d="M598.6 298.6c-.2.2-.2 1.7-.3 2.2-.1.8-.2 1.6-.5 2.4.6.1.9.3 1-.4.1-.4.2-.9.2-1.4.1-1 .3-1.9.4-2.9-.2.1-.5.1-.8.1z" class="st2"/><path d="M590 291.5c.2.2 1.2.1 1.6.1.5.1 1.1.2 1.6.4 1 .4 1.9.9 2.7 1.6.8.7 1.6 1.6 2 2.6.3.6.4 1 .6 1.7.2.9.1.8 1 .8-.2-1.1-.3-2.3-.9-3.2-.5-.9-1.4-1.9-2.2-2.5-1.8-1.6-4.1-2-6.4-2.3v.8z" class="st2"/><path d="M559.1 294.9c.6.4.7.5 1.3.2.4-.2.7-.4 1.1-.6.9-.4 1.9-.6 2.9-.9 2-.5 4-.8 6.1-1.1 4.3-.6 8.5-1.1 12.8-1.1 2.2 0 4.5 0 6.7.1 0-.7.2-.8-.5-.9-.5 0-1.1 0-1.6-.1-1.1-.1-2.2-.1-3.3-.1-2 0-4 .1-6 .3-4.3.4-8.5.8-12.7 1.7-2.3.5-4.6 1-6.6 2.2.2.1.5.3.7.4-.3 0-.6 0-.9-.1z" class="st2"/><path d="M564.5 277.2c-.4.5-.5 1.1-.7 1.7-.4 1.3-.8 2.7-1.2 4-.9 3.2-1.9 6.4-2.8 9.7-.2.8-.4 1.5-.7 2.3.4.1.7.2.9 0 .2-.2.2-.8.3-1 .4-1.3.8-2.6 1.1-3.9 1-3.3 1.9-6.6 2.9-9.9.2-.8.5-1.6.7-2.4-.1.1-.2.2-.3.4 0-.3-.1-.6-.2-.9-.2 0-.3.2-.3.4.1-.1.2-.3.3-.4z" class="st2"/><path d="M596.5 273.9c-4.4-.2-8.8-.4-13.2-.1-2.2.1-4.4.2-6.5.4-2.1.2-4.1.6-6.1 1-1.2.2-2.4.6-3.5 1-.6.2-1.1.4-1.7.6-.2.1-.9.2-1 .4-.1.1.2.7.3.9 3.9-1.6 8.1-2.7 12.3-3.1 4.3-.4 8.7-.3 13-.3 1.3 0 2.6.1 3.9.1h1.8c.8 0 .7 0 .7-.9zm24.7 24.4c.1-1.2.4-2.4.4-3.7 0-1.5-.1-2.7-.4-4.2-.6-2.5-1.8-4.9-3.4-6.8-3.1-3.8-7.9-6.6-12.5-8.1-2.8-.9-5.7-1.4-8.7-1.6 0 .2-.1.7 0 .9.1.1.8.1 1 .1.6 0 1.2.1 1.9.2 1.2.2 2.4.4 3.6.8 2.6.7 5.1 1.7 7.4 3 4.6 2.4 8.3 6.4 9.7 11.4.4 1.6.5 3.1.5 4.7 0 .6-.1 1.3-.2 1.9 0 .2-.3 1.1-.2 1.2.2.2.7.2.9.2z" class="st2"/><path d="M613.7 336.3c.9-4.3 1.7-8.6 2.6-12.8 1.4-6.8 2.7-13.6 4.1-20.5.3-1.6.6-3.1.9-4.7-.9-.1-.8-.3-1 .5-.2.8-.3 1.6-.5 2.5-.6 3-1.2 5.9-1.8 8.9-1.4 7-2.8 14.1-4.2 21.1-.3 1.6-.7 3.3-1 4.9.3 0 .6.1.9.1z" class="st2"/><path d="M595.8 317.5c-.3-1.2-1.8-1.2-2.8-1.3-1.2-.1-2.4 0-3.6.1-2.3.3-4.6.6-6.8 1.1-4.5.9-9.5 3.6-11.4 8.1-.9 2.1-1.1 4.7-.4 6.9.8 2.7 3 3.7 5.6 3.9 4.8.3 9.8-1 13.6-3.9 2-1.5 3.6-3.5 4.4-5.9.3-1 .4-2.1.6-3.2.2-1.3.5-2.6.6-3.9.1-.7.1-1.3.2-1.9z" class="st0"/><path d="M744.1 342.4c.2-2 .6-3.8 1.8-5.4 1.2-1.7 2.9-3 4.9-3.6 1.9-.6 3.9-.9 5.9-.3 2 .6 3.8 1.5 5.2 3.2 1.5 1.9 2.2 3.8 2.4 6.2h-1.5c-.8 0-.6 0-.7-.8-.1-.9-.3-1.7-.7-2.5-.9-1.7-2.1-3.2-4-3.9-3.6-1.5-7.9-.3-10 3-.6.9-.9 1.9-1.1 3-.1.5.1 1.1-.3 1.3-.4 0-1.4-.2-1.9-.2z" class="st2"/><path d="M750.6 342.4v-1.7c0-.7-.2-1.7 0-2.3.1-.5.1-.3.8-.3h2.6c2.1 0 4.8.7 4.1 3.4-.2.8-.4.9-1.1.9h-2.4c1-.3 2.3-.3 2.2-1.7-.1-1.2-1.3-1.1-2.2-1.1-.4 0-1.6-.2-1.9 0-.3.2-.1.8-.1 1.2 0 .3.2 1.4 0 1.6-.5.2-1.7 0-2 0z" class="st2"/><path d="M744.1 342.4c-.4 2 .6 4.7 1.8 6.3 1.4 2 3.4 3.2 5.7 3.9 4.6 1.4 9.2-1.1 11.5-5 .6-1.1.9-2.3 1.1-3.5 0-.3.3-1.5 0-1.7-.3-.2-1.7 0-2.1 0 .4 1.6-.4 3.8-1.3 5.2-1.1 1.7-2.7 2.8-4.7 3.3-3.8 1-7.6-1.1-9.3-4.6-.4-.9-.6-1.9-.6-3v-.6c-.1-.4.1-.2-.2-.4-.4-.1-1.5.1-1.9.1z" class="st2"/><path d="M750.6 342.4v3.8c0 .6-.1.6.5.6.2 0 .9.1 1.1 0 .2-.1 0 .1.2-.2.3-.8-.5-3 .2-3.4.2-.1 1.5-.1 1.7 0 .3.2.7 1.1.9 1.5.3.6.7 1.6 1.2 2 .4.3 1 .2 1.5.2-.7-1.2-1.4-2.4-2.2-3.6.7 0 1.6-.1 2-.8-2.5-.1-4.8-.1-7.1-.1z" class="st2"/><path d="M744 342.8c.2-2.2.6-4 1.8-5.8 1.2-1.7 2.8-3 4.8-3.7 4.1-1.4 8.6-.4 11.4 3 2.7 3.3 3.1 7.9.9 11.6-2.1 3.6-6.6 5.6-10.7 4.8-2.3-.5-4.3-1.8-5.8-3.5-1.6-1.9-2.1-3.9-2.4-6.4" class="st3"/><path d="M752.4 346.8c-.4 0-1.6.2-1.8-.1-.2-.4 0-1.7 0-2.2V341c0-.8-.2-1.8 0-2.6v-.4c.1-.1.9 0 1 0h2.9c1.3.1 2.9.3 3.5 1.6.8 1.8-.5 3.5-2.3 3.5.7 1.2 1.4 2.4 2.2 3.6-.3 0-1.1.2-1.4 0-.2-.1-.4-.6-.5-.8-.3-.6-.7-1.1-1-1.7-.1-.2-.4-.9-.6-1.1-.2-.1-1 0-1.3 0-.6 0-.5-.1-.5.4-.3 1.1-.2 2.2-.2 3.3" class="st3"/><path d="M754.2 342.4c1-.2 2.5-.2 2.5-1.5.1-1.3-1.2-1.3-2.2-1.3-.5 0-1.5-.2-2 0-.3.2-.2.8-.2 1.2 0 .2-.2 1.5 0 1.6.4.2 1.5 0 1.9 0" class="st3"/><path d="M754.2 351.2c1.7-.2 3.3-.5 4.7-1.5 1.3-1 2.4-2.5 2.9-4 .9-3.3.3-6.9-2.4-9.3-2.6-2.3-6.6-2.4-9.5-.7-2.9 1.7-4.1 5.5-3.5 8.7.3 1.8 1.2 3.5 2.6 4.7 1.5 1.4 3.2 1.9 5.2 2.1" class="st3"/><path d="M618.6 352.2h18.7c.3 0 1.2.2 1.5 0 .1-.1.1-.2.1-.3.4-1 .4-2.3.6-3.4.4-2.1.7-4.2 1.1-6.3.9-5.4 1.9-10.7 2.8-16.1.8-4.2 1.5-8.5 2.3-12.7.4-2.4.8-4.8 1.6-7.1 1.1-3.4 3-6.6 5.8-8.8 2.9-2.4 6.3-3.7 10.1-4.3 1.8-.3 3.6-.4 5.4-.4.8 0 .7.1.8-.6.1-.8.3-1.6.4-2.4.8-4.8 1.7-9.6 2.5-14.4.1-.4.1-.7.2-1.1-3.7.3-7.2.8-10.6 2.5-3.2 1.6-5.8 4-8.2 6.6-1.3 1.5-2.6 3.1-3.7 4.7.7-4.3 1.4-8.7 2.2-13h-18.7c-.3 0-1.1-.1-1.4 0-.5.2-.5 2.1-.6 2.6-.5 2.7-.9 5.3-1.4 8-1.5 8.5-3 17-4.4 25.5-1.6 8.9-3.1 17.8-4.7 26.7-.8 4.7-1.6 9.4-2.5 14.1.1.1.1.2.1.2z" class="st2"/><path d="M618.6 352.2h19.8c.6 0 .5.1.6-.5.2-1 .3-1.9.5-2.9.6-3.6 1.3-7.2 1.9-10.8 1.4-8 2.8-15.9 4.2-23.9.8-4.7 1.8-9.2 4.4-13.2 3.2-4.9 9.3-7.6 15.1-8 .8-.1 1.6-.1 2.4-.1.3 0 1.6.2 1.8 0 .1-.1.1-.5.1-.6.2-1.3.5-2.7.7-4 .6-3.7 1.3-7.4 1.9-11.1.2-.9.3-1.9.5-2.8-3.7.3-7.2.8-10.6 2.5-3.2 1.6-5.8 4-8.2 6.6-1.3 1.5-2.6 3.1-3.7 4.7.7-4.3 1.4-8.7 2.2-13h-18.7c-.3 0-1.1-.1-1.4 0-.5.2-.5 2.1-.6 2.6-.5 2.7-.9 5.3-1.4 8-1.5 8.5-3 17-4.4 25.5-1.6 8.9-3.1 17.8-4.7 26.7-.8 4.7-1.6 9.4-2.5 14.1.1.1.1.2.1.2" class="st3"/><path d="M428 352.2h19c.4 0 .8.1 1.2 0 .5-.1.3.1.4-.4.4-1.1.4-2.5.6-3.6.4-2.2.7-4.3 1.1-6.5.9-5.5 1.9-11 2.8-16.4.7-4.2 1.4-8.3 2.1-12.5.4-2.6.9-5.2 1.8-7.6 1.3-3.6 3.7-6.6 7.2-8.3 3.4-1.7 7.2-2.4 10.9-2.6.7 0 1.5.3 2.2.3.4 0 .3 0 .4-.6.1-.6.3-1.1.4-1.7.4-1.8.9-3.6 1.4-5.4 1-3.6 2.4-6.8 4.3-9.9.5-.8 1-1.5 1.4-2.3-3.8-.6-8-.3-11.6 1-4 1.4-7.1 3.9-9.9 7-1.5 1.7-2.9 3.6-4.2 5.5.9-4.3 1.7-8.7 2.6-13h-18.7c-.5 0-1.1-.1-1.6 0-.4.1-.2 0-.3.4-.1.6-.2 1.3-.3 2-.5 2.6-.9 5.2-1.4 7.9l-4.5 25.5c-1.6 8.9-3.1 17.9-4.7 26.8-.8 4.8-1.7 9.5-2.5 14.3-.1 0-.1.1-.1.1z" class="st2"/><path d="M428 352.2h20.3c.5-.1.2.1.4-.2.3-.6.3-1.7.4-2.3.6-3.4 1.1-6.7 1.7-10.1 1.4-8.1 2.7-16.2 4.1-24.2.7-4.4 1.2-9.2 3.5-13 1.5-2.5 3.7-4.5 6.4-5.8 2.6-1.2 5.4-1.9 8.3-2.2.8-.1 1.6-.1 2.4-.2.3 0 .6.1 1 .1.2 0 .9.3 1.1.2.4-.1.5-1.5.6-2 .3-1.5.7-2.9 1.1-4.4.8-3.1 1.8-6.1 3.3-9 .8-1.6 1.8-3.1 2.7-4.6-1.1-.2-2.2-.4-3.3-.4-3.6.2-7.2.6-10.5 2.2-3.4 1.6-5.8 4-8.2 6.8-1.3 1.5-2.5 3.2-3.7 4.9.9-4.3 1.7-8.7 2.6-13h-18.7c-.5 0-1.1-.1-1.6 0-.4.1-.2 0-.3.4-.1.6-.2 1.3-.3 2-.5 2.6-.9 5.2-1.4 7.9l-4.5 25.5c-1.6 8.9-3.1 17.9-4.7 26.8-.8 4.8-1.7 9.5-2.5 14.3-.2.2-.2.3-.2.3" class="st3"/><path d="M744.2 428c-.1-.7.4-1.7.7-2.3.4-.9 1-1.6 1.6-2.3 1.1-1.2 2.6-2.3 4.1-2.7 3.7-1.1 7.2-.5 10.2 1.8 1.2 1 2.4 2.6 2.8 4 .1.3.5 1 .4 1.3-.1.4-.7.2-1.1.2-.4 0-.8.1-1-.2-.2-.3-.2-1-.4-1.4-1.5-3.6-5-5.3-8.7-4.9-1.9.2-3.7 1.4-4.9 2.9-.6.8-1.1 1.6-1.4 2.5-.1.2-.1.8-.3.9-.2.2-.1 0-.4.1-.3.2-1 .1-1.6.1z" class="st0"/><path d="M750.6 428c0-.6-.2-2.3.2-2.5.4-.2 1.4 0 1.8 0h1.8c1.9 0 3.6.3 3.8 2.5-.3 0-1.2.2-1.4 0-.2-.1 0-.8-.2-1-.4-.5-1.5-.4-2.1-.4h-1.6c-.6 0-.5 0-.5.6s.2.7-.4.8c-.4.1-.9 0-1.4 0zm-6.6 1.6c.1-.4 0-1.4.3-1.6.3-.2 1.6 0 2 0 0 .3 0 1.4-.2 1.6-.3.2-1.6 0-2.1 0z" class="st0"/><path d="M750.6 429.6c0-.3-.2-1.4 0-1.5.1-.1 1.2-.1 1.4 0 .2 0 .3-.1.4.1.1.2 0 .7 0 .9 0 .6.2.4.9.4.9 0 1.9 0 2.7-.5.2-.1.3-.2.5-.4.1-.1.1-.5.2-.6.2-.2 1.1 0 1.4 0-.1.5-.2 1.4-.7 1.6-.5.2-1.4 0-1.9 0h-4.9zm11.6 0c0-.5-.1-1.1-.1-1.6.5 0 1.6-.2 2 0 .3.2.3 1.2.3 1.6h-2.2z" class="st0"/><path d="M744 429.6c-.1 4.1 2.4 8.1 6.3 9.6 3.7 1.5 8.7.7 11.3-2.5 1.3-1.6 2.3-3.3 2.6-5.4 0-.2.3-1.5.1-1.6-.2-.2-1.5 0-1.7 0-.6.1-.4.1-.5.7 0 .5-.1 1-.2 1.4-.9 4.3-5.1 7.1-9.4 6.3-2.2-.4-4.2-1.9-5.3-3.9-.6-1-.9-2.1-1-3.3 0-.4 0-1.1-.3-1.3-.3-.3-1.4 0-1.9 0z" class="st0"/><path d="M750.6 429.6c0 1.2-.1 2.5 0 3.7 0 .6.1.4.7.4.2 0 .8.1 1 0 .1-.1 0 0 .1-.3.2-.6 0-1.6 0-2.2 0-.5-.2-1 .2-1.1.2-.1 1.4-.1 1.6 0 .3.2.7 1.1.9 1.4.3.6.7 1.6 1.2 2 .3.3 1 .1 1.5.1-.7-1.2-1.4-2.4-2.2-3.6.6 0 1.3-.1 1.8-.6-2.2.2-4.5.2-6.8.2z" class="st0"/></g></svg>