<svg xmlns="http://www.w3.org/2000/svg" viewBox="0 0 54 54"><path fill="#E5046A" d="M27 .4C12.1.4 0 12.5 0 27.4s12.1 27 27 27 27-12.1 27-27S41.9.4 27 .4zm-8.7 40.3c-.1.1-.2.1-.2.2-.6.3-1.4.1-1.8-.5L13 34.2c.4-.3.9-.6 1.3-.9l1.8-1.2 1.8-1.2 1.8-1.2 1.8-1.2 1.8-1.2 1.8-1.2 3.7-2.4c.6-.4 1.2-.8 1.9-1.2l1.9-1.2 1.9-1.2c.2-.1.3-.2.5-.3l-.9.9-2.5 2.6-2.5 2.6-1.3 1.3-1.3 1.3L24 31l-2.6 2.6-2.6 2.6c-.1.1-.1.2-.2.3-.3.5-.1 1.1.5 1.4h.1v.1l.4.1 1.1.6-2.4 2zm23.6-25.4l-6.7 24.5c-.2.5-.8.9-1.3.7l-10.6-3.2-2-.9c.5-.5 1-1.1 1.5-1.6l2.5-2.7 2.5-2.7 1.2-1.3 1.3-1.3 2.5-2.6 2.5-2.6 2.5-2.6c.8-.9 1.7-1.7 2.5-2.6.2-.2.3-.6.1-.9-.2-.3-.6-.4-1-.2l-3.7 2.4c-.6.4-1.2.8-1.9 1.2L32 20l-1.9 1.2-1.9 1.2-3.7 2.3c-.6.4-1.3.8-1.9 1.2l-1.9 1.2c-.6.4-1.3.8-1.9 1.2L17 29.4c-.6.4-1.3.8-1.9 1.1l-1.9 1.1c-.7.4-1.3.8-2 1.2L7 31.7c-.3-.1-.5-.3-.7-.6-.3-.5 0-1.1.5-1.4L39.2 14c.3-.2.6-.3.9-.4.3-.1.5-.1.8 0 .7.2 1.2 1 1 1.7z"/></svg>