<svg xmlns="http://www.w3.org/2000/svg" viewBox="0 0 841.9 595.3"><style>.st0{fill:#FAB41E}.st1{fill:#E40520}.st2{fill:#FFFFFF}.st3{fill:none;stroke:#FFFFFF;stroke-width:0.215}.st4{fill-rule:evenodd;clip-rule:evenodd;fill:#4DB45E}.st6{fill:url(#SVGID_1_)}.st7{fill:#005CA9}.st8{fill:#F7A823}</style><g id="Слой_2"><g id="g5"><path id="path7" d="M242.8 188.3c-.1.1-30.2 0-38.2 28.8-7.4 26.4-28.1 99.2-28.7 101.2h-5.7S149 243.9 141.5 217c-8-28.8-38.2-28.7-38.2-28.7H34.5V407h68.8V277.1h5.8L149.2 407H197l40-129.8h5.7V407h68.8V188.3h-68.7z" class="st4"/></g><g id="g9"><path id="path11" d="M494 188.3s-20.2 1.8-29.6 22.9l-48.7 107H410V188.3h-68.8V407h65s21.1-1.9 30.6-22.9l47.8-107h5.7V407H559V188.3h-65z" class="st4"/></g><g id="g13"><path id="path15" d="M589.6 287.6V407h68.8v-69.7h74.5c32.5 0 60-20.7 70.2-49.7H589.6z" class="st4"/></g><g id="g17"><linearGradient id="path24_1_" x1="579.911" x2="807.373" y1="360.372" y2="360.372" gradientTransform="matrix(1 0 0 -1 0 593.528)" gradientUnits="userSpaceOnUse"><stop offset=".3" stop-color="#00B4E6"/><stop offset="1" stop-color="#088CCB"/></linearGradient><path id="path24" fill="url(#path24_1_)" fill-rule="evenodd" d="M732.9 188.3h-153c7.6 41.7 38.9 75.1 79.3 86 9.2 2.5 18.8 3.8 28.8 3.8h117.9c1.1-5 1.5-10 1.5-15.3 0-41.2-33.4-74.5-74.5-74.5z" clip-rule="evenodd"/></g></g></svg>