<svg xmlns="http://www.w3.org/2000/svg" viewBox="0 0 15.906 15.719"><path fill="#e5046a" d="M4.666 7.4a.578.578 0 0 0-.8 0 .552.552 0 0 0 0 .786l2.6 2.558a.553.553 0 0 0 .4.161h.027a.628.628 0 0 0 .412-.2l6.5-7.667a.567.567 0 0 0-.068-.786.588.588 0 0 0-.8.069l-6.11 7.207zm7.5-6.194a8.016 8.016 0 0 0-9.845 1.112 7.785 7.785 0 0 0 0 11.1 8.042 8.042 0 0 0 11.26 0A7.717 7.717 0 0 0 14.69 3.7a.563.563 0 0 0-.769-.175.544.544 0 0 0-.179.757 6.623 6.623 0 0 1-.961 8.359 6.936 6.936 0 0 1-9.681 0 6.689 6.689 0 0 1 0-9.536 6.92 6.92 0 0 1 8.473-.962.56.56 0 0 0 .769-.174.547.547 0 0 0-.179-.769z"/></svg>