<svg xmlns="http://www.w3.org/2000/svg" id="Слой_1" x="0" y="0" version="1.1" viewBox="0 0 23.8 23.8" xml:space="preserve"><style>.st0{fill:#e5046a}</style><path d="M19.1 23.8c-1 0-2.2-.2-3.5-.7-2.9-1.1-6-3.2-8.8-6s-5-5.9-6-8.8c-1-2.6-1-4.8 0-5.8.1-.2.2-.4.4-.5.9-.9 1.9-2 3.3-2 .9 0 1.8.6 2.8 1.8 2.7 3.4 1.5 4.6.1 6L7 8c-.2.2-.7 1.3 3.4 5.4 1.3 1.3 2.5 2.3 3.4 2.9.6.4 1.6.9 2 .5l.3-.3c1.4-1.4 2.6-2.6 6 .1 1.1.9 1.7 1.8 1.8 2.7.1 1.3-1 2.4-2 3.3-.2.1-.3.3-.4.4-.6.5-1.4.8-2.4.8zM4.3.8c-1 0-1.8.9-2.6 1.7-.1.2-.3.3-.4.5-.7.7-.7 2.6.2 4.9 1 2.8 3.1 5.8 5.9 8.5 2.7 2.7 5.8 4.8 8.5 5.9 2.3.8 4.2.9 4.9.2.1-.1.3-.3.5-.4.8-.8 1.8-1.7 1.7-2.6 0-.7-.5-1.4-1.5-2.2-2.8-2.3-3.6-1.5-4.9-.1l-.3.3c-.6.6-1.6.5-3-.4-1-.6-2.1-1.6-3.5-3-3.4-3.4-4.5-5.5-3.4-6.5l.3-.2C8 5.9 8.8 5.1 6.6 2.3 5.8 1.3 5.1.8 4.3.8c.1 0 .1 0 0 0zm15 9h-.2c-.2-.1-.3-.3-.2-.5.5-1.3.2-2.7-.7-3.6-1-1-2.5-1.3-3.8-.7-.2.1-.4 0-.5-.2s0-.4.2-.5c1.6-.7 3.4-.4 4.7.9 1.2 1.2 1.5 3 .9 4.5-.1 0-.3.1-.4.1z" class="st0"/><path d="M22.8 11.3h-.2c-.2-.1-.3-.3-.2-.5 1.2-2.8.5-5.8-1.5-7.9C18.8.8 15.5.2 12.8 1.4c-.2.1-.4 0-.5-.2s0-.4.2-.5c3-1.4 6.6-.7 9 1.6 2.3 2.3 3 5.7 1.8 8.7-.2.2-.3.3-.5.3z" class="st0"/></svg>