<svg xmlns="http://www.w3.org/2000/svg" id="Слой_1" x="0" y="0" version="1.1" viewBox="0 0 512 512" xml:space="preserve"><style>.st0{fill:#585858}</style><path d="M256 0C148.9.1 62.2 86.9 62.1 194c0 104.2 178.9 306.1 186.5 314.6 3.7 4.1 10 4.5 14.1.8.3-.2.5-.5.8-.8C271.1 500 450 298.2 450 194 449.8 87 363.1.2 256 0zm0 486.8C221.9 446.9 82 279.3 82 193.9c0-96.1 77.9-174 174-174s174 77.9 174 174c0 85.4-139.8 253.2-174 292.9z" class="st0"/><path d="M259.5 97.3c-58 .1-105.1 47.2-105 105.2s47.2 105.1 105.2 105 105-47.1 105-105.1c-.1-58-47.1-105-105.2-105.1zm0 190.4c-47 0-85.1-38.1-85.1-85.1s38.1-85.1 85.1-85.1 85.1 38.1 85.1 85.1c0 46.9-38.1 85-85.1 85.1z" class="st0"/></svg>