<svg xmlns="http://www.w3.org/2000/svg" id="Layer_8369_Изображение" x="0" y="0" version="1.1" viewBox="0 0 733.3 954" xml:space="preserve"><style>.st0{fill:#E50469}</style><path d="M733 954H1c.1-1.7.2-3.3.2-5V6c0-2-.1-4-.2-6h526c.9 1.3 1.9 2.5 3 3.7 64.6 63.4 129.3 126.7 194 189.9 6.6 6.4 9.3 12.6 9.3 22-.3 246.2-.4 492.3-.3 738.4zM24.7 23.5v906.3H710V222c0-1.3.3-2.8-.1-4-.7-2-1.4-4.5-3-5.7-4.9-3.8-10-7.2-15.3-10.4-18.7-11.1-39.5-14.2-60.6-13.9-22.6.3-45.2 2.4-67.8 3.8-9.7.6-13.9-3-14.8-12.6-.2-2.3-.3-4.7-.3-7 0-19.2.3-38.3 0-57.5-.4-31.9-10.3-60.7-28.9-86.7-2.4-3.3-4.9-4.7-9-4.7-160 .1-320 .1-480 .1l-5.5.1zm547 143.6c15.4-.8 30.3-2.2 45.3-2.3s29.7 1 45.2 1.6l-94.8-93c1.4 15.5 3.4 31 4.2 46.5s.2 31.2.1 47.2z" class="st0"/><path d="M1 0c.1 2 .2 4 .2 6v943c0 1.7-.1 3.3-.2 5-.3-.2-.9-.3-1-.5-.1-1.3 0-2.7 0-4V4.5C.2 3 .5 1.5 1 0zm580.8 764.7h33.9v41.2H582v43.5H89v-585h492.8v6.6c0 79.5 0 159-.1 238.5 0 5 1 7.3 6.3 9.1 42.1 14.3 70 54.1 69.9 98.8 0 44.4-28.3 83.8-70.3 98.1-4.7 1.6-6.1 3.6-6 8.3.4 13.4.2 26.7.2 40.9zm-5.8-416c-1.2-.2-2.5-.4-3.8-.5-36.6 0-73.2 0-109.9-.1-4.1 0-4.5 1.9-4.5 5.2.1 23.5.2 47 0 70.4 0 4.6 1.5 5.5 5.7 5.4 35.8-.1 71.6-.1 107.4-.1 1.6 0 3.2-.2 5.1-.3v-80zm-246.1 0c-1.7-.2-3.2-.4-4.6-.4-35.8 0-71.6 0-107.4-.1-4 0-5 1.4-5 5.2.2 23.5.2 47 0 70.4 0 4 1 5.4 5.2 5.4 35.6-.2 71.3-.2 106.9 0 4.3 0 5.3-1.4 5.2-5.4-.2-23.5-.1-47-.1-70.4 0-1.4-.1-2.9-.2-4.7zm6 80.1H452c.2-.9.3-1.8.4-2.7 0-24.7 0-49.3.1-74 0-4.2-2.5-3.9-5.2-3.9-35.5 0-71 .1-106.5-.1-4.2 0-5.3 1.4-5.2 5.5.2 23.3.1 46.7.1 70-.1 1.6.1 3.3.2 5.2zM213.3 684.9v79.9h116.5v-79.9H213.3zm116.5-88.4c.1-2.2.3-3.7.3-5.2 0-23-.1-46 .1-69 0-4.7-1.6-5.5-5.8-5.5-35.3.2-70.7.2-106 0-4.3 0-5.7 1.1-5.7 5.6.2 22.7.2 45.3 0 68 0 4.8 1.2 6.2 6.1 6.2 35.2-.2 70.3-.1 105.5-.1h5.5zM95.1 348.6v80.1h112v-80.1h-112zM271 679.2c18 0 36-.1 54 .1 3.7 0 5.3-.7 5.2-4.9-.2-22.5-.2-45 0-67.5 0-4.1-1.4-5-5.2-5-35.6.1-71.3.1-107 0-4.3 0-5.3 1.5-5.2 5.5.2 22.2.2 44.3 0 66.5 0 4.6 1.5 5.5 5.7 5.5 17.5-.4 35-.2 52.5-.2zm305-168V435H458.3v76.2H576zM95 764.8h112.1V685H94.9l.1 79.8zm235.1-329.7H213.3c-.2.8-.3 1.6-.3 2.4 0 23.3.1 46.6-.1 69.9 0 4.1 2.1 4.1 5 4.1 35.8 0 71.6-.1 107.4.1 4.1 0 5-1.4 5-5.2-.2-16.8-.1-33.6-.1-50.5l-.1-20.8zM206.9 596.3v-79H95.2v79h111.7zM336.1 435v76h116v-76h-116zM206.9 678.9v-76.6H95.1v76.6h111.8zm251-409v5.6c0 20.5.2 41-.1 61.5-.1 4.9 1.5 6.1 6.2 6.1 35.5-.2 71-.1 106.5-.1 1.8 0 3.6-.2 5.4-.3V270l-118-.1zm-244.8.1c-.1 2.1-.2 3.6-.2 5 0 20.8.1 41.6-.1 62.5 0 4.6 1.6 5.5 5.8 5.5 35.3-.1 70.6-.1 105.9 0 4.2 0 5.8-1 5.7-5.5-.2-20.8-.1-41.6-.1-62.5 0-1.6-.2-3.2-.3-5H213.1zm117 501.2H213.5c-.2.4-.4.9-.4 1.3-.1 22.6 0 45.3-.2 67.9 0 3.4 1.8 3.7 4.4 3.7h108.4c3.6 0 4.5-1.3 4.5-4.7-.1-12.5 0-25 0-37.5l-.1-30.7zM95.2 434.9v76.2H207v-76.2H95.2zm240.3-98c-.1 4.8 1.3 6.2 6.1 6.1 35-.2 69.9-.1 104.9-.1 1.8 0 3.6-.2 5.5-.3V270H335.6v5.5M94.8 771c-.3 1.2-.5 2.3-.6 3.5 0 21.8.1 43.7-.1 65.5 0 4.5 2.5 4.1 5.5 4.1h102.5c1.6 0 3.2-.2 5-.3V771H94.8zm112.4-501.1c-1.4-.1-2.2-.2-3.1-.2-35.2 0-70.3 0-105.5-.1-4.2 0-4.5 1.9-4.5 5.2.1 20.8.2 41.7-.1 62.5 0 4.8 1.7 5.8 6.1 5.8 33.8-.1 67.6-.1 101.5-.1 1.8 0 3.6-.2 5.5-.3l.1-72.8zm128.7 247.3v79c1.9.1 3.5.3 5.1.3 29 0 58-.1 87 .1 4.6 0 6-1.2 5.9-5.8-.2-22.7-.2-45.3 0-68 0-4.6-1.3-5.9-5.9-5.9-28.8.2-57.7.1-86.5.1-1.7 0-3.5.1-5.6.2zm.1 85v76.7c1.9.1 3.4.2 4.8.2 29.2 0 58.3-.1 87.5.1 4.4 0 5.7-1.2 5.6-5.6-.2-22-.2-44 0-66 0-4.7-1.4-5.9-6-5.8-28.8.2-57.6.1-86.4.1-1.7.1-3.5.2-5.5.3zm154.1 77h6.1c20.1 0 40.3.2 60.4-.1 5.2-.1 10.3-1.8 15.5-2.9 3.3-.7 4.2-2.8 4.2-6.2-.2-21-.1-41.9-.1-62.9 0-1.6-.2-3.2-.3-4.7h-85.8v76.8zm-56.6 85.4c.1-2.3.3-3.9.3-5.6 0-10.5-.2-21 .1-31.5.1-4.6-1.6-5.6-5.8-5.5-15 .2-30 .1-45 .1-1.9 0-3.8-.2-6.1-.4V685h-41v79.5l97.5.1zm-56.2 6.5h-41.1c-.2.5-.4 1.1-.5 1.6 0 22.7 0 45.3-.1 68 0 3.1 1.6 3.5 4.1 3.5h89.9c3.4 0 4.3-1.3 4.3-4.4-.1-9.7-.2-19.3 0-29 .1-3.8-1.3-4.8-5-4.8-15.1.2-30.3.1-45.5 0-1.9 0-3.9-.2-6.2-.3l.1-34.6zm198.7-6.8v-43.5l-85.8 1.9v41.6H576zm.1-168.1c0-11.8.1-22.9-.2-34.1 0-1.4-2-3.7-3.4-4-6.9-1.7-13.9-3.8-20.9-4.1-19-.6-38-.2-57-.2-1.5 0-2.9.2-4.5.3v42.1h86zm-.1 210.2h-85.8v37.4H576v-37.4zm6.2-243.7v108.4c19.6-13.7 29.4-31.5 29.3-54.5-.2-22.7-9.9-40.4-29.3-53.9z" class="st0"/></svg>