<svg xmlns="http://www.w3.org/2000/svg" id="Слой_1" x="0" y="0" version="1.1" viewBox="0 0 1033 1033" xml:space="preserve"><style>.st0{fill:#e5046a}</style><path d="M787 1034H80c-9.2-3.7-12.9-10.5-12.6-20.3.4-13.5.1-27 .1-40.4 0-1.8-.2-3.5-.3-5.7h-5.9c-13.3 0-26.6-.3-39.9.1-9.9.2-16.7-3.5-20.4-12.7V13C3.4 7.4 7.4 3.4 13 1h676c9.4 4.3 12.5 11.8 12.1 21.8-.5 12.3-.1 24.7-.1 37v7.7h45.6c15.1 0 20.9 5.8 20.9 20.7v403.4c0 1.5.2 3 0 4.5-.5 3.7 1 4.7 4.7 4.9 11 .5 22 .8 32.8 2.4 61.6 9.1 114.1 36.3 156.8 81.7 36.3 38.6 59.1 84.1 68.3 136.4 1.5 8.8 2.6 17.7 3.9 26.5v39c-.3.9-.8 1.8-.8 2.8-2.9 35.8-12.4 69.8-29.5 101.3-41.5 76-104.9 122.7-190.1 139-8.9 1.6-17.8 2.6-26.6 3.9zm-685.8-34h535.2c-103.9-59.2-153-175.4-130.7-281.3 26-123.3 106-192.7 228.1-217V101.4H101.3c-.1 299.7-.1 599-.1 898.6zm433-232.9c.5 130.8 105.8 232 230.3 233.4 129.5 1.5 234.4-102.8 236.1-230 1.7-127.7-100.9-235.7-232.4-236.2-128.8-.6-234 104.6-234 232.8zM67.5 933.8V89.5c0-2.2-.1-4.3.1-6.5.8-8.7 6.9-14.7 15.6-15.4 2.2-.2 4.3-.1 6.5-.1h577.2V35H35v898.8h32.5z" class="st0"/><path d="M134.4 600.7v-33.1h299.4v33.1H134.4zm299.5 166.8v33H134.5v-33h299.4zm0-133.2v32.9H134.4v-32.9h299.5zm0-133.1v32.7H134.5v-32.7h299.4zM134.4 733.8v-32.5h299.4v32.5H134.4zm3.8-466.4v-33h266.5v33H138.2zm562.6-32.9v33H434.5v-33h266.3zm-296 133.4v32.8H138.3v-32.8h266.5zm29.4 32.8v-32.9h266.5v32.9H434.2zM138.3 301h266.4v32.8H138.3V301zm295.9 32.8v-32.6h266.5v32.6H434.2zM761.1 788v15.2h62.1c5.9 0 6.7.8 6.7 6.6 0 4-.2 8 .1 12 .3 4.8-1.9 6.4-6.6 6.3-19.2-.2-38.3-.1-57.5-.1h-5v14.2c0 16.4 1.4 14.6-14.8 14.6-3.2 0-6.3-.1-9.5 0-4 .1-5.8-1.7-5.7-5.7.1-7.5 0-14.9 0-23.1h-25.1c-7.4 0-7.7-.3-7.7-7.6v-10.5c0-6.1.7-6.8 7-6.8h20.5c1.6 0 3.2-.2 5.1-.2V788c-5.5 0-10.9.1-16.3 0-18.9-.2-16 2.7-16.3-16.5 0-1.7.1-3.3 0-5-.4-4.4 1.9-6 5.9-6h26.9V683c0-6.5.7-7.2 7.2-7.2 23.7 0 47.3-.2 71 .2 25.7.5 46.6 17.5 52.1 41.6 6.1 26.7-4.5 51.7-26.9 63.5-8.7 4.6-18 6.8-27.9 6.8-15 .1-30 .1-45.3.1zm.2-83.9v56.2c15.2 0 30.1.6 44.8-.2 15.1-.8 25.3-11.8 25.9-26.1.6-15.5-8-28.3-22.3-29.6-16-1.4-32.2-.3-48.4-.3zm5.8-136.6v33.2c-92.6.3-167.3 77.8-166.5 166.6h-32.8c-2.7-100.7 82.3-199.9 199.3-199.8zm.4 366.6c45.9-1 85.5-17 117.8-49.4 32.1-32.2 47.9-71.7 48.9-117.3h33.4c-.7 52.6-18.2 98.3-54 136.4-39.3 41.9-88.2 62.7-146.1 63.8v-33.5z" class="st0"/></svg>