<svg xmlns="http://www.w3.org/2000/svg" viewBox="0 0 46.5 46.5"><path fill="#f06" d="M44.6 2.7H36V1.4c0-.8-.6-1.4-1.4-1.4-.8 0-1.4.6-1.4 1.4v1.4h-8.6V1.4C24.6.6 24 0 23.2 0s-1.4.6-1.4 1.4v1.4h-8.3V1.4c0-.8-.6-1.4-1.4-1.4-.8 0-1.4.6-1.4 1.4v1.4H1.9C1.1 2.7.5 3.3.5 4.1v31c0 .8.6 1.4 1.4 1.4h8.5c1.4 5.8 6.6 10.1 12.8 10.1S34.7 42.3 36 36.5h8.5c.8 0 1.4-.6 1.4-1.4v-31c.1-.8-.5-1.4-1.3-1.4zm-21.3 42c-6.3 0-11.4-5-11.4-11.2S17 22.3 23.3 22.3s11.4 5 11.4 11.2c-.1 6.2-5.2 11.2-11.4 11.2zm20.9-10.1h-7.7v-.2c0-7.2-5-13.7-13.2-13.6-8 .1-13.2 6.5-13.2 13.6v.2H2.3V12.8h42l-.1 21.8zm.1-23.4h-42V4.6h8.5V6c0 .9.7 1.6 1.5 1.6s1.5-.7 1.5-1.6V4.6H22V6c0 .9.7 1.6 1.5 1.6S25 6.9 25 6V4.6h8.5V6c0 .9.7 1.6 1.5 1.6s1.5-.7 1.5-1.6V4.6h8.1v6.6h-.3zM23.4 34.3v-6.6c0-.8 0-1.4-.8-1.4s-.8.2-.8.9v7.2c0 .4.1.7.4 1l3.2 3.2c.3.3.2.2.5.2.4 0 .2.1.5-.2.5-.5.2-1-.3-1.6l-2.7-2.7z"/></svg>