<svg xmlns="http://www.w3.org/2000/svg" id="Слой_1" x="0" y="0" version="1.1" viewBox="0 0 185.1 185.1" xml:space="preserve"><style>.st0{fill:#e5046a}</style><path d="M125.3 185.3c8.6-16 17.3-31.9 25.9-47.9 1.3-2.5 2.7-5 4.1-7.6-.4 0-.7-.1-1-.1h-15.7c-.7 0-1 .2-1.4.8-4.6 8.3-9.2 16.6-13.8 25-.6 1.1-1.3 1.8-2.6 2-2 .2-3.4-1.2-3.5-3.2v-24.5c0-8.6-6.8-15.4-15.4-15.4h-7.5c-.6 0-1 .2-1.4.7-7.8 10.4-15.6 20.7-23.4 31-1.7 2.2-3.4 4.5-5.1 6.7-1.7 2.3-4 2.3-5.6 0-8.9-12.4-17.8-24.8-26.6-37.2-.6-.9-1.3-1.2-2.3-1.2-3 .1-6 0-9 .1-8.3.3-14.8 7.1-14.8 15.4v54.2c0 .4-.1.9-.1 1.3H0v-57.6c.2-1.2.4-2.4.7-3.6 2.5-9.4 11.1-16 20.8-16h18.1c4 0 6.6-2.6 6.6-6.6v-6.1c0-.3-.3-.8-.6-1-8-5.1-12.9-12.3-14.5-21.7-.2-1.5-.3-3-.4-4.5v-13c0-1.7.7-2.8 2.2-3.6 17.1-8 34.2-16.1 51.3-24.1 2.1-1 3.7-.4 4.7 1.7 2.3 4.5 3.4 9.2 3.4 14.2 0 8.2.1 16.5 0 24.7-.2 11.2-5.1 19.8-14.5 26-.7.4-1 .9-.9 1.7.1 2 0 3.9 0 5.9 0 3.7 2.6 6.3 6.4 6.4h18c10.5 0 19.3 7 21.4 17.3.3 1.3.4 2.7.4 4.1.1 3.8 0 7.6 0 11.5v1h.2c.1-.2.3-.4.4-.7 2.5-4.5 4.9-9 7.5-13.4.8-1.4 1.2-2.7 1.4-4.3 1.2-10 9.9-18.2 20-18.5 7.4-.2 14.7-.1 22.1-.1h6.8c2.1 0 3.3 1.2 3.3 3.3 0 10.6-8.3 20-18.9 21.2-1 .1-2.1.2-3.1.2-.6 0-.9.2-1.2.7-5.1 9.5-10.3 19-15.4 28.5-4.5 8.4-9.1 16.8-13.6 25.2-.2.3-.3.7-.5 1.1h-6.8zM84.8 34.4c-.3.1-.5.2-.7.3-3.3 1.6-6.6 3.1-9.9 4.7C62.1 45 50 50.7 38 56.3c-.7.3-.9.7-.9 1.4v9.6c.1 1.9.2 3.8.5 5.7C40 86 53.4 95 66.4 92.2c11.9-2.5 20-12.4 20-24.6V46.8c0-1.9 0-3.8-.1-5.7-.1-2.3-.6-4.5-1.5-6.7zM71.1 97.5c-3.1.9-6.1 1.4-9.2 1.4-3.1 0-6.2-.5-9.3-1.4v4.4c0 6.1-4.1 11-10 12.2-1.1.2-2.2.2-3.3.4.1.2.1.3.2.4 2.7 3.8 5.4 7.6 8.1 11.3.2.3.7.5 1.1.5h27.1c.4 0 .9-.3 1.2-.6 2.2-2.9 4.4-5.7 6.5-8.6.7-1 1.4-1.9 2.3-3h-2c-7.4 0-12.8-5.4-12.8-12.8.1-1.4.1-2.8.1-4.2zm68.2 26.1h1.1c7.7 0 15.4.1 23.1 0 6.2-.1 10.8-3 13.8-8.4.6-1.2 1-2.5 1.5-3.9h-24.1c-.9 0-1.7.1-2.6.1-6 .7-11.7 6-12.8 12.2zm-86.8 9.3c3.2 4.4 6.3 8.8 9.4 13.2 3.3-4.4 6.6-8.7 9.9-13.2H52.5z" class="st0"/><path d="M64.9.2c2.1.3 4.2.5 6.2.9C90 5.6 101.9 17.3 106.9 36c1 3.6 1.2 7.3 1.2 11v33.3c0 9.3-5.6 17.3-14.3 20.5-3.3 1.2-6.8 1.4-10.3 1.2v-6.1h3c3.7 0 7-1.2 9.8-3.5 3.7-3.1 5.6-7.1 5.6-11.9 0-11.5.1-23.1 0-34.6-.1-10.5-4-19.5-11.2-27.1C84.3 12 76.4 7.9 67.2 6.7 54.8 5.2 43.8 8.6 34.6 17.1 27.4 23.7 23.3 32 22 41.7c-.2 1.5-.3 3.1-.3 4.6v33.8c0 7.9 5.2 14.2 13 15.5 1.4.2 2.8.2 4.2.2h1.2v6.1c-6.8.6-12.9-1.1-17.9-5.8-4.6-4.4-6.8-9.8-6.8-16.1V46.2C15.4 24.1 31.7 4.7 53.5 1 55.2.7 57 .5 58.7.3c2.1-.1 4.2-.1 6.2-.1zm106.6 0c.9.2 1.9.4 2.8.7 6.5 2 10.9 7.9 10.9 14.8v30.7c0 8.7-6.8 15.5-15.5 15.6h-13.1c-.6 0-1.1.2-1.5.6-4.5 4.6-9.1 9.1-13.7 13.7-1.1 1.1-2.4 1.4-3.7.8s-1.8-1.7-1.8-3.1V61.9h-1.1c-2.5-.1-5 .1-7.5-.3-7.6-1.2-12.9-7.5-13-15.1-.1-10.3-.1-20.7 0-31 0-7.7 5.5-14 13.1-15.2.2 0 .3-.1.5-.2 14.5.1 29.1.1 43.6.1zm-29.4 66.5l.8-.8c2.9-2.9 5.8-5.7 8.6-8.7 1-1.1 2.2-1.6 3.7-1.5 5 .1 9.9.1 14.9 0 4.9-.1 8.9-4.1 9-9V15.5c0-5-4.1-9.1-9.1-9.1h-40.3c-4.5 0-8.3 3.3-9 7.8-.1.4-.1.9-.1 1.3 0 10.4-.1 20.9 0 31.3 0 4.9 4 8.8 8.9 8.9 3.1.1 6.1 0 9.2 0 2.3 0 3.5 1.2 3.5 3.5-.1 2.4-.1 4.8-.1 7.5zM95.8 185.3v-8.7c0-1.1.3-2 .9-2.8 6.4-8.5 6.9-19.3 1.2-28.3-.7-1.1-1.4-2.2-2.2-3.4 1.7-1.1 3.4-2.2 5.3-3.3 1.2 1.9 2.4 3.6 3.4 5.5 5.5 11.1 4.9 21.9-2 32.3-.2.3-.4.7-.4 1v7.8c-2-.1-4.1-.1-6.2-.1zm-74.2 0v-7.5c0-.4-.1-.9-.4-1.2-7.4-10.7-7.6-23.8-.6-34.8.6-1 1.3-2 2-3.1.9.6 1.7 1.1 2.6 1.6s1.7 1.1 2.7 1.7c-.7 1.1-1.4 2.2-2 3.2-2.9 4.5-4.3 9.3-4 14.6.2 5.1 1.9 9.8 5.1 13.8.7.9 1 1.7 1 2.8-.1 2.9-.1 5.9-.1 8.8-2.2.1-4.3.1-6.3.1z" class="st0"/><path d="M129.7 34.1v-6h40.1v6h-40.1zm21.6-18.4v6.1h-21.5v-6.1h21.5zm-21.6 30.7v-6h21.6v6h-21.6zm40.1-30.7v6.1h-12.3v-6.1h12.3z" class="st0"/></svg>