<svg xmlns="http://www.w3.org/2000/svg" id="Layer_8369_Изображение" x="0" y="0" version="1.1" viewBox="0 0 826.2 792" xml:space="preserve"><style>.st0{fill:#E50469}</style><path d="M826.2 368.3c-1.4 14.6-2.3 29.4-4.3 44-3.8 27.8-12.4 54.3-24 79.7-27 58.9-68 106.4-120.4 144.3-44.6 32.2-93.9 54.4-147 68.3-30.3 8.1-61.5 12.7-92.9 13.9-22.4.6-44.9 0-67.2-1.9-18-1.4-35.9-4.9-53.7-8.1-4.9-.9-7.9-.2-11.2 3.4-18.7 20.5-40.9 37.6-65.5 50.5-32.5 17.2-67.1 27.5-104.1 28.5-1.6 0-7.1-.1-8.7.3-12.7 0-21.3.8-34 .8.5-.9.9-1.8 1.4-2.6 12.2-18.7 25.5-36.7 36.5-56.1 14.9-26.4 26-54.4 29.7-84.8.5-3.9 0-5.9-3.3-8.1-29.2-19.8-55.6-43.5-78.4-70.4-26-30.7-46.5-64.6-60.2-102.5C7.9 437 1.1 405.8.4 373.3c0-2.1-.4-6.4-.4-6.4v-13.1s.1-5 .4-7.6c1.4-14 1.9-28.1 4.3-41.9C10.9 269.5 22.8 236 40 205c24.6-44.6 57.5-82 97.5-113.1 31-24 65.3-43.6 101.7-58C289.8 13.6 342.3 2.4 396.9 1.2c3.1-.2 6.3-.6 9.4-1.2h15c2.2.5 4.5.9 6.8 1.2 7.1.4 14.3.3 21.4 1.1 18.7 2.2 37.5 3.7 56 7.3 47.4 9.1 93 25.9 134.9 49.8 41.7 23.8 78.4 53.6 108.9 90.6 21.7 26 39.4 55.1 52.4 86.3 14.7 35.5 23.5 72.4 24.5 111M160.6 752.8c1 .2 2.1.3 3.1.3 52.6-10.6 95.3-37.3 128.7-79.2 3.2-4 6-6.4 11.5-4 3.7 1.6 8 1.8 12 2.8 27.4 6.5 55.1 10.8 83.3 11.4 14.3.3 28.6 0 42.9-1 15.6-1.1 31.3-2.6 46.8-5.2 29.6-5 58.5-13.3 86.3-24.7 41.5-17 79.3-39.9 112.5-69.9 26.9-24.3 49.7-52 67.4-83.9 21-37.6 33.5-77.9 36.2-120.8 1.4-20.2.6-40.6-2.6-60.6-3.7-23.8-10.3-47-19.7-69.1-20.5-47.9-51.6-87.9-91.5-121.2-34.6-28.9-73.3-50.7-115.7-66.3-39.7-14.5-81.3-23.1-123.6-25.4-18.6-.9-37.3-.6-55.9 1-20.5 1.6-41.1 4-61.3 8.2-39.7 8.1-77.8 22.4-113.1 42.2-37.9 21.3-71.7 47.8-100 81-22.3 25.9-40.2 55.2-53 86.8-11.1 27.4-17.8 56.4-19.7 85.9-.9 14.2.2 28.6.8 42.9.7 16.9 4.3 33.3 8.7 49.6 13.7 49.8 39.8 92.4 75.1 129.6 20.5 21.4 43.5 40.2 68.5 56 5.5 3.5 10.8 6.7 7.7 14.7-.4 1.2 0 2.7-.1 4-.8 9.1-.7 18.3-2.5 27.2-5.4 27.3-15.1 53.2-28 77.9-1.5 3-3 6.2-4.8 9.8z" class="st0"/><path d="M427 449.6h-43.5c0-4.2-.3-8.3 0-12.4 1.2-15 3.3-29.8 8.5-44 5-13.7 13.7-25 23.4-35.5 13.1-14.2 27.3-27.4 40.3-41.7 11.1-12.2 19-26.6 19.3-43.5.4-21-6-39.7-23.5-52.7-8.6-6.5-19.2-8-29.8-9.3-11.7-1.5-23.6-.6-34.9 2.7-21.9 6.2-35.7 20.7-40.8 43-2.4 10.6-4 21.3-6 32.3h-42.9c1.1-26.4 7-51 22.9-72.5 16.7-22.5 39.1-36 66.6-40.5 26.2-4.3 52.4-3.8 77 7.5 32.1 14.7 52.3 39.4 57.4 75.1 2.3 16.2 2.7 32.7-4.2 47.8-4.5 9.4-10.3 18.1-17.4 25.7-15 16.5-31.3 31.8-46.5 48.1-10.3 11-20.3 22.5-23.2 38-1.4 7.1-1.9 14.4-2.6 21.6-.4 3.3-.1 6.6-.1 10.3zm3.7 43v50h-46.9v-50h46.9z" class="st0"/></svg>