<svg xmlns="http://www.w3.org/2000/svg" id="Layer_543_xA0_Изображение_1_" x="0" y="0" version="1.1" viewBox="0 0 75 75" xml:space="preserve"><style>.st0{fill:#e5046a}</style><path d="M75 14.7v.1c0 .5-.1 1-.2 1.5-.6 2.5-1.7 4.6-3.5 6.4-1.8 1.8-4 3-6.5 3.6-.7.2-1.4.3-2.1.3-.7.1-1.4 0-2.1 0-.7-.1-1.4-.2-2.1-.4-.4-.1-.8 0-1.1.2-.1.1-.2.1-.3.2l-.6.6C46.7 37.1 36.9 47 27 56.8l-.1.1c-.3.4-.5.8-.4 1.3.1.4.2.8.2 1.2.1.8.2 1.6.2 2.3-.1 5.7-3.8 10.9-9.5 12.7-.8.2-1.6.4-2.4.5-.2 0-.5 0-.7.1h-1.9l-2.1-.3c-3-.8-5.5-2.3-7.4-4.8C1.2 67.7.3 65.2.1 62.5c0-.1 0-.2-.1-.3v-1c.1-.1.1-.2.1-.3.1-2.3.8-4.5 2.1-6.4 1.9-3 5-5.1 8.2-5.8.7-.2 1.5-.3 2.3-.3h2l2.1.3c.2.1.4.1.7 0l.6-.3.2-.2 30.1-30.1.1-.1c.3-.4.5-.8.4-1.3-.1-.5-.2-.9-.3-1.4-.1-.7-.1-1.4-.1-2.1 0-.7.1-1.3.2-2 .2-1.4.7-2.8 1.4-4.1C51.9 3.8 55 1.4 58.6.5c.7-.2 1.3-.3 2-.3h1.7c.1 0 .1 0 .2.1 0 .1-.1.1-.2.2l-6.7 6.7c-.1-.2-.2-.2-.2-.1-.3.3-.4.6-.4 1 0 .2.1.3.1.5.7 2 1.3 3.9 2 5.9.2.7.4 1.3.7 2 .1.2.2.4.4.6.2.1.3.2.5.3 1.9.6 3.7 1.2 5.6 1.9.8.3 1.5.5 2.3.8.6.2 1.1.1 1.5-.4l6.7-6.7.2-.2v1.9zM23.9 53l29.4-29.4v-.1l-1.8-1.8C41.6 31.6 31.8 41.4 22 51.1c.1.2 1.7 1.8 1.9 1.9zm-7.1 3.1h-6.5c-.3.4-.5.9-.8 1.3-.3.4-.5.9-.8 1.3-.3.4-.5.9-.8 1.3-.3.4-.5.9-.8 1.3 1.1 1.8 2.1 3.6 3.2 5.3h6.5c1.1-1.8 2.1-3.5 3.2-5.3 0 0-3-5-3.2-5.2zM75 67.7v.1c0 .5-.1.9-.3 1.4-.9 2.8-3.2 4.9-6 5.5-.7.2-1.5.2-2.2.2-.8 0-1.5-.2-2.2-.5h-.1s0-.1.1-.1c0-.1.1-.1.1-.1l9.5-9.5.5-.5.1-.1s0 .1.1.1c.2.5.3.9.4 1.4v2.1z" class="st0"/><path d="M.6 4.2L4.5.3s.1 0 .1.1c2.6 1.5 5.1 2.9 7.7 4.4.1.1.2.1.2.3.3 1.2.6 2.5.9 3.7.1.3.1.6.2.9.1.3.2.5.4.7l.2.2 18.7 18.7.2.2-3.3 3.3-.1.1s-.1 0-.1-.1l-.2-.2-18.7-18.7-.2-.2c-.2-.2-.4-.3-.6-.4-.9-.1-1.8-.3-2.7-.6-.7-.2-1.3-.3-2-.5h-.1C5 12.1.7 4.4.6 4.2zm72.6 57.3L61.8 72.9l-.1.1-.1-.1-.4-.4-6.9-6.9-4.1-4.1-3.7-3.7-.2-.2c.2-.3.4-.5.5-.8.1-.3.2-.5.3-.8.1-.3.1-.6.1-.9 0-.3 0-.6-.1-.9-.1-.3-.1-.6-.2-.9-.1-.3-.3-.5-.4-.8-.2-.2-.4-.5-.6-.7-1.4-1.3-3.7-1.6-5.5-.2 0 0-.1 0-.1-.1l-2-2-.1-.1c.1-.1 11.2-11.3 11.5-11.5 0 0 .1 0 .1.1l2 2 .1.1c0 .1-.1.1-.1.2-.5.6-.7 1.3-.8 2-.2 1.4.3 2.6 1.3 3.6.6.6 1.4 1 2.3 1.1 1.1.1 2.1-.1 3-.8.1 0 .1-.1.2-.1s.1.1.2.1l1.8 1.8 4.9 4.9 7.5 7.5.6.6c.1.2.2.3.4.5zm-6.6 3l-.2-.2-8.9-8.9-1.1-1.1-3-3-.1-.1-.1.1-1.7 1.7 13.3 13.3s.1 0 .1.1c0-.1 1.6-1.7 1.7-1.9z" class="st0"/></svg>