<svg xmlns="http://www.w3.org/2000/svg" id="Capa_1" x="0" y="0" version="1.1" viewBox="-49 141 512 512" xml:space="preserve"><style>.st0{fill:#e5046a}</style><path d="M420.8 364.3V215.8c0-4-2.6-7.6-6.4-8.9L213 141.5c-2-.7-4.1-.6-6 .1-1.9-.7-4-.8-6-.1L-.4 206.9c-3.8 1.2-6.4 4.8-6.4 8.9V364c-.1 2.2-5.7 217.6 209 288.6.9.3 1.9.5 2.9.5h3.8c1 0 2-.2 2.9-.5 214.8-71.1 209.1-286.5 209-288.3zM207.4 634.4h-.8C6.8 567.4 11.5 372.9 11.8 364.3V222.5l194.9-63.3c.1 0 .2-.1.3-.1.1 0 .2.1.3.1l194.9 63.4v142.1c.1 1.9 5.4 202.5-194.8 269.7z" class="st0"/><path d="M362.7 242.2l-151.1-50.9c-1.3-.4-2.7-.5-3.9-.4-1.3-.1-2.6 0-3.9.4L52.6 242.2c-3.8 1.3-6.3 4.8-6.3 8.8v115.7c.1 1.7 7.6 167.2 158 225.5 1.1.4 2.2.6 3.4.6 1.1 0 2.3-.2 3.4-.6 150.4-58.3 158-223.8 158-225.8V251.1c-.1-4-2.7-7.6-6.4-8.9zM207.6 573.6C72.1 518.6 64.9 367.7 64.9 366.5V257.8l142.7-48 142.8 48v108.4c-.1 1.5-7.3 152.4-142.8 207.4z" class="st0"/><path d="M301.2 329.4L193.3 458.5l-69.6-73.1c-3.6-3.7-9.5-3.9-13.2-.3-3.7 3.6-3.9 9.5-.3 13.2l76.8 80.6c1.8 1.8 4.2 2.9 6.8 2.9h.3c2.7-.1 5.1-1.3 6.9-3.3l114.5-137.2c3.3-4 2.8-9.8-1.2-13.1-4-3.3-9.9-2.8-13.1 1.2z" class="st0"/></svg>