<svg xmlns="http://www.w3.org/2000/svg" viewBox="0 0 54 54"><circle cx="27" cy="27" r="26.9" fill="#61A8DE"/><path fill="#201600" d="M27 54c-7.2 0-14-2.8-19.1-7.9C2.8 41 0 34.2 0 27S2.8 13 7.9 7.9C13 2.8 19.8 0 27 0s14 2.8 19.1 7.9S54 19.8 54 27s-2.8 14-7.9 19.1S34.2 54 27 54zM27 .1C19.8.1 13.1 2.9 8 8 2.9 13.1.1 19.8.1 27c0 7.2 2.8 13.9 7.9 19 5.1 5.1 11.8 7.9 19 7.9 7.2 0 13.9-2.8 19-7.9 5.1-5.1 7.9-11.8 7.9-19 0-7.2-2.8-13.9-7.9-19C40.9 2.9 34.2.1 27 .1z"/><path fill="#FFF" d="M42.5 11.9l-36 14c-1.2.5-1.1 2.1.1 2.5l9.2 2.7L19.1 42c.4 1.1 1.8 1.5 2.6.6l4.7-4.8 9.3 6.8c1.1.8 2.8.2 3-1.2L45 14.1c.3-1.5-1.1-2.7-2.5-2.2zM38 18.5L21.2 33.3c-.2.1-.3.3-.3.6l-.6 5.7c0 .2-.3.2-.3 0l-2.7-8.5c-.1-.4 0-.8.4-1l19.8-12.3c.4-.3.9.3.5.7z"/></svg>