<svg xmlns="http://www.w3.org/2000/svg" id="Слой_1" x="0" y="0" version="1.1" viewBox="0 0 532.7 439.9" xml:space="preserve"><style>.st0{fill:#fff}</style><path id="rccgiG_1_" d="M532.7 26c-4.8-.1-9.6-.4-14.4-.4-22.7 0-45.3.1-68-.1-3.3 0-5.1.9-6.4 4-7.1 16.5-14.3 32.9-21.5 49.4-7.2 16.6-14.4 33.2-21.6 49.9-9.5 22.1-19 44.2-28.6 66.2-7.4 16.9-14.9 33.8-22.3 50.7-8.2 18.9-16.3 37.8-24.6 56.7-5.5 12.5-11 25.1-16.7 37.5-.6 1.2-2.5 2-3.9 2.7-.7.3-1.6.1-2.5.1-83.6 0-167.3 0-250.9.1-4.7 0-6.7-1-6.2-6 .4-5.1.2-10.3.1-15.5-.1-2.8 1-4 3.8-3.8 1.3.1 2.7 0 4 0 77 0 154-.1 230.9.1 5.4 0 8.6-1.1 10.2-6.6 1.5-5.3 4.2-10.2 6.7-16.3h-7.4c-65.8 0-131.6-.1-197.5.1-4.9 0-7-1.8-8.8-6-9.5-22.8-19.1-45.6-28.7-68.3L29 150.9C20.4 130.6 11.7 110.3 3.1 90c-1-2.4-1.9-4.9-3.2-8.1 2.5-.1 4.5-.3 6.6-.3 126.8 0 253.6-.1 380.4.1 5.4 0 7.5-1.7 9.6-6.7 8-19.3 16.7-38.4 25.1-57.6 1.8-4.1 3.6-8.1 5.1-12.3 1.3-3.4 3.2-4.7 7-4.7 31 .2 62 .1 93 .1 2 0 4-.3 5.9-.4.1 8.6.1 17.2.1 25.9zM160.6 268.9h91.2V199h-91.2v69.9zm0-96h91V107h-91v65.9zm117-.1c.8.2 1.3.5 1.7.5 23.5 0 47 .1 70.5 0 1.2 0 2.9-1.3 3.4-2.4 7-15.8 13.9-31.7 20.8-47.6 2.2-5.2 4.2-10.6 6.4-16.4H277.6v65.9zm-211.7.3h68.9v-66.2H38c9.4 22.4 18.6 44.2 27.9 66.2zm211.7 25.8v70.5c10.9 0 21.5.1 32.2-.1.9 0 2.2-1.6 2.7-2.8 6.9-15.5 13.7-31.1 20.4-46.7 2.9-6.7 5.5-13.6 8.5-20.9h-63.8zm-200.6 0c1.9 4.6 3.6 8.6 5.3 12.7 7.7 18.2 15.3 36.4 23.1 54.5.6 1.3 2 3.1 3.2 3.1 8.7.3 17.5.1 26.3.1v-70.4H77z" class="st0"/><path d="M100.6 378c10.2 0 18.4 8.3 18.4 18.4s-8.3 18.4-18.4 18.4-18.4-8.3-18.4-18.4 8.3-18.4 18.4-18.4m0-25c-24 0-43.4 19.4-43.4 43.4s19.4 43.4 43.4 43.4 43.4-19.4 43.4-43.4-19.4-43.4-43.4-43.4zm156 25c10.2 0 18.4 8.3 18.4 18.4s-8.3 18.4-18.4 18.4c-10.2 0-18.4-8.3-18.4-18.4s8.3-18.4 18.4-18.4m0-25c-24 0-43.4 19.4-43.4 43.4s19.4 43.4 43.4 43.4 43.4-19.4 43.4-43.4-19.4-43.4-43.4-43.4z" class="st0"/></svg>