<svg xmlns="http://www.w3.org/2000/svg" viewBox="0 0 28 16"><path fill="#ff095a" fill-rule="evenodd" d="M.466 2.423h4.009V.989A.978.978 0 0 1 5.441 0h13.925a.978.978 0 0 1 .966.989v2.982h3.762a.464.464 0 0 1 .406.239l1.894 3.388h1.139a.472.472 0 0 1 .467.477v5.352a.473.473 0 0 1-.467.478H26.17a2.519 2.519 0 0 1-2.941 2.049 2.548 2.548 0 0 1-2-2.049h-1.362a.469.469 0 0 1-.2-.052.924.924 0 0 1-.294.052h-6.1a2.52 2.52 0 0 1-2.941 2.049 2.547 2.547 0 0 1-2-2.049H5.448a.978.978 0 0 1-.966-.989V8.553H1.46a.478.478 0 0 1 0-.955h3.015V5.963h-.527a.478.478 0 0 1 0-.955h.527v-1.63H.466a.478.478 0 0 1 0-.955zm23.357 2.523h-3.491V7.6h4.984zm-.126 10.1a1.625 1.625 0 1 0-1.587-1.625 1.606 1.606 0 0 0 1.59 1.626zm-2.469-2.1a2.52 2.52 0 0 1 2.942-2.049 2.546 2.546 0 0 1 2 2.049h.9V8.554h-6.734v4.392h.9zm-10.439 2.1a1.625 1.625 0 1 0-1.587-1.625 1.606 1.606 0 0 0 1.587 1.626zM5.4 2.442h2.23a.478.478 0 0 1 0 .955H5.409v1.616h5.707a.478.478 0 0 1 0 .955h-5.7V7.6h3.211a.478.478 0 0 1 0 .956h-3.2v4.391h2.888a2.505 2.505 0 0 1 4.942 0l6.132-.028L19.357.973l-13.958.033V2.44z" data-name="Forma 1"/></svg>