<svg xmlns="http://www.w3.org/2000/svg" id="Layer_555_xA0_Изображение_1_" x="0" y="0" version="1.1" viewBox="0 0 75 75" xml:space="preserve"><style>.st0{fill:#e5046a}</style><path d="M30.6 75c-.6-.1-1.2-.2-1.7-.4-4.5-1.2-7.7-5.5-7.5-10.1.1-2.2 1.8-4 4.1-4.2 2.2-.2 4.2 1.4 4.6 3.5.1.3.1.6.1 1 .1.8.7 1.4 1.5 1.4s1.4-.7 1.4-1.5v-6c.1-1.8 1-3.1 2.6-3.9.2-.1.3-.2.3-.4V35.2c-.4 0-.7 0-1.1.1-2.2.2-4.4.6-6.4 1.5-.8.3-1.5.8-2.2 1.2-.8.5-1.5.4-2.2-.3-.4-.4-1-.8-1.5-1.1-1.6-.8-3.3-1.1-5.1-1.3-2.6-.3-5.2-.3-7.8.1-.3.1-.7.1-1 .2-1.1.2-1.9-.5-1.8-1.6.3-4 1.4-7.8 3.2-11.3.3-.6.5-1.1.1-1.8-.7-1.3-.6-2.7.1-4 .8-1.5 1.7-2.9 2.5-4.4.6-1.1 2-1 2.6 0 .3.6.7 1.1 1 1.7 4.8-4.5 10.5-7.2 17-8.1-.3-.8-.4-1.6-.3-2.4.3-1.9 1.6-3.2 3.5-3.6.1 0 .1-.1.2-.1h1.3c.4.1.8.2 1.2.4 2.1 1 3 3.2 2.3 5.4 0 .1-.1.2-.1.3 5.1.7 9.7 2.5 13.9 5.5.4-.7.8-1.3 1.2-2 .7-1.2 2-1.2 2.7 0 .8 1.4 1.6 2.8 2.5 4.3.7 1.2.8 2.5.3 3.8-.1.2-.1.3.1.5 3 4 4.9 8.5 5.7 13.5.1.8.2 1.6.3 2.3.1 1.1-.7 1.9-1.9 1.7-4-.8-8-.7-12 .3-.8.2-1.5.5-2.2.8-.5.2-.9.6-1.3 1-.5.5-1.3.7-2 .3-2.1-1.5-4.6-2.2-7.1-2.6-.7-.1-1.5-.2-2.2-.3h-.6v19.1c0 .3.1.4.4.6 1.6.8 2.5 2 2.6 3.8.1 2 .1 4 0 6-.2 4.8-3.6 9.1-8.3 10.1-.3.1-.6.1-.9.2h-2.1zm16.9-40.9v-.4c-.3-2.5-.5-5-.9-7.5-.5-3.5-1.4-7-2.8-10.3-.8-1.9-1.7-3.7-3.1-5.3-.5-.5-1-1-1.8-1.4v7.2c-.1.6-.6 1.1-1.3 1.2-.9.1-1.6-.6-1.6-1.6V9.1c-.4.3-.7.5-1 .7-1.2 1-2 2.2-2.7 3.5-1.5 2.7-2.4 5.5-3.1 8.4-.8 3.2-1.3 6.4-1.6 9.6-.1.9-.1 1.7-.2 2.7 2.8-1.1 5.6-1.7 8.6-1.8v-4.3c0-.5.1-.9.5-1.2.5-.4 1-.5 1.5-.2.6.3.9.7.9 1.4v4.4c3.1.1 5.9.6 8.6 1.8zm-23.1.2v-.1c.2-2.1.4-4.2.6-6.2.4-3.5 1.2-7 2.3-10.4.9-2.7 2-5.4 3.7-7.7 0 0 0-.1.1-.1h-.3c-4.9 1.2-9.2 3.6-12.9 7.1-.2.2-.2.3-.1.5.7 1.6.6 3.1-.5 4.5-1 1.4-2.5 1.9-4.2 1.7-.3 0-.4 0-.5.3-.8 1.5-1.5 3.1-2 4.7-.4 1.3-.7 2.7-1 4.1 5.4-.7 10.2-.6 14.8 1.6zM65 32.5c-.7-4.6-2.4-8.7-5.1-12.4-1.8.7-3.5.5-4.9-.8-1.5-1.4-1.7-3.2-1-5.1-3.1-2.3-6.5-3.8-10.3-4.7.3.5.6.9.9 1.3 1.4 2.3 2.4 4.8 3.2 7.3 1.4 4.6 2.2 9.4 2.6 14.2.1.6.1 1.3.2 2 2.2-1.2 4.6-1.7 7.1-1.9 2.4-.3 4.8-.2 7.3.1zM36 61.9v3c0 2.7-2.6 4.8-5.3 4.2-2.1-.4-3.5-2.1-3.6-4.3 0-.8-.7-1.5-1.5-1.5s-1.5.7-1.4 1.6c0 .4.1.9.1 1.3.7 3.9 4.7 6.6 8.5 5.8 3.3-.7 5.8-3.8 5.9-7.2.1-1.9 0-3.8 0-5.7 0-.9-.6-1.6-1.5-1.6-.8 0-1.4.7-1.4 1.6.2.9.2 1.8.2 2.8zm22-48.7c-.5.9-1 1.6-1.4 2.4-.3.6 0 1.3.5 1.7.5.4 1.2.4 1.7 0s.8-1.1.5-1.7c-.3-.8-.8-1.6-1.3-2.4zm-43.9 2.9c-.4.8-.9 1.5-1.3 2.2-.3.6-.2 1.4.3 1.8.5.4 1.3.5 1.8 0 .6-.4.7-1.2.4-1.8-.4-.7-.8-1.4-1.2-2.2zM37.5 5.8c.8 0 1.5-.7 1.5-1.5s-.7-1.5-1.5-1.5-1.5.7-1.5 1.5c0 .9.7 1.5 1.5 1.5zM4.8 0c.5.2.9.6 1.1 1.1.7 1.3 1.5 2.6 2.3 3.9.9 1.5.9 3 0 4.5S6 11.7 4.3 11.7c-2 0-3.7-1.5-4.2-3.5 0-.1-.1-.2-.1-.3V6.6c.2-.8.5-1.5.9-2.2.7-1.1 1.3-2.2 1.9-3.3C3.1.7 3.5.2 4 0h.8zm-.4 4.4c-.5.8-.9 1.6-1.3 2.4-.3.6-.1 1.3.4 1.7.5.4 1.3.4 1.8 0 .5-.5.7-1.2.4-1.8-.4-.7-.8-1.5-1.3-2.3zM75 7.9c-.1.2-.1.4-.2.6-.6 1.7-1.7 2.8-3.5 3.1-1.8.3-3.3-.3-4.4-1.8-1-1.5-1.1-3.1-.3-4.7.8-1.5 1.7-3 2.6-4.4.2-.3.6-.5.9-.7h.8c.5.2.9.6 1.1 1.1.3.6.7 1.1 1 1.7.7 1.3 1.6 2.4 1.9 3.9.1.4.1.8.1 1.2zm-4.4-3.5c-.5.8-.9 1.6-1.3 2.3-.3.6-.1 1.3.5 1.8.5.4 1.2.4 1.8 0 .4-.5.6-1.2.3-1.8-.4-.8-.8-1.5-1.3-2.3z" class="st0"/><path d="M37.5 20.5c.8 0 1.5.6 1.5 1.5 0 .8-.6 1.5-1.5 1.5-.8 0-1.5-.6-1.5-1.5 0-.8.7-1.5 1.5-1.5z" class="st0"/></svg>