<svg xmlns="http://www.w3.org/2000/svg" id="Слой_1" x="0" y="0" version="1.1" viewBox="0 0 54 54" xml:space="preserve"><style>.st1{fill:#FFFFFF}</style><path fill="#201600" d="M16 53.8c-1.2 0-2.4-.9-2.4-2.4v-5.5c-5-1.5-10.1-6.7-11.3-11.5v-.1c-1.5-7-1.5-14.2 0-21.2V13C3.5 8 9.2 2.5 14.4 1.4h.1C18.6.6 22.9.2 27.1.2s8.4.4 12.6 1.2h.1c5 1.1 10.7 6.6 12 11.7v.1c1.5 7 1.5 14.2 0 21.2v.1c-1.3 5.1-6.9 10.5-12.1 11.7h-.1c-4.2.8-8.4 1.2-12.6 1.2-1.2 0-2.4 0-3.6-.1l-5.6 5.9c-.5.4-1.1.6-1.8.6zm-.6-12.5c.2 0 .4.3.4.5V51c0 .1.1.2.1.3.1.1.2.1.2.1.1 0 .2 0 .2-.1l4.4-4.5s3.5-3.6 4.1-4.3c.1-.1.2-.1.4-.1h1.7c3.9 0 7.8-.4 11.6-1.1 3.3-.7 7.5-4.8 8.3-8 1.4-6.3 1.4-12.7 0-19.1-.8-3.2-5-7.2-8.3-8-3.7-.7-7.6-1.1-11.5-1.1s-7.8.4-11.6 1.1c-3.3.8-7.5 4.8-8.4 8-1.4 6.3-1.4 12.7 0 19.1.9 3.2 5.1 7.2 8.4 8z"/><path d="M51.6 13.2c-1.3-5.1-6.9-10.5-12-11.6h-.1C31.2 0 22.8 0 14.5 1.5h-.1C9.2 2.7 3.6 8.1 2.4 13.1v.1c-1.5 7-1.5 14.1 0 21.2v.1c1.2 4.8 6.4 10 11.3 11.4v5.6c0 2 2.5 3 3.9 1.6l5.7-5.9c1.2.1 2.5.1 3.7.1 4.2 0 8.4-.4 12.5-1.2h.1c5.2-1.1 10.8-6.5 12-11.5v-.1c1.6-7.2 1.6-14.3 0-21.3zm-4.5 20.1c-.8 3.3-5.1 7.4-8.5 8.1-4.4.8-8.9 1.2-13.4 1.1-.1 0-.2 0-.2.1-.6.6-4.1 4.3-4.1 4.3l-4.4 4.5c-.3.3-.9.1-.9-.4v-9.3c0-.2-.1-.3-.3-.3-3.4-.8-7.6-4.8-8.5-8.1-1.4-6.3-1.4-12.8 0-19.1.8-3.3 5.1-7.4 8.5-8.1 7.7-1.5 15.6-1.5 23.3 0 3.4.8 7.6 4.8 8.5 8.1 1.4 6.3 1.4 12.8 0 19.1z" class="st1"/><path fill="#7D3DAF" d="M47.1 33.3c-.8 3.3-5.1 7.4-8.5 8.1-4.4.8-8.9 1.2-13.4 1.1-.1 0-.2 0-.2.1-.6.6-4.1 4.3-4.1 4.3l-4.4 4.5c-.3.3-.9.1-.9-.4v-9.3c0-.2-.1-.3-.3-.3-3.4-.8-7.6-4.8-8.5-8.1-1.4-6.3-1.4-12.8 0-19.1.8-3.3 5.1-7.4 8.5-8.1 7.7-1.5 15.6-1.5 23.3 0 3.4.8 7.6 4.8 8.5 8.1 1.4 6.3 1.4 12.8 0 19.1z"/><path d="M34.4 37.6c-.5-.2-1-.3-1.5-.5-4.8-2-9.2-4.5-12.6-8.4-2-2.2-3.5-4.7-4.8-7.4-.6-1.3-1.1-2.6-1.7-3.9-.5-1.2.2-2.4 1-3.3.7-.8 1.6-1.5 2.6-2 .8-.4 1.5-.2 2.1.5 1.2 1.4 2.3 2.9 3.2 4.5.6 1 .4 2.2-.6 2.9-.2.2-.5.4-.7.5-.2.2-.4.3-.5.6-.3.4-.3.9-.1 1.3 1.2 3.4 3.3 6.1 6.8 7.5.5.2 1.1.5 1.7.4 1.1-.1 1.4-1.3 2.1-1.9.7-.6 1.7-.6 2.4-.1.8.5 1.5 1 2.3 1.6.7.5 1.5 1 2.2 1.6.7.6.9 1.3.5 2.1-.7 1.4-1.7 2.6-3.1 3.4-.4.4-.9.5-1.3.6-.6-.2.4-.1 0 0zM27 10.5c6.2.2 11.4 4.3 12.5 10.5.2 1 .3 2.1.3 3.2 0 .5-.2.9-.7.9-.5 0-.7-.4-.8-.9-.1-.9-.1-1.8-.2-2.7-.6-4.7-4.3-8.5-9-9.3-.7-.1-1.4-.2-2.1-.2-.5 0-1-.1-1.1-.6-.1-.5.3-.8.8-.9h.3c6.3.2-.1 0 0 0z" class="st1"/><path d="M36.5 22.8c0 .1 0 .3-.1.4-.2.6-1.1.7-1.3.1-.1-.2-.1-.4-.1-.6 0-1.3-.3-2.6-1-3.8-.7-1.2-1.7-2.2-3-2.8-.7-.4-1.5-.6-2.4-.7-.4-.1-.7-.1-1.1-.1-.4-.1-.7-.3-.6-.8 0-.4.3-.7.7-.7 1.4.1 2.8.4 4.1 1.1 2.6 1.4 4.1 3.5 4.5 6.4 0 .1.1.3.1.4.1.4.2.7.2 1.1 0 .1 0-.4 0 0z" class="st1"/><path d="M32.6 22.7c-.5 0-.8-.3-.9-.8 0-.3-.1-.7-.1-1-.2-.6-.5-1.2-1-1.6-.3-.2-.5-.3-.8-.4-.4-.1-.8-.1-1.2-.2-.4-.1-.6-.4-.6-.8.1-.4.4-.6.8-.6 2.4.2 4.1 1.4 4.4 4.3v.6c-.1.3-.3.5-.6.5-.5 0 .3 0 0 0z" class="st1"/></svg>