<svg xmlns="http://www.w3.org/2000/svg" class="top-line-social-link-icon viber" viewBox="0 0 322 322"><path d="M275.4 135.1c.4-45.4-38.3-87-86.2-92.8-1-.1-2-.3-3.1-.5-2.4-.4-4.8-.8-7.3-.8-9.8 0-12.4 6.9-13.1 11-.7 4 0 7.4 1.9 10 3.3 4.4 9 5.2 13.6 5.8 1.3.2 2.6.4 3.7.6 43 9.6 57.5 24.7 64.6 67.4.2 1 .3 2.3.3 3.7.3 5.1 1 15.7 12.4 15.7 1 0 2-.1 3-.2 10.6-1.6 10.3-11.3 10.1-16 0-1.3-.1-2.6 0-3.4.1-.1.1-.3.1-.5z"/><path d="M176.1 25.7c1.3.1 2.5.2 3.5.3 70.7 10.9 103.2 44.4 112.2 115.6.2 1.2.2 2.7.2 4.3.1 5.6.3 17.1 12.7 17.4h.4c3.9 0 7-1.2 9.2-3.5 3.9-4 3.6-10.1 3.4-14.9-.1-1.2-.1-2.3-.1-3.3.9-72.9-62.2-138.9-135-141.4h-1.8c-.7 0-1.6-.1-2.6-.1-1.1-.1-2.4-.2-3.8-.2-11.6 0-13.8 8.2-14.1 13.2-.5 11.4 10.5 12.2 15.8 12.6zm112.3 208c-1.5-1.1-3.1-2.3-4.5-3.5-7.7-6.2-15.9-11.9-23.9-17.5-1.6-1.1-3.3-2.3-4.9-3.4-10.2-7.1-19.3-10.6-28-10.6-11.6 0-21.8 6.4-30.2 19.1-3.7 5.6-8.2 8.4-13.8 8.4-3.3 0-7-.9-11.1-2.8-32.8-14.9-56.3-37.7-69.7-67.9-6.5-14.6-4.4-24.1 7-31.8 6.5-4.4 18.5-12.6 17.7-28.3-1-17.8-40.2-71.3-56.8-77.4-7-2.6-14.4-2.6-21.9-.1-19 6.4-32.7 17.6-39.5 32.5-6.4 14.3-6.1 31.2 1 48.7 20.6 50.7 49.7 94.8 86.2 131.3 35.8 35.7 79.8 64.9 130.8 86.9 4.6 2 9.4 3.1 12.9 3.8 1.2.3 2.2.5 3 .7.4.1.8.2 1.3.2h.4c24 0 52.8-21.9 61.6-46.9 7.9-21.9-6.3-32.7-17.6-41.4zM186.7 83.6c-4.1.1-12.7.3-15.7 9-1.4 4.1-1.2 7.6.5 10.5 2.5 4.3 7.4 5.6 11.9 6.3 16.1 2.6 24.4 11.5 26 28 .8 7.7 6 13.1 12.6 13.1.5 0 1 0 1.5-.1 8-1 11.9-6.8 11.5-17.5.1-11.1-5.7-23.7-15.6-33.8-9.9-10.1-21.8-15.8-32.7-15.5z"/></svg>