<svg xmlns="http://www.w3.org/2000/svg" viewBox="0 0 841.9 595.3"><style>.st0{fill:#FAB41E}.st1{fill:#E40520}.st2{fill:#FFFFFF}.st3{fill:none;stroke:#FFFFFF;stroke-width:0.215}.st4{fill-rule:evenodd;clip-rule:evenodd;fill:#4DB45E}.st5{fill-rule:evenodd;clip-rule:evenodd;fill:url(#path24_1_)}.st6{fill:url(#SVGID_1_)}</style><g id="Слой_4"><path fill="#005CA9" d="M369.9 417.9h-62.6l39.1-240.4H409zM254.6 177.5l-59.7 165.4-7.1-35.6-21.1-108.1s-2.6-21.7-29.7-21.7H38.4l-1.2 4.1s30.2 6.3 65.5 27.5l54.4 209h65.2L322 177.4l-67.4.1zm492.5 240.4h57.5l-50.1-240.5h-50.4c-23.2 0-28.9 17.9-28.9 17.9L581.9 418h65.2l13.1-35.7h79.6l7.3 35.6zm-68.9-85l32.9-90 18.5 90h-51.4zm-91.5-97.6l8.9-51.7s-27.6-10.5-56.3-10.5c-31.1 0-104.9 13.6-104.9 79.6 0 62.1 86.6 62.9 86.6 95.5s-77.7 26.8-103.3 6.2l-9.3 54s28 13.6 70.7 13.6 107.2-22.1 107.2-82.3c0-62.5-87.4-68.4-87.4-95.5.1-27.2 61.1-23.7 87.8-8.9z"/><path fill="#F7A823" d="M187.9 307.2l-21.1-108.1s-2.6-21.7-29.7-21.7H38.4l-1.2 4.1s47.4 9.8 93 46.6c43.4 35.2 57.7 79.1 57.7 79.1z"/></g></svg>