<svg xmlns="http://www.w3.org/2000/svg" id="Слой_1" x="0" y="0" version="1.1" viewBox="0 0 54 54" xml:space="preserve"><style>.st0{fill:#FFFFFF}</style><path d="M.1 54.1s0-.1 0 0C0 54 0 54 0 53.9l3.8-13.8C1.5 36.1.2 31.4.2 26.7.2 12 12.3-.1 27-.1c7.2 0 13.9 2.8 19 7.9 5.1 5.1 7.9 11.8 7.9 19 0 14.8-12 26.8-26.8 26.8-4.5 0-8.9-1.1-12.8-3.2L.1 54.1zm14.8-8.8s.1 0 0 0l.9.5c3.4 2 7.3 3.1 11.2 3.1 12.2 0 22.1-9.9 22.1-22.1 0-5.9-2.3-11.5-6.5-15.6C38.5 7 32.9 4.7 27 4.7c-12.2 0-22.1 9.9-22.1 22.1 0 4.2 1.2 8.2 3.4 11.8l.5.8v.1l-2.2 8 8.3-2.2z"/><path d="M.1 53.9l3.8-13.8C1.6 36.1.3 31.5.3 26.8.3 12 12.3.1 27 .1c7.1 0 13.9 2.8 18.9 7.8s7.8 11.8 7.8 18.9c0 14.7-12 26.7-26.7 26.7-4.5 0-8.9-1.1-12.8-3.3L.1 53.9zm14.8-8.5l.8.5C19.1 47.9 23 49 27 49c12.2 0 22.2-10 22.2-22.2 0-5.9-2.3-11.5-6.5-15.7S33 4.6 27 4.6c-12.2 0-22.2 10-22.2 22.2C4.8 31 6 35 8.2 38.6l.5.8-2.2 8.2 8.4-2.2z" class="st0"/><path fill="#64B161" d="M1 53l3.7-13.4c-2.3-3.9-3.4-8.3-3.4-12.9C1.3 12.6 12.8 1 27 1c6.9 0 13.4 2.7 18.2 7.6s7.5 11.3 7.5 18.2C52.8 41 41.2 52.6 27 52.6c-4.3 0-8.6-1.1-12.3-3.1L1 53z"/><path d="M.1 53.9l3.8-13.8C1.6 36.1.3 31.5.3 26.8.3 12 12.3.1 27 .1c7.1 0 13.9 2.8 18.9 7.8s7.8 11.8 7.8 18.9c0 14.7-12 26.7-26.7 26.7-4.5 0-8.9-1.1-12.8-3.3L.1 53.9zm14.8-8.5l.8.5C19.1 47.9 23 49 27 49c12.2 0 22.2-10 22.2-22.2 0-5.9-2.3-11.5-6.5-15.7S33 4.6 27 4.6c-12.2 0-22.2 10-22.2 22.2C4.8 31 6 35 8.2 38.6l.5.8-2.2 8.2 8.4-2.2z" class="st0"/><path fill="#FFF" fill-rule="evenodd" d="M20.4 15.6c-.5-1.1-1-1.1-1.5-1.2h-1.3c-.4 0-1.2.2-1.8.8-.6.7-2.3 2.3-2.3 5.6s2.4 6.5 2.7 6.9 4.6 7.4 11.4 10.1c5.6 2.2 6.8 1.8 8 1.7s4-1.6 4.5-3.2c.6-1.6.6-2.9.4-3.2-.2-.3-.6-.4-1.3-.8-.7-.3-4-1.9-4.6-2.2s-1.1-.3-1.5.3c-.4.7-1.7 2.2-2.1 2.6-.4.4-.8.5-1.4.2-.7-.3-2.8-1-5.4-3.3-2-1.8-3.3-4-3.7-4.6s0-1 .3-1.4c.5-.7 1.4-1.8 1.7-2.3s.1-.8-.1-1.2c-.1-.2-1.4-3.5-2-4.8z" clip-rule="evenodd"/></svg>