<?xml version="1.0" encoding="utf-8"?>
<!-- Generator: Adobe Illustrator 23.0.1, SVG Export Plug-In . SVG Version: 6.00 Build 0)  -->
<svg version="1.1" id="Слой_1" xmlns="http://www.w3.org/2000/svg" xmlns:xlink="http://www.w3.org/1999/xlink" x="0px" y="0px"
	 viewBox="0 0 151 82" style="enable-background:new 0 0 151 82;" xml:space="preserve">
<style type="text/css">
	.st0{fill-rule:evenodd;clip-rule:evenodd;fill:#EA0C6F;stroke:#FFFFFF;stroke-linejoin:round;}
	.st1{fill:#363636;}
	.st2{font-family:'Gilroy-Light';}
	.st3{font-size:14.93px;}
</style>
<path id="_6" class="st0" d="M27.5,48.2c0-9.6-4.2-14.4-12.6-14.4c-3.4,0-6.8,0.9-9.7,2.7V13.1C5.2,7,9,3.8,14.3,3.8
	s9.1,3.2,9.1,9.3v6.7c0,1,0.7,1.4,2.1,1.4s2.1-0.5,2.1-1.4v-6.6c0-7.9-5.2-12.7-13.3-12.7C6,0.5,1,5.3,1,13.2v54.9
	C1,76,6,80.8,14.3,80.8c8.1,0,13.3-4.8,13.3-12.7L27.5,48.2C27.5,48.2,27.5,48.2,27.5,48.2z M23.3,68.2c0,6.1-3.8,9.3-9.1,9.3
	s-9.1-3.2-9.1-9.4V39.7c2.8-1.8,6.1-2.8,9.4-2.7c6.1,0,8.7,3.2,8.7,11.5L23.3,68.2C23.3,68.2,23.3,68.2,23.3,68.2z"/>
<text transform="matrix(1.0066 0 0 1 34.7759 22.8848)" class="st1 st2 st3">оттенков белого</text>
<text transform="matrix(1.0066 0 0 1 34.7759 34.9492)" class="st1 st2 st3">цвета</text>
</svg>
