<?xml version="1.0" encoding="utf-8"?>
<!-- Generator: Adobe Illustrator 23.0.1, SVG Export Plug-In . SVG Version: 6.00 Build 0)  -->
<svg version="1.1" id="Слой_1" xmlns="http://www.w3.org/2000/svg" xmlns:xlink="http://www.w3.org/1999/xlink" x="0px" y="0px"
	 viewBox="0 0 31.8 31.9" style="enable-background:new 0 0 31.8 31.9;" xml:space="preserve">
<style type="text/css">
	.st0{fill:#363636;}
</style>
<path class="st0" d="M28.1,9.5l-0.7-0.7l3.5-3.5c0.6-0.6,0.9-1.3,0.9-2.2c0-1.7-1.4-3.1-3.1-3.1c-0.8,0-1.6,0.3-2.2,0.9L23,4.4
	l-0.7-0.7c-0.2-0.2-0.5-0.2-0.7,0l-1.5,1.5c-0.2,0.2-0.2,0.5,0,0.7l0.7,0.7l-4,4c-1.7-0.9-3.6-1.4-5.5-1.4C5.1,9.2,0,14.3,0,20.5
	s5.1,11.4,11.3,11.4s11.3-5,11.3-11.3c0-1.9-0.5-3.8-1.4-5.5l4-4l0.7,0.7c0,0.1,0.2,0.1,0.3,0.1s0.3-0.1,0.4-0.2l1.5-1.5
	C28.3,10,28.3,9.7,28.1,9.5z M27.4,1.7c0.4-0.4,0.9-0.6,1.4-0.6c1.1,0,2,0.9,2,2c0,0.5-0.2,1.1-0.6,1.4L26.7,8l-2.9-2.9L27.4,1.7z
	 M24.4,10.4h-2.3c-0.8,0-1.6,0.3-2.2,0.9c-0.4,0.4-0.9,0.6-1.5,0.6h-1.3l4.4-4.4C21.5,7.5,24.4,10.4,24.4,10.4z M18.5,21.1h3.1
	c-0.1,2.4-1.1,4.7-2.6,6.4l-2.2-2.2C17.7,24.2,18.4,22.7,18.5,21.1z M10.8,13.5c-1.6,0.1-3,0.7-4.2,1.7L4.4,13
	c1.7-1.5,3.9-2.5,6.4-2.6V13.5z M5.9,15.9c-1,1.1-1.6,2.6-1.7,4.2H1.1c0.1-2.4,1.1-4.7,2.6-6.4L5.9,15.9z M4.2,21.1
	c0.1,1.6,0.7,3,1.7,4.2l-2.2,2.2c-1.5-1.7-2.5-3.9-2.6-6.4C1.1,21.1,4.2,21.1,4.2,21.1z M6.6,26.1c1.1,1,2.6,1.6,4.2,1.7v3.1
	c-2.4-0.1-4.7-1.1-6.4-2.6C4.4,28.3,6.6,26.1,6.6,26.1z M11.8,27.8c1.6-0.1,3-0.7,4.2-1.7l2.2,2.2c-1.7,1.5-3.9,2.5-6.4,2.6V27.8z
	 M11.3,26.8c-3.4,0-6.2-2.8-6.2-6.2s2.8-6.2,6.2-6.2c1.1,0,2.1,0.3,3.1,0.8l-1.1,1.1c-0.3,0.3-0.5,0.7-0.5,1.1
	c0,0.9,0.7,1.6,1.6,1.6c0.4,0,0.8-0.2,1.1-0.5l1.1-1.1c0.5,0.9,0.8,2,0.8,3.1C17.5,24,14.7,26.8,11.3,26.8z M14.9,17.9
	c-0.1,0.1-0.3,0.2-0.4,0.2c-0.3,0-0.6-0.3-0.6-0.6c0-0.2,0.1-0.3,0.2-0.4l2.8-2.8c0.1-0.1,0.2-0.3,0.1-0.5l-0.4-0.9h1.8
	c0.8,0,1.6-0.3,2.2-0.9c0.4-0.4,0.9-0.6,1.5-0.6h1.3l-4,4L18.2,15c-0.2-0.1-0.4,0-0.5,0.1L14.9,17.9z M15.6,12.1
	c-0.1,0.1-0.2,0.3-0.1,0.5l0.4,1.2l-0.7,0.7c-1-0.6-2.1-1-3.3-1.1v-3.1c1.5,0.1,2.9,0.5,4.3,1.2C16.2,11.5,15.6,12.1,15.6,12.1z
	 M21.6,20.1h-3.1c-0.1-1.2-0.5-2.3-1.1-3.3l0.7-0.7l1.2,0.4c0.2,0.1,0.4,0,0.5-0.1l0.5-0.5C21.1,17.2,21.5,18.6,21.6,20.1z
	 M26.2,10.7l-4.9-4.9L22.1,5L27,9.9L26.2,10.7z M31.3,26.8h-4.1c-0.3,0-0.5,0.2-0.5,0.5v4.1c0,0.3,0.2,0.5,0.5,0.5h4.1
	c0.3,0,0.5-0.2,0.5-0.5v-4.1C31.8,27,31.6,26.8,31.3,26.8z M30.8,30.9h-3.1v-3.1h3.1C30.8,27.8,30.8,30.9,30.8,30.9z M31.3,20.6
	h-4.1c-0.3,0-0.5,0.2-0.5,0.5v4.1c0,0.3,0.2,0.5,0.5,0.5h4.1c0.3,0,0.5-0.2,0.5-0.5v-4.1C31.8,20.9,31.6,20.6,31.3,20.6z M30.8,24.7
	h-3.1v-3.1h3.1V24.7z"/>
<path class="st0" d="M31.3,14.5h-4.1c-0.3,0-0.5,0.2-0.5,0.5v4.1c0,0.3,0.2,0.5,0.5,0.5h4.1c0.3,0,0.5-0.2,0.5-0.5V15
	C31.8,14.7,31.6,14.5,31.3,14.5z M30.8,18.6h-3.1v-3.1h3.1V18.6z M4.1,21.2c0.1,1.6,0.7,3,1.7,4.1l-2.1,2.1
	c-1.5-1.7-2.4-3.8-2.5-6.2C1.2,21.2,4.1,21.2,4.1,21.2z"/>
</svg>
