<?xml version="1.0" encoding="utf-8"?>
<!-- Generator: Adobe Illustrator 23.0.1, SVG Export Plug-In . SVG Version: 6.00 Build 0)  -->
<svg version="1.1" id="Слой_1" xmlns="http://www.w3.org/2000/svg" xmlns:xlink="http://www.w3.org/1999/xlink" x="0px" y="0px"
	 viewBox="0 0 170 86" style="enable-background:new 0 0 170 86;" xml:space="preserve">
<style type="text/css">
	.st0{fill:#EA0C6F;stroke:#FFFFFF;stroke-linejoin:round;}
	.st1{fill-rule:evenodd;clip-rule:evenodd;fill:#EA0C6F;stroke:#FFFFFF;stroke-linejoin:round;}
	.st2{fill:#363636;}
	.st3{font-family:'Gilroy-Light';}
	.st4{font-size:15.9448px;}
</style>
<g>
	<path class="st0" d="M82.9,15.2c0,0.4,0.1,0.8,0.1,1.2v55.9l0,0c0,6.2-3.8,9.5-9.2,9.5s-9.2-3.3-9.2-9.5V16.5
		c0-6.2,3.8-9.5,9.2-9.5c1.8,0,3.5,0.4,4.9,1.1V6.9h4.7c-2.3-2.1-5.6-3.2-9.5-3.2c-8.2,0-13.4,4.8-13.4,12.9v55.7l0,0
		c0,8,5.3,12.9,13.4,12.9c8.2,0,13.4-4.8,13.4-12.9V16.6c0-0.4,0-0.9-0.1-1.3h-4.3V15.2z"/>
	<path class="st0" d="M27.2,32.1V16.6c0-8-5.3-12.9-13.4-12.9C5.6,3.7,0.4,8.5,0.4,16.6v15.6c0,5.5,2.5,9.3,7.3,11.4
		C3,45.4,0.1,50,0.4,55v17.3c0,8,5.3,12.9,13.4,12.9s13.4-4.8,13.4-12.9V55c0.2-5-2.7-9.6-7.4-11.4C24.5,41.7,27.5,37.1,27.2,32.1z
		 M23,54.9v17.5c0,6.2-3.8,9.5-9.2,9.5s-9.2-3.3-9.2-9.5V54.9c0-6.2,3.8-9.7,9.2-9.7S23,48.7,23,54.9z M23,32.2
		c0,6.2-3.8,9.7-9.2,9.7s-9.2-3.5-9.2-9.7V16.5c0-6.2,3.8-9.5,9.2-9.5s9.2,3.3,9.2,9.5V32.2z"/>
	<path class="st0" d="M43.8,3.7c-8.2,0-13.4,4.8-13.4,12.9v55.7l0,0c0,8,5.3,12.9,13.4,12.9s13.4-4.8,13.4-12.9V16.6
		C57.3,8.5,52,3.7,43.8,3.7z M53,72.4L53,72.4c0,6.2-3.8,9.5-9.2,9.5s-9.2-3.3-9.2-9.5V16.5c0-6.2,3.8-9.5,9.2-9.5s9.2,3.3,9.2,9.5
		V72.4z"/>
</g>
<path id="_" class="st1" d="M89.4,20.9c0,0.8,0.4,1.1,1.4,1.1s1.4-0.4,1.4-1.1v-8.6h7.6c0.6,0.1,1.1-0.3,1.2-0.9c0-0.1,0-0.2,0-0.3
	c0.1-0.6-0.3-1.1-0.9-1.2c-0.1,0-0.2,0-0.3,0h-7.6V1.4c0-0.8-0.4-1.1-1.4-1.1s-1.4,0.4-1.4,1.1v8.5h-7.6c-0.6-0.1-1.1,0.4-1.2,0.9
	c0,0.1,0,0.2,0,0.3c-0.1,0.6,0.3,1.1,0.9,1.2c0.1,0,0.2,0,0.3,0h7.6V20.9L89.4,20.9z"/>
<text transform="matrix(1.0133 0 0 1 102.0698 26.0508)" class="st2 st3 st4">фактур и</text>
<text transform="matrix(1.0133 0 0 1 102.0698 39.5566)" class="st2 st3 st4">цветов</text>
</svg>
