<?xml version="1.0" encoding="utf-8"?>
<!-- Generator: Adobe Illustrator 23.0.1, SVG Export Plug-In . SVG Version: 6.00 Build 0)  -->
<svg version="1.1" id="Слой_1" xmlns="http://www.w3.org/2000/svg" xmlns:xlink="http://www.w3.org/1999/xlink" x="0px" y="0px"
	 viewBox="0 0 28.9 29" style="enable-background:new 0 0 28.9 29;" xml:space="preserve">
<style type="text/css">
	.st0{fill-rule:evenodd;clip-rule:evenodd;fill:#363636;}
</style>
<g>
	<path class="st0" d="M14.1,20.7L14.1,20.7c-1.3,0-2.4,1.1-2.4,2.4s1.1,2.4,2.4,2.4s2.4-1.1,2.4-2.4S15.4,20.7,14.1,20.7z
		 M14.1,24.6L14.1,24.6c-0.8,0-1.4-0.7-1.4-1.5s0.7-1.4,1.5-1.4s1.4,0.7,1.4,1.4C15.5,23.9,14.9,24.6,14.1,24.6z"/>
	<path class="st0" d="M28.9,15.9c-0.7-3.2-2.2-6.1-4.3-8.6L28.3,3c0.6-0.6,0.6-1.6-0.1-2.2c-0.6-0.6-1.5-0.6-2.1-0.1l-4.4,3.8
		C15.3-0.8,7.3-1.6,2.9,2.8c-4.3,4.3-3.6,12.3,1.5,18.6C4.2,21.6,4,21.8,4,21.9c0,0,0,0,0,0.1c-2.4,1-4,3.4-4,6v0.5
		C0,28.8,0.2,29,0.5,29c1.5,0,2.8-0.5,3.9-1.4c1-0.8,1.8-1.8,2.2-3.1c0,0,0.2-0.2,0.4-0.3c3.2,2.9,7.4,4.6,11.8,4.8
		c1.2,0,2.5-0.2,3.6-0.6c1.8-0.6,2.7-2.5,2.1-4.3c0-0.1-0.1-0.3-0.2-0.4l-2-3.9c-0.3-0.5-0.2-1.2,0.3-1.6c0.4-0.4,1.1-0.5,1.6-0.2
		l1,0.5c1.2,0.7,2.6,0.2,3.3-0.9C28.9,17.1,29,16.5,28.9,15.9z M26.8,1.5c0.3-0.2,0.6-0.2,0.8,0.1c0.2,0.2,0.2,0.6,0,0.8l-8.6,10
		c-1.1,1.3-2.8,2.9-4.6,4.5L12,14.5c1.2-1.2,2.2-2.3,2.9-2.9L26.8,1.5z M13.6,17.5c-0.3,0.2-0.5,0.5-0.8,0.7L10.6,16
		c0.2-0.3,0.5-0.5,0.7-0.8L13.6,17.5z M3.6,3.5c4-3.9,11.5-3.2,17.4,1.6l-6.8,5.8C12,12.8,7.1,18.3,5,20.7C0.3,14.8-0.4,7.4,3.6,3.5
		z M5.7,24.2C5,26.3,3.2,27.8,1,28l0,0c0-2.2,1.3-4.2,3.4-5.1h0.1h0.1L5.7,24.2C5.8,24.1,5.7,24.1,5.7,24.2z M6.5,23.4
		c-0.1,0-0.1,0.1-0.2,0.1L5,22.2c0,0,0.1-0.1,0.1-0.2c0.8-0.9,2.7-3.1,4.7-5.3l2.2,2.1C9.7,20.9,7.5,22.6,6.5,23.4z M26.8,17.8
		c-0.3,0.1-0.7,0-1-0.2l-1-0.5c-0.9-0.5-2-0.3-2.8,0.4c-0.7,0.7-0.9,1.8-0.5,2.8l2,3.9c0,0.1,0.1,0.2,0.1,0.3
		c0.4,1.3-0.2,2.6-1.5,3.1c-4.3,1.4-9.8-0.2-14.3-3.9c2.7-2.1,9.1-7.3,11.8-10.5l4.2-4.9c2,2.3,3.3,5.1,4,8
		C28.1,16.9,27.6,17.7,26.8,17.8z"/>
	<path class="st0" d="M23.1,11.6L23.1,11.6c-1.2,0-2.2,1-2.2,2.2s1,2.2,2.2,2.2s2.2-1,2.2-2.2C25.2,12.5,24.3,11.6,23.1,11.6z
		 M23.1,14.9L23.1,14.9c-0.7,0-1.2-0.5-1.2-1.2s0.5-1.2,1.2-1.2s1.2,0.5,1.2,1.2S23.7,14.9,23.1,14.9z"/>
	<path class="st0" d="M15.6,7.7c1.3,0,2.4-1.1,2.4-2.4c0-1.3-1.1-2.4-2.4-2.4S13.2,4,13.2,5.3S14.2,7.7,15.6,7.7z M15.6,3.8
		c0.8,0,1.4,0.7,1.4,1.4c0,0.8-0.7,1.4-1.5,1.4s-1.4-0.7-1.4-1.5C14.1,4.5,14.8,3.8,15.6,3.8z"/>
	<path class="st0" d="M7.3,8.7c0-1.3-1.1-2.4-2.4-2.4l0,0c-1.3,0-2.4,1.1-2.4,2.4c0,1.3,1.1,2.4,2.4,2.4S7.3,10,7.3,8.7z M3.4,8.6
		c0-0.8,0.7-1.4,1.5-1.4s1.4,0.7,1.4,1.4c0,0.8-0.7,1.4-1.5,1.4l0,0C4.1,10.1,3.4,9.4,3.4,8.6z"/>
	<path class="st0" d="M8.3,14.4c0-1.3-1.1-2.4-2.4-2.4l0,0c-1.3,0-2.4,1.1-2.4,2.4s1.1,2.4,2.4,2.4C7.2,16.9,8.3,15.8,8.3,14.4z"/>
	<path class="st0" d="M9.3,6.7c1.3,0,2.4-1.1,2.4-2.4c0-1.3-1.1-2.4-2.4-2.4S6.9,3,6.9,4.3C6.9,5.7,7.9,6.7,9.3,6.7z M9.3,2.9
		c0.8,0,1.4,0.7,1.4,1.4c0,0.8-0.7,1.5-1.5,1.4l0,0C8.4,5.7,7.8,5,7.8,4.2C7.8,3.5,8.5,2.9,9.3,2.9z"/>
</g>
</svg>
