<?xml version="1.0" encoding="utf-8"?>
<!-- Generator: Adobe Illustrator 23.0.1, SVG Export Plug-In . SVG Version: 6.00 Build 0)  -->
<svg version="1.1" id="Слой_1" xmlns="http://www.w3.org/2000/svg" xmlns:xlink="http://www.w3.org/1999/xlink" x="0px" y="0px"
	 viewBox="0 0 251 87" style="enable-background:new 0 0 251 87;" xml:space="preserve">
<style type="text/css">
	.st0{fill:#EA0C6F;stroke:#FFFFFF;stroke-linejoin:round;}
	.st1{fill-rule:evenodd;clip-rule:evenodd;fill:#EA0C6F;stroke:#FFFFFF;stroke-linejoin:round;}
	.st2{fill:#363636;}
	.st3{font-family:'Gilroy-Light';}
	.st4{font-size:14.9313px;}
</style>
<g>
	<path class="st0" d="M73.7,3.7c-8.2,0-13.4,4.8-13.4,12.8V72l0,0c0,8,5.3,12.8,13.4,12.8c8.2,0,13.4-4.8,13.4-12.8V16.5
		C87.1,8.5,81.9,3.7,73.7,3.7z M82.9,72.2L82.9,72.2c0,6.2-3.8,9.5-9.2,9.5s-9.2-3.3-9.2-9.5V16.4c0-6.2,3.8-9.5,9.2-9.5
		s9.2,3.3,9.2,9.5V72.2z"/>
	<path class="st0" d="M13.8,3.7C5.6,3.7,0.4,8.5,0.4,16.5v14.7c0,9.7,4.2,19,12.7,19c3.5,0,6.7-0.3,9.8-2.2v24.2
		c0,6.2-3.9,9.5-9.4,9.5c-4,0.1-7.7-2.4-8.9-6.3c-0.3-0.9-1.1-1.1-2.3-0.6c-0.9,0.1-1.5,0.9-1.4,1.8C0.9,76.7,1,76.9,1,77
		c1.3,4.1,5.8,7.9,12.5,7.9c8.4,0,13.6-4.8,13.6-12.8V16.5l0,0C27.2,8.5,22.2,3.7,13.8,3.7z M23,44.7c-2.7,1.8-5.8,2.2-9.5,2.2
		c-6.1,0-8.8-7.7-8.8-16.1V16.4l0,0c0-6.2,3.8-9.5,9.2-9.5s9.2,3.3,9.2,9.5L23,44.7L23,44.7z"/>
	<path class="st0" d="M112.8,15.5c0,0.3,0,0.6,0,1v55.7l0,0c0,6.2-3.8,9.5-9.2,9.5s-9.2-3.3-9.2-9.5V16.4c0-6.2,3.8-9.5,9.2-9.5
		c2.3,0,4.2,0.6,5.8,1.7V7.5h4.4c-2.3-2.4-5.8-3.8-10.1-3.8c-8.2,0-13.4,4.8-13.4,12.8V72l0,0c0,8,5.3,12.8,13.4,12.8
		S117.1,80,117.1,72V16.5c0-0.4,0-0.7,0-1.1h-4.3V15.5z"/>
	<path class="st0" d="M43.7,3.7c-8.2,0-13.4,4.8-13.4,12.8V72c0,8,5.3,12.8,13.4,12.8c8.2,0,13.4-4.8,13.4-12.8V16.5
		C57.2,8.5,51.9,3.7,43.7,3.7z M52.9,72.2L52.9,72.2c0,6.2-3.8,9.5-9.2,9.5s-9.2-3.3-9.2-9.5V16.4c0-6.2,3.8-9.5,9.2-9.5
		s9.2,3.3,9.2,9.5V72.2z"/>
</g>
<path id="_copy" class="st1" d="M120.6,20.8c0,0.8,0.4,1.1,1.4,1.1s1.4-0.4,1.4-1.1v-8.6h7.6c0.6,0.1,1.1-0.3,1.2-0.9
	c0-0.1,0-0.2,0-0.3c0.1-0.6-0.3-1.1-0.9-1.2c-0.1,0-0.2,0-0.3,0h-7.6V1.3c0-0.8-0.4-1.1-1.4-1.1s-1.4,0.4-1.4,1.1v8.5H113
	c-0.6-0.1-1.1,0.3-1.2,0.9c0,0.1,0,0.2,0,0.3c-0.1,0.6,0.3,1.1,0.9,1.2c0.1,0,0.2,0,0.3,0h7.6L120.6,20.8L120.6,20.8z"/>
<text transform="matrix(1.0044 0 0 1 137.4419 23.0601)" class="st2 st3 st4">конфигураций и</text>
<text transform="matrix(1.0044 0 0 1 137.4419 36.5879)" class="st2 st3 st4">изображений</text>
<text transform="matrix(1.0044 0 0 1 137.4419 50.1152)" class="st2 st3 st4">для фотопечати</text>
</svg>
