<?xml version="1.0" encoding="utf-8"?>
<!-- Generator: Adobe Illustrator 23.0.1, SVG Export Plug-In . SVG Version: 6.00 Build 0)  -->
<svg version="1.1" id="Слой_1" xmlns="http://www.w3.org/2000/svg" xmlns:xlink="http://www.w3.org/1999/xlink" x="0px" y="0px"
	 viewBox="0 0 37.3 32.2" style="enable-background:new 0 0 37.3 32.2;" xml:space="preserve">
<style type="text/css">
	.st0{fill-rule:evenodd;clip-rule:evenodd;}
	.st1{fill:#363636;stroke:#FFFFFF;stroke-miterlimit:10;}
</style>
<g>
	<path id="Forma_1" class="st0" d="M36.5,10.3L16,0.5c-0.2-0.1-0.5,0-0.6,0.2L10.9,10h2.4l3.3-6.8l17.8,8.5l-5.6,11.6l-3.1-1.5v6.1
		l1.9,0.9c0.2,0.1,0.5,0,0.6-0.2l8.5-17.7C36.8,10.7,36.7,10.4,36.5,10.3L36.5,10.3z M23.7,11.1H1c-0.3,0-0.5,0.2-0.5,0.5v19.6
		c0,0.3,0.2,0.5,0.5,0.5h22.7c0.3,0,0.5-0.2,0.5-0.5V11.6C24.2,11.4,24,11.1,23.7,11.1L23.7,11.1z M22.4,26.2H21
		c-0.8-2.1-1.9-5.2-3.4-4.8c-1.8,0.5-2.8,4.8-2.8,4.8s-0.9-4.8-3.5-7.4s-5.1,7.4-5.1,7.4H2.8V13.3h19.7L22.4,26.2L22.4,26.2z
		 M5.9,14.5c0.9,0,1.6,0.7,1.6,1.6c0,0.9-0.7,1.6-1.6,1.6c-0.9,0-1.6-0.7-1.6-1.6C4.3,15.2,5,14.5,5.9,14.5L5.9,14.5z M16.7,17.2
		c0.3,0,0.7,0,1-0.1c0.4,0.2,0.8,0.2,1.2,0.2c1.2,0,2.1-0.6,2.1-1.3c0-0.7-1-1.3-2.1-1.3c-0.4,0-0.8,0.1-1.2,0.2
		c-0.1-0.1-0.3-0.2-0.5-0.2h-0.3c-0.4,0-0.7,0.3-0.8,0.7c-1,0.1-1.7,0.4-1.7,0.9C14.4,16.8,15.4,17.2,16.7,17.2L16.7,17.2z"/>
</g>
<g>
	<path class="st1" d="M36.5,10.3L16,0.5c-0.2-0.1-0.5,0-0.6,0.2L10.9,10h2.4l3.3-6.8l17.8,8.5l-5.6,11.6l-3.1-1.5v6.1l1.9,0.9
		c0.2,0.1,0.5,0,0.6-0.2l8.5-17.7C36.8,10.7,36.7,10.4,36.5,10.3L36.5,10.3z M23.7,11.1H1c-0.3,0-0.5,0.2-0.5,0.5v19.6
		c0,0.3,0.2,0.5,0.5,0.5h22.7c0.3,0,0.5-0.2,0.5-0.5V11.6C24.2,11.4,24,11.1,23.7,11.1L23.7,11.1z M22.4,26.2H21
		c-0.8-2.1-1.9-5.2-3.4-4.8c-1.8,0.5-2.8,4.8-2.8,4.8s-0.9-4.8-3.5-7.4s-5.1,7.4-5.1,7.4H2.8V13.3h19.7L22.4,26.2L22.4,26.2z
		 M5.9,14.5c0.9,0,1.6,0.7,1.6,1.6c0,0.9-0.7,1.6-1.6,1.6c-0.9,0-1.6-0.7-1.6-1.6C4.3,15.2,5,14.5,5.9,14.5L5.9,14.5z M16.7,17.2
		c0.3,0,0.7,0,1-0.1c0.4,0.2,0.8,0.2,1.2,0.2c1.2,0,2.1-0.6,2.1-1.3c0-0.7-1-1.3-2.1-1.3c-0.4,0-0.8,0.1-1.2,0.2
		c-0.1-0.1-0.3-0.2-0.5-0.2h-0.3c-0.4,0-0.7,0.3-0.8,0.7c-1,0.1-1.7,0.4-1.7,0.9C14.4,16.8,15.4,17.2,16.7,17.2L16.7,17.2z"/>
</g>
</svg>
