<svg version="1.1" xmlns="http://www.w3.org/2000/svg" x="0" y="0" viewBox="0 0 75 75" xml:space="preserve"><style>.st0{fill:#e5046a}</style><path class="st0" d="M15.4 41.2c0-1-.3-1.4-1.3-1.4-2.3.1-4.6 0-6.8 0-.4 0-.8-.1-1.2-.1 0-.1-.1-.2-.1-.3.9-.7 1.7-1.3 2.6-2 1.6-1.2 3.4-2.3 4.8-3.8 3.8-3.9 2.2-10.4-2.9-11.8-1.4-.4-3-.4-4.5-.2-2.8.3-4.5 2.1-5.2 4.8-.8 3-.7 3 2.3 3.1 1.1 0 1.7-.2 1.8-1.5.2-2 1.6-3 3.6-2.7 1.6.3 2.8 1.9 2.3 3.7-.2 1-.8 2-1.5 2.7-.8.9-1.7 1.6-2.7 2.2-3 2-5.6 4.4-6.5 8.1v2c4.2 0 8.5 0 12.7-.1 3 0 2.5.4 2.6-2.7z"/><path class="st0" d="M74.1 32c-1-5.7-3.7-10.7-7.4-15.1C62.2 11.8 56.6 8.3 50 6.6c-3.8-1-7.7-1.5-11.7-.8-2.1.3-2.5.1-2.8-2.2h-.2C33.1 6 30.9 8.4 28.6 11c3.4.7 6.6 1.4 9.9 2.1-.2-.6-.3-1-.4-1.3-.4-.8-.2-1.2.7-1.2 2.6.1 5.3-.1 7.9.3C59.7 13.1 69 23.7 69.9 37c-.1 1.5-.1 3.1-.3 4.6-.6 5.9-2.9 11-6.9 15.3-6.9 7.3-15.3 10.5-25.4 8.9-7.6-1.2-13.6-5-18.1-11.1-1-1.3-1.7-2.8-2.7-4.3-1.5.7-2.9 1.4-4.4 2.1.1.4.2.7.3.9 1.6 3.1 3.6 5.9 6.1 8.3 2.6 2.5 5.4 4.7 8.7 6.1 1.1.5 2.1 1.1 3.2 1.4 2.4.7 4.9 1.3 7.3 2h7.8c.3-.1.5-.2.8-.2C53 70 59 67.2 64 62.6c5.4-4.8 8.8-10.9 10.2-18 .1-.3.2-2.3.4-4.2.3-1.9 0-2.9 0-4.4"/><path class="st0" d="M50.9 58c-.1 1 .2 1.4 1.2 1.3.8-.1 1.5 0 2.3 0 .8 0 1.1-.3 1.1-1.1.6-6.1 3-11.5 6.9-16.1.9-1 1.2-2.1 1.2-3.4 0-1.1-.3-1.4-1.4-1.4-4 .1-8 0-12 0-3 0-2.5-.4-2.6 2.6 0 1.1.3 1.4 1.4 1.4 3.1-.1 6.2 0 9.3 0-1.5 2.3-2.9 4.4-4.2 6.6-1.7 3.1-2.9 6.5-3.2 10.1zM18.7 39.1c2-.1 4.1 0 6.1 0 1.2-.1 1.5.4 1.4 1.5-.1.8-.1 1.6 0 2.4 0 .3.4.8.6.8 1.2 0 2.4.2 3.5-.2.3-.1.2-1.6.3-2.5v-.7c-.1-1 .3-1.5 1.3-1.3 1 .2 1.3-.4 1.2-1.3v-.9c.1-1-.3-1.5-1.3-1.3-1 .1-1.2-.4-1.2-1.3v-11c0-1.6 0-1.6-1.6-1.6-.7 0-1.4.1-2.1 0-1-.1-1.5.3-2 1.1-2 3.5-4.1 6.9-6.3 10.3-.9 1.4-1.3 2.9-1.3 4.6.1 1 .3 1.5 1.4 1.4zm7.5-12.9v8.3c0 .8-.3 1.1-1.1 1.1h-4.4c1.8-3.1 3.7-6.3 5.5-9.4zm15.7 7.5c1 .5 1.8 1 2.8 1.6 3.3-5.6 6.4-11.1 9.7-16.7-1-.6-1.8-1-2.8-1.6-3.3 5.6-6.5 11.1-9.7 16.7zm-5.4 9.2c-1 1.7-2 3.4-3.1 5.1-.9 1.6-1.9 3.1-2.9 4.8 1 .6 1.8 1.1 2.8 1.6 2.2-3.7 4.4-7.3 6.6-11-.7-.4-1.2-.7-1.6-1-.8-.5-1.3-.4-1.8.5zm1.2-4.1c0 1.8 1.5 3.3 3.4 3.3s3.2-1.3 3.2-3.2c0-1.9-1.4-3.3-3.2-3.3-1.8-.1-3.4 1.4-3.4 3.2z"/></svg>