<?xml version="1.0" encoding="utf-8"?>
<!-- Generator: Adobe Illustrator 23.0.1, SVG Export Plug-In . SVG Version: 6.00 Build 0)  -->
<svg version="1.1" id="Слой_1" xmlns="http://www.w3.org/2000/svg" xmlns:xlink="http://www.w3.org/1999/xlink" x="0px" y="0px"
	 viewBox="0 0 15.2 15.8" style="enable-background:new 0 0 15.2 15.8;" xml:space="preserve">
<style type="text/css">
	.st0{fill:#E5046A;}
</style>
<path class="st0" d="M12.2,3.3l1.2,0.1c-1.3-1.5-3.3-2.3-5.3-2.3c-4,0-7.2,3.1-7.2,6.9s3.2,6.9,7.2,6.9c2.4,0,4.7-1.2,6-3.1l0.8,0.5
	c-1.6,2.2-4.1,3.5-6.8,3.5C3.6,15.8,0,12.2,0,7.9C0,3.5,3.7,0,8.1,0c2.3,0,4.5,0.9,6,2.5l0.1-1.1l1,0.1L15,4.2L12.2,4
	C12.2,4,12.2,3.3,12.2,3.3z"/>
</svg>
