<svg version="1.1" id="Слой_1" xmlns="http://www.w3.org/2000/svg" x="0" y="0" viewBox="0 0 215.8 215.8" xml:space="preserve"><style>.st0{fill:#e5046a}</style><path class="st0" d="M0 22.5v-3.6c.1-.4.3-.7.4-1.1C1.7 9.6 7.9 3.2 16.1 1.7c.5-.1 1-.2 1.5-.4h107c.3.1.5.1.8.2 1.1.3 2.2.4 3.2.8 11.9 3.8 17.2 17.6 10.8 28.3-.2.3-.3.6-.6 1.1h33.1c1.4 0 2.8.1 4.1.4 11 2 18 13.2 15.1 24-2.3 8.5-9.9 14.4-18.8 14.4h-10.8c.5.9 1 1.7 1.3 2.5.3.7.8 1 1.4 1.2 21.3 6.7 36.6 20.2 45.7 40.5 3.4 7.5 5.3 15.5 5.6 23.8 0 .3.1.6.2 1v6.9c-.1.4-.2.8-.2 1.2 0 3.1-.5 6.2-1.1 9.2-4.1 19.7-14.6 35.1-31.3 46.2-9.5 6.3-19.9 9.9-31.3 11.2-1 .1-1.9.2-2.9.4h-9.7c-.3-.1-.6-.2-.9-.2-3.4-.3-6.8-.8-10.2-1.6-13.8-3.2-25.6-9.9-35.5-20-.6-.7-1.3-.9-2.2-.9H42.7c-1.2 0-2.4-.1-3.5-.2-9.2-1.4-16.2-9.2-16.5-18.5-.2-6 2-11 6.4-15 .3-.2.5-.5.8-.8-4.7-4-7.2-9-7.2-15.1 0-6.2 2.5-11.2 7.3-15.2-4.7-4-7.2-9-7.3-15.1 0-6.2 2.5-11.2 7.3-15.2-.3-.3-.6-.5-.8-.7-5.9-5.7-7.9-12.5-5.5-20.4 2.5-8 9.9-13.4 18.4-13.5H53c-4.4-7.3-4.4-14.6 0-21.9H20.1c-1 0-2 0-3-.2C8.7 39 1.7 32.3.4 23.8c-.1-.4-.3-.8-.4-1.3zm207.4 120.4c0-34.7-28.3-63.1-62.8-63.2-34.9-.1-63.4 28.2-63.5 62.9-.2 34.6 27.8 63.4 62.9 63.4 35 .1 63.4-28.2 63.4-63.1zM71.1 31.7h51.7c7.7 0 13-7.8 10.2-15-1.7-4.2-5.7-6.9-10.3-6.9H19.6C12.1 9.8 6.9 17 9.1 24c1.4 4.5 5.6 7.6 10.4 7.6 17.2.1 34.4.1 51.6.1zM120.8 62h51.3c.8 0 1.7 0 2.5-.2 5.3-1 9.3-5.9 8.8-11.5-.5-5.8-5.1-10.1-10.8-10.1H69.2c-7.5 0-12.8 7.6-10.2 14.7 1.6 4.3 5.7 7.2 10.4 7.2 17.1-.1 34.2-.1 51.4-.1zm29 9.4c-.4-.2-.5-.3-.7-.3-1.3-.5-2.6-.6-4-.6H42.7c-.9 0-1.8.1-2.6.2-5.5 1.1-9.4 6.3-8.6 12.1.8 5.9 5.9 9.6 11 9.6h50.1c.7 0 1.1-.2 1.6-.6 2-1.8 4-3.7 6.2-5.4 12.4-9.6 26.6-14.6 42.3-15 2.2-.2 4.5 0 7.1 0zm-63.5 29.4H41.8c-6.8.2-11.8 6.9-10.2 13.5 1.3 5 5.6 8.4 10.8 8.4h32.1c.3 0 .6 0 .9-.1 2.5-7.8 6-15 10.9-21.8zM75 161.4H42.2c-.7 0-1.4.1-2.1.2-5.7 1.1-9.6 6.7-8.6 12.4.9 5.5 5.4 9.2 11 9.2h41.6c.3 0 .7.1 1-.2-4.6-6.5-7.9-13.7-10.1-21.6zm-1.4-30.2H42.2c-7.6 0-12.8 7.9-10 14.9 1.5 3.8 5.4 7 10.4 6.9h29.7c.3 0 .6 0 1-.1-1-7.2-.9-14.4.3-21.7z"/><path class="st0" d="M199 143.3c-.1 8.4-2 16.8-6.1 24.7-.2.3-.3.6-.5.9-1.2 1.9-3.6 2.5-5.5 1.5s-2.8-3.2-2-5.3c.1-.3.3-.6.4-.9 3.9-7.6 5.6-15.7 5.1-24.2-1-16.3-10.8-31.1-25.4-38.4-.3-.2-.7-.3-1-.5-2-1.1-2.7-3.5-1.8-5.5.9-2 3.3-3 5.4-2.1.7.3 1.4.7 2.1 1 15.3 8.4 24.8 21.1 28.3 38.2.7 3.3 1 6.7 1 10.6zm-109.6.9c.1-10.1 2.1-18.5 6.1-26.3.3-.6.7-1.2 1.1-1.7 1.4-1.4 3.5-1.6 5.2-.6 1.6 1 2.4 3.1 1.7 4.9-.1.3-.3.7-.5 1-3.8 7.3-5.5 15-5.1 23.2.6 11.8 5 22 13.2 30.5 3.7 3.8 7.9 6.9 12.7 9.2 1.2.6 2.2 1.5 2.5 2.8.4 1.7 0 3.1-1.2 4.2s-2.7 1.4-4.2.8c-.6-.2-1.2-.5-1.7-.8-15.5-8.3-25-21-28.7-38.1-.7-2.9-1.1-7.3-1.1-9.1zm61.2-47.6c-2.5 0-4.3-1.8-4.3-4.2 0-2.4 1.9-4.2 4.3-4.2s4.4 1.9 4.4 4.2c0 2.3-1.9 4.2-4.4 4.2zm-12.9 101.1c-2.5 0-4.3-1.9-4.3-4.3s1.9-4.2 4.4-4.2c2.4 0 4.3 1.9 4.3 4.3s-1.9 4.2-4.4 4.2zm32.3-72.2c-.5-1.6-1.3-3.2-2.4-4.5-1.1-1.3-2.3-2.5-3.8-3.3-1.5-.9-2.9-1.5-4.4-1.9-1.2-.3-2.5-.5-3.8-.7-1.1-.1-2.2-.2-3.3-.2h-11.4c-.5 0-1.1.2-1.6.6-.6.4-.8 1.1-.8 2.1V144l-10.2-.1c-.2 0-.3 0-.5.1-.1 0-1.3.4-1.3 2.5 0 2.5 1.7 2.6 1.8 2.7l10.1-.4v2.7h-10.2c-.2 0-.3 0-.5.1-.1 0-1.3.4-1.3 2.5 0 2.5 1.7 2.6 1.8 2.7h10.1v13.6c0 .2 0 .3.1.5 0 .1.4 1.3 2.5 1.3 2.5 0 2.7-1.7 2.7-1.8v-13.6h10.1c.1 0 1.8-.2 1.8-2.7 0-2.1-1.3-2.4-1.3-2.5-.1-.1-.3-.1-.5-.1h-10.1v-2.6h7.3c3.4 0 6.2-.4 8.6-1.3 2.4-.9 4.4-2.1 6-3.6 1.7-1.6 2.9-3.5 3.8-5.6.9-2.2 1.3-4.6 1.3-7.2.2-2.2-.1-4-.6-5.7zm-5.7 11.1c-.6 1.5-1.4 2.9-2.6 4-1.1 1.1-2.5 2-4.2 2.6-1.6.6-3.7.9-6.2.9h-7.6v-24.4h8c1.4 0 2.8.1 4.2.3 1.5.2 3 .8 4.3 1.6 1.4.8 2.5 2.1 3.5 3.8 1 1.7 1.4 3.7 1.4 6.2.1 1.6-.2 3.4-.8 5z"/></svg>