<?xml version="1.0" encoding="utf-8"?>
<!-- Generator: Adobe Illustrator 23.0.1, SVG Export Plug-In . SVG Version: 6.00 Build 0)  -->
<svg version="1.1" id="Capa_1" xmlns="http://www.w3.org/2000/svg" xmlns:xlink="http://www.w3.org/1999/xlink" x="0px" y="0px"
	 viewBox="0 0 595.3 595.3" style="enable-background:new 0 0 595.3 595.3;" xml:space="preserve">
<style type="text/css">
	.st0{fill:#E50469;}
	.st1{fill:#2E2E2E;}
	.st2{fill:#FFFFFF;}
</style>
<path class="st0" d="M192.3,281.7c-1.3,5-3.7,15.4-3.7,28.4c0,34.8,15.8,67,49.3,91.2c7.8,5.6,17.7,5.6,25.4,0
	c33.5-24.1,49.3-56.3,49.3-91.2c0-13-2.3-23.3-3.7-28.4c-1.1-4-3.7-7.3-7.2-8.9l-42-19.9c-2.9-1.4-6-2.1-9.2-2.1
	c-8.1,0-9.2,2.8-51.2,22C196,274.4,193.4,277.6,192.3,281.7L192.3,281.7z M199.9,310.1c0-11.7,2-20.9,3.3-25.4
	c0.3-1,0.8-1.6,1.2-1.7c43.9-20.5,42.5-20.9,46.4-20.9c4,0,2.4,0.4,46.4,20.9c0.4,0.1,0.9,0.7,1.2,1.7c1.2,4.5,3.3,13.7,3.3,25.4
	c0,31.2-14.2,60.1-44.6,82c-3.8,2.8-8.4,2.8-12.2,0C214,370.1,199.9,341.1,199.9,310.1z"/>
<path class="st1" d="M160.2,132.9v315.4c0,22.1,18,40.2,40.2,40.2h233.9c20,0,36.2-16.2,36.2-36.2v-33.8c0-16.2-13.1-29.3-29.3-29.3
	h-32.3V133.5c0-14.8-12-26.8-26.8-26.8h-196C171.9,106.8,160.2,118.5,160.2,132.9L160.2,132.9z M408.9,452.2v-51.7h32.3
	c9.9,0,18,8.1,18,18v33.8c0,15.9-14.8,28.3-31.6,24.2C416.8,473.6,408.9,463.8,408.9,452.2L408.9,452.2z M171.5,448.2V132.9
	c0-8.2,6.6-14.8,14.8-14.8h195.9c8.6,0,15.5,6.9,15.5,15.5v309.2c0.1,7.3-2.2,21.7,10,34.4H200.5
	C184.4,477.2,171.5,464.2,171.5,448.2z"/>
<path class="st1" d="M374.5,161.1H231.2c-3.1,0-5.7-2.5-5.7-5.7s2.5-5.7,5.7-5.7h143.3c3.1,0,5.7,2.5,5.7,5.7
	S377.6,161.1,374.5,161.1z M208.7,161.1h-10.9c-3.1,0-5.7-2.5-5.7-5.7s2.5-5.7,5.7-5.7h10.9c3.1,0,5.7,2.5,5.7,5.7
	S211.8,161.1,208.7,161.1z M197.8,433.3h133.6c3.1,0,5.7,2.5,5.7,5.7c0,3.1-2.5,5.7-5.7,5.7H197.8c-3.1,0-5.7-2.5-5.7-5.7
	C192.2,435.9,194.7,433.3,197.8,433.3z M353.9,433.3h20.6c3.1,0,5.7,2.5,5.7,5.7c0,3.1-2.5,5.7-5.7,5.7h-20.6
	c-3.1,0-5.7-2.5-5.7-5.7C348.3,435.9,350.8,433.3,353.9,433.3z M374.5,201.6H197.8c-3.1,0-5.7-2.5-5.7-5.7s2.5-5.7,5.7-5.7h176.7
	c3.1,0,5.7,2.5,5.7,5.7S377.6,201.6,374.5,201.6L374.5,201.6z M197.8,230.8h102.8c3.1,0,5.7,2.5,5.7,5.7c0,3.1-2.5,5.7-5.7,5.7
	H197.8c-3.1,0-5.7-2.5-5.7-5.7C192.2,233.4,194.7,230.8,197.8,230.8L197.8,230.8z M374.5,242.1h-51.4c-3.1,0-5.7-2.5-5.7-5.7
	c0-3.1,2.5-5.7,5.7-5.7h51.4c3.1,0,5.7,2.5,5.7,5.7S377.6,242.1,374.5,242.1z M374.5,282.6h-41.6c-3.1,0-5.7-2.5-5.7-5.7
	c0-3.1,2.5-5.7,5.7-5.7h41.6c3.1,0,5.7,2.5,5.7,5.7S377.6,282.6,374.5,282.6z M374.5,323.2h-41.6c-3.1,0-5.7-2.5-5.7-5.7
	s2.5-5.7,5.7-5.7h41.6c3.1,0,5.7,2.5,5.7,5.7S377.6,323.2,374.5,323.2z M374.5,363.6h-51.4c-3.1,0-5.7-2.5-5.7-5.7s2.5-5.7,5.7-5.7
	h51.4c3.1,0,5.7,2.5,5.7,5.7S377.6,363.6,374.5,363.6z M374.5,404.2H305c-3.1,0-5.7-2.5-5.7-5.7c0-3.1,2.5-5.7,5.7-5.7h69.5
	c3.1,0,5.7,2.5,5.7,5.7S377.6,404.2,374.5,404.2L374.5,404.2z"/>
<path class="st1" d="M458.1,323.1c-12.3-12.3-28.5-19-45.9-19s-33.7,6.8-45.9,19c-12.3,12.3-19,28.5-19,45.9s6.8,33.7,19,45.9
	c12.3,12.3,28.5,19,45.9,19s33.7-6.8,45.9-19c12.2-12.2,19-28.5,19-45.9C477.1,351.7,470.3,335.4,458.1,323.1z"/>
<circle class="st2" cx="412.1" cy="369" r="59.5"/>
<path class="st0" d="M440.6,348.8l-33,34.1l-18-17.4c-1.5-1.5-4-1.4-5.4,0.1c-1.5,1.5-1.4,4,0.1,5.4l20.7,20.1
	c0.7,0.7,1.7,1.1,2.7,1c1,0,1.9-0.4,2.7-1.2l35.7-36.9c1.5-1.5,1.4-4-0.1-5.4C444.5,347.3,442.1,347.3,440.6,348.8L440.6,348.8z"/>
<path class="st1" d="M263.2,308.4c0,7.1-5.7,12.9-12.9,12.9c-7.1,0-12.9-5.7-12.9-12.9c0-7.1,5.7-12.9,12.9-12.9
	C257.4,295.5,263.2,301.3,263.2,308.4z M276.3,346.3c-0.3,0.3-0.7,0.4-1,0.1l-9.4-5.5c-0.1,1-0.2,2.6-0.4,4.2
	c-0.1,1.4-0.2,2.8-0.4,3.8c-0.1,0.5-0.1,1-0.1,1.3c-0.1,0.5-0.1,1.2-0.9,1.3c-0.2,0-0.4-0.1-0.6-0.2c-0.1-0.1-0.2-0.3-0.2-0.5
	c-0.3-1-5.1-12.1-9-21.1l-0.7,0.6c-0.3,0.2-0.6,0.4-0.9,0.5c-1.4,0.6-3.1,0.4-4.3-0.4l-1.3-1c-3.8,8.9-8.3,19.5-8.6,20.6
	c0,0.2-0.1,0.4-0.2,0.5c-0.1,0.1-0.4,0.2-0.6,0.2c-0.7,0-0.8-0.7-0.9-1.3c0-0.3-0.1-0.7-0.1-1.3c-0.1-1-0.2-2.5-0.4-3.8
	c-0.1-1.6-0.3-3.1-0.4-4.2l-9.3,5.6c-0.4,0.2-0.7,0.1-1-0.1c-0.3-0.3-0.3-0.7-0.1-1l11.5-18.8c-1.6-0.4-2.8-1.8-3.1-3.4l-1.1-6
	l-3.7-4.9c-1.1-1.5-1.2-3.6-0.1-5.1l3.5-5.1l0.9-6.1c0.2-1.5,1.2-2.8,2.6-3.4c0.3-0.1,0.7-0.2,1-0.3l6-1.1l4.9-3.7
	c0.3-0.2,0.6-0.4,0.9-0.5c1.4-0.6,3-0.4,4.3,0.4l5.1,3.5l6.1,0.9c1.9,0.3,3.4,1.7,3.7,3.6l1.1,6l3.7,4.9c1.1,1.5,1.2,3.6,0.1,5.1
	l-3.5,5.1l-0.9,6.1c-0.2,1.5-1.2,2.8-2.6,3.4c-0.3,0.1-0.7,0.2-1,0.3l-0.3,0.1l12.4,19.8C276.6,345.6,276.6,346,276.3,346.3z
	 M265.2,308.4c0-8.2-6.6-14.8-14.8-14.8s-14.8,6.6-14.8,14.8s6.6,14.8,14.8,14.8C258.5,323.2,265.2,316.6,265.2,308.4z"/>
</svg>
