<?xml version="1.0" encoding="utf-8"?>
<!-- Generator: Adobe Illustrator 23.0.1, SVG Export Plug-In . SVG Version: 6.00 Build 0)  -->
<svg version="1.1" id="Слой_1" xmlns="http://www.w3.org/2000/svg" xmlns:xlink="http://www.w3.org/1999/xlink" x="0px" y="0px"
	 viewBox="0 0 511 201" style="enable-background:new 0 0 511 201;" xml:space="preserve">
<style type="text/css">
	.st0{fill:#0F6BE2;}
</style>
<path class="st0" d="M185,1c9.9,3.1,18.6,8.1,25.3,16c11,12.9,18.4,27.9,24.7,43.6c9.5,23.5,15.3,48,20.9,72.6
	c0.2,0.9,0,1.9-0.3,2.9c-6.1-22.9-13.4-45.3-24.7-66.2c-6.8-12.6-15.1-24-27.5-31.9c-14.7-9.4-38.3-4.8-47.5,9.7
	c-5.9,9.2-4.1,19.3,0.5,27.8c6,11.1,12.9,22.1,21.3,31.4c12.9,14.3,27,27.5,41.3,40.5c10.4,9.4,21.8,17.7,32.8,26.5
	c1,0.8,2,1.6,2.4,3.3c-7.6-5.3-15.3-10.5-22.9-15.8c-22.9-16.2-44.8-33.6-64.2-53.9C154.3,94,142.5,79.7,136,61.9
	c-7.8-21.4-2.3-39.1,16.9-51.4c6.2-4,13.4-6.4,20.1-9.5C177,1,181,1,185,1z"/>
<path class="st0" d="M263.9,163.8c0-19.2-0.2-38.4,0.1-57.6c0.2-15.2,2.7-30.1,8-44.4c6.6-17.9,16.8-29.1,33.3-29
	c12.9,0.1,24.2,4.6,34.2,12.3c9.5,7.3,15.1,17,13.3,29.1c-1.2,8.2-3.4,16.4-6.7,24c-7.1,15.8-17.9,29.3-29.7,41.8
	c-8.1,8.6-16.6,16.7-25,25.1c-1.1,1.1-2.1,2.3-2.7,4c5.3-3.7,10.6-7.5,15.9-11.2c27.1-18.7,55.5-34.8,86.9-45.2
	c16.9-5.5,34.1-8.2,51.7-6.6c20.5,1.9,37.2,11.6,49.5,28.3c9,12.3,14.6,26.3,17.8,41.3c-3.1-4-6.1-8.1-9.2-12.1
	c-12.3-15.8-28.5-26.1-47.8-30.5c-10.8-2.5-22.2-4.1-33.2-3.8c-29.6,0.8-57.8,8.6-84.6,20.5c-20.8,9.3-41.1,19.8-60.9,29.5
	c0.9-1,2.5-3,4.3-4.9c16.5-17,31.8-35.1,43.6-55.7c5.4-9.4,9.4-19.8,12.7-30.2c3.6-11.2-1-22.3-10.4-28.8c-10-7-22.9-7.9-32-1.7
	c-9.5,6.4-14.8,16.3-17.6,26.8c-3.7,13.9-6.3,28.1-8.3,42.4c-1.7,12.1-2,24.4-2.9,36.6C264.1,163.8,264,163.8,263.9,163.8z"/>
<path class="st0" d="M259.7,182.2c-8.2-2.2-16.3-4.8-24.6-6.6c-21.2-4.4-42.4-8.7-63.6-12.6c-22.4-4.1-45.2-5.1-67.9-3.9
	c-28,1.5-55.3,6.3-79.3,22.2c-7.9,5.3-14.9,11.9-22.7,18.2c1.4-5.7,2.5-11.7,4.5-17.4c10.7-30.9,32.3-48.6,64.8-53.3
	c27.2-4,53.6,0.5,79.6,7.5c36.1,9.7,70.4,24.3,103.3,42c2,1.1,4,2.1,6.1,3.1C259.9,181.7,259.8,182,259.7,182.2z"/>
</svg>
