<svg xmlns="http://www.w3.org/2000/svg" viewBox="0 0 50 50"><path d="M38.4 20.3c-.5 0-1 .1-1.6.2-4.7 1.1-8.6 6.7-8.6 12.5-.1 2.3.7 4.6 2.1 6.5 1.3 1.6 3.2 2.5 5.2 2.5.5 0 1-.1 1.6-.2 4.7-1.1 8.6-6.7 8.6-12.5.1-2.3-.7-4.6-2.1-6.5-1.3-1.5-3.2-2.5-5.2-2.5zm-1.5 20.3c-.5.1-.9.2-1.4.2-3.6 0-6.2-3.3-6.2-7.8 0-5.3 3.5-10.4 7.8-11.3.5-.1.9-.2 1.4-.2 3.6 0 6.2 3.3 6.2 7.8-.1 5.3-3.5 10.4-7.8 11.3zm0-16.6c-1.6.4-3 1.5-3.9 2.9l-.1.1v.1c-1 1.6-1.6 3.4-1.6 5.2 0 3.5 2 6 4.8 6 .3 0 .7 0 1-.1 1.6-.4 3-1.5 3.9-2.9l.1-.1v-.1c1-1.6 1.6-3.4 1.6-5.2 0-3.5-2-6-4.8-6-.3 0-.7.1-1 .1zm4.8 6.7c-.1 1.2-.5 2.4-1.1 3.4l-1.7-1.7c.2-.4.3-.7.3-1.1l2.5-.6zm-3.4 0c0 .9-.6 1.8-1.4 2.1h-.2c-.6-.1-1.1-.6-1-1.2v-.1c0-.9.6-1.8 1.4-2.1.6-.1 1.1.2 1.3.8 0 .2 0 .4-.1.5zm-6.1.9c.1-1.2.5-2.4 1.1-3.4l1.7 1.7c-.2.4-.3.7-.3 1.1l-2.5.6zm4.3-6.2v3.1c-.3.1-.6.3-.8.6L34 27.4c.6-1 1.5-1.6 2.5-2zm-4.3 7.4l2.5-.6c.1.3.2.6.3.8l-1.8 2.7c-.6-.8-1-1.8-1-2.9zm1.7 3.7l1.8-2.7c.2.1.5.2.7.2v3.1h-.5c-.6.1-1.4-.1-2-.6zm3.5.4v-3.1c.3-.1.6-.3.8-.6l1.7 1.7c-.6 1-1.4 1.6-2.5 2zm4.4-7.4l-2.6.5c-.1-.3-.2-.6-.3-.8l1.8-2.7c.7.9 1 1.9 1.1 3zM40 25.8l-1.8 2.7c-.2-.1-.5-.2-.7-.2v-3.1h.5c.7-.1 1.4.2 2 .6zm3.2 3.8c-.1-.3.1-.5.4-.6s.5.1.6.4v.2c0 4.9-3.2 9.6-7.2 10.5-.4.1-.9.1-1.3.2-1.5 0-2.9-.6-3.9-1.7-1.4-1.6-2.2-3.7-2.1-5.9 0-4.9 3.2-9.6 7.2-10.5.3 0 .5.2.6.4.1.3-.1.6-.4.7-3.5.8-6.4 5-6.4 9.3-.1 1.8.6 3.6 1.8 5 1.1 1.2 2.8 1.7 4.4 1.3 3.5-.8 6.3-4.9 6.3-9.3zM48.5 7v-.3s0-.1-.1-.1c0 0-.1 0-.1-.1H48l-1.5.4V3.2c0-.2-.1-.4-.2-.5-.1-.1-.3-.1-.4-.1l-2.5 1.2V.6c0-.2-.1-.4-.2-.5-.3-.1-.5-.1-.7 0L25 12.5 7.5.1C7.3 0 7.1 0 7 .1c-.2.1-.3.3-.3.5v3.2L4.2 2.6c-.1-.1-.3 0-.4.1-.1.1-.2.3-.2.5v3.7l-1.5-.4c-.1 0-.3 0-.4.1s-.2.3-.2.5v36.2c0 .3.1.5.4.6L16 47.7l8.9 2.4h.2l23-6.2c.2-.1.4-.3.4-.6V7zm-3.1.1L30.9 11l14.6-7-.1 3.1zm-3.1-2.8L30.8 9.8l11.5-8.2v2.7zM7.7 1.6l11.5 8.2L7.7 4.3V1.6zM4.6 4l14.6 7-2.9-.8L4.6 7.1V4zM2.5 7.8l13.2 3.5v35L2.5 42.7V7.8zm45 34.9l-22 6v-1.3c.1-.3-.1-.5-.4-.6s-.5.1-.6.4v1.5l-7.9-2.1v-35l7.9 2.1v30.1c-.1.3.1.5.4.6s.5-.1.6-.4V13.7l22-5.9v34.9zM28.2 17.5L44.6 13c.3 0 .5.1.6.4v.1c.1.3-.1.6-.4.7l-16.4 4.5h-.1c-.2 0-.4-.2-.5-.5-.1-.3.1-.6.4-.7z" fill-rule="evenodd" clip-rule="evenodd" fill="#e5046a"/></svg>