<svg version="1.1" id="Layer_546_xA0_Изображение_1_" xmlns="http://www.w3.org/2000/svg" x="0" y="0" viewBox="0 0 75 75" xml:space="preserve"><style>.st0{fill:#e5046a}</style><path class="st0" d="M62.7 29.2c-.1.4-.3.7-.6 1l-1.3 1.3c-.5.5-1.1.5-1.6.1l-9.6-8.4c-2.1-1.9-4.3-3.7-6.4-5.6 0 0-.1 0 0 0-.7.4-1.3.7-2 1-1.5.7-3.1 1-4.7 1h-3.4V26c0 .1 0 .2.2.2 1.6.7 2.5 2 2.6 3.7v3.2h1.5c.6 0 1 .3 1.1.9.4 1.7.8 3.4 1.2 5.2 1.1 4.4 3.2 8.2 6.4 11.5.4.4.8.7 1.1 1.1.8.9 1.3 2 1.3 3.2v4.6c0 .9-.9 1.4-1.6 1-.4-.2-.6-.5-.6-1v-4.4c0-.9-.3-1.7-1-2.3-2.2-2.1-4-4.5-5.4-7.2-1.2-2.4-2.1-4.9-2.7-7.6l-.6-2.7c0-.2-.1-.2-.3-.2h-17v34.2c0 1.8 1.4 3.2 3.2 3.3h20.4c1.8 0 3.2-1.5 3.2-3.3v-5.3c0-.5.3-.9.7-1 .4-.2.9 0 1.2.3.2.2.3.5.3.8v5.3c0 1.5-.5 2.7-1.6 3.8-.9.9-2 1.4-3.2 1.6H21.9c-.2 0-.4-.1-.6-.1-2.5-.5-4.4-2.7-4.4-5.3V34.2c0-.7.5-1.2 1.2-1.2h1.3v-3.1c0-1.7 1-3.2 2.6-3.8.1-.1.2-.1.2-.3v-6.4h-1.9c-.5 0-.8-.2-1-.6 0-.1-.1-.1-.2-.1-1.5.2-3 .4-4.5.7-1 .2-1.9-.4-2.2-1.4 0-.1-.1-.3-.1-.4v-.5c.1-.8.5-1.3 1.2-1.6l5.4-2.4c.1 0 .2-.1.1-.2 0-.3 0-.6.3-.8.2-.2.4-.3.6-.4 6.3-2.8 12.7-5.6 19-8.4 2.6-1.1 5.2-2.3 7.8-3.4h.5s.1 0 .1.1c.4.1.6.4.7.8v.4h.2c1.2-.3 2.3-.6 3.5-.8.8-.2 1.3.1 1.6.6.5 1.2 1 2.5 1.5 3.7.3.6.1 1.1-.5 1.5-1.5.9-3 1.8-4.4 2.6-.1.1-.2.1-.4.2.2.4.5.7.7 1 .9 1.4 1.9 2.8 2.8 4.2.3.5.3 1-.1 1.4-.5.5-1.3.5-1.8-.2-2.4-3.6-4.8-7.2-7.2-10.7-.2-.3-.3-.5-.5-.8-2.7 1.2-5.4 2.4-8.2 3.6 8.2 7.2 16.4 14.5 24.7 21.7.1-.1.2-.1.2-.2s-.1-.1-.1-.2c-1-1.5-2-3.1-3.1-4.6-1.1-1.7-2.2-3.3-3.3-5-.4-.6-.2-1.4.5-1.7.5-.2 1 0 1.4.5 2.2 3.3 4.5 6.7 6.7 10 .2.3.4.6.5.9v.3zM41.4 15.9c-.1 0-.1-.1-.1-.1-2.7-2.4-5.4-4.8-8.2-7.2-.1-.1-.2-.1-.3 0-3.8 1.7-7.5 3.3-11.3 5-.1.1-.2.1-.2.2v3.5h15c.8 0 1.6-.1 2.3-.3 1-.2 1.9-.6 2.8-1.1zm-16.9 3.6v6.3h6.3v-6.3h-6.3zM48.2 7.3c1.4-.8 2.8-1.7 4.2-2.5v-.1c-.3-.6-.5-1.3-.8-1.9 0-.1-.1-.1-.2-.1-1 .2-2 .5-3 .7-.2 0-.2.1-.2.3v3.6zm-25 20.8c-.1 0-.1 0-.2.1-.8.3-1.3 1-1.3 1.9v3.1h1.5v-5.1zm8.9 0v5h1.5V30c0-.2-.1-.5-.1-.7-.3-.6-.8-1-1.4-1.2zm-2.3 5v-5h-1.1V33c0 .1 0 .2.1.2.4-.1.7-.1 1-.1zM25.4 28v5h1.1v-5h-1.1zm-9.5-11c1.1-.1 2.2-.3 3.2-.4v-1c-1 .5-2.1.9-3.2 1.4zM46 3.9V2.8l-.6.3c.2.2.4.5.6.8z"/><path class="st0" d="M41.8 11.4c-1.4 0-2.6-1.2-2.6-2.6 0-1.4 1.2-2.6 2.6-2.6 1.4 0 2.6 1.2 2.6 2.6 0 1.5-1.2 2.6-2.6 2.6zm.4-2.5c0-.2-.2-.4-.4-.4s-.4.2-.4.4.2.4.4.4.4-.2.4-.4z"/></svg>