<svg xmlns="http://www.w3.org/2000/svg" viewBox="0 0 75 75"><path d="M73.9 14.1h-6.3c-.5-1.5-1.8-2.5-3.4-2.5H58V8.9c0-2-1.6-3.7-3.6-3.7h-9.8v-.1c0-2-1.6-3.7-3.6-3.7H13.3C9.6 1.4 6 3 3.6 5.8 1 8.6-.2 12.4 0 16.2c.4 7.2 6.4 12.9 13.6 13h1.7c1.2 0 2.3.6 3 1.5.7 1 .9 2.2.6 3.4l-5.7 21.2c-.3 1.1-1.3 1.9-2.4 1.9-.6 0-1.2.5-1.1 1.2v12.7c0 1.3 1 2.4 2.3 2.5h19.4c1.3 0 2.4-1.1 2.3-2.5V59.7c0-1.3-1-2.4-2.3-2.5h-1.3c-.4 0-.8-.2-1-.5-.2-.3-.3-.8-.2-1.2l5-18.8h4.8c.4 0 .8-.2 1-.5.2-.3.2-.8.1-1.1-.7-1.9-.7-4-.2-5.9h1.6c2 0 3.6-1.7 3.6-3.7v-.1h9.8c2 0 3.6-1.7 3.6-3.7V19h6.1c1.6 0 2.9-1 3.4-2.5H74c.7 0 1.2-.6 1.1-1.3-.1-.6-.6-1.1-1.2-1.1zM37.2 34.4h-2.7l1.4-5.2h1.3c-.3 1.7-.3 3.5 0 5.2zm5.2-9c0 .7-.6 1.3-1.3 1.3H35c-.5 0-1 .4-1.1.9l-7.3 27.2c-.3 1.1-.1 2.3.6 3.3.7.9 1.7 1.5 2.8 1.5h1.3s.1 0 .1.1v11.4s0 .1-.1.1H12.1s-.1 0-.1-.1V59.6h12.2c.7 0 1.2-.6 1.1-1.3 0-.6-.5-1.1-1.1-1.1h-9.3c.2-.4.4-.8.5-1.3l5.7-21.2c.5-1.9.1-3.9-1-5.5H20h10.2c.7 0 1.2-.6 1.1-1.3 0-.6-.5-1.1-1.1-1.1H13.7c-6 0-11-4.7-11.4-10.7-.2-3.2.8-6.3 3-8.6 2-2.3 4.9-3.6 8-3.6h27.9c.7 0 1.3.6 1.3 1.3l-.1 20.2zm13.4-3.8c0 .7-.6 1.3-1.3 1.3h-.1V12.8c0-.6-.5-1.1-1.1-1.1-.6 0-1.1.5-1.1 1.1V23h-7.4V7.6h7.4v1.3c0 .6.4 1.2 1.1 1.2.6 0 1.2-.4 1.2-1.1V7.6h.1c.7 0 1.3.6 1.3 1.3l-.1 12.7zm8.4-5H58v-2.7h6.1c.7 0 1.3.6 1.3 1.3.1.8-.5 1.4-1.2 1.4zm-46.1-2.5H7.2c-.7 0-1.2.6-1.1 1.3 0 .6.5 1.1 1.1 1.1h10.9c.7 0 1.2-.6 1.1-1.3 0-.6-.5-1.1-1.1-1.1zm-8.5-1.4h6.1c.7 0 1.2-.6 1.1-1.3 0-.6-.5-1.1-1.1-1.1H9.6c-.7 0-1.2.6-1.1 1.3 0 .6.5 1 1.1 1.1zm6.1 5.2H9.6c-.7 0-1.2.6-1.1 1.2 0 .6.5 1.1 1.1 1.1h6.1c.7 0 1.2-.6 1.1-1.2 0-.6-.5-1.1-1.1-1.1z" fill-rule="evenodd" clip-rule="evenodd" fill="#e5046a"/></svg>