<svg id="email" title="email" version="1.1" xmlns="http://www.w3.org/2000/svg" x="0" y="0" viewBox="0 0 512 512" xml:space="preserve">
    <circle cx="256" cy="256" r="256" fill="#e5046a"/>
    <path fill="#fff" d="M132.6 165.5l105.6 83.6c4.8 3.8 11.4 5.5 17.8 5.2 6.4.3 13-1.4 17.8-5.2l105.6-83.6c8.5-6.7 6.5-12.1-4.2-12.1H136.8c-10.7 0-12.6 5.4-4.2 12.1z"/>
    <path fill="#fff" d="M387 187.6l-115.4 87.6c-4.3 3.2-10 4.8-15.6 4.7-5.6.1-11.3-1.5-15.6-4.7L125 187.6c-8.6-6.5-15.6-3-15.6 7.7v143.8c0 10.7 8.8 19.5 19.5 19.5H383c10.7 0 19.5-8.8 19.5-19.5V195.3c.1-10.7-6.9-14.2-15.5-7.7z"/>
</svg>
