<?xml version="1.0" encoding="utf-8"?>
<!-- Generator: Adobe Illustrator 23.0.1, SVG Export Plug-In . SVG Version: 6.00 Build 0)  -->
<svg version="1.1" id="Layer_1" xmlns="http://www.w3.org/2000/svg" xmlns:xlink="http://www.w3.org/1999/xlink" x="0px" y="0px"
	 viewBox="0 0 595.3 595.3" style="enable-background:new 0 0 595.3 595.3;" xml:space="preserve">
<style type="text/css">
	.st0{fill:#2E2E2E;}
	.st1{fill:#FFFFFF;}
	.st2{fill:#2E2E2E;stroke:#FFFFFF;stroke-width:7;stroke-linecap:square;stroke-miterlimit:5;}
	.st3{fill:#2E2E2E;stroke:#FFFFFF;stroke-linecap:square;stroke-miterlimit:5;}
	.st4{fill:#E50469;}
	.st5{fill:#E50469;stroke:#E50469;stroke-width:3;stroke-miterlimit:5;}
</style>
<path class="st0" d="M308.6,359.4c-31.6,0-54.6-7.2-68.4-21.5c-13.9-14.3-21.8-30.2-23.6-47.2v-1h48.6c1.5,9.6,5.8,17.9,12.9,24.9
	c7.9,7.8,18.6,11.8,31.9,11.8c13.2,0,23.3-3.4,29.7-10c6.2-6.3,10.5-13.4,12.9-21.1c1.4-4.5,2.3-9,2.7-13.4
	c0.3-4.2,0.5-7.8,0.5-10.5c0-17.1-4.6-29.8-13.8-37.8c-9-7.8-19.1-11.9-30-12.1h-1.1c-1.9,0-3.9,0.1-6.1,0.4
	c-2.1,0.2-4.3,0.6-6.4,1.1c-5.7,1.2-11.2,3.2-16.4,6.1c-4.8,2.6-8.7,6.1-11.4,10.3h-49.2l15-126.8h152.8V149H268.5l-8.5,65.3
	l6.6-4.8c8.8-6.4,18-10.9,27.4-13.4c9.5-2.5,19.8-3.8,30.4-3.8c20.8,0,39.7,6.6,56.2,19.7c16.2,12.9,24.4,33.3,24.4,60.5v3.6
	c-0.9,20.8-8.7,40.2-23.4,57.5C367.1,350.7,342.5,359.4,308.6,359.4z"/>
<path class="st1" d="M385.6,116.1v29.4H265.5l-0.8,6.1l-7.1,54.1l-2.1,16.2l13.2-9.7c8.4-6.2,17.3-10.5,26.2-12.8
	c9.3-2.4,19.2-3.6,29.5-3.6c20,0,38.2,6.4,54,19c15.5,12.4,23.1,31.3,23.1,57.7v3.5c-0.9,20-8.4,38.6-22.6,55.3
	c-13.8,16.3-37.4,24.6-70.3,24.6c-30.6,0-52.8-6.9-65.9-20.4c-12.6-12.9-20-27.1-22.2-42.3h41.8c2,9.1,6.5,17.1,13.4,23.9
	c8.6,8.5,20.2,12.8,34.3,12.8c14.2,0,25.1-3.7,32.2-11c6.6-6.7,11.2-14.3,13.8-22.5c1.5-4.7,2.4-9.5,2.8-14.2
	c0.4-4.3,0.5-8,0.5-10.8c0-18.2-5.1-31.8-15-40.4c-9.6-8.3-20.5-12.7-32.2-13h-1.2c-2,0-4.1,0.1-6.5,0.4c-2.2,0.3-4.5,0.6-6.7,1.1
	c-6,1.3-11.9,3.4-17.3,6.4c-4.7,2.6-8.6,5.9-11.6,9.9h-43.5L239.5,116L385.6,116.1 M392.6,109.1H233.3l-15.8,133.8h55.1
	c2.5-4.5,6.2-8.1,11.1-10.8s10.1-4.6,15.5-5.7c2-0.4,4-0.8,6.1-1c2-0.2,3.9-0.3,5.7-0.3h1c10.1,0.2,19.3,4,27.7,11.3
	s12.6,19,12.6,35.1c0,2.7-0.2,6.1-0.5,10.3c-0.3,4.2-1.2,8.4-2.5,12.6c-2.2,7.2-6.3,13.7-12.1,19.7c-5.8,5.9-14.9,8.9-27.2,8.9
	c-12.3,0-22.1-3.6-29.4-10.8c-7.3-7.2-11.4-15.8-12.3-25.9h-55.5c0,0.7,0.1,1.4,0.2,2.2c0.1,0.8,0.2,1.6,0.2,2.5
	c1.8,17.9,10,34.4,24.5,49.4c14.6,15,38.2,22.5,71,22.5c35.2,0,60.4-9,75.7-27.1c15.2-18,23.3-37.9,24.2-59.7v-3.6
	c0-28.5-8.6-49.5-25.7-63.2s-36.6-20.5-58.3-20.5c-11,0-21.4,1.3-31.3,3.9s-19.4,7.2-28.6,14l7.1-54.1h120.8L392.6,109.1
	L392.6,109.1z"/>
<path class="st2" d="M206.5,430.4v18.7h-40.1v37h-22.8v-96.5h70.2v18.7h-47.4v22.1L206.5,430.4L206.5,430.4z M218.9,389.6h49.5
	c10.7,0,18.7,2.5,24,7.5s7.9,11.7,7.9,20c0,7-1.6,12.5-4.9,16.3c-3.3,3.9-6.9,6.4-11,7.7v0.4c5,1.4,8.5,3.8,10.3,7.1
	c1.8,3.3,2.9,6.9,3.3,10.6c0.1,1,0.2,1.9,0.2,2.9s0.1,1.9,0.1,2.9v1.4c0.1,5.1,0.3,8.9,0.6,11.5c0.3,2.5,1.1,4.8,2.3,6.8
	c0.1,0.3,0.2,0.5,0.4,0.8c0.2,0.3,0.3,0.5,0.5,0.8h-23.2c-1.4-2-2.3-4.3-2.8-7s-0.8-7.2-1-13.5c-0.1-3.8-0.9-7.3-2.4-10.4
	s-6-4.7-13.3-4.7h-17.8v35.7h-22.8v-96.8L218.9,389.6L218.9,389.6z M241.6,432.9h20.8c0.5,0,1,0,1.6-0.1c0.5,0,1-0.1,1.6-0.1
	c2.9-0.3,5.5-1.4,7.9-3.1s3.6-4.7,3.6-8.9c0-5.4-1.5-8.8-4.6-10.3s-6.7-2.2-10.9-2.2h-20L241.6,432.9L241.6,432.9z M380.6,428v17.7
	h-47.3v21.7h54.9v18.7h-77.6v-96.5H387v18.7h-53.6V428H380.6L380.6,428z M464.7,428v17.7h-47.3v21.7h54.9v18.7h-77.7v-96.5H471v18.7
	h-53.6V428H464.7z"/>
<path class="st3" d="M494.6,249.2c-11.8-11.8-27.6-18.3-44.3-18.3c-16.7,0-32.5,6.5-44.3,18.3s-18.3,27.6-18.3,44.3
	s6.5,32.5,18.3,44.3s27.6,18.3,44.3,18.3c16.7,0,32.5-6.5,44.3-18.3s18.3-27.6,18.3-44.3S506.4,261.1,494.6,249.2L494.6,249.2z"/>
<circle class="st1" cx="450.3" cy="293.5" r="55.3"/>
<path class="st4" d="M477.8,274l-31.9,32.9l-17.3-16.7c-1.5-1.4-3.8-1.4-5.2,0.1c-1.4,1.5-1.4,3.8,0.1,5.2l20,19.3
	c0.7,0.7,1.7,1,2.6,1s1.9-0.4,2.6-1.1l34.4-35.6c1.4-1.5,1.4-3.8-0.1-5.2C481.5,272.6,479.2,272.6,477.8,274L477.8,274z"/>
<path class="st5" d="M135.5,227.8v-53.2h16.4v53.2h53.2v16.4h-53.3v53.2h-16.3v-53.2H82.3v-16.4H135.5z"/>
</svg>
