<?xml version="1.0" encoding="utf-8"?>
<!-- Generator: Adobe Illustrator 23.0.1, SVG Export Plug-In . SVG Version: 6.00 Build 0)  -->
<svg version="1.1" id="Capa_1" xmlns="http://www.w3.org/2000/svg" xmlns:xlink="http://www.w3.org/1999/xlink" x="0px" y="0px"
	 viewBox="0 0 595.3 595.3" style="enable-background:new 0 0 595.3 595.3;" xml:space="preserve">
<style type="text/css">
	.st0{fill:#2E2E2E;}
	.st1{fill:#FFFFFF;}
	.st2{fill:#FFFFFF;stroke:#E50469;stroke-width:7;stroke-miterlimit:10;}
	.st3{fill:#2E2E2E;stroke:#FFFFFF;stroke-linecap:square;stroke-miterlimit:5;}
	.st4{fill:#E50469;}
</style>
<path class="st0" d="M338.8,394.7c-3.4,0-6.3-2.6-6.8-6l-3.2-25.1l-1.2-0.1c-11.5-0.9-22.6-3.9-33.1-8.9l-1.1-0.5l-15.4,20
	c-1.3,1.7-3.3,2.7-5.4,2.7c-1.5,0-3-0.5-4.2-1.4l-18.5-14.2c-1.4-1.1-2.4-2.7-2.6-4.5c-0.2-1.8,0.2-3.6,1.4-5l15.4-20l-0.8-0.9
	c-7.5-8.8-13.2-18.8-17.1-29.7l-0.4-1.1l-25.1,3.3c-0.3,0-0.6,0.1-0.9,0.1c-1.5,0-3-0.5-4.2-1.4c-1.4-1.1-2.4-2.7-2.6-4.5l-3-23.2
	c-0.2-1.8,0.2-3.6,1.4-5c1.1-1.4,2.7-2.4,4.5-2.6l25.1-3.2l0.1-1.2c0.9-11.5,3.9-22.6,8.9-33.1l0.5-1.1l-20-15.4
	c-3-2.3-3.5-6.6-1.2-9.6l14.3-18.5c1.1-1.4,2.7-2.4,4.5-2.6c0.3,0,0.6-0.1,0.9-0.1c1.5,0,3,0.5,4.2,1.4l20,15.4l0.9-0.8
	c8.8-7.5,18.8-13.2,29.7-17.1l1.1-0.4l-3.3-25.1c-0.2-1.8,0.3-3.6,1.4-5c0.6-0.8,1.3-1.4,2.2-1.9c0.7-0.4,1.5-0.6,2.3-0.7l23.2-3
	c0.3,0,0.6-0.1,0.9-0.1c3.4,0,6.3,2.6,6.8,6l3.3,25.1l1.2,0.1c11.5,0.9,22.6,3.9,33.1,8.9l1.1,0.5l15.4-20c1.1-1.4,2.7-2.4,4.5-2.6
	c0.3,0,0.6-0.1,0.9-0.1c1.5,0,3,0.5,4.2,1.4l18.5,14.2c1.4,1.1,2.4,2.8,2.6,4.5c0.2,1.8-0.2,3.6-1.4,5.1l-15.4,20l0.8,0.9
	c7.5,8.8,13.2,18.8,17.1,29.7l0.4,1.1l25.1-3.3c0.3,0,0.6-0.1,0.9-0.1c3.4,0,6.3,2.6,6.8,6l3,23.2c0.2,1.8-0.3,3.6-1.4,5.1
	c-1.1,1.4-2.7,2.4-4.5,2.6l-25.1,3.3l-0.1,1.2c-0.9,11.5-3.9,22.6-8.9,33.1l-0.5,1.1l20,15.4c3,2.3,3.5,6.6,1.2,9.6l-14.3,18.5
	c-1.1,1.4-2.7,2.4-4.5,2.6c-0.3,0-0.6,0.1-0.9,0.1c-1.5,0-3-0.5-4.2-1.4l-20-15.4l-0.9,0.8c-8.8,7.5-18.8,13.2-29.7,17.1l-1.1,0.4
	l3.3,25.1c0.2,1.8-0.3,3.6-1.4,5.1c-1.1,1.4-2.7,2.4-4.5,2.6l-23.2,3C339.4,394.6,339.1,394.7,338.8,394.7L338.8,394.7z
	 M335.4,211.5c-2.5,0-5.1,0.2-7.6,0.5c-7,0.9-13.7,3-19.9,6.3c-21.1,11.3-33.2,34.9-30.2,58.6c2,15.4,9.8,29,22.1,38.5
	c10.2,7.9,22.4,12.1,35.3,12.1c2.5,0,5.1-0.2,7.6-0.5c7-0.9,13.7-3.1,19.9-6.3c21.1-11.3,33.2-34.9,30.2-58.6
	c-2-15.4-9.9-29-22.1-38.5C360.4,215.6,348.2,211.5,335.4,211.5L335.4,211.5z"/>
<path class="st1" d="M331.7,145.8c2.7,0,4.9,2,5.3,4.6l3.1,23.9l0.3,2.4l2.4,0.2c11.3,0.9,22.3,3.9,32.5,8.8l2.2,1l1.5-1.9
	l14.7-19.1c0.9-1.1,2.1-1.9,3.5-2h0.7c1.2,0,2.3,0.4,3.3,1.1l18.5,14.3c1.1,0.9,1.9,2.1,2,3.5c0.2,1.4-0.2,2.8-1.1,3.9l-14.7,19.1
	l-1.5,1.9l1.6,1.9c7.4,8.7,13,18.5,16.8,29.2l0.8,2.3l2.4-0.3l23.9-3.1h0.7c2.7,0,4.9,2,5.3,4.7l3,23.1c0.2,1.4-0.2,2.8-1.1,3.9
	s-2.1,1.9-3.5,2l-23.9,3.1l-2.4,0.3l-0.2,2.4c-0.9,11.3-3.9,22.3-8.8,32.5l-1,2.2l1.9,1.5l19.1,14.7c2.3,1.8,2.8,5.2,1,7.5
	l-14.3,18.5c-0.8,1.1-2.1,1.8-3.5,2h-0.7c-1.2,0-2.3-0.4-3.2-1.1l-19.1-14.7l-1.9-1.5l-1.9,1.6c-8.7,7.4-18.5,13-29.2,16.8l-2.3,0.8
	l0.3,2.4l3.1,23.9c0.2,1.4-0.2,2.8-1.1,3.9s-2.1,1.9-3.5,2l-23.2,3h-0.7c-2.7,0-4.9-2-5.3-4.7l-3.1-23.9l-0.3-2.4l-2.4-0.2
	c-11.3-0.9-22.3-3.9-32.5-8.8l-2.2-1l-1.5,1.9L276.8,373c-1,1.3-2.6,2.1-4.2,2.1c-1.2,0-2.3-0.4-3.2-1.1l-18.5-14.2
	c-1.1-0.9-1.8-2.1-2-3.5s0.2-2.8,1.1-3.9l14.7-19.1l1.5-1.9l-1.6-1.9c-7.4-8.7-13-18.5-16.8-29.2L247,298l-2.4,0.3l-23.9,3.1H220
	c-1.2,0-2.3-0.4-3.2-1.1c-1.1-0.9-1.9-2.1-2-3.5l-3-23.2c-0.2-1.4,0.2-2.8,1.1-3.9c0.9-1.1,2.1-1.9,3.5-2l23.9-3.1l2.4-0.3l0.2-2.4
	c0.9-11.3,3.9-22.3,8.8-32.5l1-2.2l-1.9-1.5L231.7,211c-2.3-1.8-2.8-5.2-1-7.5L245,185c0.8-1.1,2.1-1.8,3.5-2h0.7
	c1.2,0,2.3,0.4,3.3,1.1l19.1,14.7l1.9,1.5l1.9-1.6c8.7-7.4,18.5-13,29.2-16.8l2.3-0.8l-0.3-2.4l-3.1-23.9c-0.2-1.4,0.2-2.8,1.1-3.9
	c0.5-0.6,1-1.1,1.7-1.4c0.6-0.3,1.2-0.5,1.8-0.6l23.2-3C331.2,145.8,331.4,145.8,331.7,145.8 M335.1,329c2.6,0,5.2-0.2,7.8-0.5
	c7.2-0.9,14.1-3.1,20.4-6.5c21.7-11.6,34.1-35.8,30.9-60.1c-2-15.8-10.1-29.8-22.7-39.5c-10.5-8.1-23-12.4-36.2-12.4
	c-2.6,0-5.2,0.2-7.8,0.5c-7.2,0.9-14.1,3.1-20.4,6.5c-21.7,11.6-34.1,35.8-30.9,60.1c2,15.8,10.1,29.8,22.7,39.5
	C309.4,324.7,322,329,335.1,329 M331.7,142.8c-0.4,0-0.7,0-1.1,0.1l-23.2,3c-1,0.1-2,0.4-2.9,0.9c-1,0.6-1.9,1.3-2.7,2.3
	c-1.3,1.7-1.9,4-1.7,6.2l3.1,23.9c-11,3.9-21.3,9.8-30.2,17.3l-18.9-14.8c-1.5-1.1-3.3-1.7-5.1-1.7c-0.4,0-0.7,0-1.1,0.1
	c-2.2,0.3-4.2,1.4-5.5,3.2l-14.2,18.4c-2.8,3.6-2.1,8.9,1.5,11.7l19.1,14.7c-5,10.5-8.1,21.9-9.1,33.6l-23.9,3.1
	c-4.6,0.6-7.8,4.8-7.2,9.3l3,23.2c0.3,2.2,1.4,4.2,3.2,5.5c1.5,1.1,3.3,1.7,5.1,1.7c0.4,0,0.7,0,1.1-0.1l23.9-3.1
	c3.9,11,9.8,21.3,17.3,30.2l-14.7,19.1c-1.4,1.8-1.9,4-1.7,6.2c0.3,2.2,1.4,4.2,3.2,5.5l18.5,14.2c1.5,1.2,3.3,1.7,5.1,1.7
	c2.5,0,5-1.1,6.6-3.2l14.7-19.1c10.5,5,22,8.1,33.6,9.1l3.1,23.9c0.5,4.2,4.1,7.3,8.3,7.3c0.4,0,0.7,0,1.1-0.1l23.2-3
	c2.2-0.3,4.2-1.4,5.5-3.2c1.3-1.8,1.9-4,1.7-6.2l-3.1-23.9c11-3.9,21.3-9.8,30.2-17.3l19.1,14.7c1.5,1.1,3.3,1.7,5.1,1.7
	c0.4,0,0.7,0,1.1-0.1c2.2-0.3,4.2-1.4,5.5-3.2l14.3-18.5c2.8-3.7,2.1-8.9-1.5-11.7l-19.4-14.6c5-10.5,8.1-21.9,9.1-33.6l23.9-3.1
	c2.2-0.3,4.2-1.4,5.5-3.2c1.3-1.8,1.9-4,1.7-6.2l-3-23.1c-0.5-4.2-4.1-7.3-8.3-7.3c-0.4,0-0.7,0-1.1,0.1l-23.9,3.1
	c-3.9-11-9.8-21.3-17.3-30.2l14.7-19.1c1.3-1.8,1.9-4,1.7-6.2c-0.3-2.2-1.4-4.2-3.2-5.5L403,162.3c-1.5-1.1-3.3-1.7-5.1-1.7
	c-0.4,0-0.7,0-1.1,0.1c-2.2,0.3-4.2,1.4-5.5,3.2L376.6,183c-10.5-5-21.9-8.1-33.6-9.1l-3.1-23.9
	C339.4,145.8,335.8,142.8,331.7,142.8L331.7,142.8z M335.1,326c-12.4,0-24.4-4.1-34.4-11.7c-12-9.2-19.6-22.5-21.5-37.5
	c-3-23.2,8.8-46.1,29.4-57.1c6-3.2,12.5-5.3,19.4-6.2c2.5-0.3,4.9-0.5,7.4-0.5c12.4,0,24.4,4.1,34.4,11.7
	c12,9.2,19.6,22.5,21.6,37.5c3,23.1-8.8,46.1-29.4,57.1c-6,3.2-12.5,5.3-19.4,6.2C340,325.8,337.6,326,335.1,326z"/>
<path class="st2" d="M109,407.4c1.8,0.5,3.7,0.3,5.4-0.6l11.7-6.3c4.3,4.8,9.3,8.8,14.8,12l-3.8,12.7c-1.1,3.7,1,7.7,4.8,8.8
	l13.8,4.1c1.8,0.5,3.7,0.3,5.4-0.6c1.6-0.9,2.9-2.4,3.4-4.2l3.8-12.8c6.4,0.3,12.8-0.3,19-2l6.3,11.7c1.9,3.4,6.1,4.7,9.6,2.8
	l12.6-6.9c3.4-1.9,4.7-6.1,2.8-9.6l-6.3-11.7c4.8-4.3,8.8-9.3,12-14.8l12.8,3.8c1.8,0.5,3.7,0.3,5.4-0.6c1.6-0.9,2.9-2.4,3.4-4.2
	l4.1-13.8c1.1-3.7-1-7.7-4.8-8.8l-12.7-3.8c0.3-6.4-0.3-12.8-2-19l11.7-6.3c3.4-1.9,4.7-6.1,2.8-9.6l-6.9-12.7
	c-0.9-1.6-2.4-2.9-4.2-3.4s-3.7-0.3-5.4,0.6l-11.7,6.3c-4.3-4.7-9.3-8.8-14.8-12l3.8-12.8c0.5-1.8,0.3-3.7-0.6-5.4
	c-0.9-1.6-2.4-2.9-4.2-3.4l-13.8-4.1c-1.8-0.5-3.7-0.3-5.4,0.6c-1.6,0.9-2.9,2.4-3.4,4.2l-3.7,13.2c-6.4-0.3-12.8,0.3-19,2
	l-6.3-11.7c-1.9-3.4-6.1-4.7-9.6-2.8l-12.7,6.9c-0.1,0-0.2,0.1-0.3,0.1c-1.5,0.9-2.6,2.3-3.1,4c-0.5,1.8-0.3,3.7,0.6,5.4l6.3,11.7
	c-4.8,4.3-8.8,9.3-12,14.8l-12.8-3.8c-1.8-0.5-3.7-0.3-5.4,0.6c-1.6,0.9-2.9,2.4-3.4,4.2L92.9,344c-1.1,3.7,1,7.7,4.8,8.8l12.8,3.8
	c-0.3,6.4,0.3,12.8,2,19l-11.7,6.3c-3.4,1.9-4.7,6.1-2.8,9.6l6.9,12.6C105.7,405.6,107.2,406.9,109,407.4L109,407.4z M142.5,375.4
	c-8.6-16-2.8-35.9,13.2-44.6c15.9-8.6,36-2.7,44.6,13.2c8.4,15.5,3.2,34.8-12,43.9c-0.4,0.2-0.8,0.5-1.3,0.7
	C171.2,397.3,151.2,391.3,142.5,375.4L142.5,375.4z"/>
<path class="st3" d="M488.3,345.7c-11.8-11.8-27.6-18.3-44.3-18.3c-16.7,0-32.5,6.5-44.3,18.3s-18.3,27.6-18.3,44.3
	c0,16.7,6.5,32.5,18.3,44.3s27.6,18.3,44.3,18.3c16.7,0,32.5-6.5,44.3-18.3s18.3-27.6,18.3-44.3S500.1,357.5,488.3,345.7z"/>
<circle class="st1" cx="444" cy="390" r="55.3"/>
<path class="st4" d="M471.5,370.5l-31.9,32.9l-17.4-16.7c-1.5-1.4-3.8-1.4-5.2,0.1s-1.4,3.8,0.1,5.2l20,19.3c0.7,0.7,1.7,1,2.6,1
	s1.9-0.4,2.6-1.1l34.4-35.6c1.4-1.5,1.4-3.8-0.1-5.2C475.2,369,472.9,369.1,471.5,370.5L471.5,370.5z"/>
</svg>
