<?xml version="1.0" encoding="utf-8"?>
<!-- Generator: Adobe Illustrator 23.0.3, SVG Export Plug-In . SVG Version: 6.00 Build 0)  -->
<svg version="1.1" xmlns="http://www.w3.org/2000/svg" xmlns:xlink="http://www.w3.org/1999/xlink" x="0px" y="0px"
	 viewBox="0 0 841.9 595.3" style="enable-background:new 0 0 841.9 595.3;" xml:space="preserve">
<style type="text/css">
	.st0{fill:#FAB41E;}
	.st1{fill:#E40520;}
	.st2{fill:#FFFFFF;}
	.st3{fill:none;stroke:#FFFFFF;stroke-width:0.215;}
	.st4{fill-rule:evenodd;clip-rule:evenodd;fill:#4DB45E;}
	.st5{fill-rule:evenodd;clip-rule:evenodd;fill:url(#path24_1_);}
	.st6{fill:url(#SVGID_1_);}
	.st7{fill:#005CA9;}
	.st8{fill:#F7A823;}
</style>
<g id="Layer_1">
</g>
<g id="Слой_2">
</g>
<g id="Слой_3">
	<g>
		
			<linearGradient id="SVGID_1_" gradientUnits="userSpaceOnUse" x1="420.945" y1="201.6183" x2="420.945" y2="390.1568" gradientTransform="matrix(1 0 0 -1 0 593.5276)">
			<stop  offset="0" style="stop-color:#E71A4A"/>
			<stop  offset="0.3775" style="stop-color:#F23D44"/>
			<stop  offset="0.7776" style="stop-color:#FB5D3F"/>
			<stop  offset="1" style="stop-color:#FF693D"/>
		</linearGradient>
		<path class="st6" d="M196.8,385.3c-4.8-9.2-9.7-18.3-14.5-27.5c-7.7-14.6-15.4-29.2-23.1-43.8c-1.8-3.4-3.5-6.7-5.3-10.1
			c16.2-4.9,31.7-13.2,43.5-25.4c12-12.4,20.2-29.5,16.2-47c-1.8-7.8-6.1-15-12.5-19.8c-6.8-5-15.2-7-23.5-6.7
			c-7.9,0.3-16.1,2.3-22.5,7.2c-3,2.3-6.1,5.3-7.5,9c-0.6,1.5-0.6,2.3,0.3,3.5c1.1,1.3,1.9,2.8,2.7,4.3c4.2,8.1,6.4,17.9,5.3,27
			c-1.1,9.3-6.3,16.7-14.2,21.5c-5.8-14.9-11.6-29.7-17.5-44.6c-2.6-6.6-5-13.3-7.8-19.8c-0.7-1.7-1.6-2.1-3.3-2.1c-3,0-6.1,0-9.1,0
			c-10.3,0-20.7,0-31,0c-6.7,0-13.6-0.4-20.3,0c-2.3,0.2-1.8,1.6-1.1,3c1.2,2.3,2.3,4.6,3.5,6.9c4.2,8.3,8.3,16.6,12.5,24.8
			c4.7,9.4,9.5,18.9,14.2,28.3c1.8,3.6,3.6,7.1,5.4,10.7c1,2,2.4,4.1,3.1,6.2c0.1,0.3,0.3,0.6,0.4,0.9
			c-16.1,4.7-31.4,12.8-43.7,24.3c-12.3,11.5-21.9,27.6-19.4,45c2.4,16.4,15.5,29.2,32,30.6c8.2,0.7,16.5-1.4,23.4-5.9
			c3.3-2.2,6.4-4.9,8.8-8c1.5-1.9,5.3-6.5,4-9.2c-0.7-1.5-2.2-3-3-4.6c-1-1.9-1.9-3.9-2.6-5.9c-1.6-4.8-2.4-9.8-2.1-14.9
			c0.6-9.5,6.1-17.3,13.6-22.7c7.7,18.8,15.4,37.7,23.1,56.5c1.1,2.7,2.1,5.5,3.3,8.1c1,2,3.7,1.4,5.7,1.4c11.7,0,23.3,0,35,0
			c6.5,0,13,0,19.6,0c1.9,0,3.9,0,5.8,0c0.5,0,1,0.1,1.4,0C196.3,386.4,197.8,385.8,196.8,385.3z M354.4,335.3
			c2.1-15.6,4.5-31.2,6.8-46.7c1.1-7.2,2.2-14.4,3.3-21.7c0.2-1.2,1.5-4.9-0.1-5.6c-0.3-0.1-1,0-1.3,0c-14.3,0-28.6,0-42.9,0
			c-1.5,0-3.6-0.4-5,0.1c-2,0.7-1.8,5.1-2,6.7c-0.5,3.9-1,7.7-1.5,11.6c-3.4-7.9-8.8-15-16.5-19.2c-7.9-4.3-17.3-4.8-26-3.3
			c-18.4,3.3-32.2,17.5-40.1,33.8c-8.4,17.4-11.1,37.9-7.7,56.9c3,17,11.9,35.9,30,40.7c21.3,5.6,40.4-9.6,51.2-26.5
			c0.5,8,3.5,15.9,9.7,21.2c6.4,5.4,15.2,7.4,23.4,6.6c8.8-0.9,17.7-5.1,24-11.2c1.8-1.8,6.8-6.6,3.8-9c-1.4-1.2-3.1-1.9-4.5-3.2
			c-1.3-1.3-2.3-2.8-3-4.5C352.3,353.8,353.4,343.7,354.4,335.3L354.4,335.3z M285.5,355.8c-12.2-0.2-14.8-14.5-14.8-24.1
			c0-11.1,2.2-23.7,8.4-33.2c2.9-4.3,6.9-8.1,12.2-8.9c5.5-0.9,10.3,1.7,13.2,6.4c5.7,9.4,4.6,22.8,2.4,33.1
			C304.8,339.9,298.8,355.6,285.5,355.8z M522.6,264.4c0-0.4-0.2-1-0.7-1c0.6,0-0.8-0.2-1-0.3c-1-0.2-2-0.4-2.9-0.6
			c-2.1-0.4-4.2-0.8-6.2-1.1c-4-0.7-7.9-1.3-11.9-1.8c-7.7-1-15.5-1.6-23.2-1.9c-15.7-0.5-31.4,0.5-46.9,2.9
			c-3.9,0.6-7.8,1.3-11.7,2.2c-1.5,0.3-3,0.2-3.4,1.8c-0.3,1.2-0.3,2.5-0.5,3.7c-0.9,7-2.1,14.1-3.3,21.1
			c-2.6,15.1-5.9,29.9-12.6,43.7c-2.9,6.1-6.5,12-10.8,17.2c-2.1,2.5-4.3,4.9-6.8,7.1c-2.2,1.9-5.5,3.6-7.1,6.1
			c-1.5,2.3-0.2,6.1,0.5,8.4c1.1,3.4,2.8,6.7,5.1,9.5c4.3,5.4,10.3,9,17.1,10c14,2.1,27.1-4.1,35-15.6c8-11.6,11.2-25.9,13.9-39.5
			c3.1-15.8,4.9-31.8,5.7-47.8c0.1-2.3-0.4-2.6,1.6-2.6c1.6,0,3.2,0,4.9,0c3.8,0,7.5,0,11.3,0c0.8,0,1.5,0,2.3,0
			c-3,24.4-6,48.9-9,73.3c-0.7,5.7-1.4,11.5-2.1,17.2c-0.3,2.2-0.5,4.4-0.8,6.6c-0.2,1.2-0.8,3,0.7,3.4c0.7,0.2,1.8,0,2.5,0
			c2.2,0,4.4,0,6.5,0c11.7,0,23.4,0,35,0c0.9,0,2.2,0.3,3.1,0c1-0.3,0.9-0.8,1.1-1.7c0.4-2.2,0.6-4.5,0.9-6.8
			c1.4-11.5,2.8-23.1,4.3-34.6C516.1,317,519.3,290.7,522.6,264.4z M587,291.6c0.2-1,0.5-1.9,0.7-2.9c0.1-0.4,0.2-1.4,0.4-1.7
			c0.5-0.7,1.6-0.5,2.6-0.7c5.2-0.7,10.3-1.5,15.4-2.6c9.4-2,18.6-5,27.2-9.3c16.9-8.6,32.8-25.5,27.3-45.9
			c-2.5-9.3-9.3-16.8-17.8-21.1c-9.4-4.7-20.2-4.9-30.3-3.2c-20.3,3.5-37.2,16.6-49.4,32.8c-13.2,17.5-21.7,38.7-26.1,60.1
			c-4.3,20.7-6.1,43.8,3.4,63.4c8.9,18.3,26.6,29.1,46.7,30.2c20.6,1.1,41.9-6.4,55.7-22c6.7-7.6,11.3-16.8,13.3-26.7
			c2-9.8,2.1-20.7-1.7-30.1c-8.1-20.2-32.3-26-52-23.8C597.2,288.8,592,289.9,587,291.6z M613.8,235.5c4.6,0,6.8,2.7,6,7.3
			c-0.8,4.5-3.4,8.3-6.4,11.5c-3.1,3.4-6.9,6.3-10.7,8.7c-1.7,1.1-3.5,2.2-5.3,3.1c-0.9,0.5-2.6,1.9-3.7,1.9
			c1.8-6.5,3.9-13.1,6.8-19.2C603,243.7,607.1,235.6,613.8,235.5z M612.8,336c-0.1,4.4-1.6,9-3.3,13c-1.8,4.3-4.4,8.6-8.1,11.4
			c-3.4,2.5-8,3.7-11.9,1.9c-3.7-1.7-5.8-5.9-6.8-9.6c-2.7-9.8-1.9-20.5-0.7-30.4c0.3-2.3,0.6-4.6,1-6.9c0.1-0.6,0.1-1.6,0.4-2
			c0.4-0.4,2-0.5,2.5-0.6c4.6-1.1,9.6-1.5,14.2-0.2C610.7,315.6,613.4,325.9,612.8,336z M803.7,335.3c2.1-15.6,4.5-31.2,6.8-46.7
			c1.1-7.2,2.2-14.4,3.3-21.7c0.2-1.2,1.5-4.9-0.1-5.6c-0.3-0.1-1,0-1.3,0c-14.3,0-28.6,0-42.9,0c-1.5,0-3.6-0.4-5,0.1
			c-2,0.7-1.8,5.1-2,6.7c-0.5,3.9-1,7.7-1.5,11.6c-3.4-7.9-8.8-15-16.5-19.2c-7.9-4.3-17.3-4.8-26-3.3
			c-18.4,3.3-32.2,17.5-40.1,33.8c-8.4,17.4-11.1,37.9-7.7,56.9c3,16.9,11.9,35.9,30,40.7c21.3,5.6,40.4-9.6,51.2-26.5
			c0.5,8,3.5,15.9,9.7,21.2c6.4,5.4,15.2,7.4,23.4,6.6c8.8-0.9,17.7-5.1,24-11.2c1.8-1.8,6.8-6.5,3.8-9c-1.4-1.2-3.1-1.9-4.5-3.2
			c-1.3-1.3-2.3-2.8-3-4.5C801.7,353.8,802.8,343.7,803.7,335.3L803.7,335.3z M734.8,355.8c-12.2-0.2-14.8-14.5-14.8-24.1
			c0-11.1,2.2-23.7,8.4-33.2c2.9-4.3,6.9-8.1,12.2-8.9c5.5-0.9,10.3,1.7,13.2,6.4c5.7,9.4,4.6,22.8,2.4,33.1
			C754.1,339.9,748.1,355.6,734.8,355.8z"/>
	</g>
</g>
<g id="Слой_4">
</g>
</svg>
