<?xml version="1.0" encoding="utf-8"?>
<!-- Generator: Adobe Illustrator 23.0.1, SVG Export Plug-In . SVG Version: 6.00 Build 0)  -->
<svg version="1.1" id="Слой_1" xmlns="http://www.w3.org/2000/svg" xmlns:xlink="http://www.w3.org/1999/xlink" x="0px" y="0px"
	 viewBox="0 0 595.3 595.3" style="enable-background:new 0 0 595.3 595.3;" xml:space="preserve">
<style type="text/css">
	.st0{fill:#2E2E2E;}
	.st1{fill:#E50469;}
	.st2{fill:#FFFFFF;}
</style>
<path class="st0" d="M246,370.6c3.1-3.1,3.1-8.2,0-11.3c-3.1-3.1-8.2-3.1-11.3,0s-3.1,8.2,0,11.3C237.8,373.7,242.9,373.7,246,370.6
	z"/>
<path class="st1" d="M208.2,180.8c0,48.5,39.5,88,88,88s88-39.5,88-88s-39.5-88-88-88C247.6,92.8,208.2,132.3,208.2,180.8
	L208.2,180.8z M368.1,180.8c0,39.7-32.3,72-72,72s-72-32.3-72-72s32.3-72,72-72S368.1,141.1,368.1,180.8z"/>
<path class="st0" d="M149.9,500c3.1,3.1,8.1,3.2,11.3,0.1l38.8-38.2c6.6-6.6,8.6-16.3,5.7-24.8l8.3-8c4.5-4.3,10.4-6.7,16.7-6.7H337
	c18.9,0,36.7-7.2,50.2-20.4c0.6-0.5-4.2,5.1,72.5-86.7c11.4-13.5,9.7-33.7-3.8-45.1c-13.4-11.3-33.5-9.7-44.9,3.6l-47.2,48.5
	c-6-7.3-15-11.9-24.9-11.9h-89.1c-12.7-5.3-26.2-8-40.1-8c-38.5,0-72.1,17.8-90.2,51.1c-7.6-1.4-15.6,0.9-21.4,6.6l-38,38.2
	c-3.1,3.1-3.1,8.2,0,11.3L149.9,500L149.9,500z M209.8,318.3c12.2,0,24.1,2.5,35.2,7.3c1,0.4,2.1,0.7,3.2,0.7H339
	c8.7,0,16,7.1,16,16c0,8.8-7.2,16-16,16h-65.3c-4.4,0-8,3.6-8,8s3.6,8,8,8H339c17.6,0,32-14.4,32-32c0-1.4-0.1-2.8-0.3-4.2
	c45.7-46.9,52.1-53.5,52.4-53.9c5.7-6.7,15.8-7.6,22.6-1.9c6.7,5.7,7.6,15.8,1.9,22.6l-71.8,85.8c-10.5,10.1-24.2,15.6-38.8,15.6
	H230.7c-10.4,0-20.3,4-27.8,11.2l-6.8,6.6l-62.7-62.7C148.1,334,175.6,318.3,209.8,318.3L209.8,318.3z M109.5,371.4
	c2.6-2.6,6.7-3.1,9.9-1.1c1.4,0.8-2.6-2.8,69.3,69c3.2,3.2,3,8.3,0,11.3l-33.1,32.6L77,404L109.5,371.4L109.5,371.4z"/>
<path class="st1" d="M278.8,202.5h-18.3c-2.2-0.3-3.4-2.5-3.1-5.6c0.2-2.4,1.6-3.9,3.8-3.9h17.6v-4.6h-4.5
	c-4.4,0.2-8.7,0.4-13.1,0.6c-1.7,0.1-3.1-0.9-3.5-2.6c-0.3-1.1-0.3-2.4-0.2-3.5c0.2-1.8,1.5-3.4,4.1-3.3c5.2,0.2,10.5,0.2,15.7,0.3
	h1.6v-46.1c0-0.8,0-1.5,0.1-2.3c0.2-2.3,1.9-3.9,4.2-3.9c7.9,0,15.8-0.2,23.6,0.1c6.9,0.2,13.6,1.6,19.3,5.9
	c6.4,4.7,9.8,11.1,10.7,18.8c0.8,7-0.1,13.7-3.4,19.9c-4.4,8.3-11.6,13.1-20.6,15c-4,0.8-8.1,1-12.1,1.2c-3.6,0.2-7.2,0-10.8,0h-1.4
	v4.7h17.4c1.9,0,3.3,0.9,3.7,2.8c0.2,1.3,0.2,2.6,0,3.9c-0.4,1.9-1.8,2.9-3.7,2.9h-17.4v1.5c0,7.3-0.1,14.6,0,21.8
	c0,2.6-1.5,3.9-3.5,4.2c-1.1,0.1-2.2,0.1-3.3-0.2c-1.8-0.4-2.7-1.7-2.7-3.6v-22.2C278.8,203.6,278.8,203.2,278.8,202.5L278.8,202.5z
	 M288.4,179.8c0.5,0,0.8,0.1,1.2,0.1c4.2,0,8.5,0.1,12.7,0c2.2,0,4.4-0.1,6.6-0.5c8.1-1.5,14-5.8,16.7-13.8c1.3-3.9,1.6-7.9,1-12
	c-1.1-7.5-4.9-13.2-12.2-15.8c-2.8-1-5.8-1.4-8.8-1.6c-5.4-0.3-10.9-0.1-16.3-0.1c-0.3,0-0.6,0.1-0.9,0.1L288.4,179.8L288.4,179.8z"
	/>
<path class="st0" d="M515.9,321.6c-13.9-13.9-32.3-21.5-51.9-21.5s-38.1,7.6-51.9,21.5c-13.9,13.9-21.5,32.3-21.5,51.9
	s7.6,38.1,21.5,51.9c13.9,13.9,32.3,21.5,51.9,21.5s38.1-7.6,51.9-21.5s21.5-32.3,21.5-51.9S529.8,335.5,515.9,321.6z"/>
<circle class="st2" cx="464" cy="373.5" r="67.3"/>
<path class="st1" d="M496.2,350.7l-37.4,38.6l-20.3-19.7c-1.7-1.7-4.4-1.6-6.1,0.1s-1.6,4.4,0.1,6.1l23.4,22.7
	c0.9,0.8,2,1.2,3.1,1.2s2.2-0.5,3-1.3l40.4-41.7c1.7-1.7,1.6-4.4-0.1-6.1C500.6,349,497.9,349,496.2,350.7L496.2,350.7z"/>
</svg>
