<svg version="1.1" id="Layer_1358_xA0_Изображение_1_" xmlns="http://www.w3.org/2000/svg" x="0" y="0" viewBox="0 0 75 75" xml:space="preserve"><style>.st0{fill:#e5046a}</style><path class="st0" d="M50.6 49.4c-.2 0-.4-.1-.6-.3-.3-.3-.3-.9 0-1.2 9.4-9 12.9-23.4 8-32.8C53.7 6.8 43.4-.5 33 2.2c-8 2.2-11 12-12 15.2-.2.5-.3.9-.4 1.1-.2.4-.7.6-1.1.4-.4-.2-.6-.7-.4-1.1.1-.2.2-.5.3-.9C20.5 13.4 23.7 3 32.7.7 44-2.3 55 5.6 59.6 14.4c5.2 10 1.5 25.3-8.4 34.7-.1.2-.4.3-.6.3zM25.3 75c-.9 0-1.9-.1-2.9-.5-2.6-.9-4.1-2.9-5.1-4.3-2.1-2.8-3.4-6.3-3.7-10.1 0-.5.3-.9.8-.9s.9.3.9.8c.3 3.5 1.5 6.7 3.4 9.3 1 1.3 2.2 3 4.4 3.7 2.3.8 4.5.2 5.7-.2 7.5-2.3 13.5-13.8 14.1-15.1.2-.4.7-.6 1.1-.4.4.2.6.7.4 1.1-1.1 2.2-7.1 13.5-15.1 15.9-1 .2-2.4.7-4 .7z"/><path class="st0" d="M50.4 25c.8-.5-.8-8.9-6.9-10.8-3.6-1.2-6.8.5-7.7 1.1-4.4 2.6-6.5 8.5-4.9 12.7.9 2.4 3 4.3 3.6 4 .9-.5.1-3.7.7-9.1.3-2.6 1.8-5.3 4.6-5.7 5.2-.7 9.7 8.4 10.6 7.8zM27.9 42.2c4.7 1.8 6.3 5 6.9 7.7.6 2.7-5.7 6.7-10.5 6.2-2.1-2.7-.5-13.1 3.6-13.9z"/><path class="st0" d="M71.2 72.8c-.4 0-.8-.2-1.2-.5L2.7 5.5c-.7-.7-.7-1.7 0-2.4.6-.6 1.7-.7 2.3 0L72.3 70c.7.6.7 1.7 0 2.3-.3.4-.7.5-1.1.5z"/></svg>