<svg xmlns="http://www.w3.org/2000/svg" width="16" height="16"><path data-name="Прямоугольник 1" fill="#fff" d="M0 0h16v16H0z"/><path data-name="Forma 1" d="M14.614 1.034a14.93 14.93 0 0 1-5.573 1.261A15.658 15.658 0 0 0 6.3 2.8c-.191.06-.382.125-.57.2a6.714 6.714 0 0 0-1.6.865 5.441 5.441 0 0 0-1.191 1.219 9.371 9.371 0 0 0-1.185 2.439 13.923 13.923 0 0 0-.747 4.935A9.5 9.5 0 0 0 1.2 14.5a.919.919 0 0 0 .187.44.215.215 0 0 0 .353-.211 7.057 7.057 0 0 1 .43-4.57 5.78 5.78 0 0 1 3.6-3.146A21.3 21.3 0 0 1 7.083 6.6a.072.072 0 0 1 .027 0 .09.09 0 0 1 .034.172C6.622 7 6.1 7.24 5.61 7.5c-2.417 1.26-3.473 4.2-2.567 4.2a.692.692 0 0 0 .257-.061 23.149 23.149 0 0 1 4.595-.87 7.621 7.621 0 0 0 1.56-.44 8 8 0 0 0 4.195-4.347 48.051 48.051 0 0 0 1.333-4.628.262.262 0 0 0-.238-.354.252.252 0 0 0-.131.034z" fill="#3bcc3b" fill-rule="evenodd"/></svg>