<?xml version="1.0" encoding="utf-8"?>
<!-- Generator: Adobe Illustrator 23.0.1, SVG Export Plug-In . SVG Version: 6.00 Build 0)  -->
<svg version="1.1" id="Слой_1" xmlns="http://www.w3.org/2000/svg" xmlns:xlink="http://www.w3.org/1999/xlink" x="0px" y="0px"
	 viewBox="0 0 107 66" style="enable-background:new 0 0 107 66;" xml:space="preserve">
<style type="text/css">
	.st0{fill:url(#SVGID_1_);}
	.st1{fill:url(#SVGID_2_);}
	.st2{fill:url(#SVGID_3_);}
	.st3{fill:url(#SVGID_4_);}
	.st4{fill:none;stroke:#000000;stroke-width:0.2;stroke-miterlimit:10;}
</style>
<linearGradient id="SVGID_1_" gradientUnits="userSpaceOnUse" x1="11.7898" y1="143.7852" x2="11.7898" y2="84.517" gradientTransform="matrix(1 0 0 -1 0 138.757)">
	<stop  offset="0" style="stop-color:#FF0024"/>
	<stop  offset="1" style="stop-color:#D6569B"/>
</linearGradient>
<path class="st0" d="M13.6,36.3V0H9.9v40L13.6,36.3z"/>
<linearGradient id="SVGID_2_" gradientUnits="userSpaceOnUse" x1="17.5578" y1="143.503" x2="17.5578" y2="87.5615" gradientTransform="matrix(1 0 0 -1 0 138.757)">
	<stop  offset="0" style="stop-color:#FF0024"/>
	<stop  offset="1" style="stop-color:#D6569B"/>
</linearGradient>
<path class="st1" d="M19.4,30.4V0h-3.8v34.1L19.4,30.4z"/>
<linearGradient id="SVGID_3_" gradientUnits="userSpaceOnUse" x1="26.3004" y1="143.1008" x2="26.3004" y2="91.9006" gradientTransform="matrix(1 0 0 -1 0 138.757)">
	<stop  offset="0" style="stop-color:#FF0024"/>
	<stop  offset="1" style="stop-color:#D6569B"/>
</linearGradient>
<path class="st2" d="M30.3,19.6V0h-7.9v27.5L30.3,19.6z"/>
<linearGradient id="SVGID_4_" gradientUnits="userSpaceOnUse" x1="3.0835" y1="144.1897" x2="3.0835" y2="80.0878" gradientTransform="matrix(1 0 0 -1 0 138.757)">
	<stop  offset="0" style="stop-color:#FF0024"/>
	<stop  offset="1" style="stop-color:#D6569B"/>
</linearGradient>
<path class="st3" d="M0,0v50l0.7-0.7l5.5-5.5V0H0z"/>
<path d="M11,65.7H7.8v-12H3.2v12H0v-15h11V65.7z M20.2,66c-2,0-3.8-0.8-5.2-2.2c-2.8-3.1-2.8-7.9,0-11.1c2.7-2.8,7.1-3,10-0.4
	l0.4,0.4c1.4,1.5,2.2,3.5,2.1,5.5c0.1,4.3-3.1,7.8-7,7.8C20.5,66,20.2,66,20.2,66z M20.2,53.5c-1.2,0-2.2,0.5-2.9,1.4
	c-0.8,0.9-1.2,2.1-1.2,3.3c0,1.2,0.4,2.4,1.2,3.3c0.7,0.9,1.7,1.5,2.9,1.5c1.2,0,2.2-0.6,3-1.5c0.7-0.9,1.2-2.1,1.2-3.3
	s-0.4-2.4-1.2-3.3C22.3,54,21.3,53.4,20.2,53.5z M36.3,53.7h-2.8v12h-3.1v-12h-2.8v-3h8.7C36.4,50.8,36.3,53.7,36.3,53.7z M43.9,66
	c-2,0-3.8-0.8-5.2-2.2c-1.4-1.5-2.2-3.5-2.1-5.6c-0.1-2,0.7-4.1,2.1-5.5c2.7-2.8,7.1-3,10-0.4l0.4,0.4c1.4,1.5,2.2,3.5,2.1,5.5
	c0.1,4.3-3.1,7.8-7.1,7.8C44.1,66,43.9,66,43.9,66z M43.9,53.5c-1.2,0-2.2,0.5-2.9,1.4c-0.8,0.9-1.2,2.1-1.2,3.3
	c0,1.2,0.4,2.4,1.2,3.3c0.7,0.9,1.7,1.5,2.9,1.5c1.2,0,2.2-0.6,3-1.5c0.7-0.9,1.2-2.1,1.2-3.3s-0.4-2.4-1.2-3.3
	C46.1,54,45,53.4,43.9,53.5z M63.9,65.7h-3.3l-3-11l-3.1,11h-3.2l4.6-15h3.6L63.9,65.7z M76.6,65.7h-3.8l-4.1-6.8v6.8h-3.1v-15h3.1
	v7l4.4-7h3.4l-4.9,7.5C71.6,58.2,76.6,65.7,76.6,65.7z"/>
<path d="M83.6,66c-4,0.1-7.3-3.4-7.3-7.7v-0.1c-0.1-2,0.7-4.1,2.1-5.5c1.3-1.5,3.2-2.2,5.2-2.2s3.8,0.8,5.2,2.2
	c1.4,1.5,2.2,3.5,2.1,5.5C90.8,62.4,87.6,65.9,83.6,66C83.7,66,83.6,66,83.6,66z M83.6,53.5c-1.2,0-2.2,0.5-2.9,1.4
	c-0.8,0.9-1.2,2.1-1.2,3.3c0,1.2,0.4,2.4,1.2,3.3c1.2,1.6,3.6,1.9,5.2,0.7c0.1-0.1,0.2-0.1,0.3-0.3l0.4-0.4c1.5-2,1.5-4.6,0-6.6
	C85.8,54,84.7,53.4,83.6,53.5z M102.6,61.1c0,3-1.7,4.6-5.1,4.6h-4.7v-15h4.6c1.1-0.1,2.2,0.2,3.1,0.9c0.9,0.7,1.5,1.8,1.4,3
	c0.1,1.2-0.6,2.4-1.6,3C101.8,58,102.8,59.5,102.6,61.1z M98.8,55.1c0-0.9-0.5-1.4-1.6-1.4h-1.3v3h1.2
	C98.2,56.7,98.7,56.1,98.8,55.1z M95.8,59.3v3.4h1.7c1.4,0,2-0.6,2-1.7c0-1.1-0.7-1.7-1.9-1.7C97.6,59.3,95.8,59.3,95.8,59.3z
	 M36.3,34.9l0.1,13.6h-1.7V33.6h2.9l4.1,12l4.1-12h2.8v14.9h-1.7L47,34.9l-4.7,13.6H41L36.3,34.9z M60.1,48.5l-1.5-4.4H53l-1.5,4.4
	h-2l5.4-14.9h1.8l5.4,14.9C62.1,48.5,60.1,48.5,60.1,48.5z M55.7,36l-2.2,6.2h4.4L55.7,36z M72.8,45h2.3c-1,2.5-3.5,4.1-6.2,3.8
	c-2,0-3.8-0.8-5-2.3c-1.4-1.5-2.1-3.5-2-5.6c0-2,0.7-3.9,2.1-5.4c1.2-1.5,3-2.2,5-2.2c1.3,0,2.5,0.3,3.6,1c1.2,0.7,2,1.7,2.5,3h-2.2
	c-0.9-1.3-2.4-2.1-4-2c-1.4,0-2.8,0.7-3.6,1.7c-0.9,1.1-1.5,2.5-1.5,3.9c0,1.5,0.5,3,1.5,4.1c0.9,1.1,2.2,1.8,3.6,1.8
	C70.4,46.9,71.9,46.2,72.8,45z M80.6,35.3v13.1h-1.8V35.3H76v-1.8h7.4v1.8C83.4,35.3,80.6,35.3,80.6,35.3z M91.9,46.6v1.9h-7.1V33.6
	h7.1v1.8h-5.3v4.8h5.3v1.7h-5.3v4.8L91.9,46.6z M96.1,42.4v6.1h-1.8V33.6H98c1.2-0.1,2.3,0.3,3.3,1c0.9,0.9,1.4,2,1.3,3.3
	c0.1,1.3-0.4,2.5-1.4,3.4c-0.9,0.8-2.2,1.2-3.4,1.1H96.1L96.1,42.4z M96.1,35.3v5.3h1.6c2.1,0,3.1-0.9,3.1-2.6s-1-2.7-3-2.7
	C97.7,35.3,96.1,35.3,96.1,35.3z"/>
<path class="st4" d="M107.1,34.4c-0.1,0.9-0.9,1.6-1.7,1.5c-0.9-0.1-1.6-0.9-1.5-1.7c0.1-0.9,0.8-1.5,1.6-1.5
	C106.4,32.7,107.2,33.5,107.1,34.4L107.1,34.4z"/>
<path d="M104.7,33.2h0.9c0.2,0,0.4,0.1,0.6,0.2c0.3,0.3,0.3,0.7-0.1,1c-0.1,0.1-0.2,0.1-0.4,0.2l0.7,1h-0.3l-0.6-0.9H105v0.9h-0.2
	L104.7,33.2L104.7,33.2z M105.6,34.4c0.3,0,0.5-0.1,0.5-0.4v-0.1c0-0.3-0.2-0.5-0.5-0.5H105v1C105,34.4,105.6,34.4,105.6,34.4z"/>
</svg>
