<?xml version="1.0" encoding="utf-8"?>
<!-- Generator: Adobe Illustrator 23.0.1, SVG Export Plug-In . SVG Version: 6.00 Build 0)  -->
<svg version="1.1" id="Слой_1" xmlns="http://www.w3.org/2000/svg" xmlns:xlink="http://www.w3.org/1999/xlink" x="0px" y="0px"
	 viewBox="0 0 107.2 33.4" style="enable-background:new 0 0 107.2 33.4;" xml:space="preserve">
<style type="text/css">
	.st0{fill:none;stroke:#000000;stroke-width:0.2;stroke-miterlimit:10;}
</style>
<path d="M11,33.1H7.8v-12H3.2v12H0v-15h11V33.1z M20.2,33.4c-2,0-3.8-0.8-5.2-2.2c-2.8-3.1-2.8-7.9,0-11.1c2.7-2.8,7.1-3,10-0.4
	l0.4,0.4c1.4,1.5,2.2,3.5,2.1,5.5c0.1,4.3-3.1,7.8-7,7.8H20.2z M20.2,20.9c-1.2,0-2.2,0.5-2.9,1.4c-0.8,0.9-1.2,2.1-1.2,3.3
	s0.4,2.4,1.2,3.3c0.7,0.9,1.7,1.5,2.9,1.5c1.2,0,2.2-0.6,3-1.5c0.7-0.9,1.2-2.1,1.2-3.3s-0.4-2.4-1.2-3.3
	C22.3,21.4,21.3,20.8,20.2,20.9z M36.3,21.1h-2.8v12h-3.1v-12h-2.8v-3h8.7C36.4,18.2,36.3,21.1,36.3,21.1z M43.9,33.4
	c-2,0-3.8-0.8-5.2-2.2c-1.4-1.5-2.2-3.5-2.1-5.6c-0.1-2,0.7-4.1,2.1-5.5c2.7-2.8,7.1-3,10-0.4l0.4,0.4c1.4,1.5,2.2,3.5,2.1,5.5
	c0.1,4.3-3.1,7.8-7.1,7.8C44.1,33.4,43.9,33.4,43.9,33.4z M43.9,20.9c-1.2,0-2.2,0.5-2.9,1.4c-0.8,0.9-1.2,2.1-1.2,3.3
	s0.4,2.4,1.2,3.3c0.7,0.9,1.7,1.5,2.9,1.5s2.2-0.6,3-1.5c0.7-0.9,1.2-2.1,1.2-3.3s-0.4-2.4-1.2-3.3C46.1,21.4,45,20.8,43.9,20.9z
	 M63.9,33.1h-3.3l-3-11l-3.1,11h-3.2l4.6-15h3.6L63.9,33.1z M76.6,33.1h-3.8l-4.1-6.8v6.8h-3.1v-15h3.1v7l4.4-7h3.4l-4.9,7.5
	C71.6,25.6,76.6,33.1,76.6,33.1z"/>
<path d="M83.6,33.4c-4,0.1-7.3-3.4-7.3-7.7v-0.1c-0.1-2,0.7-4.1,2.1-5.5c1.3-1.5,3.2-2.2,5.2-2.2s3.8,0.8,5.2,2.2
	c1.4,1.5,2.2,3.5,2.1,5.5C90.8,29.8,87.6,33.3,83.6,33.4C83.7,33.4,83.6,33.4,83.6,33.4z M83.6,20.9c-1.2,0-2.2,0.5-2.9,1.4
	c-0.8,0.9-1.2,2.1-1.2,3.3s0.4,2.4,1.2,3.3c1.2,1.6,3.6,1.9,5.2,0.7c0.1-0.1,0.2-0.1,0.3-0.3l0.4-0.4c1.5-2,1.5-4.6,0-6.6
	C85.8,21.4,84.7,20.8,83.6,20.9z M102.6,28.5c0,3-1.7,4.6-5.1,4.6h-4.7v-15h4.6c1.1-0.1,2.2,0.2,3.1,0.9s1.5,1.8,1.4,3
	c0.1,1.2-0.6,2.4-1.6,3C101.8,25.4,102.8,26.9,102.6,28.5z M98.8,22.5c0-0.9-0.5-1.4-1.6-1.4h-1.3v3h1.2
	C98.2,24.1,98.7,23.5,98.8,22.5z M95.8,26.7v3.4h1.7c1.4,0,2-0.6,2-1.7c0-1.1-0.7-1.7-1.9-1.7H95.8z M36.3,2.3l0.1,13.6h-1.7V1h2.9
	l4.1,12l4.1-12h2.8v14.9h-1.7L47,2.3l-4.7,13.6H41L36.3,2.3z M60.1,15.9l-1.5-4.4H53l-1.5,4.4h-2L54.9,1h1.8l5.4,14.9
	C62.1,15.9,60.1,15.9,60.1,15.9z M55.7,3.4l-2.2,6.2h4.4L55.7,3.4z M72.8,12.4h2.3c-1,2.5-3.5,4.1-6.2,3.8c-2,0-3.8-0.8-5-2.3
	c-1.4-1.5-2.1-3.5-2-5.6c0-2,0.7-3.9,2.1-5.4c1.2-1.5,3-2.2,5-2.2c1.3,0,2.5,0.3,3.6,1c1.2,0.7,2,1.7,2.5,3h-2.2
	c-0.9-1.3-2.4-2.1-4-2c-1.4,0-2.8,0.7-3.6,1.7c-0.9,1.1-1.5,2.5-1.5,3.9c0,1.5,0.5,3,1.5,4.1c0.9,1.1,2.2,1.8,3.6,1.8
	C70.4,14.3,71.9,13.6,72.8,12.4z M80.6,2.7v13.1h-1.8V2.7H76V0.9h7.4v1.8H80.6z M91.9,14v1.9h-7.1V1h7.1v1.8h-5.3v4.8h5.3v1.7h-5.3
	v4.8L91.9,14z M96.1,9.8v6.1h-1.8V1H98c1.2-0.1,2.3,0.3,3.3,1c0.9,0.9,1.4,2,1.3,3.3c0.1,1.3-0.4,2.5-1.4,3.4
	c-0.9,0.8-2.2,1.2-3.4,1.1L96.1,9.8L96.1,9.8z M96.1,2.7V8h1.6c2.1,0,3.1-0.9,3.1-2.6s-1-2.7-3-2.7C97.7,2.7,96.1,2.7,96.1,2.7z"/>
<path class="st0" d="M107.1,1.8c-0.1,0.9-0.9,1.6-1.7,1.5c-0.9-0.1-1.6-0.9-1.5-1.7c0.1-0.9,0.8-1.5,1.6-1.5
	C106.4,0.1,107.2,0.9,107.1,1.8L107.1,1.8z"/>
<path d="M104.7,0.6h0.9c0.2,0,0.4,0.1,0.6,0.2c0.3,0.3,0.3,0.7-0.1,1c-0.1,0.1-0.2,0.1-0.4,0.2l0.7,1h-0.3l-0.6-0.9H105V3h-0.2
	L104.7,0.6L104.7,0.6z M105.6,1.8c0.3,0,0.5-0.1,0.5-0.4V1.3c0-0.3-0.2-0.5-0.5-0.5H105v1H105.6z"/>
</svg>
