<?xml version="1.0" encoding="utf-8"?>
<!-- Generator: Adobe Illustrator 23.0.3, SVG Export Plug-In . SVG Version: 6.00 Build 0)  -->
<svg version="1.1" id="svg4987" xmlns:svg="http://www.w3.org/2000/svg"
	 xmlns="http://www.w3.org/2000/svg" xmlns:xlink="http://www.w3.org/1999/xlink" x="0px" y="0px" viewBox="0 0 841.9 595.3"
	 style="enable-background:new 0 0 841.9 595.3;" xml:space="preserve">
<style type="text/css">
	.st0{fill:#0066CB;}
	.st1{fill:none;stroke:#0066CB;stroke-width:0.3097;}
	.st2{fill:#CC0001;}
	.st3{fill:#231F20;}
	.st4{fill:#FFFFFF;}
</style>
<path id="path618" class="st0" d="M421,455.7c43.1-39,70.1-95.4,70.1-158.1c0-62.7-27-119-70.1-158c-37.7-34.3-88.1-55.2-143-55.2
	c-118,0-213.4,95.5-213.4,213.2c0,117.8,95.4,213.3,213.4,213.3C332.8,510.9,383.2,490,421,455.7"/>
<path id="path620" class="st0" d="M421,455.7c43.1-39,70.1-95.4,70.1-158.1c0-62.7-27-119-70.1-158"/>
<path id="path622" class="st1" d="M421,455.7c43.1-39,70.1-95.4,70.1-158.1c0-62.7-27-119-70.1-158"/>
<path id="path624" class="st2" d="M564.3,84.4c-55.2,0-105.6,20.9-143.3,55.2c-7.6,7-14.9,14.6-21.6,22.6h43.1
	c6,7.1,11.4,14.7,16.2,22.6h-75.5c-4.4,7.2-8.6,14.8-12.4,22.6H471c3.5,7.3,6.3,14.9,8.9,22.6H362c-2.5,7.3-4.8,14.9-6.3,22.6h130.6
	c3.2,14.6,4.8,29.7,4.8,45.1c0,23.7-3.8,46.5-11.1,67.7H362c2.5,7.7,5.4,15.3,8.9,22.6H471c-3.8,7.8-7.6,15.3-12.4,22.6h-75.5
	c4.8,7.9,10.5,15.4,16.2,22.6h43.1c-6.7,8-14,15.6-21.6,22.6c37.7,34.3,88.1,55.2,143.3,55.2c117.6,0,213.1-95.5,213.1-213.3
	C777.4,179.9,681.9,84.4,564.3,84.4"/>
<path id="path626" class="st3" d="M754.8,416.1h1c0.3,0,0.6,0,0.6-0.1c0.3-0.2,0.6-0.4,0.6-0.7c0-0.3-0.3-0.5-0.6-0.7
	c0-0.1-0.6-0.1-0.6-0.1h-1V416.1L754.8,416.1z M754.8,419.5h-1.3v-6.1h2.5c0.6,0,0.9,0,1.6,0.3c0.3,0.3,0.6,0.9,0.6,1.5
	c0,0.7-0.3,1.3-1,1.5l1,2.7h-1.6l-0.6-2.4h-1.3L754.8,419.5L754.8,419.5z M755.8,421.8c2.9,0,5.4-2.3,5.4-5.2s-2.5-5.2-5.4-5.2
	c-2.8,0-5.1,2.3-5.1,5.2S752.9,421.8,755.8,421.8z M748.8,416.5c0-3.8,3.2-6.9,7-6.9c3.8,0,7,3.1,7,6.9c0,3.8-3.2,6.9-7,6.9
	C752,423.4,748.8,420.3,748.8,416.5"/>
<path id="path628" class="st3" d="M244.6,357h-27l15.9-83.1L197.1,357h-22.2l-4.4-82.6L152.7,357h-24.4l20.6-108.1h42.2l0.6,66.9
	l29.2-66.9h44.7L244.6,357"/>
<path id="path630" class="st3" d="M541.1,355.9c-7.3,2-13,2.9-19,2.9c-13.6,0-20.9-6.8-20.9-19.3c0-2.5,0-5.1,0.6-7.9l1.6-8.6
	l1.3-6.9l12.4-67.1h26.3l-3.8,20.2h13.6l-3.8,21.4h-13.6l-7,36.7c-0.3,1.6-0.3,2.8-0.3,3.6c0,4.5,2.5,6.5,8.9,6.5
	c3.2,0,5.4-0.3,7.3-0.8L541.1,355.9"/>
<path id="path632" class="st3" d="M435.9,296.8c0,11.1,6,18.8,20.3,24.5c10.8,4.4,12.7,5.7,12.7,9.7c0,5.5-4.8,8-15.5,8
	c-7.9,0-15.5-1.1-24.1-3.5l-3.5,20.3l1,0.2l5.1,0.9c1.6,0.3,3.8,0.5,7,0.8c6.3,0.5,11.4,0.7,14.9,0.7c28.2,0,41.2-9.3,41.2-29.4
	c0-12-5.4-19.1-18.7-24.5c-11.4-4.5-12.7-5.4-12.7-9.5c0-4.8,4.4-7.2,13-7.2c5.4,0,12.7,0.5,19.3,1.3l3.8-20.4
	c-7-1-17.4-1.7-23.5-1.7C446,267.1,435.5,280.6,435.9,296.8"/>
<path id="path634" class="st3" d="M312.5,317.8c-2.8-0.3-4.1-0.4-6-0.4c-14.9,0-22.5,4.5-22.5,13.4c0,5.5,3.8,9,9.5,9
	C304.3,339.8,312.2,330.8,312.5,317.8L312.5,317.8z M330.6,357h-22.2l0.6-9.1c-7,7.2-15.9,10.7-27.9,10.7c-14.6,0-24.4-9.8-24.4-24
	c0-21.4,17.1-33.9,46.6-33.9c3.2,0,7,0.2,10.8,0.7c0.9-2.9,1.3-4.2,1.3-5.7c0-5.8-4.8-8-17.1-8c-7.6,0-16.2,1-22.2,2.5l-3.5,0.9
	l-2.5,0.6l3.8-19.7c13.3-3.4,21.9-4.7,31.7-4.7c22.8,0,34.9,8.9,34.9,25.8c0,4.3-0.3,7.6-2.2,17.4l-5.4,31.2l-0.9,5.6l-0.6,4.5
	l-0.6,3.1L330.6,357"/>
<path id="path636" class="st3" d="M404.8,302.7c0-1.8,0.3-3.3,0.3-4.5c0-7.1-4.8-11.4-12.7-11.4c-8.6,0-14.6,5.6-16.8,15.8
	L404.8,302.7L404.8,302.7z M417.8,355.1c-9.2,2.4-18.1,3.6-27.3,3.5c-29.8,0-45-13.5-45-39.4c0-30.2,19.7-52.4,46.3-52.4
	c21.9,0,35.8,12.4,35.8,32c0,6.5-1,12.8-3.5,21.7h-52.6c-0.3,1.3-0.3,2-0.3,2.8c0,10.2,7.9,15.4,23.5,15.4c9.5,0,18.1-1.7,27.6-5.5
	L417.8,355.1"/>
<path id="path638" class="st3" d="M674,306.6c0-9.2-3.8-17.9-14.6-17.9c-13.6,0-21.9,16-21.9,30.1c0,11.9,5.7,19.9,15.2,19.7
	c5.7,0,18.1-7.8,20.3-21.5C673.7,313.9,674,310.4,674,306.6z M700.9,317.1c-3.8,29.2-24.4,42.2-51.7,42.2
	c-29.8,0-41.9-18.2-41.9-40.5c0-31.2,20.3-52.3,52-52.3c27.6,0,42.2,17.4,42.2,39.7C701.6,311.6,701.6,312,700.9,317.1"/>
<path id="path640" class="st4" d="M709.8,343.5h0.9c0,0,0.3,0,0.6-0.1c0.3-0.1,0.3-0.4,0.3-0.7c0-0.2,0-0.5-0.3-0.6
	c0-0.1-0.6-0.1-0.9-0.1h-0.6V343.5L709.8,343.5z M709.8,346.9h-1.3v-6.1h2.5c0.3,0,1,0,1.6,0.4c0.3,0.3,0.6,0.9,0.6,1.5
	c0,0.6-0.3,1.3-0.9,1.6l0.9,2.6h-1.6l-1-2.4h-0.9V346.9L709.8,346.9z M710.8,349.1c2.9,0,5.1-2.3,5.1-5.2c0-2.9-2.2-5.2-5.1-5.2
	c-2.8,0-5.4,2.3-5.4,5.2C705.4,346.7,707.9,349.1,710.8,349.1z M703.8,343.8c0-3.8,3.2-6.8,7-6.8c3.8,0,7,3.1,7,6.8
	c0,3.8-3.2,6.9-7,6.9C707,350.7,703.8,347.7,703.8,343.8"/>
<path id="path642" class="st4" d="M251.3,350.7h-26.6l15.9-83.1l-36.5,83.1H180l-4.4-82.6l-15.9,82.6h-24.1l20.6-108.1h41.5l1.9,67
	l29.5-67h43.1L251.3,350.7"/>
<path id="path644" class="st4" d="M547.8,349.7c-7.3,2-13,2.9-19,2.9c-13.6,0-20.9-6.8-20.9-19.3c0-2.5,0.3-5.1,0.6-7.9l1.6-8.6
	l1.3-7l12.4-67.1H550l-3.8,20.2h13.6l-3.8,21.4h-13.6l-7,36.7c-0.3,1.6-0.3,2.8-0.3,3.6c0,4.6,2.9,6.5,9.2,6.5c2.9,0,5.1-0.3,7-0.8
	L547.8,349.7"/>
<path id="path646" class="st3" d="M616,288.1l-0.6-2.8l5.4-13.8c-1.3-0.1-1.9-0.2-1.9-0.3c-1.6-0.3-2.2-0.5-2.5-0.5
	c-0.6-0.2-1.6-0.2-2.5-0.2c-8.9,0-14.9,3.9-23.2,14.3l2.9-15.6h-27.6L549.7,357H576c3.5-20.1,5.1-31.6,7.3-41.1
	c3.5-15.8,15.2-23,23.8-21.4c0.9,0.2,1.6,0.2,2.8,0.7l1.6,0.6L616,288.1"/>
<path id="path648" class="st4" d="M625.2,263.5c-2.2-0.9-2.5-0.9-2.8-1c-1.3-0.3-2.2-0.5-2.2-0.5c-0.9-0.1-1.9-0.2-2.9-0.2
	c-8.6,0-14.9,3.9-23.1,14.3l2.5-13.3h-24.1l-16.2,87.9H583c9.5-53.7,13.6-63.2,26.3-63.2c1,0,1.9,0.1,3.2,0.2l3.2,0.6L625.2,263.5"
	/>
<path id="path650" class="st4" d="M442.5,290.6c0,11.1,6.3,18.8,20.6,24.5c10.8,4.4,12.4,5.7,12.4,9.7c0,5.5-4.8,7.9-15.2,7.9
	c-8.2,0-15.5-1.1-24.1-3.5l-3.8,20.3l1.3,0.2l4.8,0.9c1.6,0.3,4.1,0.6,7.3,0.8c6.3,0.5,11.1,0.7,14.6,0.7c28.5,0,41.5-9.3,41.5-29.3
	c0-12.1-5.4-19.1-19-24.5c-11.1-4.5-12.4-5.5-12.4-9.6c0-4.7,4.4-7.1,13-7.1c5.4,0,12.4,0.5,19.3,1.3l3.8-20.4
	c-7-1-17.4-1.7-23.8-1.7C453,260.9,442.5,274.4,442.5,290.6"/>
<path id="path652" class="st4" d="M318.2,311.6c-2.9-0.3-4.1-0.3-6-0.3c-14.9,0-22.5,4.5-22.5,13.4c0,5.5,3.5,9,9.5,9
	C310,333.6,317.6,324.6,318.2,311.6L318.2,311.6z M337.6,350.7h-22.2l0.6-9.1c-6.7,7.2-15.9,10.6-27.9,10.6
	c-14.3,0-24.1-9.8-24.1-24c0-21.4,17.1-33.9,46.6-33.9c2.9,0,6.7,0.3,10.8,0.7c0.6-2.9,0.9-4.1,0.9-5.7c0-5.8-4.8-8-17.1-8
	c-7.6,0-16.2,0.9-21.9,2.4l-3.8,1l-2.2,0.6l3.5-19.8c13.3-3.4,21.9-4.6,31.7-4.6c22.8,0,34.9,8.9,34.9,25.8c0,4.3-0.3,7.6-1.9,17.4
	l-5.7,31.2l-0.9,5.6l-0.6,4.5l-0.3,3L337.6,350.7"/>
<path id="path654" class="st4" d="M410.5,296.5c0-1.9,0-3.3,0-4.5c0-7.1-4.4-11.3-12.4-11.3c-8.6,0-14.6,5.6-17.1,15.8L410.5,296.5
	L410.5,296.5z M424.4,348.9c-8.9,2.4-17.8,3.6-27,3.6c-29.8,0-45.3-13.5-45.3-39.4c0-30.1,19.7-52.4,46.3-52.4
	c21.9,0,35.8,12.4,35.8,31.9c0,6.5-1,12.8-3.2,21.7h-52.6c-0.3,1.3-0.3,2-0.3,2.8c0,10.2,7.9,15.4,23.1,15.4
	c9.5,0,18.1-1.7,27.6-5.6L424.4,348.9"/>
<path id="path656" class="st4" d="M680.3,299.6c0-9.2-3.8-17.9-14.6-17.9c-13.6,0-21.9,16-21.9,30.1c0,12,5.7,20,15.2,19.8
	c5.7,0,18.1-7.8,20.3-21.5C680,306.9,680.3,303.4,680.3,299.6z M707.9,310.9c-4.1,29.2-24.4,42.2-51.7,42.2
	c-30.1,0-42.2-18.2-42.2-40.5c0-31.1,20.6-52.3,52.3-52.3c27.6,0,42.2,17.4,42.2,39.7C708.5,305.4,708.5,305.8,707.9,310.9"/>
</svg>
