<?xml version="1.0" encoding="utf-8"?>
<!-- Generator: Adobe Illustrator 23.0.3, SVG Export Plug-In . SVG Version: 6.00 Build 0)  -->
<svg version="1.1" xmlns="http://www.w3.org/2000/svg" xmlns:xlink="http://www.w3.org/1999/xlink" x="0px" y="0px"
	 viewBox="0 0 841.9 595.3" style="enable-background:new 0 0 841.9 595.3;" xml:space="preserve">
<style type="text/css">
	.st0{fill:#FAB41E;}
	.st1{fill:#E40520;}
	.st2{fill:#FFFFFF;}
	.st3{fill:none;stroke:#FFFFFF;stroke-width:0.215;}
	.st4{fill-rule:evenodd;clip-rule:evenodd;fill:#4DB45E;}
	.st5{fill-rule:evenodd;clip-rule:evenodd;fill:url(#path24_1_);}
	.st6{fill:url(#SVGID_1_);}
	.st7{fill:#005CA9;}
	.st8{fill:#F7A823;}
</style>
<g id="Layer_1">
	<g>
		<path class="st0" d="M563.9,512.1c5.5-0.1,11-0.3,16.4-0.7c5.4-0.4,10.8-0.9,16.1-1.8c5.5-0.9,11-2,16.5-3.2c5-1.1,9.9-2.4,14.8-4
			c5.7-1.9,11.2-3.9,16.8-6.1c4.5-1.8,9-3.8,13.4-6c2.7-1.4,5.4-2.6,8-4.1c2.7-1.5,5.4-3.1,8.1-4.7c4.3-2.5,8.5-5.3,12.5-8.1
			c4.6-3.3,9.1-6.6,13.4-10.2c4.3-3.6,8.5-7.4,12.5-11.3c3.6-3.4,7.1-6.9,10.3-10.6c4-4.7,7.9-9.3,11.7-14.2c3-3.8,5.8-7.9,8.4-12
			c3.1-4.9,6.2-9.8,9-14.9c2.6-4.7,4.8-9.5,7-14.4c2.1-4.7,4.2-9.5,5.9-14.4c2-5.6,3.7-11.2,5.4-17c1.3-4.7,2.5-9.4,3.4-14.2
			c1.1-6,2-12,2.8-18.1c0.6-4.8,1-9.6,1.1-14.4c0.1-3.2,0.2-6.3,0.2-9.5c0-2.9-0.1-5.9-0.2-8.8c-0.1-4.8-0.4-9.6-1-14.3
			c-0.4-3.1-0.7-6.2-1.2-9.3c-0.5-3-1.1-6-1.6-9c-0.9-4.7-2-9.5-3.3-14.1c-0.8-2.7-1.4-5.4-2.3-8c-1-3.1-2.1-6.2-3.2-9.3
			c-1.7-4.9-3.7-9.6-5.9-14.3c-2.2-4.9-4.5-9.8-7.1-14.5c-2.8-5.1-5.9-9.9-9-14.8c-2.6-4.1-5.4-8.2-8.5-12
			c-3.8-4.8-7.7-9.4-11.6-14.1c-3.2-3.8-6.8-7.3-10.4-10.7c-4.1-3.9-8.2-7.7-12.6-11.2c-4.3-3.6-8.8-6.9-13.3-10.1
			c-4-2.9-8.2-5.7-12.5-8.2c-2.7-1.6-5.4-3.2-8.1-4.7c-2.6-1.4-5.3-2.7-7.9-4c-4.3-2.2-8.8-4.2-13.3-6c-5.6-2.2-11.2-4.3-16.9-6.1
			c-4.8-1.6-9.8-2.8-14.7-4c-5.5-1.3-11-2.4-16.6-3.3c-5.3-0.8-10.7-1.4-16-1.8c-5.5-0.4-11-0.7-16.5-0.7c-5.4,0-10.8,0.3-16.2,0.7
			c-5.5,0.4-10.9,0.9-16.3,1.8c-5.5,0.8-10.9,1.9-16.2,3.2c-5,1.2-10,2.4-14.9,4c-5.6,1.8-11.1,3.9-16.6,6.1c-4.5,1.8-9,3.8-13.4,6
			c-2.6,1.3-5.3,2.6-7.9,4c-2.7,1.5-5.4,3.1-8.1,4.7c-4.3,2.5-8.4,5.2-12.4,8.1c-4.6,3.3-9.1,6.6-13.4,10.2
			c-4.3,3.6-8.5,7.4-12.5,11.3c-3.6,3.4-7.1,7-10.4,10.7c-4,4.7-7.9,9.4-11.7,14.2c-3.1,3.9-5.9,8.1-8.5,12.3
			c-3,4.7-5.9,9.4-8.6,14.3c-2.7,5-5.2,10.2-7.5,15.4c-2,4.5-4,9.1-5.6,13.8c-1.9,5.8-3.8,11.6-5.4,17.5c-1.3,4.6-2.4,9.4-3.2,14.2
			c-0.5,2.8-1.1,5.5-1.5,8.3c-0.5,3.2-0.8,6.5-1.2,9.7c-0.6,4.8-0.9,9.7-1,14.5c-0.1,2.8-0.2,5.5-0.2,8.3c0,3.3,0.2,6.6,0.3,9.9
			c0.1,4.8,0.6,9.7,1.2,14.5c0.8,6,1.7,12,2.8,17.9c0.9,4.9,2.2,9.7,3.5,14.5c1.6,5.5,3.2,11,5.1,16.4c1.8,5.1,4,10,6.2,15
			c2.1,4.7,4.3,9.3,6.8,13.8c2.9,5.2,6,10.3,9.2,15.4c2.6,4.1,5.5,8.2,8.5,12c3.7,4.7,7.5,9.4,11.5,13.9c3.4,3.9,7.2,7.6,10.9,11.2
			c3.8,3.6,7.6,7.2,11.6,10.4c4.7,3.8,9.5,7.4,14.4,10.9c4,2.8,8.1,5.5,12.3,7.9c2.4,1.4,4.8,2.9,7.3,4.2c2.8,1.5,5.7,2.9,8.6,4.4
			c4.5,2.3,9.3,4.3,14,6.2c5.1,2,10.2,3.9,15.4,5.5c5.4,1.7,10.8,3,16.3,4.3c4.9,1.1,9.9,2.2,14.9,2.9c5.9,0.8,11.8,1.4,17.8,1.9
			C554.3,511.9,559.1,512,563.9,512.1z"/>
		<path class="st1" d="M278.3,512.1c5.5-0.1,10.9-0.3,16.4-0.7c5.4-0.4,10.7-0.9,16.1-1.8c5.5-0.8,11-2,16.4-3.2
			c5-1.1,9.9-2.4,14.8-4c5.6-1.9,11.2-3.9,16.7-6.1c4.5-1.8,9-3.8,13.4-6c2.6-1.3,5.3-2.6,7.9-4c2.7-1.5,5.4-3.2,8.1-4.7
			c4.3-2.5,8.4-5.3,12.5-8.2c4.5-3.2,9-6.6,13.4-10.1c4.3-3.6,8.5-7.4,12.5-11.3c3.6-3.4,7.1-7,10.3-10.7c4-4.7,7.9-9.4,11.7-14.2
			c3.1-3.9,5.8-8.1,8.5-12.3c3-4.8,6-9.6,8.7-14.5c2.7-4.9,5-9.9,7.3-15c2-4.6,4.1-9.2,5.7-14c1.9-5.7,3.7-11.4,5.4-17.3
			c1.3-4.6,2.5-9.3,3.3-14c1.1-6.1,2-12.1,2.8-18.2c0.6-4.7,0.9-9.6,1-14.3c0.1-3.1,0.2-6.1,0.2-9.2c0-3.1-0.2-6.1-0.2-9.2
			c-0.1-4.8-0.5-9.6-1.1-14.3c-0.4-3-0.7-5.9-1.1-8.9c-0.5-3.1-1.1-6.2-1.7-9.3c-0.9-4.8-2-9.5-3.4-14.2c-1.6-5.7-3.4-11.4-5.3-17
			c-1.7-4.9-3.8-9.7-5.9-14.4c-2.2-4.8-4.5-9.6-7-14.2c-2.9-5.2-6-10.2-9.1-15.2c-2.6-4.1-5.4-8.2-8.5-12.1
			c-3.8-4.8-7.6-9.4-11.6-14c-3.4-3.9-7.1-7.5-10.8-11.1c-3.8-3.6-7.7-7.2-11.8-10.6c-4.6-3.8-9.4-7.3-14.2-10.7
			c-4-2.9-8.1-5.5-12.4-8c-2.4-1.4-4.8-2.9-7.3-4.2c-2.8-1.5-5.7-2.9-8.5-4.4c-4.5-2.3-9.2-4.3-14-6.2c-5.1-2-10.3-4-15.6-5.6
			c-5.3-1.7-10.7-3-16.1-4.3c-5-1.1-10-2.2-15.1-2.9c-5.8-0.8-11.6-1.4-17.5-1.9c-5-0.4-10.1-0.6-15.1-0.6
			c-5.9,0.1-11.8,0.4-17.6,0.8c-5,0.4-10,0.9-15,1.7c-5.9,1-11.7,2.1-17.5,3.5c-4.7,1.1-9.5,2.3-14.1,3.9c-5.8,2-11.5,4-17.2,6.3
			c-4.5,1.8-8.9,3.9-13.2,6c-5.3,2.7-10.6,5.5-15.7,8.5c-4.5,2.6-8.8,5.6-13,8.6c-4.3,3-8.5,6.2-12.5,9.5
			c-4.6,3.8-8.9,7.8-13.2,11.9c-3.5,3.3-7,6.8-10.1,10.5c-4,4.6-7.8,9.2-11.5,14c-3.2,4-6,8.4-8.8,12.7c-2.9,4.5-5.7,9-8.2,13.7
			c-2.8,5.2-5.3,10.6-7.8,16c-2,4.4-3.9,9-5.5,13.6c-1,2.8-2,5.6-2.9,8.5c-0.9,3-1.7,6-2.6,9c-1.3,4.7-2.3,9.5-3.2,14.3
			c-1.1,5.9-1.9,11.8-2.7,17.8c-0.6,4.9-0.8,9.9-0.9,14.8c-0.2,6-0.1,11.9,0.1,17.9c0.1,5,0.6,10,1.3,14.9
			c0.8,5.8,1.6,11.6,2.7,17.4c1,5,2.3,10,3.7,14.9c1.5,5.3,3.1,10.5,5,15.7c1.9,5.3,4.2,10.5,6.5,15.6c2.1,4.5,4.2,9.1,6.7,13.4
			c3.1,5.3,6.2,10.5,9.5,15.6c2.6,4.1,5.6,8.1,8.6,12c3.6,4.6,7.3,9.2,11.2,13.6c3.6,4,7.4,7.7,11.2,11.4c3.7,3.5,7.4,7,11.4,10.2
			c4.8,3.8,9.6,7.4,14.6,11c4,2.8,8.1,5.4,12.3,7.9c5.2,3,10.4,5.8,15.8,8.5c4.6,2.3,9.3,4.3,14.1,6.2c5.1,2,10.2,3.9,15.4,5.5
			c5.4,1.7,10.8,3,16.3,4.3c4.9,1.1,9.9,2.2,15,2.9c5.9,0.8,11.8,1.4,17.8,1.9C268.7,511.9,273.5,512,278.3,512.1z"/>
		<path class="st0" d="M396.1,167.1c4.3,0,8.6,0,12.9,0c10.1,0,20.3,0,30.4,0c11.7,0,23.3,0,35,0c9.1,0,18.2,0,27.3,0
			c2.3,0,4.5,0,6.8,0c0.1,0,0.9,0.1,1,0c0.2-0.2,0-1.3,0-1.6c0-1.3,0-2.7,0-4c0-1.4,0-2.8,0-4.1c0-0.3,0.2-1.7,0-1.8
			c-0.1-0.1-0.9,0-1,0c-2.4,0-4.8,0-7.2,0c-9.6,0-19.1,0-28.7,0c-11.6,0-23.3,0-34.9,0c-8.8,0-17.6,0-26.5,0c-1.2,0-2.3,0-3.5,0
			c-0.5,0-1.2-0.1-1.7,0c-0.6,0.2-1.1,1.1-1.5,1.5c-1.8,2.1-3.6,4.2-5.4,6.4C398.2,164.6,397.2,165.8,396.1,167.1z"/>
		<path class="st0" d="M379.1,192.8c1.3,0,2.6,0,4,0c3.6,0,7.2,0,10.8,0c5.2,0,10.4,0,15.7,0c6.3,0,12.6,0,18.9,0
			c6.8,0,13.6,0,20.4,0c6.6,0,13.2,0,19.9,0c5.9,0,11.8,0,17.7,0c4.6,0,9.2,0,13.8,0c2.7,0,5.4,0,8,0c0.2,0,1.2,0.1,1.3,0
			c0.1-0.1,0-1.1,0-1.3c0-1.5,0-3,0-4.5c0-1.5,0-3.1,0-4.6c0-0.2,0.1-1.1,0-1.2c-0.2-0.2-1.2,0-1.4,0c-2.8,0-5.6,0-8.4,0
			c-4.8,0-9.5,0-14.3,0c-6.1,0-12.2,0-18.3,0c-6.7,0-13.4,0-20.1,0c-6.7,0-13.4,0-20.1,0c-6,0-12,0-18,0c-4.6,0-9.3,0-13.9,0
			c-2.6,0-5.3,0-7.9,0c-0.2,0-0.9-0.1-1.1,0c-0.4,0.3-0.9,1.5-1.1,1.9c-0.8,1.4-1.6,2.7-2.4,4.1C381.4,189.1,380.2,191,379.1,192.8z
			"/>
		<path class="st0" d="M366.5,218.5c1.4,0,2.9,0,4.3,0c3.9,0,7.8,0,11.7,0c5.7,0,11.4,0,17.1,0c6.9,0,13.8,0,20.7,0
			c7.4,0,14.8,0,22.2,0c7.3,0,14.5,0,21.8,0c6.5,0,12.9,0,19.4,0c5.1,0,10.1,0,15.2,0c3,0,6,0,9,0c0.3,0,1.3,0.2,1.6,0
			c0.2-0.1,0-0.9,0-1.2c0-1.6,0-3.3,0-4.9c0-1.6,0-3.1,0-4.7c0-0.2,0.1-0.7-0.1-0.8c-0.3-0.2-1.4,0-1.7,0c-3.1,0-6.3,0-9.4,0
			c-5.2,0-10.5,0-15.7,0c-6.6,0-13.3,0-19.9,0c-7.3,0-14.7,0-22,0c-7.3,0-14.6,0-21.9,0c-6.7,0-13.3,0-20,0c-5.3,0-10.5,0-15.8,0
			c-3.2,0-6.4,0-9.5,0c-0.4,0-1.4-0.2-1.8,0c-0.2,0.1-0.2,0.4-0.3,0.6c-0.6,1.3-1.2,2.7-1.7,4C368.5,213.9,367.5,216.2,366.5,218.5z
			"/>
		<path class="st0" d="M357.8,244.3c1.5,0,3.1,0,4.6,0c4.1,0,8.3,0,12.4,0c6.1,0,12.1,0,18.2,0c7.3,0,14.6,0,21.9,0
			c7.8,0,15.7,0,23.5,0c7.7,0,15.5,0,23.2,0c6.9,0,13.8,0,20.6,0c5.4,0,10.7,0,16.1,0c3.2,0,6.4,0,9.6,0c0.3,0,1.4,0.2,1.6,0
			c0.2-0.1,0.1-1,0.1-1.2c0-1.8,0-3.6,0-5.4c0-1.5,0.1-3.1,0-4.6c0-0.4,0.1-0.3-0.1-0.4c-0.4-0.2-1.6,0-2,0c-3.4,0-6.8,0-10.2,0
			c-5.6,0-11.2,0-16.7,0c-7.1,0-14.1,0-21.2,0c-7.8,0-15.5,0-23.3,0c-7.8,0-15.6,0-23.3,0c-7.1,0-14.2,0-21.2,0c-5.7,0-11.4,0-17,0
			c-3.5,0-7,0-10.5,0c-0.6,0-1.6-0.2-2.2,0c-0.2,0.1-0.1,0-0.3,0.1c-0.2,0.2-0.3,1-0.4,1.3c-0.2,0.8-0.5,1.5-0.7,2.3
			C359.4,239,358.6,241.7,357.8,244.3z"/>
		<path class="st0" d="M362.8,368.9c1.4,0,2.9,0,4.3,0c3.9,0,7.8,0,11.8,0c5.7,0,11.4,0,17.2,0c6.9,0,13.9,0,20.8,0
			c7.5,0,15,0,22.5,0c7.4,0,14.8,0,22.1,0c6.7,0,13.4,0,20.1,0c5.3,0,10.7,0,16,0c3.3,0,6.6,0,10,0c0.6,0,1.6,0.2,2.2,0
			c0.1,0,0.2,0,0.3,0c0.1-0.1,0-0.8,0-1c0-0.7,0-1.4,0-2.1c0-1.8,0-3.7,0-5.5c0-0.7,0-1.4,0-2.1c0-0.1,0.1-0.8,0-0.9
			c-0.1-0.1-0.9,0-1.1,0c-2.7,0-5.3,0-8,0c-4.8,0-9.6,0-14.4,0c-6.3,0-12.7,0-19,0c-7.2,0-14.5,0-21.7,0c-7.5,0-15,0-22.5,0
			c-7.2,0-14.5,0-21.7,0c-6.3,0-12.6,0-18.9,0c-4.8,0-9.6,0-14.4,0c-2.7,0-5.3,0-8,0c-0.3,0-0.7,0-1,0
			C360.4,361.1,361.6,365,362.8,368.9z"/>
		<path class="st0" d="M373.7,394.6c1.4,0,2.7,0,4.1,0c3.7,0,7.4,0,11.1,0c5.4,0,10.8,0,16.2,0c6.5,0,13,0,19.5,0c7,0,14,0,21,0
			c6.9,0,13.8,0,20.7,0c6.2,0,12.4,0,18.5,0c4.9,0,9.7,0,14.6,0c2.9,0,5.9,0,8.8,0c0.3,0,1.4,0.2,1.6,0c0.2-0.1,0.1-0.4,0.1-0.6
			c0-1.4,0-2.8,0-4.2c0-1.6,0-3.3,0-4.9c0-0.3,0.2-1.7,0-1.8c-0.1-0.1-1,0-1.2,0c-2.6,0-5.2,0-7.8,0c-4.6,0-9.1,0-13.7,0
			c-5.9,0-11.9,0-17.8,0c-6.8,0-13.5,0-20.3,0c-7,0-14.1,0-21.1,0c-6.7,0-13.5,0-20.2,0c-5.9,0-11.8,0-17.6,0c-4.5,0-8.9,0-13.4,0
			c-2.5,0-5,0-7.4,0c-0.3,0-0.6,0-1,0C370.1,386.9,371.9,390.8,373.7,394.6z"/>
		<path class="st0" d="M388.9,420.4c4.6,0,9.2,0,13.8,0c10.8,0,21.7,0,32.5,0c12.5,0,25,0,37.5,0c9.7,0,19.4,0,29.1,0
			c2.4,0,4.7,0,7.1,0c0.1,0,0.9,0.1,1,0c0.2-0.2,0-1.9,0-2.2c0-1.5,0-3,0-4.5c0-1.3,0-2.6,0-3.9c0-0.2,0.1-0.9,0-1
			c-0.2-0.1-1,0-1.2,0c-2.4,0-4.9,0-7.3,0c-9.6,0-19.1,0-28.7,0c-12.5,0-24.9,0-37.4,0c-11.3,0-22.7,0-34,0c-6.2,0-12.4,0-18.7,0
			c-0.3,0-0.6,0-0.9,0C384.1,412.6,386.5,416.5,388.9,420.4z"/>
		<path class="st0" d="M410,446.1c4,0,8.1,0,12.1,0c9.3,0,18.6,0,27.9,0c10.6,0,21.2,0,31.7,0c7.8,0,15.5,0,23.3,0c1,0,2.1,0,3.1,0
			c0.4,0,1.2,0.2,1.6,0c0.4-0.2,0.2-1.3,0.2-1.8c0-2.5,0-5,0-7.5c0-0.5,0.2-2.2-0.1-2.4c-0.2-0.2-1.1,0-1.3,0c-2.2,0-4.4,0-6.6,0
			c-8.2,0-16.5,0-24.7,0c-10.7,0-21.3,0-32,0c-9.6,0-19.2,0-28.8,0c-5.3,0-10.5,0-15.8,0c-0.2,0-0.5,0-0.7,0
			C403.2,438.4,406.6,442.2,410,446.1z"/>
		<path class="st0" d="M352.6,270c1.6,0,3.2,0,4.8,0c4.3,0,8.6,0,12.8,0c6.3,0,12.5,0,18.8,0c7.6,0,15.1,0,22.7,0
			c8.1,0,16.2,0,24.3,0c8,0,15.9,0,23.9,0c7.1,0,14.3,0,21.4,0c5.5,0,11.1,0,16.6,0c3.3,0,6.5,0,9.8,0c0.3,0,1.5,0.2,1.7,0
			c0.2-0.1,0-1.2,0-1.4c0-1.9,0-3.8,0-5.7c0-0.9,0-1.8,0-2.7c0-0.4,0.2-1.3,0-1.7c-0.1-0.3,0.1-0.1-0.2-0.2c-0.5-0.2-1.6,0-2.2,0
			c-3.6,0-7.2,0-10.7,0c-5.8,0-11.6,0-17.5,0c-7.3,0-14.6,0-21.8,0c-8,0-16.1,0-24.1,0c-8.1,0-16.2,0-24.3,0c-7.3,0-14.7,0-22,0
			c-5.9,0-11.8,0-17.7,0c-3.8,0-7.5,0-11.3,0c-0.8,0-1.7-0.1-2.5,0c-0.1,0-0.3,0-0.3,0c-0.1,0.1-0.1,0.6-0.1,0.8
			c-0.1,0.7-0.3,1.5-0.4,2.2C353.8,264.3,353.2,267.1,352.6,270z"/>
		<path class="st0" d="M448.3,343.2c2.7,0,5.4,0,8.1,0c6.1,0,12.2,0,18.4,0c6.6,0,13.2,0,19.8,0c4.2,0,8.4,0,12.6,0
			c0.2,0,0.8,0.1,1,0c0.2-0.1,0.1-0.7,0.1-1c0-3,0-6,0-9.1c0-0.3,0.1-1.4,0-1.5c-0.1-0.1-0.7,0-0.8,0c-1.6,0-3.1,0-4.7,0
			c-5.8,0-11.6,0-17.3,0c-6.7,0-13.4,0-20.1,0c-4.5,0-8.9,0-13.4,0c-0.3,0-0.9-0.1-1.2,0c-0.3,0.1-0.2,0.2-0.3,0.6
			c-0.5,2.9-1.1,5.8-1.6,8.7C448.5,341.6,448.4,342.4,448.3,343.2z"/>
		<path class="st0" d="M453,317.5c8.3,0,16.5,0,24.8,0c9.9,0,19.7,0,29.6,0c0.1,0,0.6,0.1,0.7,0c0.2-0.2,0-1.3,0-1.5
			c0-2.9,0-5.7,0-8.6c0-0.2,0.2-1.4,0-1.5c-0.1-0.1-0.7,0-0.8,0c-1.5,0-2.9,0-4.4,0c-11.6,0-23.3,0-34.9,0c-4,0-7.9,0-11.9,0
			c-0.2,0-0.7-0.1-0.9,0c-0.2,0.1-0.2,0.9-0.3,1.1c-0.5,2.8-1,5.6-1.6,8.5C453.3,316.1,453.1,316.8,453,317.5z"/>
		<path class="st0" d="M348.7,305.8c3.9,0,7.8,0,11.7,0c1,0,1.9,0,2.9,0c0.2,0,0.9-0.1,1,0c0.2,0.2,0,1.5,0,1.7c0,1.2,0,2.3,0,3.5
			c0,1.3,0,2.5,0,3.8c0,0.6,0.3,1.9,0,2.4c-0.1,0.3,0,0.2-0.5,0.2c-0.8,0-1.6,0-2.4,0c-2.5,0-5,0-7.6,0c-1,0-2,0-3,0
			c-0.2,0-1.2,0.1-1.4,0c-0.2-0.2-0.1-1.4-0.1-1.7c-0.1-1.3-0.2-2.6-0.2-4C348.9,309.8,348.8,307.8,348.7,305.8z"/>
		<path class="st2" d="M319.7,291.8c-2.6-0.2-5.1-0.7-7.7-1.1c-2.6-0.4-5.3-0.4-8-0.3c-2.7,0.2-5.5,0.2-8.1,1.2
			c-2.4,0.9-5.1,2.6-5.2,5.5c-0.2,2.8,2.1,5.1,4.3,6.5c2.2,1.4,4.8,2.1,7.3,2.9c2.7,0.9,5.5,1.7,8,3.2c1.1,0.7,2.3,1.4,3.2,2.3
			c1.2,1.1,2,2.1,2.9,3.4c1.4,2.1,2.1,4.9,2.2,7.3c0.2,2.8,0.2,5.5-0.2,8.3c-0.8,5.6-3,10.8-7.4,14.6c-4.2,3.6-9.5,5.5-14.8,6.4
			c-5.6,1-11.3,0.7-16.9,0.6c-5.4-0.1-10.6-0.5-15.8-1.8c-1.3-0.3-2.6-0.8-3.9-1.3c-0.5-0.2-0.4-0.1-0.4-0.5
			c0.1-0.6,0.2-1.1,0.3-1.7c0.8-3.8,1.5-7.5,2.3-11.3c0.2-0.9,0.3-1.7,0.5-2.6c4.7,1.1,9.4,2.3,14.3,2.8c2.4,0.3,4.9,0.4,7.4,0.5
			c2.6,0,5.2,0,7.6-1c2.3-0.9,3.6-3.1,4.2-5.3c0.3-1.1,0.6-2.5,0.2-3.6c-0.4-1.2-1-2.1-2-2.9c-2-1.4-4.3-2.5-6.6-3.3
			c-2.6-0.9-5.1-2-7.6-3.1c-4.4-2-8.6-5.3-10.4-9.9c-0.9-2.3-1.5-4.7-1.4-7.2c0-2.7,0.2-5.2,0.8-7.9c1-5,3.4-9.6,7.3-12.8
			c3.7-3.1,8.8-4.5,13.4-5.3c5.1-0.8,10.4-1,15.5-0.8c5,0.2,9.8,0.5,14.7,1.3c1.2,0.2,2.3,0.4,3.5,0.6
			C322.1,280.9,320.9,286.3,319.7,291.8z"/>
		<g>
			<g>
				<path class="st3" d="M319.7,291.8c-2.6-0.2-5.1-0.7-7.7-1.1c-2.6-0.4-5.3-0.4-8-0.3c-2.7,0.2-5.5,0.2-8.1,1.2
					c-2.4,0.9-5.1,2.6-5.2,5.5c-0.2,2.8,2.1,5.1,4.3,6.5c2.2,1.4,4.8,2.1,7.3,2.9c2.7,0.9,5.5,1.7,8,3.2c1.1,0.7,2.3,1.4,3.2,2.3
					c1.2,1.1,2,2.1,2.9,3.4c1.4,2.1,2.1,4.9,2.2,7.3c0.2,2.8,0.2,5.5-0.2,8.3c-0.8,5.6-3,10.8-7.4,14.6c-4.2,3.6-9.5,5.5-14.8,6.4
					c-5.6,1-11.3,0.7-16.9,0.6c-5.4-0.1-10.6-0.5-15.8-1.8c-1.3-0.3-2.6-0.8-3.9-1.3c-0.5-0.2-0.4-0.1-0.4-0.5
					c0.1-0.6,0.2-1.1,0.3-1.7c0.8-3.8,1.5-7.5,2.3-11.3c0.2-0.9,0.3-1.7,0.5-2.6c4,0.9,7.9,1.9,12,2.5c4.3,0.7,8.7,0.9,13,0.7
					c1.9-0.1,4.2-0.6,5.7-1.8c1.6-1.3,2.6-3.4,2.9-5.4c0.3-2.1-0.2-4-1.9-5.4c-1.7-1.4-4-2.3-6.1-3.2c-3.9-1.6-7.9-2.8-11.5-5.1
					c-3.7-2.4-6.6-5.7-7.9-10c-1.2-4-0.8-8.6,0-12.6c0.8-4.4,2.6-8.1,5.4-11.5c2.7-3.2,7.1-5.1,11.1-6.2c4-1.1,8.2-1.6,12.3-1.7
					c1.2,0,2.4,0,3.6-0.1c5.8,0,11.8,0,17.5,1.1c1.5,0.3,3.1,0.6,4.6,0.8C322.1,280.9,320.9,286.3,319.7,291.8"/>
			</g>
		</g>
		<path class="st2" d="M336.7,257.7c5.8,0,11.7,0,17.5,0c0.8,0,1.6,0,2.5,0c-0.9,5.1-1.7,10.2-2.6,15.2c-0.1,0.7-0.2,1.5-0.4,2.2
			c4,0,8,0,12,0c-0.5,3-0.9,5.9-1.4,8.9c-0.3,1.9-0.6,3.8-0.9,5.7c-0.1,0.4,0,1.1-0.2,1.5c-0.2,0.3,0.1,0.1-0.3,0.2
			c-0.5,0.1-1.3,0-1.8-0.1c-1,0-2-0.1-2.9-0.1c-2-0.1-4-0.1-6-0.2c-0.5,0-1.4-0.2-1.7,0.1c-0.3,0.5-0.3,1.6-0.4,2.2
			c-1.3,7.5-2.6,14.9-3.9,22.4c-0.6,3.7-1.3,7.3-1.9,11c-0.3,1.6-0.7,3.2-0.8,4.8c-0.1,1.6,0.4,2.8,1.7,3.8c1,0.8,2.5,1.1,3.8,1.3
			c2.8,0.5,5.7,0.3,8.4-0.6c0.6-0.2,1.3-0.3,1.8-0.6c-0.4,2.3-0.9,4.5-1.3,6.8c-0.3,1.5-0.6,3.1-0.9,4.6c-0.1,0.6-0.1,1.6-0.4,2
			c-0.5,0.7-1.9,1.2-2.7,1.5c-1,0.4-2,0.7-3.1,0.9c-2,0.4-4.1,0.8-6.2,0.9c-4.4,0.3-9,0-13.3-1c-2.2-0.5-4.4-1.3-6.1-2.7
			c-1.7-1.5-2.5-3.6-2.7-5.8c-0.3-2.8,0.2-5.6,0.7-8.3c0.7-3.9,1.4-7.8,2-11.7c1.1-6.1,2.2-12.3,3.2-18.4c1.2-6.7,2.4-13.5,3.5-20.2
			c1-5.7,2-11.3,3-17c0.5-3,1.1-6,1.6-9C336.7,258,336.7,257.8,336.7,257.7z"/>
		<g>
			<g>
				<path class="st3" d="M336.7,257.7c5.8,0,11.7,0,17.5,0c0.8,0,1.6,0,2.5,0c-0.9,5.1-1.7,10.2-2.6,15.2c-0.1,0.7-0.2,1.5-0.4,2.2
					c4,0,8,0,12,0c-0.5,3-0.9,5.9-1.4,8.9c-0.3,1.9-0.6,3.8-0.9,5.7c-0.1,0.4,0,1.1-0.2,1.5c-0.2,0.3,0.1,0.1-0.3,0.2
					c-0.5,0.1-1.3,0-1.8-0.1c-1,0-2-0.1-2.9-0.1c-2-0.1-4-0.1-6-0.2c-0.5,0-1.4-0.2-1.7,0.1c-0.3,0.5-0.3,1.6-0.4,2.2
					c-1.3,7.5-2.6,14.9-3.9,22.4c-0.6,3.7-1.3,7.3-1.9,11c-0.3,1.6-0.7,3.2-0.8,4.8c-0.1,1.6,0.4,2.8,1.7,3.8c1,0.8,2.5,1.1,3.8,1.3
					c2.8,0.5,5.7,0.3,8.4-0.6c0.6-0.2,1.3-0.3,1.8-0.6c-0.4,2.1-0.8,4.1-1.2,6.2c-0.3,1.5-0.6,3-0.8,4.4c-0.1,0.8-0.1,1.9-0.5,2.6
					c-0.3,0.6-1.4,1-2,1.3c-0.8,0.4-1.6,0.6-2.5,0.9c-1.9,0.6-4,0.8-6,1c-2.3,0.3-4.7,0.2-7,0.2c-6.2-0.5-15.3-1-16.5-8.7
					c-0.7-4.4,0.5-9.1,1.3-13.4c1.5-8.6,3-17.1,4.5-25.7c1.7-10,3.5-20,5.2-30c1-5.5,1.9-11.1,2.9-16.6
					C336.7,257.9,336.7,257.8,336.7,257.7"/>
			</g>
		</g>
		<path class="st2" d="M381.7,318.5c-0.7,3.8,0.5,7.2,2.7,10.3c2.1,2.9,5.2,5.3,8.7,6.3c1.7,0.5,3.5,0.6,5.2,0.8
			c1.8,0.2,3.6,0.4,5.4,0.4c3.6,0.1,7.1-0.3,10.7-1c4.1-0.9,7.8-2.8,11.3-4.9c-0.8,5.2-1.7,10.4-2.5,15.6c-0.1,0.5,0,1.6-0.3,2.1
			c-0.2,0.3-0.9,0.5-1.2,0.6c-0.5,0.3-1,0.5-1.5,0.7c-2.1,0.8-4.2,1.5-6.4,1.9c-4.6,0.8-9.2,0.8-13.9,0.8c-4.7,0-9.3-0.5-13.8-1.6
			c-4.4-1.1-8.6-2.8-12.4-5.4c-3.8-2.6-7-5.9-9.2-10.1c-2.1-4-3.4-8.6-3.7-13.1c-0.3-4.7-0.2-9.4,0.6-14.1c0.8-4.7,2-9.2,4-13.6
			c1.9-4.3,4.8-8,8.1-11.3c3.2-3.1,7.4-5.6,11.6-7.1c4.4-1.6,9.1-2.1,13.8-2.4c4.5-0.2,9.2,0.2,13.5,1.5c4.1,1.2,8.4,3.5,11.2,6.7
			c1.5,1.7,2.9,3.5,3.9,5.7c0.9,2.1,1.7,4.2,2.1,6.4c0.8,4.8,0.7,9.6,0.1,14.4c-0.3,2.1-0.9,4.2-1.1,6.4c-0.1,0.7-0.1,1.5-0.2,2.2
			c0,0.3,0.1,1.6-0.2,1.9c-0.1,0.1-0.4,0-0.6,0c-4.3,0-8.6,0-12.9,0c-6.9,0-13.7,0-20.6,0c-5.3,0-10.7,0-16,0c-0.8,0-1.6,0-2.5,0
			c0.9-3.8,1.8-7.6,2.7-11.4c0.1-0.6,0.3-2.5,0.7-2.7c0.2-0.1,0.9,0,1.1,0c0.7,0,1.3,0,2,0c8.9,0,17.8,0,26.7,0c0.4,0,1,0.1,1.3,0
			c0.5-0.1,0.3-0.3,0.3-0.9c0.1-1.7,0-3.4-0.3-5.1c-0.7-3.3-2.8-6-5.7-7.6c-2.9-1.6-6.5-1.9-9.6-0.9c-3.3,1-5.8,3.3-7.7,6.1
			c-1.7,2.4-2.4,5.3-3,8.1c-0.8,4.3-1.7,8.7-2.5,13C381.8,317.8,381.7,318.2,381.7,318.5z"/>
		<g>
			<g>
				<path class="st3" d="M381.7,318.5c-0.7,3.8,0.5,7.2,2.7,10.3c2.1,2.9,5.2,5.3,8.7,6.3c1.7,0.5,3.5,0.6,5.2,0.8
					c1.8,0.2,3.6,0.4,5.4,0.4c3.6,0.1,7.1-0.3,10.7-1c4.1-0.9,7.8-2.8,11.3-4.9c-0.4,2.7-0.9,5.3-1.3,8c-0.3,2-0.6,3.9-1,5.9
					c-0.1,0.8-0.2,1.5-0.4,2.3c-0.1,0.4-0.1,0.9-0.2,1.3c-0.3,0.6-1.8,1.2-2.5,1.4c-1.3,0.5-2.6,1-3.9,1.4c-2.6,0.8-5.3,1-8,1.2
					c-3,0.3-6.1,0.2-9.2,0.2c-7.8-0.2-15.9-1.3-22.9-5.1c-1.6-0.9-3.3-1.9-4.7-3.1c-1.8-1.4-3.2-2.9-4.6-4.6
					c-2.5-3-4.1-6.7-5.1-10.5c-2.1-7.3-1.7-15.4-0.3-22.8c1.4-7.6,4.4-15.4,9.9-21c2.7-2.8,5.9-5.4,9.4-7.2
					c3.6-1.8,7.5-2.8,11.4-3.5c7.6-1.3,15.8-1,23,2c3.8,1.6,7,4,9.7,7.2c2.3,2.8,3.8,6.7,4.5,10.3c0.8,4,0.7,8.1,0.4,12.1
					c-0.4,4-1.3,7.9-1.6,11.9c0,0.4,0.1,0.9-0.2,1.1c-0.2,0.1-0.7,0-1,0c-1.5,0-2.9,0-4.4,0c-5.1,0-10.3,0-15.4,0
					c-9.9,0-19.9,0-29.8,0c-0.6,0-1.2,0-1.8,0c0.9-3.8,1.8-7.6,2.7-11.4c0.1-0.6,0.3-2.5,0.7-2.7c0.2-0.1,0.9,0,1.1,0
					c0.7,0,1.3,0,2,0c8.9,0,17.8,0,26.7,0c0.4,0,1,0.1,1.3,0c0.5-0.1,0.3-0.3,0.3-0.9c0.1-1.7,0-3.4-0.3-5.1c-0.7-3.3-2.8-6-5.7-7.6
					c-2.9-1.6-6.5-1.9-9.6-0.9c-3.3,1-5.8,3.3-7.7,6.1c-1.7,2.4-2.4,5.3-3,8.1c-0.8,4.3-1.7,8.7-2.5,13
					C381.8,317.8,381.7,318.2,381.7,318.5"/>
			</g>
		</g>
		<path class="st2" d="M553.4,279.4c-3.7-2-7.7-3.6-11.9-4.4c-4.3-0.8-8.7-1-13-0.6c-4.4,0.4-8.5,1.7-12.1,4.2
			c-3.5,2.5-6.2,6-8.1,9.8c-3.9,7.7-6.4,16.6-5.6,25.3c0.4,4.2,1.8,8.5,4.5,11.8c2.7,3.4,6.7,5.7,10.8,6.7c4.3,1,8.6,1.6,13,1.2
			c4-0.4,8.4-1.3,11.7-3.8c0.8-0.6,1.6-1.3,2.4-2c-0.7,4.3-1.4,8.6-2.2,12.9c-0.3,2-0.4,4.1-1,6c-0.3,1.1-2.3,2.3-3.4,2.8
			c-3.5,1.7-7.3,2.3-11.2,2.7c-3.8,0.3-7.6,0.3-11.3,0.1c-1.9-0.1-3.9-0.2-5.8-0.5c-2.1-0.3-4.1-1-6.1-1.6c-3.6-1.2-7.1-3.2-10-5.5
			c-3.1-2.4-5.8-5.4-7.9-8.6c-2.2-3.5-3.6-7.3-4.8-11.2c-1-3.5-1.4-7.3-1.4-10.9c0-4,0.3-8,1-11.9c1.5-7.9,3.7-15.4,7.3-22.6
			c3.4-6.8,8.5-12.9,14.9-17c6.7-4.3,14.4-6.4,22.2-7.2c7.7-0.8,15.5-0.1,23,1.9c1.9,0.5,3.8,1,5.6,1.7c0.9,0.3,1.7,0.6,2.6,1
			c0.6,0.3,0.4,0.3,0.3,0.9c-0.9,5-1.8,10.1-2.7,15.1C553.9,276.7,553.6,278.1,553.4,279.4z"/>
		<g>
			<g>
				<path class="st3" d="M553.4,279.4c-5.1-2.7-10.5-4.5-16.3-5c-1.7-0.1-3.4-0.1-5.1-0.1c-3.5,0-7.1,0.3-10.4,1.6
					c-3.5,1.4-6.5,3.4-9.1,6.2c-5,5.5-7.3,12.9-9.1,20c-1.6,6.5-1.6,14.5,1.7,20.5c1.7,3,4.1,5.8,7.2,7.5c3.2,1.7,6.8,2.8,10.4,3.2
					c6.9,0.8,14.6,0.3,20.3-4.1c0.6-0.5,1.2-1.1,1.8-1.6c-0.7,4.3-1.4,8.6-2.2,12.9c-0.3,2-0.4,4.1-1,6c-0.3,1.1-2.3,2.3-3.4,2.8
					c-3.5,1.7-7.3,2.3-11.2,2.7c-3.8,0.3-7.6,0.3-11.3,0.1c-1.9-0.1-3.9-0.2-5.8-0.5c-2.1-0.3-4.1-1-6.1-1.6
					c-3.6-1.2-7.1-3.2-10-5.5c-3.1-2.4-5.8-5.4-7.9-8.6c-2.2-3.5-3.6-7.3-4.8-11.2c-1-3.5-1.4-7.3-1.4-10.9c0-4,0.3-8,1-11.9
					c1.5-7.9,3.7-15.4,7.3-22.6c3.4-6.8,8.5-12.9,14.9-17c6.7-4.3,14.4-6.4,22.2-7.2c7.7-0.8,15.5-0.1,23,1.9c1.9,0.5,3.8,1,5.6,1.7
					c0.9,0.3,1.7,0.6,2.6,1c0.6,0.3,0.4,0.3,0.3,0.9c-0.9,5-1.8,10.1-2.7,15.1C553.9,276.7,553.6,278.1,553.4,279.4"/>
			</g>
		</g>
		<path class="st2" d="M730.7,352.2c-5.8,0-11.7,0-17.5,0c-0.8,0-1.6,0-2.5,0c0.3-1.5,0.6-3.1,0.8-4.6c0.2-1.4,0.6-2.7,0.6-4.1
			c-3.3,4.1-7.4,7.4-12.6,8.7c-5.2,1.4-10.5,1.4-15.7,0.1c-5-1.3-9.2-4.7-12.3-8.8c-3.2-4.2-5.1-9.3-6.1-14.5
			c-1-5-1.1-10.2-0.3-15.2c0.9-5.2,2.2-10.5,4.5-15.3c2.3-4.8,5.2-9.3,9-13.1c3.7-3.7,8.1-6.7,13-8.4c4.8-1.7,10.3-2.5,15.4-1.5
			c5.1,1,9.9,3.5,13.2,7.7c0.8,1,1.5,2,2,3.1c1.2-6.9,2.5-13.7,3.7-20.6c0.3-1.8,0.6-3.5,0.9-5.3c0.1-0.6,0.2-1.1,0.3-1.7
			c0-0.1,0-0.6,0.1-0.7c0.3-0.3,2,0,2.4,0c2,0,4.1,0,6.1,0c3.7,0,7.4,0,11.1,0c-0.5,3.1-1.1,6.2-1.6,9.4c-1.3,7.5-2.6,15-3.9,22.5
			c-1.6,9.1-3.1,18.1-4.7,27.2c-1.4,7.8-2.7,15.7-4.1,23.5c-0.7,3.8-1.3,7.6-2,11.4C730.7,352.1,730.7,352.2,730.7,352.2z"/>
		<g>
			<g>
				<path class="st3" d="M730.7,352.2c-5.8,0-11.7,0-17.5,0c-0.8,0-1.6,0-2.5,0c0.3-1.5,0.6-3.1,0.8-4.6c0.2-1.4,0.6-2.7,0.6-4.1
					c-4.1,5.1-9.3,8.4-15.8,9.4c-1.9,0.3-3.7,0.4-5.6,0.4c-2.4-0.2-4.6-0.4-6.9-1c-2.1-0.6-4.2-1.6-6.1-2.8
					c-3.7-2.3-6.5-6.1-8.6-9.8c-2.1-3.7-3.3-8-4-12.3c-0.7-4.4-0.7-8.8-0.1-13.2c0.6-4.4,1.7-8.8,3.4-12.9c1.8-4.3,3.9-8.4,6.8-12.1
					c2.7-3.5,6-6.5,9.7-8.9c3.6-2.3,7.6-4,11.8-4.7c4.4-0.7,8.9-0.8,13.2,0.6c4.2,1.3,8,3.8,10.6,7.4c0.6,0.9,1.2,1.7,1.6,2.7
					c1.2-6.9,2.5-13.7,3.7-20.6c0.3-1.8,0.6-3.5,0.9-5.3c0.1-0.6,0.2-1.1,0.3-1.7c0-0.1,0-0.6,0.1-0.7c0.3-0.3,2,0,2.4,0
					c2,0,4.1,0,6.1,0c3.7,0,7.4,0,11.1,0c-0.5,3.1-1.1,6.2-1.6,9.4c-1.3,7.5-2.6,15-3.9,22.5c-1.6,9.1-3.1,18.1-4.7,27.2
					c-1.4,7.8-2.7,15.7-4.1,23.5c-0.7,3.8-1.3,7.6-2,11.4C730.7,352.1,730.7,352.2,730.7,352.2"/>
			</g>
		</g>
		<path class="st0" d="M698,334.8c3.8-0.3,7.3-1.4,10.2-3.8c2.9-2.4,4.9-5.5,6.4-8.9c2.8-6.6,3.9-14.8,1.5-21.6
			c-1.2-3.3-3.5-6.7-7.1-7.7c-3.6-0.9-7.8,0.2-10.8,2.3c-3,2.2-5.3,5.3-6.9,8.6c-1.5,3.1-2.7,6.7-3.2,10.2
			c-0.6,3.8-0.3,7.7,0.7,11.4c0.5,1.8,1.1,3.5,2.1,5.1c1,1.5,2.4,3.1,4.2,3.8C696.1,334.6,697.1,334.6,698,334.8z"/>
		<path class="st2" d="M255.9,336.2c-0.9,4.9-1.8,9.8-2.7,14.7c0,0.3-0.1,1.1-0.3,1.3c-0.3,0.2-1.7,0-2.1,0c-3.1,0-6.1,0-9.2,0
			c-2.3,0-4.5,0-6.8,0c0.5-2.9,0.7-5.9,1.4-8.7c-3.7,4.3-9.1,7-14.5,8.5c-2.8,0.8-5.6,1.2-8.5,1.4c-2.9,0.1-5.7-0.3-8.5-1.1
			c-5.8-1.7-10.4-5.4-12.7-11c-2.2-5.4-2-11.6-0.5-17.1c1.6-5.7,5.3-10.4,10-13.9c4.6-3.4,10.1-5.4,15.7-6c5.7-0.6,11.3-1.4,17-1.2
			c1.5,0.1,2.9,0,4.4,0.1c0.4,0,1.6,0.3,2,0.2c0.3-0.2,0.6-1.4,0.7-1.8c0.4-1.4,0.7-2.9,0.2-4.4c-0.4-1.4-1.3-2.6-2.3-3.6
			c-2.2-2-4.9-2.4-7.8-2.5c-2.8-0.1-5.7-0.2-8.5,0c-5.8,0.4-11.7,0.9-17.3,2.5c-1.3,0.4-2.5,0.9-3.7,1.5c1.3-4.6,2.7-9.2,4-13.7
			c0.3-1,0.6-2,0.9-3c0.2-0.8,0.4-0.7,1.3-1.1c1.8-0.7,3.7-1.3,5.6-1.7c8.2-1.7,16.6-1.5,24.9-1.2c7.8,0.2,16.8,3.4,21.6,9.8
			c2.5,3.3,3.8,7.3,3.4,11.4c-0.3,3.1-1.1,6.2-1.7,9.3c-2,10.3-3.9,20.5-5.9,30.8C256,335.8,255.9,336,255.9,336.2z"/>
		<g>
			<g>
				<path class="st3" d="M255.9,336.2c-0.9,4.9-1.8,9.8-2.7,14.7c0,0.3-0.1,1.1-0.3,1.3c-0.3,0.2-1.7,0-2.1,0c-3.1,0-6.1,0-9.2,0
					c-2.3,0-4.5,0-6.8,0c0.5-2.9,0.7-5.9,1.4-8.7c-4.4,5.1-10.8,7.8-17.2,9.1c-6.6,1.4-13.7,0.9-19.6-2.6c-6-3.6-8.7-9.9-9.1-16.7
					c-0.4-6.6,2-13.5,6.2-18.6c4.3-5.1,10.5-8.6,17-10c0.8-0.2,1.7-0.3,2.5-0.4c1.2,0,2.5-0.3,3.7-0.4c1.2-0.1,2.4-0.3,3.6-0.4
					c2.5-0.3,5.1-0.6,7.7-0.6c2,0,4,0.1,6,0.1c1,0,1.9,0.1,2.9,0.1c0.2,0,0.5,0.1,0.7,0.1c0.4-0.1,0.2,0.1,0.3-0.2
					c0.2-0.4,0.4-1.1,0.5-1.5c0.6-2,0.6-3.7-0.3-5.6c-0.8-1.6-2.2-3-3.8-3.8c-1.8-0.9-3.6-1.1-5.5-1.2c-1.9-0.1-3.9-0.2-5.8-0.1
					c-3.8,0.1-7.7,0.4-11.5,0.9c-4.2,0.6-8.8,1.1-12.5,3.2c1.3-4.6,2.7-9.2,4-13.7c0.3-1,0.6-2,0.9-3c0.2-0.8,0.4-0.7,1.3-1.1
					c1.8-0.7,3.7-1.3,5.6-1.7c8.2-1.7,16.6-1.5,24.9-1.2c7.8,0.2,16.8,3.4,21.6,9.8c2.5,3.3,3.8,7.3,3.4,11.4
					c-0.3,3.1-1.1,6.2-1.7,9.3c-2,10.3-3.9,20.5-5.9,30.8C256,335.8,255.9,336,255.9,336.2"/>
			</g>
		</g>
		<path class="st1" d="M238.5,317.5c0-1.8-5.4-1.3-6.5-1.2c-2.4,0.2-4.8,0.5-7.1,1.2c-2.3,0.6-4.6,1.7-6.5,3c-2,1.3-4,3-5,5.2
			c-0.9,2-1.1,4.9-0.3,6.9c1,2.6,3.3,3.7,6,3.8c4.8,0.1,9.9-1,13.6-4.2c3.8-3.2,4.5-8.2,5.4-12.8
			C238.3,318.7,238.4,318.1,238.5,317.5z"/>
		<path class="st2" d="M104.4,352.2c-5.7,0-11.4,0-17.1,0c-0.8,0-1.6,0-2.4,0c0.5-3,1-5.9,1.5-8.9c1.2-7.2,2.5-14.4,3.7-21.6
			c1.5-8.8,3.1-17.7,4.6-26.5c1.4-7.9,2.7-15.8,4.1-23.7c0.8-4.4,1.5-8.8,2.3-13.2c0-0.1,0-0.7,0.1-0.7c0.2-0.2,1.1,0,1.4,0
			c3.3,0,6.6,0,10,0c7.4,0,14.7,0,22.1,0c0.4,0,0.5-0.1,0.6,0.2c0.2,0.4,0.1,1.4,0.1,1.8c0.2,2.8,0.3,5.6,0.5,8.4
			c0.5,8.6,1,17.2,1.5,25.7c0.4,6.3,0.7,12.7,1.1,19c0,0.3,0,0.7,0.1,1c1.8-4.3,3.6-8.5,5.4-12.8c3.5-8.4,7-16.7,10.5-25.1
			c2.4-5.8,4.9-11.6,7.3-17.4c0.1-0.2,0.2-0.7,0.4-0.8c0.3-0.2,1.5,0,1.9,0c3.6,0,7.2,0,10.8,0c4.6,0,9.2,0,13.8,0
			c2.9,0,5.8-0.1,8.6,0c0.1,0,0.3,0,0.4,0c-0.8,4.4-1.6,8.9-2.3,13.3c-1.8,9.9-3.5,19.8-5.3,29.8c-1.9,10.6-3.7,21.1-5.6,31.7
			c-1.1,6.3-2.2,12.6-3.3,18.8c0,0.2,0,0.9-0.2,1c-0.1,0.1-0.8,0-1,0c-0.9,0-1.9,0-2.8,0c-4.9,0-9.8,0-14.7,0c-0.4,0-0.7,0-1.1,0
			c0.4-2.3,0.8-4.7,1.2-7c1-5.6,2-11.2,3-16.9c1.2-6.8,2.4-13.6,3.6-20.4c1-5.9,2.1-11.8,3.1-17.6c0.3-1.9,0.7-3.9,1-5.8
			c0.1-0.6,0.2-1.2,0.3-1.8c0-0.2,0.2-0.8,0.2-1c0,0,0-0.1,0-0.1c-0.8,0-0.7-0.1-1,0.4c-0.2,0.5-0.4,1-0.6,1.5c-0.8,2-1.7,4-2.5,6
			c-2.7,6.6-5.5,13.2-8.2,19.8c-3.1,7.6-6.3,15.1-9.4,22.7c-2.3,5.6-4.6,11.2-6.9,16.7c-0.3,0.7-0.6,1.5-0.9,2.2
			c-0.1,0.3-0.2,0.9-0.5,1.1c-0.2,0.2-0.4,0.1-0.8,0.1c-1.3,0-2.6,0-3.9,0c-4,0-8,0-12,0c-1.5,0-2.9,0-4.4,0c-0.2,0-0.8,0.1-1,0
			c-0.2-0.1-0.1-0.7-0.2-1c-0.3-5.8-0.7-11.7-1-17.5c-0.3-5.4-0.6-10.8-0.9-16.2c-0.3-5.2-0.6-10.4-0.9-15.5
			c-0.3-5.7-0.7-11.5-1-17.2c0-0.9,0-1.8-0.1-2.7c-0.1-0.4,0.1-0.3-0.2-0.4c-0.2-0.1-0.7,0-0.9,0c-0.4,2.3-0.8,4.7-1.2,7
			c-1,5.6-1.9,11.2-2.9,16.9c-1.2,6.8-2.3,13.6-3.5,20.4c-1,5.9-2,11.8-3,17.6c-0.5,2.9-1,5.7-1.5,8.6
			C104.4,352.2,104.4,352.2,104.4,352.2z"/>
		<g>
			<g>
				<path class="st3" d="M104.4,352.2c-5.7,0-11.4,0-17.1,0c-0.8,0-1.6,0-2.4,0c0.5-3,1-5.9,1.5-8.9c1.2-7.2,2.5-14.4,3.7-21.6
					c1.5-8.8,3.1-17.7,4.6-26.5c1.4-7.9,2.7-15.8,4.1-23.7c0.8-4.4,1.5-8.8,2.3-13.2c0-0.1,0-0.7,0.1-0.7c0.2-0.2,1.1,0,1.4,0
					c3.3,0,6.6,0,10,0c7.4,0,14.7,0,22.1,0c0.4,0,0.5-0.1,0.6,0.2c0.2,0.4,0.1,1.4,0.1,1.8c0.2,2.8,0.3,5.6,0.5,8.4
					c0.5,8.6,1,17.2,1.5,25.7c0.4,6.3,0.7,12.7,1.1,19c0,0.3,0,0.7,0.1,1c1.8-4.3,3.6-8.5,5.4-12.8c3.5-8.4,7-16.7,10.5-25.1
					c2.4-5.8,4.9-11.6,7.3-17.4c0.1-0.2,0.2-0.7,0.4-0.8c0.3-0.2,1.5,0,1.9,0c3.6,0,7.2,0,10.8,0c4.6,0,9.2,0,13.8,0
					c2.9,0,5.8-0.1,8.6,0c0.1,0,0.3,0,0.4,0c-0.8,4.4-1.6,8.9-2.3,13.3c-1.8,9.9-3.5,19.8-5.3,29.8c-1.9,10.6-3.7,21.1-5.6,31.7
					c-1.1,6.3-2.2,12.6-3.3,18.8c0,0.2,0,0.9-0.2,1c-0.1,0.1-0.8,0-1,0c-0.9,0-1.9,0-2.8,0c-4.9,0-9.8,0-14.7,0c-0.4,0-0.7,0-1.1,0
					c0.4-2.3,0.8-4.7,1.2-7c1-5.6,2-11.2,3-16.9c1.2-6.8,2.4-13.6,3.6-20.4c1-5.9,2.1-11.8,3.1-17.6c0.3-1.9,0.7-3.9,1-5.8
					c0.1-0.6,0.2-1.2,0.3-1.8c0-0.2,0.2-0.8,0.2-1c0,0,0-0.1,0-0.1c-0.8,0-0.8-0.1-1,0.6c-0.3,0.7-0.6,1.4-0.9,2.1
					c-1.1,2.6-2.2,5.3-3.3,7.9c-3.4,8.1-6.7,16.3-10.1,24.4c-3.4,8.2-6.8,16.5-10.3,24.7c-1.1,2.7-2.2,5.4-3.3,8.1
					c-0.3,0.7-0.6,1.5-0.9,2.2c-0.1,0.2-0.2,0.6-0.3,0.7c-0.2,0.1-0.8,0-1,0c-0.7,0-1.4,0-2.1,0c-2.1,0-4.2,0-6.4,0
					c-4,0-7.9,0-11.9,0c-0.2,0-0.5,0-0.7,0c-0.2-4.3-0.5-8.7-0.8-13c-0.3-5-0.6-9.9-0.9-14.9c-0.3-4.9-0.5-9.8-0.8-14.6
					c-0.3-4.9-0.6-9.8-0.8-14.7c-0.1-2-0.2-4-0.4-6c-0.1-1.3-0.2-2.6-0.2-3.8c0-0.4,0-0.7-0.1-1.1c0-0.5,0.2-1.8-0.1-2.3
					c-0.1-0.2-0.7-0.1-1.1-0.1c-0.4,2.3-0.8,4.7-1.2,7c-1,5.6-1.9,11.2-2.9,16.9c-1.2,6.8-2.3,13.6-3.5,20.4c-1,5.9-2,11.8-3,17.6
					c-0.5,2.9-1,5.7-1.5,8.6C104.4,352.2,104.4,352.2,104.4,352.2"/>
			</g>
		</g>
		<path class="st2" d="M613.2,336.2c-0.9,4.9-1.8,9.8-2.7,14.7c0,0.3-0.1,1.2-0.3,1.3c-0.3,0.2-1.7,0-2.1,0c-3,0-6.1,0-9.1,0
			c-2.3,0-4.6,0-6.9,0c0.1-1.4,0.1-2.8,0.2-4.2c0-1.4,0-2.8,0.2-4.2c-3.8,4.4-9,6.9-14.5,8.4c-2.8,0.8-5.7,1-8.6,1.1
			c-2.8,0.1-5.7-0.7-8.3-1.5c-5.6-1.7-9.8-5.8-11.8-11.2c-2-5.3-1.8-11.7-0.2-17.1c1.7-5.6,5.5-10.3,10.2-13.7
			c4.6-3.4,10.1-5.1,15.7-5.8c5.5-0.7,11.1-1.4,16.7-1.1c1.5,0.1,3,0,4.5,0.1c0.4,0,1.7,0.3,2,0.2c0.4-0.2,0.4-1.5,0.4-1.9
			c0.2-1.5,0.5-2.9,0.1-4.4c-0.4-1.4-1.3-2.5-2.3-3.6c-2.1-2.1-4.9-2.4-7.7-2.5c-2.8-0.1-5.6-0.1-8.4,0c-5.7,0.4-11.5,0.9-17,2.4
			c-1.3,0.4-2.5,0.9-3.7,1.5c1.3-4.6,2.7-9.2,4-13.7c0.3-1,0.6-2,0.9-3c0.2-0.8,0.4-0.7,1.3-1.1c1.8-0.7,3.7-1.3,5.6-1.7
			c8.2-1.7,16.6-1.5,24.9-1.2c4,0.1,8,1.1,11.6,2.6c3.7,1.6,7.4,3.9,9.9,7.1c2.5,3.3,3.9,7.3,3.5,11.4c-0.2,3.1-1,6.2-1.6,9.3
			c-2,10.3-4.1,20.5-6.1,30.8C613.3,335.8,613.3,336,613.2,336.2z"/>
		<path class="st2" d="M610.3,352.7c0.7-0.7,0.6-1.5,0.8-2.4c0.3-1.8,0.7-3.7,1-5.5c0.5-2.8,1-5.7,1.6-8.5c-1-0.2-0.9-0.2-1,0.8
			c-0.2,1.2-0.4,2.4-0.7,3.6c-0.6,3.1-1.1,6.1-1.7,9.2c-0.1,0.7-0.3,1.5-0.4,2.2c0.1-0.1,0.3-0.3,0.4-0.4
			C610.3,352.1,610.3,352.4,610.3,352.7c0.3,0,0.5-0.1,0.4-0.4C610.5,352.5,610.4,352.6,610.3,352.7z"/>
		<path class="st2" d="M591.8,352.2c0.6,0.7,0.9,0.5,1.8,0.5c1.4,0,2.8,0,4.2,0c3.4,0,6.8,0,10.2,0c0.3,0,2,0.2,2.2,0
			c0.1-0.1,0-1,0-1c-0.1-0.1-0.7,0-0.8,0c-3.1,0-6.2,0-9.3,0c-2.6,0-5.3,0-7.9,0c0.1,0.2,0.3,0.3,0.4,0.5c-0.7,0-0.8-0.2-0.9,0.5
			c0.2,0,0.3,0,0.5,0C592,352.6,591.9,352.4,591.8,352.2z"/>
		<path class="st2" d="M592.9,344.2c-0.2-0.2-0.4-0.4-0.6-0.6c-0.7,2.8-0.4,5.8-0.5,8.6c0.3,0,0.7,0.1,0.9-0.1
			c0.2-0.2,0.1-1.2,0.1-1.5c0-0.8,0.1-1.6,0.1-2.4c0-0.9,0.1-1.7,0.1-2.6c0-0.4,0-0.8,0-1.2c-0.1-0.5-0.2-0.6-0.7-0.9
			C592.4,343.8,592.7,344,592.9,344.2z"/>
		<path class="st2" d="M564.9,353.4c2,0.3,3.9,0.5,6,0.4c2-0.1,4.1-0.3,6.1-0.8c3.9-0.9,7.7-2.4,11-4.6c1.9-1.2,3.4-2.6,4.9-4.3
			c-0.6-0.5-0.6-0.7-1.1-0.1c-0.4,0.4-0.7,0.8-1.1,1.2c-0.7,0.7-1.5,1.3-2.3,1.9c-1.7,1.2-3.6,2.2-5.5,3.1
			c-3.7,1.7-7.8,2.5-11.9,2.8c-1.2,0.1-2.3,0-3.5-0.1c-0.5-0.1-1-0.1-1.5-0.2C565,352.5,565.1,352.5,564.9,353.4z"/>
		<path class="st2" d="M547.5,331.6c0.2,3.8,0.5,8.1,2.4,11.5c1.8,3.5,4.8,6.5,8.4,8.2c2.1,1,4.4,1.6,6.7,2.1
			c0.1-0.6,0.3-0.7-0.2-0.9c-0.6-0.3-1.4-0.3-2-0.5c-0.9-0.2-1.7-0.5-2.6-0.8c-1.9-0.7-3.8-1.8-5.3-3.1c-3-2.5-5-6.2-5.8-10
			c-0.4-2.2-0.7-4.3-0.6-6.5C548.2,331.6,547.8,331.6,547.5,331.6z"/>
		<path class="st2" d="M573.3,303.9c-5.4,0.9-10.4,2.7-14.8,6.1c-2.2,1.7-4.1,3.6-5.8,5.8c-0.7,1-1.5,2-2,3
			c-0.7,1.3-1.2,2.7-1.7,4.1c-1,2.7-1.3,5.8-1.5,8.7c0.2,0,0.9,0.1,1,0c0.1-0.1,0-0.7,0-0.8c0-0.7,0-1.3,0.1-2
			c0.1-1.5,0.5-3,0.9-4.4c0.7-2.6,1.9-5.1,3.5-7.3c3.2-4.6,7.5-7.7,12.5-10c1.4-0.6,2.8-1.1,4.2-1.5c0.7-0.2,1.4-0.4,2.2-0.5
			c0.3-0.1,1.2-0.1,1.4-0.3C573.4,304.7,573.3,304.2,573.3,303.9z"/>
		<path class="st2" d="M588.2,302.4c-2.1,0-4.3,0.3-6.4,0.5c-2,0.2-4.1,0.4-6.1,0.7c-0.5,0.1-1,0.1-1.5,0.2c-0.6,0.1-1,0-0.9,0.7
			c0.1,0.4-0.1,0.3,0.3,0.3c0.2,0,0.5-0.1,0.7-0.1c0.5-0.1,1-0.1,1.6-0.2c2-0.2,4-0.5,6-0.7c1.2-0.1,2.3-0.2,3.5-0.3
			c0.6,0,1.3-0.1,1.9-0.1c0.2,0,0.7,0.1,0.8,0C588.3,303.3,588.2,302.6,588.2,302.4z"/>
		<path class="st2" d="M597.9,303.2c0.1-0.1,0.3-0.2,0.4-0.4c-1.4,0.1-2.8-0.3-4.2-0.3c-1.4,0-2.8-0.1-4.3-0.1c-0.4,0-0.8,0-1.2,0
			c-0.6,0-0.6-0.1-0.6,0.5c0,0.5-0.1,0.4,0.4,0.5c0.4,0.1,0.9,0,1.3,0c1.5,0,2.9,0.1,4.4,0.1c0.8,0,1.5,0,2.3,0
			c0.8,0,1.6,0.3,2.2-0.2c-0.1,0.1-0.3,0.2-0.4,0.4c0.1,0,0.3,0.1,0.4,0.1C598.9,303.2,598.4,303.3,597.9,303.2z"/>
		<path class="st2" d="M598.6,298.6c-0.2,0.2-0.2,1.7-0.3,2.2c-0.1,0.8-0.2,1.6-0.5,2.4c0.6,0.1,0.9,0.3,1-0.4
			c0.1-0.4,0.2-0.9,0.2-1.4c0.1-1,0.3-1.9,0.4-2.9C599.2,298.6,598.9,298.6,598.6,298.6z"/>
		<path class="st2" d="M590,291.5c0.2,0.2,1.2,0.1,1.6,0.1c0.5,0.1,1.1,0.2,1.6,0.4c1,0.4,1.9,0.9,2.7,1.6c0.8,0.7,1.6,1.6,2,2.6
			c0.3,0.6,0.4,1,0.6,1.7c0.2,0.9,0.1,0.8,1,0.8c-0.2-1.1-0.3-2.3-0.9-3.2c-0.5-0.9-1.4-1.9-2.2-2.5c-1.8-1.6-4.1-2-6.4-2.3
			C590,290.8,590,291.2,590,291.5z"/>
		<path class="st2" d="M559.1,294.9c0.6,0.4,0.7,0.5,1.3,0.2c0.4-0.2,0.7-0.4,1.1-0.6c0.9-0.4,1.9-0.6,2.9-0.9c2-0.5,4-0.8,6.1-1.1
			c4.3-0.6,8.5-1.1,12.8-1.1c2.2,0,4.5,0,6.7,0.1c0-0.7,0.2-0.8-0.5-0.9c-0.5,0-1.1,0-1.6-0.1c-1.1-0.1-2.2-0.1-3.3-0.1
			c-2,0-4,0.1-6,0.3c-4.3,0.4-8.5,0.8-12.7,1.7c-2.3,0.5-4.6,1-6.6,2.2c0.2,0.1,0.5,0.3,0.7,0.4C559.7,295,559.4,295,559.1,294.9z"
			/>
		<path class="st2" d="M564.5,277.2c-0.4,0.5-0.5,1.1-0.7,1.7c-0.4,1.3-0.8,2.7-1.2,4c-0.9,3.2-1.9,6.4-2.8,9.7
			c-0.2,0.8-0.4,1.5-0.7,2.3c0.4,0.1,0.7,0.2,0.9,0c0.2-0.2,0.2-0.8,0.3-1c0.4-1.3,0.8-2.6,1.1-3.9c1-3.3,1.9-6.6,2.9-9.9
			c0.2-0.8,0.5-1.6,0.7-2.4c-0.1,0.1-0.2,0.2-0.3,0.4C564.7,277.8,564.6,277.5,564.5,277.2c-0.2,0-0.3,0.2-0.3,0.4
			C564.3,277.5,564.4,277.3,564.5,277.2z"/>
		<path class="st2" d="M596.5,273.9c-4.4-0.2-8.8-0.4-13.2-0.1c-2.2,0.1-4.4,0.2-6.5,0.4c-2.1,0.2-4.1,0.6-6.1,1
			c-1.2,0.2-2.4,0.6-3.5,1c-0.6,0.2-1.1,0.4-1.7,0.6c-0.2,0.1-0.9,0.2-1,0.4c-0.1,0.1,0.2,0.7,0.3,0.9c3.9-1.6,8.1-2.7,12.3-3.1
			c4.3-0.4,8.7-0.3,13-0.3c1.3,0,2.6,0.1,3.9,0.1c0.6,0,1.2,0,1.8,0C596.6,274.8,596.5,274.8,596.5,273.9z"/>
		<path class="st2" d="M621.2,298.3c0.1-1.2,0.4-2.4,0.4-3.7c0-1.5-0.1-2.7-0.4-4.2c-0.6-2.5-1.8-4.9-3.4-6.8
			c-3.1-3.8-7.9-6.6-12.5-8.1c-2.8-0.9-5.7-1.4-8.7-1.6c0,0.2-0.1,0.7,0,0.9c0.1,0.1,0.8,0.1,1,0.1c0.6,0,1.2,0.1,1.9,0.2
			c1.2,0.2,2.4,0.4,3.6,0.8c2.6,0.7,5.1,1.7,7.4,3c4.6,2.4,8.3,6.4,9.7,11.4c0.4,1.6,0.5,3.1,0.5,4.7c0,0.6-0.1,1.3-0.2,1.9
			c0,0.2-0.3,1.1-0.2,1.2C620.5,298.3,621,298.3,621.2,298.3z"/>
		<path class="st2" d="M613.7,336.3c0.9-4.3,1.7-8.6,2.6-12.8c1.4-6.8,2.7-13.6,4.1-20.5c0.3-1.6,0.6-3.1,0.9-4.7
			c-0.9-0.1-0.8-0.3-1,0.5c-0.2,0.8-0.3,1.6-0.5,2.5c-0.6,3-1.2,5.9-1.8,8.9c-1.4,7-2.8,14.1-4.2,21.1c-0.3,1.6-0.7,3.3-1,4.9
			C613.1,336.2,613.4,336.3,613.7,336.3z"/>
		<path class="st0" d="M595.8,317.5c-0.3-1.2-1.8-1.2-2.8-1.3c-1.2-0.1-2.4,0-3.6,0.1c-2.3,0.3-4.6,0.6-6.8,1.1
			c-4.5,0.9-9.5,3.6-11.4,8.1c-0.9,2.1-1.1,4.7-0.4,6.9c0.8,2.7,3,3.7,5.6,3.9c4.8,0.3,9.8-1,13.6-3.9c2-1.5,3.6-3.5,4.4-5.9
			c0.3-1,0.4-2.1,0.6-3.2c0.2-1.3,0.5-2.6,0.6-3.9C595.7,318.7,595.7,318.1,595.8,317.5z"/>
		<g>
			<g>
				<path class="st2" d="M744.1,342.4c0.2-2,0.6-3.8,1.8-5.4c1.2-1.7,2.9-3,4.9-3.6c1.9-0.6,3.9-0.9,5.9-0.3c2,0.6,3.8,1.5,5.2,3.2
					c1.5,1.9,2.2,3.8,2.4,6.2c-0.5,0-1,0-1.5,0c-0.8,0-0.6,0-0.7-0.8c-0.1-0.9-0.3-1.7-0.7-2.5c-0.9-1.7-2.1-3.2-4-3.9
					c-3.6-1.5-7.9-0.3-10,3c-0.6,0.9-0.9,1.9-1.1,3c-0.1,0.5,0.1,1.1-0.3,1.3C745.6,342.6,744.6,342.4,744.1,342.4z"/>
				<path class="st2" d="M750.6,342.4c0-0.6,0-1.1,0-1.7c0-0.7-0.2-1.7,0-2.3c0.1-0.5,0.1-0.3,0.8-0.3c0.9,0,1.7,0,2.6,0
					c2.1,0,4.8,0.7,4.1,3.4c-0.2,0.8-0.4,0.9-1.1,0.9c-0.8,0-1.6,0-2.4,0c1-0.3,2.3-0.3,2.2-1.7c-0.1-1.2-1.3-1.1-2.2-1.1
					c-0.4,0-1.6-0.2-1.9,0c-0.3,0.2-0.1,0.8-0.1,1.2c0,0.3,0.2,1.4,0,1.6C752.1,342.6,750.9,342.4,750.6,342.4z"/>
				<path class="st2" d="M744.1,342.4c-0.4,2,0.6,4.7,1.8,6.3c1.4,2,3.4,3.2,5.7,3.9c4.6,1.4,9.2-1.1,11.5-5
					c0.6-1.1,0.9-2.3,1.1-3.5c0-0.3,0.3-1.5,0-1.7c-0.3-0.2-1.7,0-2.1,0c0.4,1.6-0.4,3.8-1.3,5.2c-1.1,1.7-2.7,2.8-4.7,3.3
					c-3.8,1-7.6-1.1-9.3-4.6c-0.4-0.9-0.6-1.9-0.6-3c0-0.2,0-0.4,0-0.6c-0.1-0.4,0.1-0.2-0.2-0.4
					C745.6,342.2,744.5,342.4,744.1,342.4z"/>
				<path class="st2" d="M750.6,342.4c0,1.3,0,2.5,0,3.8c0,0.6-0.1,0.6,0.5,0.6c0.2,0,0.9,0.1,1.1,0c0.2-0.1,0,0.1,0.2-0.2
					c0.3-0.8-0.5-3,0.2-3.4c0.2-0.1,1.5-0.1,1.7,0c0.3,0.2,0.7,1.1,0.9,1.5c0.3,0.6,0.7,1.6,1.2,2c0.4,0.3,1,0.2,1.5,0.2
					c-0.7-1.2-1.4-2.4-2.2-3.6c0.7,0,1.6-0.1,2-0.8C755.2,342.4,752.9,342.4,750.6,342.4z"/>
			</g>
		</g>
		<g>
			<g>
				<path class="st3" d="M744,342.8c0.2-2.2,0.6-4,1.8-5.8c1.2-1.7,2.8-3,4.8-3.7c4.1-1.4,8.6-0.4,11.4,3c2.7,3.3,3.1,7.9,0.9,11.6
					c-2.1,3.6-6.6,5.6-10.7,4.8c-2.3-0.5-4.3-1.8-5.8-3.5C744.8,347.3,744.3,345.3,744,342.8"/>
			</g>
		</g>
		<g>
			<g>
				<path class="st3" d="M752.4,346.8c-0.4,0-1.6,0.2-1.8-0.1c-0.2-0.4,0-1.7,0-2.2c0-1.2,0-2.3,0-3.5c0-0.8-0.2-1.8,0-2.6
					c0-0.1,0-0.3,0-0.4c0.1-0.1,0.9,0,1,0c0.9,0,1.9,0,2.9,0c1.3,0.1,2.9,0.3,3.5,1.6c0.8,1.8-0.5,3.5-2.3,3.5
					c0.7,1.2,1.4,2.4,2.2,3.6c-0.3,0-1.1,0.2-1.4,0c-0.2-0.1-0.4-0.6-0.5-0.8c-0.3-0.6-0.7-1.1-1-1.7c-0.1-0.2-0.4-0.9-0.6-1.1
					c-0.2-0.1-1,0-1.3,0c-0.6,0-0.5-0.1-0.5,0.4C752.3,344.6,752.4,345.7,752.4,346.8"/>
			</g>
		</g>
		<g>
			<g>
				<path class="st3" d="M754.2,342.4c1-0.2,2.5-0.2,2.5-1.5c0.1-1.3-1.2-1.3-2.2-1.3c-0.5,0-1.5-0.2-2,0c-0.3,0.2-0.2,0.8-0.2,1.2
					c0,0.2-0.2,1.5,0,1.6C752.7,342.6,753.8,342.4,754.2,342.4"/>
			</g>
		</g>
		<g>
			<g>
				<path class="st3" d="M754.2,351.2c1.7-0.2,3.3-0.5,4.7-1.5c1.3-1,2.4-2.5,2.9-4c0.9-3.3,0.3-6.9-2.4-9.3
					c-2.6-2.3-6.6-2.4-9.5-0.7c-2.9,1.7-4.1,5.5-3.5,8.7c0.3,1.8,1.2,3.5,2.6,4.7C750.5,350.5,752.2,351,754.2,351.2"/>
			</g>
		</g>
		<path class="st2" d="M618.6,352.2c3.9,0,7.9,0,11.8,0c2.3,0,4.6,0,6.9,0c0.3,0,1.2,0.2,1.5,0c0.1-0.1,0.1-0.2,0.1-0.3
			c0.4-1,0.4-2.3,0.6-3.4c0.4-2.1,0.7-4.2,1.1-6.3c0.9-5.4,1.9-10.7,2.8-16.1c0.8-4.2,1.5-8.5,2.3-12.7c0.4-2.4,0.8-4.8,1.6-7.1
			c1.1-3.4,3-6.6,5.8-8.8c2.9-2.4,6.3-3.7,10.1-4.3c1.8-0.3,3.6-0.4,5.4-0.4c0.8,0,0.7,0.1,0.8-0.6c0.1-0.8,0.3-1.6,0.4-2.4
			c0.8-4.8,1.7-9.6,2.5-14.4c0.1-0.4,0.1-0.7,0.2-1.1c-3.7,0.3-7.2,0.8-10.6,2.5c-3.2,1.6-5.8,4-8.2,6.6c-1.3,1.5-2.6,3.1-3.7,4.7
			c0.7-4.3,1.4-8.7,2.2-13c-3.1,0-6.3,0-9.4,0c-2.3,0-4.5,0-6.8,0c-0.8,0-1.7,0-2.5,0c-0.3,0-1.1-0.1-1.4,0
			c-0.5,0.2-0.5,2.1-0.6,2.6c-0.5,2.7-0.9,5.3-1.4,8c-1.5,8.5-3,17-4.4,25.5c-1.6,8.9-3.1,17.8-4.7,26.7c-0.8,4.7-1.6,9.4-2.5,14.1
			C618.6,352.1,618.6,352.2,618.6,352.2z"/>
		<g>
			<g>
				<path class="st3" d="M618.6,352.2c6.6,0,13.2,0,19.8,0c0.6,0,0.5,0.1,0.6-0.5c0.2-1,0.3-1.9,0.5-2.9c0.6-3.6,1.3-7.2,1.9-10.8
					c1.4-8,2.8-15.9,4.2-23.9c0.8-4.7,1.8-9.2,4.4-13.2c3.2-4.9,9.3-7.6,15.1-8c0.8-0.1,1.6-0.1,2.4-0.1c0.3,0,1.6,0.2,1.8,0
					c0.1-0.1,0.1-0.5,0.1-0.6c0.2-1.3,0.5-2.7,0.7-4c0.6-3.7,1.3-7.4,1.9-11.1c0.2-0.9,0.3-1.9,0.5-2.8c-3.7,0.3-7.2,0.8-10.6,2.5
					c-3.2,1.6-5.8,4-8.2,6.6c-1.3,1.5-2.6,3.1-3.7,4.7c0.7-4.3,1.4-8.7,2.2-13c-3.1,0-6.3,0-9.4,0c-2.3,0-4.5,0-6.8,0
					c-0.8,0-1.7,0-2.5,0c-0.3,0-1.1-0.1-1.4,0c-0.5,0.2-0.5,2.1-0.6,2.6c-0.5,2.7-0.9,5.3-1.4,8c-1.5,8.5-3,17-4.4,25.5
					c-1.6,8.9-3.1,17.8-4.7,26.7c-0.8,4.7-1.6,9.4-2.5,14.1C618.6,352.1,618.6,352.2,618.6,352.2"/>
			</g>
		</g>
		<path class="st2" d="M428,352.2c4,0,8.1,0,12.1,0c2.3,0,4.6,0,6.9,0c0.4,0,0.8,0.1,1.2,0c0.5-0.1,0.3,0.1,0.4-0.4
			c0.4-1.1,0.4-2.5,0.6-3.6c0.4-2.2,0.7-4.3,1.1-6.5c0.9-5.5,1.9-11,2.8-16.4c0.7-4.2,1.4-8.3,2.1-12.5c0.4-2.6,0.9-5.2,1.8-7.6
			c1.3-3.6,3.7-6.6,7.2-8.3c3.4-1.7,7.2-2.4,10.9-2.6c0.7,0,1.5,0.3,2.2,0.3c0.4,0,0.3,0,0.4-0.6c0.1-0.6,0.3-1.1,0.4-1.7
			c0.4-1.8,0.9-3.6,1.4-5.4c1-3.6,2.4-6.8,4.3-9.9c0.5-0.8,1-1.5,1.4-2.3c-3.8-0.6-8-0.3-11.6,1c-4,1.4-7.1,3.9-9.9,7
			c-1.5,1.7-2.9,3.6-4.2,5.5c0.9-4.3,1.7-8.7,2.6-13c-3.1,0-6.2,0-9.3,0c-2.3,0-4.6,0-6.8,0c-0.9,0-1.7,0-2.6,0
			c-0.5,0-1.1-0.1-1.6,0c-0.4,0.1-0.2,0-0.3,0.4c-0.1,0.6-0.2,1.3-0.3,2c-0.5,2.6-0.9,5.2-1.4,7.9c-1.5,8.5-3,17-4.5,25.5
			c-1.6,8.9-3.1,17.9-4.7,26.8c-0.8,4.8-1.7,9.5-2.5,14.3C428,352.1,428,352.2,428,352.2z"/>
		<g>
			<g>
				<path class="st3" d="M428,352.2c6.5,0,13,0,19.6,0c0.2,0,0.5,0,0.7,0c0.5-0.1,0.2,0.1,0.4-0.2c0.3-0.6,0.3-1.7,0.4-2.3
					c0.6-3.4,1.1-6.7,1.7-10.1c1.4-8.1,2.7-16.2,4.1-24.2c0.7-4.4,1.2-9.2,3.5-13c1.5-2.5,3.7-4.5,6.4-5.8c2.6-1.2,5.4-1.9,8.3-2.2
					c0.8-0.1,1.6-0.1,2.4-0.2c0.3,0,0.6,0.1,1,0.1c0.2,0,0.9,0.3,1.1,0.2c0.4-0.1,0.5-1.5,0.6-2c0.3-1.5,0.7-2.9,1.1-4.4
					c0.8-3.1,1.8-6.1,3.3-9c0.8-1.6,1.8-3.1,2.7-4.6c-1.1-0.2-2.2-0.4-3.3-0.4c-3.6,0.2-7.2,0.6-10.5,2.2c-3.4,1.6-5.8,4-8.2,6.8
					c-1.3,1.5-2.5,3.2-3.7,4.9c0.9-4.3,1.7-8.7,2.6-13c-3.1,0-6.2,0-9.3,0c-2.3,0-4.6,0-6.8,0c-0.9,0-1.7,0-2.6,0
					c-0.5,0-1.1-0.1-1.6,0c-0.4,0.1-0.2,0-0.3,0.4c-0.1,0.6-0.2,1.3-0.3,2c-0.5,2.6-0.9,5.2-1.4,7.9c-1.5,8.5-3,17-4.5,25.5
					c-1.6,8.9-3.1,17.9-4.7,26.8c-0.8,4.8-1.7,9.5-2.5,14.3C428,352.1,428,352.2,428,352.2"/>
			</g>
		</g>
		<g>
			<g>
				<path class="st0" d="M744.2,428c-0.1-0.7,0.4-1.7,0.7-2.3c0.4-0.9,1-1.6,1.6-2.3c1.1-1.2,2.6-2.3,4.1-2.7
					c3.7-1.1,7.2-0.5,10.2,1.8c1.2,1,2.4,2.6,2.8,4c0.1,0.3,0.5,1,0.4,1.3c-0.1,0.4-0.7,0.2-1.1,0.2c-0.4,0-0.8,0.1-1-0.2
					c-0.2-0.3-0.2-1-0.4-1.4c-1.5-3.6-5-5.3-8.7-4.9c-1.9,0.2-3.7,1.4-4.9,2.9c-0.6,0.8-1.1,1.6-1.4,2.5c-0.1,0.2-0.1,0.8-0.3,0.9
					c-0.2,0.2-0.1,0-0.4,0.1C745.5,428.1,744.8,428,744.2,428z"/>
				<path class="st0" d="M750.6,428c0-0.6-0.2-2.3,0.2-2.5c0.4-0.2,1.4,0,1.8,0c0.6,0,1.2,0,1.8,0c1.9,0,3.6,0.3,3.8,2.5
					c-0.3,0-1.2,0.2-1.4,0c-0.2-0.1,0-0.8-0.2-1c-0.4-0.5-1.5-0.4-2.1-0.4c-0.5,0-1.1,0-1.6,0c-0.6,0-0.5,0-0.5,0.6
					c0,0.6,0.2,0.7-0.4,0.8C751.6,428.1,751.1,428,750.6,428z"/>
				<path class="st0" d="M744,429.6c0.1-0.4,0-1.4,0.3-1.6c0.3-0.2,1.6,0,2,0c0,0.3,0,1.4-0.2,1.6
					C745.8,429.8,744.5,429.6,744,429.6z"/>
				<path class="st0" d="M750.6,429.6c0-0.3-0.2-1.4,0-1.5c0.1-0.1,1.2-0.1,1.4,0c0.2,0,0.3-0.1,0.4,0.1c0.1,0.2,0,0.7,0,0.9
					c0,0.6,0.2,0.4,0.9,0.4c0.9,0,1.9,0,2.7-0.5c0.2-0.1,0.3-0.2,0.5-0.4c0.1-0.1,0.1-0.5,0.2-0.6c0.2-0.2,1.1,0,1.4,0
					c-0.1,0.5-0.2,1.4-0.7,1.6c-0.5,0.2-1.4,0-1.9,0C753.9,429.6,752.2,429.6,750.6,429.6z"/>
				<path class="st0" d="M762.2,429.6c0-0.5-0.1-1.1-0.1-1.6c0.5,0,1.6-0.2,2,0c0.3,0.2,0.3,1.2,0.3,1.6
					C763.6,429.6,762.9,429.6,762.2,429.6z"/>
				<path class="st0" d="M744,429.6c-0.1,4.1,2.4,8.1,6.3,9.6c3.7,1.5,8.7,0.7,11.3-2.5c1.3-1.6,2.3-3.3,2.6-5.4
					c0-0.2,0.3-1.5,0.1-1.6c-0.2-0.2-1.5,0-1.7,0c-0.6,0.1-0.4,0.1-0.5,0.7c0,0.5-0.1,1-0.2,1.4c-0.9,4.3-5.1,7.1-9.4,6.3
					c-2.2-0.4-4.2-1.9-5.3-3.9c-0.6-1-0.9-2.1-1-3.3c0-0.4,0-1.1-0.3-1.3C745.6,429.3,744.5,429.6,744,429.6z"/>
				<path class="st0" d="M750.6,429.6c0,1.2-0.1,2.5,0,3.7c0,0.6,0.1,0.4,0.7,0.4c0.2,0,0.8,0.1,1,0c0.1-0.1,0,0,0.1-0.3
					c0.2-0.6,0-1.6,0-2.2c0-0.5-0.2-1,0.2-1.1c0.2-0.1,1.4-0.1,1.6,0c0.3,0.2,0.7,1.1,0.9,1.4c0.3,0.6,0.7,1.6,1.2,2
					c0.3,0.3,1,0.1,1.5,0.1c-0.7-1.2-1.4-2.4-2.2-3.6c0.6,0,1.3-0.1,1.8-0.6C755.2,429.6,752.9,429.6,750.6,429.6z"/>
			</g>
		</g>
	</g>
</g>
<g id="Слой_2">
</g>
<g id="Слой_3">
</g>
<g id="Слой_4">
</g>
</svg>
