<?xml version="1.0" encoding="utf-8"?>
<!-- Generator: Adobe Illustrator 23.0.1, SVG Export Plug-In . SVG Version: 6.00 Build 0)  -->
<svg version="1.1" id="Слой_1" xmlns="http://www.w3.org/2000/svg" xmlns:xlink="http://www.w3.org/1999/xlink" x="0px" y="0px"
	 viewBox="0 0 54 54" style="enable-background:new 0 0 54 54;" xml:space="preserve">
<style type="text/css">
	.st0{fill:#E5046A;}
</style>
<path class="st0" d="M27,0.4c-14.9,0-27,12.1-27,27s12.1,27,27,27s27-12.1,27-27S41.9,0.4,27,0.4z M18.3,40.7
	c-0.1,0.1-0.2,0.1-0.2,0.2c-0.6,0.3-1.4,0.1-1.8-0.5L13,34.2c0.4-0.3,0.9-0.6,1.3-0.9l1.8-1.2c0.6-0.4,1.2-0.8,1.8-1.2l1.8-1.2
	c0.6-0.4,1.2-0.8,1.8-1.2l1.8-1.2c0.6-0.4,1.2-0.8,1.8-1.2l3.7-2.4c0.6-0.4,1.2-0.8,1.9-1.2l1.9-1.2l1.9-1.2
	c0.2-0.1,0.3-0.2,0.5-0.3l-0.9,0.9l-2.5,2.6l-2.5,2.6l-1.3,1.3l-1.3,1.3L24,31l-2.6,2.6c-0.9,0.9-1.7,1.7-2.6,2.6
	c-0.1,0.1-0.1,0.2-0.2,0.3c-0.3,0.5-0.1,1.1,0.5,1.4l0,0l0.1,0c0,0,0,0.1,0,0.1l0.4,0.1l1.1,0.6L18.3,40.7L18.3,40.7z M41.9,15.3
	l-6.7,24.5c0,0,0,0,0,0c-0.2,0.5-0.8,0.9-1.3,0.7l-10.6-3.2l-2-0.9c0.5-0.5,1-1.1,1.5-1.6l2.5-2.7l2.5-2.7l1.2-1.3l1.3-1.3l2.5-2.6
	l2.5-2.6l2.5-2.6c0.8-0.9,1.7-1.7,2.5-2.6c0.2-0.2,0.3-0.6,0.1-0.9c-0.2-0.3-0.6-0.4-1-0.2l-3.7,2.4c-0.6,0.4-1.2,0.8-1.9,1.2L32,20
	l-1.9,1.2l-1.9,1.2l-3.7,2.3c-0.6,0.4-1.3,0.8-1.9,1.2l-1.9,1.2c-0.6,0.4-1.3,0.8-1.9,1.2L17,29.4c-0.6,0.4-1.3,0.8-1.9,1.1
	l-1.9,1.1c-0.7,0.4-1.3,0.8-2,1.2L7,31.7c-0.3-0.1-0.5-0.3-0.7-0.6c-0.3-0.5,0-1.1,0.5-1.4L39.2,14c0.3-0.2,0.6-0.3,0.9-0.4
	c0.3-0.1,0.5-0.1,0.8,0C41.6,13.8,42.1,14.6,41.9,15.3z"/>
</svg>
