<?xml version="1.0" encoding="utf-8"?>
<!-- Generator: Adobe Illustrator 23.0.3, SVG Export Plug-In . SVG Version: 6.00 Build 0)  -->
<svg version="1.1" xmlns="http://www.w3.org/2000/svg" xmlns:xlink="http://www.w3.org/1999/xlink" x="0px" y="0px"
	 viewBox="0 0 841.9 595.3" style="enable-background:new 0 0 841.9 595.3;" xml:space="preserve">
<style type="text/css">
	.st0{fill:#FAB41E;}
	.st1{fill:#E40520;}
	.st2{fill:#FFFFFF;}
	.st3{fill:none;stroke:#FFFFFF;stroke-width:0.215;}
	.st4{fill-rule:evenodd;clip-rule:evenodd;fill:#4DB45E;}
	.st5{fill-rule:evenodd;clip-rule:evenodd;fill:url(#path24_1_);}
	.st6{fill:url(#SVGID_1_);}
	.st7{fill:#005CA9;}
	.st8{fill:#F7A823;}
</style>
<g id="Layer_1">
</g>
<g id="Слой_2">
	<g>
		<g id="g5">
			<path id="path7" class="st4" d="M242.8,188.3L242.8,188.3c-0.1,0.1-30.2,0-38.2,28.8c-7.4,26.4-28.1,99.2-28.7,101.2h-5.7
				c0,0-21.2-74.4-28.7-101.3c-8-28.8-38.2-28.7-38.2-28.7H34.5V407h68.8V277.1h2.9h2.9L149.2,407h47.8L237,277.2h5.7V407h68.8
				V188.3H242.8z"/>
		</g>
		<g id="g9">
			<path id="path11" class="st4" d="M494,188.3c0,0-20.2,1.8-29.6,22.9l-48.7,107H410V188.3h-68.8V407h65l0,0
				c0,0,21.1-1.9,30.6-22.9l47.8-107h5.7V407H559V188.3H494z"/>
		</g>
		<g id="g13">
			<path id="path15" class="st4" d="M589.6,287.6V407h68.8v-69.7h74.5c32.5,0,60-20.7,70.2-49.7H589.6z"/>
		</g>
		<g id="g17">
			
				<linearGradient id="path24_1_" gradientUnits="userSpaceOnUse" x1="579.9109" y1="360.3719" x2="807.3734" y2="360.3719" gradientTransform="matrix(1 0 0 -1 0 593.5276)">
				<stop  offset="0.3" style="stop-color:#00B4E6"/>
				<stop  offset="1" style="stop-color:#088CCB"/>
			</linearGradient>
			<path id="path24" class="st5" d="M732.9,188.3H579.9c7.6,41.7,38.9,75.1,79.3,86l0,0c9.2,2.5,18.8,3.8,28.8,3.8h117.9
				c1.1-5,1.5-10,1.5-15.3C807.4,221.6,774,188.3,732.9,188.3z"/>
		</g>
	</g>
</g>
<g id="Слой_3">
</g>
<g id="Слой_4">
</g>
</svg>
