<svg version="1.1" id="L0001_xA0_Изображение_1_" xmlns="http://www.w3.org/2000/svg" x="0" y="0" viewBox="0 0 247.7 247.7" xml:space="preserve"><style>.st0{fill:#ff0068}</style><path class="st0" d="M247.5 58.7c-.5 3.3-5.8 13.2-8.4 19.8-.8 1.9-.1 4.4-.2 6.7-1.2 22.4-2.4 44.9-3.6 67.3-1.5 26.9-3.1 53.8-4.6 80.8-.4 7-.8 7.5-8 7.5-1 0-2-.1-3 0-4.1.3-6.1-1.4-6.3-5.7-1.2-22.4-2.5-44.9-3.8-67.3-1.5-27.1-3.3-54.2-4.3-81.3-.2-5.5-1.7-9.9-4.3-14.5-4.6-8.1-6-17.1-3.6-26.1 2.5-9.1 5.8-18 9.2-26.8 1.4-3.5 3.6-6.9 6.3-9.5 1.9-1.8 5.5-3.2 7.7-2.7 2 .5 3.4 3.9 4.8 6.2.6.9.6 2.3.5 3.4-.9 7.5 3 12.1 8.9 15.8 5.5 3.5 9.7 10.9 11.3 14.1.5 1 .9 2 1.1 3.1.7 2.6.6 6.9.3 9.2zm-30.4-40.2c-6.5 10.8-11.5 22-12.2 34.5-.4 7.3 1.7 14.2 6.5 20 6.3 7.7 14.9 7.6 21.2-.1 9.6-11.8 8.1-25.4-4-34.4-6.7-5.1-12.4-10.5-11.5-20zm-1.6 103.2c2 36.3 4 72.2 6.1 108.2h.7c2-36 4-71.9 6-108.2h-12.8zm-1.3-26.4h15.5c.2-2.8.3-5.2.5-7.5h-16.6c.2 2.7.4 5 .6 7.5zm.9 17.2h13.6c.2-2.7.4-5.1.6-7.7h-14.7c.1 2.7.3 4.9.5 7.7zM89.2 198.8c-11.6-.1-21.2-9.9-21.2-21.4.1-11.6 9.8-21.3 21.3-21.3 11.8 0 21.6 9.9 21.4 21.7-.1 11.6-9.9 21.1-21.5 21zm.4-34c-7.1-.1-12.8 5.3-12.9 12.3-.2 7.3 5.4 13 12.7 13 7.1 0 12.6-5.4 12.7-12.5 0-7.1-5.4-12.7-12.5-12.8zm-8.8-81.1c-.1 11.8-9.6 21.2-21.4 21.2-11.7 0-21.3-9.8-21.2-21.4.1-11.7 9.8-21.3 21.5-21.2 11.7 0 21.2 9.6 21.1 21.4zm-8.6-.1c0-7-5.5-12.7-12.5-12.8-7-.1-12.7 5.4-12.9 12.4-.2 7.2 5.6 13 12.8 13 7 0 12.6-5.5 12.6-12.6zm-8.4 55.7c-.1 11.7-9.8 21.2-21.6 21-11.7-.1-21.3-9.9-21.1-21.5.2-11.8 9.8-21.1 21.6-21 11.7.1 21.2 9.7 21.1 21.5zm-21.4 12.5c6.9 0 12.6-5.6 12.7-12.6.1-7.1-5.4-12.7-12.4-12.9-7.1-.2-13 5.7-12.9 12.9 0 6.9 5.7 12.6 12.6 12.6zM119 92c-11.8-.1-21.3-9.7-21.1-21.4.1-11.7 9.8-21.1 21.6-21 11.8.1 21.3 9.8 21.2 21.4-.2 11.8-9.8 21.1-21.7 21zm12.9-21.4c-.1-7-5.8-12.6-12.8-12.6-6.9.1-12.5 5.8-12.5 12.8 0 7.2 5.9 13.1 13 12.8 7-.3 12.4-6 12.3-13z"/><path class="st0" d="M96.1 217.1c-4.1 0-8.3-.3-12.5-.8-25.7-3.3-48.4-16.5-64-37.1-15.7-20.6-22.3-46-18.6-71.7 7.4-51.7 55.6-88.2 107.4-81.4 40.2 5.3 72.9 35.5 81.3 75.2.7 3.1-.3 6.2-2.5 8.4s-5.4 3.2-8.5 2.6c-1.2-.2-2.4-.5-3.7-.6-15.7-2-30 3.7-31.1 12.6-1.1 8.8 11.2 18 26.9 20 .6.1 1.3.2 1.9.2 4 .4 7.6 2.7 9.6 6.1 2 3.4 2.1 7.6.5 11.2-16 34.1-49.8 55.3-86.7 55.3zm-.2-181.8C54 35.3 17 66.4 10.9 109c-3.3 23 2.6 45.7 16.6 64.2 14 18.4 34.4 30.2 57.4 33.2 3.7.5 7.5.7 11.2.7 33.1 0 63.4-18.9 77.6-49.5.4-.9.1-1.6-.1-1.9-.2-.3-.7-1.1-1.8-1.2-.8-.1-1.5-.2-2.3-.2-21.8-2.8-37.4-16.5-35.5-31.2 1.9-14.7 20.5-24 42.3-21.2 1.1.1 2.3.3 3.4.5-7.9-35-36.9-61.6-72.6-66.3-3.7-.6-7.5-.8-11.2-.8z"/></svg>