<svg version="1.1" id="Слой_1" xmlns="http://www.w3.org/2000/svg" x="0" y="0" viewBox="0 0 252.6 252.6" xml:space="preserve"><style>.st0{fill:#e5046a}</style><path class="st0" d="M211.1 7c-2.4 0-4.4 2-4.4 4.4v206.1c0 .7.2 1.4.5 2l11.9 23.7c.7 1.5 2.3 2.4 3.9 2.4 1.7 0 3.2-.9 3.9-2.4l11.9-23.7c.3-.6.5-1.3.5-2V11.4c0-2.4-2-4.4-4.4-4.4h-23.8zm19.3 209.4l-7.5 14.9-7.5-14.9V15.8h14.9v200.6h.1zm13.4-178v70.2c0 2.4 2 4.4 4.4 4.4s4.4-2 4.4-4.4V38.4c0-2.4-2-4.4-4.4-4.4s-4.4 2-4.4 4.4zm-94.6 93.3H37.8c-2.4 0-4.4 2-4.4 4.4s2 4.4 4.4 4.4h111.5c2.4 0 4.4-2 4.4-4.4-.1-2.4-2-4.4-4.5-4.4zm0 65.2H37.8c-2.4 0-4.4 2-4.4 4.4s2 4.4 4.4 4.4h111.5c2.4 0 4.4-2 4.4-4.4-.1-2.5-2-4.4-4.5-4.4zm0-93.5H37.8c-2.4 0-4.4 2-4.4 4.4s2 4.4 4.4 4.4h111.5c2.4 0 4.4-2 4.4-4.4-.1-2.4-2-4.4-4.5-4.4zM37.8 84H104c2.4 0 4.4-2 4.4-4.4s-2-4.4-4.4-4.4H37.8c-2.4 0-4.4 2-4.4 4.4 0 2.4 1.9 4.4 4.4 4.4zm0-28.3H104c2.4 0 4.4-2 4.4-4.4s-2-4.4-4.4-4.4H37.8c-2.4 0-4.4 2-4.4 4.4 0 2.4 1.9 4.4 4.4 4.4z"/><path class="st0" d="M4.4 245.3h178.2c2.4 0 4.4-2 4.4-4.4V69.5c0-.1-.1-.2-.1-.4V69c0-.1-.1-.2-.1-.4 0-.1-.1-.2-.2-.3v-.1c-.1-.1-.1-.2-.2-.3 0 0 0-.1-.1-.1-.1-.1-.1-.2-.2-.2l-.1-.1c-.1-.1-.2-.2-.2-.3v-.1L127.2 8.6l-.3-.3s-.1 0-.1-.1c-.1-.1-.2-.1-.3-.2h-.1c-.1-.1-.2-.1-.3-.2h-.1c-.1-.1-.2-.1-.3-.2-.1 0-.2-.1-.4-.1-.1 0-.2-.1-.4-.1H4.4C2 7.3 0 9.3 0 11.7v229.1c0 2.5 2 4.5 4.4 4.5zM172 65.9h-43.5V22.3L172 65.9zM8.8 16.1h110.9v54.2c0 1.2.5 2.3 1.3 3.1.8.8 1.9 1.3 3.1 1.3h54.1v161.8H8.8V16.1z"/></svg>