<svg xmlns="http://www.w3.org/2000/svg" viewBox="0 0 80 80"><path d="M17.3 3.4c.3.1.6.1.9.2 2.9.8 4.7 2.7 5.3 5.7.1.3.1.7.1 1v5.6c0 1.6-.6 3.1-1.6 4.3-.7.8-1.4 1.5-2 2.3 0 .1-.1.1-.1.2v2.1h3.6c3.1.1 5.7 2.2 6.4 5.2v.1h4.9v-2.4c0-.1-.1-.2-.1-.3l-2.4-2.7c-1.1-1.3-1.7-2.9-1.7-4.6v-6.3c0-3.7 2.7-6.9 6.3-7.5.4-.3.9-.3 1.4-.3.7 0 1.2.6 1.2 1.2 0 .7-.6 1.2-1.2 1.2-1.1 0-2 .3-2.9.9-1.5 1.1-2.3 2.5-2.3 4.4V20c0 1.2.4 2.2 1.2 3.1l2.4 2.7c0 .1.1.1.2.1.3.2.5.6.5 1v4.4c0 .7-.5 1.2-1.2 1.2h-5.3c-2.3 0-4.4 1.8-4.9 4-.1.4-.1.7-.1 1.1v7.5h28.6v-7.5c0-2.7-2.1-4.9-4.8-5.1h-5.5c-.7 0-1.2-.5-1.2-1.2v-4.4c0-.4.2-.7.5-1 .3-.2.5-.5.8-.8.6-.6 1.2-1.3 1.8-1.9.8-.9 1.2-2 1.2-3.2v-6.2c0-2.7-2-4.9-4.7-5.2h-.5c-.7 0-1.3-.5-1.3-1.2s.5-1.2 1.3-1.2c2 0 3.7.7 5.2 2 1.6 1.5 2.5 3.4 2.5 5.7v5.7c0 2.2-.7 4-2.2 5.6-.7.7-1.3 1.5-2 2.2 0 0-.1.1-.1.2v2.6h5c.1-.3.2-.7.4-1 1.1-2.5 3-4 5.8-4.2 1.2-.1 2.5 0 3.7 0h.3v-2c0-.1 0-.2-.1-.3-.7-.8-1.5-1.6-2.2-2.5-1-1.2-1.4-2.5-1.4-4v-5.6c0-3.2 2.2-6 5.3-6.8.3-.1.7-.1 1-.2H68c1.7.2 3.1.9 4.3 2.1 1.3 1.4 1.9 3 1.9 4.9V16c0 1.5-.5 2.9-1.5 4.1-.7.8-1.5 1.6-2.2 2.4-.1.1-.1.2-.1.3v2h3.3c.3 0 .6 0 1 .1 2.9.4 5.2 2.6 5.8 5.4.1.3.1.5.1.8v8.7s0 .1-.1.1c-.2.5-.6.8-1.1.8H61c-.6 0-1.1-.3-1.3-.8-.3-.8.3-1.6 1.1-1.6h17.4v-6.6c0-2.4-2-4.4-4.4-4.4h-4.5c-.6 0-1.1-.3-1.3-.8 0-.1-.1-.3-.1-.4v-3.8c0-.4.2-.7.5-1s.6-.6.8-.9c.4-.5.9-1 1.3-1.5.8-.8 1.1-1.8 1.1-2.9v-5.3c0-2.3-1.6-4.2-3.9-4.6h-3.8c-2.1 0-3.9 1.4-4.4 3.4-.1.4-.2.9-.2 1.3v5.1c0 1.2.4 2.3 1.2 3.2.7.7 1.3 1.4 1.9 2.1l.2.2c.3.2.5.6.5.9v3.9c0 .7-.5 1.2-1.3 1.2h-4.5c-2.1 0-3.9 1.5-4.3 3.5 0 .1 0 .2.1.3 1.8 1 3 2.4 3.7 4.4.2.7.4 1.5.4 2.3v8.7c0 .8-.5 1.3-1.3 1.3H25c-.8 0-1.3-.5-1.3-1.3v-8.8c.1-3 1.5-5.2 4-6.6.1 0 .1-.1.2-.1-.1-.4-.2-.9-.4-1.2-.9-1.6-2.2-2.4-4-2.4h-4.4c-.6 0-1.1-.3-1.3-.9v-4.2c0-.4.2-.8.5-1 .2-.1.3-.3.4-.5.6-.7 1.2-1.3 1.8-2 .7-.8 1-1.7 1-2.8v-5.3c0-2.3-1.6-4.2-3.9-4.6h-3.8c-2.8-.4-4.8 1.5-4.9 4v5.9c0 .9.4 1.8 1 2.5L12 21l.1.1c.4.3.5.6.5 1.1v3.7c0 .8-.5 1.3-1.3 1.3H6.8c-2.3 0-4.2 1.8-4.4 4.1v7h17.5c.9 0 1.5.9 1.1 1.7-.2.4-.5.7-1 .7H1.4c-.4 0-.8-.1-1-.4-.2-.2-.3-.5-.3-.8v-8.1c0-1.7.7-3.2 1.9-4.5 1.3-1.5 3-2.2 5-2.2h3.2v-2c0-.1 0-.2-.1-.3-.6-.7-1.3-1.4-1.9-2.1C7 19 6.5 17.5 6.5 15.8v-5.3c0-1.9.6-3.6 2-5 1.1-1.2 2.6-1.9 4.2-2.1h4.6zm41.8 63.1c0-.2.1-.5.1-.8.1-.4.1-.8.2-1.1.1-.5.2-1.1.3-1.6s.1-.9.2-1.4c.1-.4.1-.9.2-1.3 0-.2 0-.4-.2-.6l-4.1-4.1c-.2-.2-.5-.5-.6-.7-.4-.7 0-1.6.8-1.7.4-.1.8-.1 1.2-.2l1.5-.3c.5-.1 1-.2 1.5-.2.6-.1 1.2-.2 1.7-.3.2 0 .4 0 .6-.1.1 0 .2-.1.2-.2.4-.7.8-1.5 1.2-2.2.4-.8.8-1.5 1.2-2.3.2-.4.4-.8.7-1.3.4-.6 1.2-.8 1.8-.3.2.2.3.4.5.6.4.7.7 1.3 1 2 .4.7.8 1.5 1.2 2.2.2.4.5.8.7 1.3.1.2.3.2.5.2.6.1 1.2.2 1.7.3s1 .2 1.5.2l1.5.3c.5.1 1 .2 1.4.2.6.1 1 .5 1 1.1 0 .4-.1.7-.4 1-1.2 1.2-2.4 2.4-3.6 3.7-.3.3-.6.6-.9 1-.1.1 0 .3 0 .4.1.5.1.9.2 1.4s.2 1.1.3 1.6c.1.5.1.9.2 1.4s.2 1.1.3 1.6c0 .3.1.7-.1 1-.3.6-1 .8-1.6.5-1.4-.7-2.9-1.4-4.3-2.1-.5-.3-1-.5-1.5-.8-.1-.1-.2-.1-.3 0-1.9 1-3.9 2-5.8 2.9-1 .3-2-.3-2-1.3zm-37.2.1c0 .7-.6 1.3-1.3 1.2-.2 0-.4-.1-.5-.1-1-.5-2.1-1-3.1-1.5-.9-.4-1.8-.9-2.7-1.4-.1-.1-.2-.1-.3 0-1.9 1-3.9 2-5.8 2.9-.4.2-.9.2-1.3-.1-.4-.3-.5-.7-.5-1.2.1-.4.1-.9.2-1.3.1-.5.2-1.1.3-1.6s.2-1 .2-1.4c.1-.4.1-.9.2-1.3 0-.3.1-.5.1-.8 0 0 0-.1-.1-.2l-3.7-3.7c-.4-.4-.8-.7-1.1-1.1-.5-.7-.1-1.7.8-1.9.5-.1 1-.2 1.4-.2.5-.1 1-.2 1.5-.2.5-.1 1-.2 1.5-.2.5-.1 1-.2 1.5-.2.2 0 .4 0 .5-.1.1 0 .2-.1.2-.2.3-.6.7-1.3 1-1.9.4-.8.8-1.6 1.2-2.3.3-.5.5-1.1.8-1.6.3-.6 1.1-.8 1.8-.4.2.1.3.3.4.5.3.6.6 1.2 1 1.9.4.8.8 1.5 1.2 2.3.3.5.6 1 .8 1.6.1.2.3.2.4.2.7.1 1.3.2 2 .3.6.1 1.1.2 1.7.3s1.1.2 1.7.3c.3 0 .5.1.8.1.5.1.9.5 1 1.1 0 .4-.1.8-.4 1.1l-1.7 1.7-2.8 2.8c-.1.1-.1.2 0 .3.1.5.2 1.1.3 1.6.1.5.1 1.1.2 1.6s.2 1.1.3 1.6c.1.5.1.9.2 1.4.1-.1.1 0 .1.1zM47 76.7c-.2-.1-.4-.1-.6-.2-1.9-1-3.8-1.9-5.8-2.9h-.3L35.5 76l-1.2.6c-.4.1-.8.1-1.1-.2-.4-.3-.5-.7-.4-1.2s.1-.9.2-1.4c.1-.4.1-.8.2-1.3.1-.4.1-.8.2-1.1.1-.5.1-.9.2-1.4.1-.4.1-.8.2-1.3 0-.1-.1-.2-.1-.2l-3-3c-.5-.5-1-1.1-1.6-1.6-.3-.4-.4-.8-.2-1.2.2-.4.4-.7.9-.8.9-.1 1.7-.3 2.6-.4.7-.1 1.5-.2 2.2-.3.5-.1 1.1-.2 1.6-.3.1 0 .2-.1.2-.2l1.2-2.4c.4-.7.8-1.5 1.1-2.2.2-.5.5-.9.8-1.4s1.2-.6 1.7-.3c.2.2.3.3.5.6.5 1 1 1.9 1.5 2.9.4.7.8 1.5 1.1 2.2l.3.6c0 .1.1.1.2.1.7.1 1.3.2 2 .3.5.1 1 .1 1.5.2.6.1 1.1.2 1.7.3.4.1.8.1 1.2.2.5.1.8.4.9.9.1.4 0 .8-.3 1.1-.6.6-1.2 1.2-1.8 1.9l-2.2 2.2c-.2.2-.4.4-.6.7v.2c.1.5.1.9.2 1.4.1.5.2 1.1.3 1.6.1.4.1.9.2 1.3.1.5.2.9.2 1.4 0 .3.1.6.1 1 .1.6-.5 1.3-1.2 1.2z" fill="#e5046a"/></svg>