<?xml version="1.0" encoding="utf-8"?>
<!-- Generator: Adobe Illustrator 23.0.1, SVG Export Plug-In . SVG Version: 6.00 Build 0)  -->
<svg version="1.1" id="Слой_1" xmlns="http://www.w3.org/2000/svg" xmlns:xlink="http://www.w3.org/1999/xlink" x="0px" y="0px"
	 viewBox="0 0 512 512" style="enable-background:new 0 0 512 512;" xml:space="preserve">
<style type="text/css">
	.st0{fill:#585858;}
</style>
<path class="st0" d="M256,0C148.9,0.1,62.2,86.9,62.1,194c0,104.2,178.9,306.1,186.5,314.6c3.7,4.1,10,4.5,14.1,0.8
	c0.3-0.2,0.5-0.5,0.8-0.8C271.1,500,450,298.2,450,194C449.8,87,363.1,0.2,256,0z M256,486.8C221.9,446.9,82,279.3,82,193.9
	c0-96.1,77.9-174,174-174s174,77.9,174,174C430,279.3,290.2,447.1,256,486.8z"/>
<path class="st0" d="M259.5,97.3c-58,0.1-105.1,47.2-105,105.2s47.2,105.1,105.2,105s105-47.1,105-105.1
	C364.6,144.4,317.6,97.4,259.5,97.3z M259.5,287.7c-47,0-85.1-38.1-85.1-85.1s38.1-85.1,85.1-85.1s85.1,38.1,85.1,85.1
	C344.6,249.5,306.5,287.6,259.5,287.7z"/>
</svg>
