<svg xmlns="http://www.w3.org/2000/svg" viewBox="0 0 75 75"><path d="M26.7 44.5l12.5-18.6c.5-.7.7-1.6.3-2.5-.4-.8-1.3-1.2-2.1-1.1h-8.2l1.4-11.8c.3-.8 0-1.8-.8-2.2-.8-.2-1.7.2-2 1L16.6 25.6c-.5.7-.7 1.6-.3 2.5.4.8 1.3 1.2 2.1 1.1h7l-1.5 14.1c-.3.8 0 1.8.8 2.2.1.1.3.1.5.1.6 0 1.2-.5 1.5-1.1zm.6-17.1c-.2-.2-.5-.4-.8-.4h-8.4s0-.1.1-.1l9.9-14.4-1.3 10.8c0 .3.1.6.3.9.2.2.5.4.8.4h9.6l-.1.1-11.2 16.7 1.4-13.2c0-.3-.1-.6-.3-.8zm39.6-13.3h-2.3v-6c0-.6-.5-1.1-1.1-1.1s-1.1.5-1.1 1.1V14H60V8.1c0-.6-.5-1.1-1.1-1.1s-1.1.5-1.1 1.1V14h-2.3c-.6 0-1.1.5-1.1 1.1 0 .6.5 1.1 1.1 1.1h.1V21c0 2.7 1.9 5.1 4.5 5.7v30.1c.1 8.7-6.8 15.8-15.4 15.9-4 0-7.9-1.6-10.7-4.5-2.7-2.7-4.3-6.2-4.6-10 1.3-.5 2.2-1.8 2.2-3.2v-1.2h12.5c3.1 0 5.6-2.6 5.6-5.8V5.8c0-3.2-2.5-5.8-5.6-5.8H12.6C9.5 0 7 2.6 7 5.8v42.3c0 3.2 2.5 5.8 5.6 5.8h12.5v1.2c0 1.5.9 2.8 2.3 3.3.3 4.3 2.2 8.4 5.3 11.5 3.2 3.3 7.6 5.1 12.2 5.1 9.8-.1 17.6-8.2 17.5-18.1V26.8c2.7-.6 4.5-2.9 4.5-5.7v-4.8h.1c.6 0 1.1-.5 1.1-1.1s-.6-1.1-1.2-1.1zm-57.8 34V5.8c0-2 1.5-3.6 3.5-3.6h31.7c1.9 0 3.5 1.6 3.5 3.6v42.3c0 2-1.5 3.6-3.5 3.6H12.6c-2-.1-3.5-1.7-3.5-3.6zm18.1 5.8h2.4v1.2c0 .7-.5 1.2-1.2 1.2s-1.2-.5-1.2-1.2v-1.2zm37.5-32.8c0 1.9-1.5 3.5-3.4 3.6-1.9 0-3.5-1.5-3.6-3.4v-5h6.9v4.8z" fill-rule="evenodd" clip-rule="evenodd" fill="#e5046a"/></svg>