<?xml version="1.0" encoding="utf-8"?>
<!-- Generator: Adobe Illustrator 23.0.4, SVG Export Plug-In . SVG Version: 6.00 Build 0)  -->
<svg version="1.1" id="Layer_8369_Изображение"
	 xmlns="http://www.w3.org/2000/svg" xmlns:xlink="http://www.w3.org/1999/xlink" x="0px" y="0px" viewBox="0 0 733.3 954"
	 style="enable-background:new 0 0 733.3 954;" xml:space="preserve">
<style type="text/css">
	.st0{fill:#E50469;}
</style>
<title>Прайс</title>
<path class="st0" d="M733,954H1c0.1-1.7,0.2-3.3,0.2-5c0-314.3,0-628.7,0-943c0-2-0.1-4-0.2-6h526c0.9,1.3,1.9,2.5,3,3.7
	c64.6,63.4,129.3,126.7,194,189.9c6.6,6.4,9.3,12.6,9.3,22C733,461.8,732.9,707.9,733,954z M24.7,23.5v906.3H710V222
	c0-1.3,0.3-2.8-0.1-4c-0.7-2-1.4-4.5-3-5.7c-4.9-3.8-10-7.2-15.3-10.4c-18.7-11.1-39.5-14.2-60.6-13.9c-22.6,0.3-45.2,2.4-67.8,3.8
	c-9.7,0.6-13.9-3-14.8-12.6c-0.2-2.3-0.3-4.7-0.3-7c0-19.2,0.3-38.3,0-57.5c-0.4-31.9-10.3-60.7-28.9-86.7c-2.4-3.3-4.9-4.7-9-4.7
	c-160,0.1-320,0.1-480,0.1L24.7,23.5z M571.7,167.1c15.4-0.8,30.3-2.2,45.3-2.3s29.7,1,45.2,1.6l-94.8-93c1.4,15.5,3.4,31,4.2,46.5
	S571.8,151.1,571.7,167.1L571.7,167.1z"/>
<path class="st0" d="M1,0c0.1,2,0.2,4,0.2,6c0,314.4,0,628.7,0,943c0,1.7-0.1,3.3-0.2,5c-0.3-0.2-0.9-0.3-1-0.5c-0.1-1.3,0-2.7,0-4
	c0-315,0-630,0-945C0.2,3,0.5,1.5,1,0z"/>
<path class="st0" d="M581.8,764.7h33.9v41.2H582v43.5H89V264.4h492.8v6.6c0,79.5,0,159-0.1,238.5c0,5,1,7.3,6.3,9.1
	c42.1,14.3,70,54.1,69.9,98.8c0,44.4-28.3,83.8-70.3,98.1c-4.7,1.6-6.1,3.6-6,8.3C582,737.2,581.8,750.5,581.8,764.7z M576,348.7
	c-1.2-0.2-2.5-0.4-3.8-0.5c-36.6,0-73.2,0-109.9-0.1c-4.1,0-4.5,1.9-4.5,5.2c0.1,23.5,0.2,47,0,70.4c0,4.6,1.5,5.5,5.7,5.4
	c35.8-0.1,71.6-0.1,107.4-0.1c1.6,0,3.2-0.2,5.1-0.3L576,348.7z M329.9,348.7c-1.7-0.2-3.2-0.4-4.6-0.4c-35.8,0-71.6,0-107.4-0.1
	c-4,0-5,1.4-5,5.2c0.2,23.5,0.2,47,0,70.4c0,4,1,5.4,5.2,5.4c35.6-0.2,71.3-0.2,106.9,0c4.3,0,5.3-1.4,5.2-5.4
	c-0.2-23.5-0.1-47-0.1-70.4C330.1,352,330,350.5,329.9,348.7L329.9,348.7z M335.9,428.8H452c0.2-0.9,0.3-1.8,0.4-2.7
	c0-24.7,0-49.3,0.1-74c0-4.2-2.5-3.9-5.2-3.9c-35.5,0-71,0.1-106.5-0.1c-4.2,0-5.3,1.4-5.2,5.5c0.2,23.3,0.1,46.7,0.1,70
	C335.6,425.2,335.8,426.9,335.9,428.8L335.9,428.8z M213.3,684.9v79.9h116.5v-79.9H213.3z M329.8,596.5c0.1-2.2,0.3-3.7,0.3-5.2
	c0-23-0.1-46,0.1-69c0-4.7-1.6-5.5-5.8-5.5c-35.3,0.2-70.7,0.2-106,0c-4.3,0-5.7,1.1-5.7,5.6c0.2,22.7,0.2,45.3,0,68
	c0,4.8,1.2,6.2,6.1,6.2c35.2-0.2,70.3-0.1,105.5-0.1L329.8,596.5z M95.1,348.6v80.1h112v-80.1H95.1z M271,679.2c18,0,36-0.1,54,0.1
	c3.7,0,5.3-0.7,5.2-4.9c-0.2-22.5-0.2-45,0-67.5c0-4.1-1.4-5-5.2-5c-35.6,0.1-71.3,0.1-107,0c-4.3,0-5.3,1.5-5.2,5.5
	c0.2,22.2,0.2,44.3,0,66.5c0,4.6,1.5,5.5,5.7,5.5C236,679,253.5,679.2,271,679.2z M576,511.2V435H458.3v76.2L576,511.2z M95,764.8
	h112.1V685H94.9L95,764.8z M330.1,435.1H213.3c-0.2,0.8-0.3,1.6-0.3,2.4c0,23.3,0.1,46.6-0.1,69.9c0,4.1,2.1,4.1,5,4.1
	c35.8,0,71.6-0.1,107.4,0.1c4.1,0,5-1.4,5-5.2c-0.2-16.8-0.1-33.6-0.1-50.5L330.1,435.1z M206.9,596.3v-79H95.2v79H206.9z
	 M336.1,435v76h116v-76H336.1z M206.9,678.9v-76.6H95.1v76.6H206.9z M457.9,269.9v5.6c0,20.5,0.2,41-0.1,61.5
	c-0.1,4.9,1.5,6.1,6.2,6.1c35.5-0.2,71-0.1,106.5-0.1c1.8,0,3.6-0.2,5.4-0.3v-72.7L457.9,269.9z M213.1,270c-0.1,2.1-0.2,3.6-0.2,5
	c0,20.8,0.1,41.6-0.1,62.5c0,4.6,1.6,5.5,5.8,5.5c35.3-0.1,70.6-0.1,105.9,0c4.2,0,5.8-1,5.7-5.5c-0.2-20.8-0.1-41.6-0.1-62.5
	c0-1.6-0.2-3.2-0.3-5L213.1,270z M330.1,771.2H213.5c-0.2,0.4-0.4,0.9-0.4,1.3c-0.1,22.6,0,45.3-0.2,67.9c0,3.4,1.8,3.7,4.4,3.7
	c36.1,0,72.3,0,108.4,0c3.6,0,4.5-1.3,4.5-4.7c-0.1-12.5,0-25,0-37.5L330.1,771.2z M95.2,434.9v76.2H207v-76.2H95.2z M335.5,336.9
	c-0.1,4.8,1.3,6.2,6.1,6.1c35-0.2,69.9-0.1,104.9-0.1c1.8,0,3.6-0.2,5.5-0.3V270H335.6v5.5 M94.8,771c-0.3,1.2-0.5,2.3-0.6,3.5
	c0,21.8,0.1,43.7-0.1,65.5c0,4.5,2.5,4.1,5.5,4.1c34.1,0,68.3,0,102.5,0c1.6,0,3.2-0.2,5-0.3V771H94.8z M207.2,269.9
	c-1.4-0.1-2.2-0.2-3.1-0.2c-35.2,0-70.3,0-105.5-0.1c-4.2,0-4.5,1.9-4.5,5.2c0.1,20.8,0.2,41.7-0.1,62.5c0,4.8,1.7,5.8,6.1,5.8
	c33.8-0.1,67.6-0.1,101.5-0.1c1.8,0,3.6-0.2,5.5-0.3L207.2,269.9z M335.9,517.2v79c1.9,0.1,3.5,0.3,5.1,0.3c29,0,58-0.1,87,0.1
	c4.6,0,6-1.2,5.9-5.8c-0.2-22.7-0.2-45.3,0-68c0-4.6-1.3-5.9-5.9-5.9c-28.8,0.2-57.7,0.1-86.5,0.1C339.8,517,338,517.1,335.9,517.2z
	 M336,602.2v76.7c1.9,0.1,3.4,0.2,4.8,0.2c29.2,0,58.3-0.1,87.5,0.1c4.4,0,5.7-1.2,5.6-5.6c-0.2-22-0.2-44,0-66c0-4.7-1.4-5.9-6-5.8
	c-28.8,0.2-57.6,0.1-86.4,0.1C339.8,602,338,602.1,336,602.2L336,602.2z M490.1,679.2h6.1c20.1,0,40.3,0.2,60.4-0.1
	c5.2-0.1,10.3-1.8,15.5-2.9c3.3-0.7,4.2-2.8,4.2-6.2c-0.2-21-0.1-41.9-0.1-62.9c0-1.6-0.2-3.2-0.3-4.7h-85.8L490.1,679.2z
	 M433.5,764.6c0.1-2.3,0.3-3.9,0.3-5.6c0-10.5-0.2-21,0.1-31.5c0.1-4.6-1.6-5.6-5.8-5.5c-15,0.2-30,0.1-45,0.1
	c-1.9,0-3.8-0.2-6.1-0.4V685h-41v79.5L433.5,764.6z M377.3,771.1h-41.1c-0.2,0.5-0.4,1.1-0.5,1.6c0,22.7,0,45.3-0.1,68
	c0,3.1,1.6,3.5,4.1,3.5c30,0,60,0,89.9,0c3.4,0,4.3-1.3,4.3-4.4c-0.1-9.7-0.2-19.3,0-29c0.1-3.8-1.3-4.8-5-4.8
	c-15.1,0.2-30.3,0.1-45.5,0c-1.9,0-3.9-0.2-6.2-0.3L377.3,771.1z M576,764.3v-43.5l-85.8,1.9v41.6L576,764.3z M576.1,596.2
	c0-11.8,0.1-22.9-0.2-34.1c0-1.4-2-3.7-3.4-4c-6.9-1.7-13.9-3.8-20.9-4.1c-19-0.6-38-0.2-57-0.2c-1.5,0-2.9,0.2-4.5,0.3v42.1
	L576.1,596.2z M576,806.4h-85.8v37.4H576V806.4z M582.2,562.7v108.4c19.6-13.7,29.4-31.5,29.3-54.5
	C611.3,593.9,601.6,576.2,582.2,562.7L582.2,562.7z"/>
</svg>
