<?xml version="1.0" encoding="utf-8"?>
<!-- Generator: Adobe Illustrator 23.0.4, SVG Export Plug-In . SVG Version: 6.00 Build 0)  -->
<svg version="1.1" id="Layer_8369_Изображение"
	 xmlns="http://www.w3.org/2000/svg" xmlns:xlink="http://www.w3.org/1999/xlink" x="0px" y="0px" viewBox="0 0 826.2 792"
	 style="enable-background:new 0 0 826.2 792;" xml:space="preserve">
<style type="text/css">
	.st0{fill:#E50469;}
</style>
<title>вопрос</title>
<path class="st0" d="M826.2,368.3c-1.4,14.6-2.3,29.4-4.3,44c-3.8,27.8-12.4,54.3-24,79.7c-27,58.9-68,106.4-120.4,144.3
	c-44.6,32.2-93.9,54.4-147,68.3c-30.3,8.1-61.5,12.7-92.9,13.9c-22.4,0.6-44.9,0-67.2-1.9c-18-1.4-35.9-4.9-53.7-8.1
	c-4.9-0.9-7.9-0.2-11.2,3.4c-18.7,20.5-40.9,37.6-65.5,50.5c-32.5,17.2-67.1,27.5-104.1,28.5c-1.6,0-7.1-0.1-8.7,0.3
	c-12.7,0-21.3,0.8-34,0.8c0.5-0.9,0.9-1.8,1.4-2.6c12.2-18.7,25.5-36.7,36.5-56.1c14.9-26.4,26-54.4,29.7-84.8
	c0.5-3.9,0-5.9-3.3-8.1c-29.2-19.8-55.6-43.5-78.4-70.4c-26-30.7-46.5-64.6-60.2-102.5C7.9,437,1.1,405.8,0.4,373.3
	c0-2.1-0.4-6.4-0.4-6.4v-13.1c0,0,0.1-5,0.4-7.6c1.4-14,1.9-28.1,4.3-41.9c6.2-34.8,18.1-68.3,35.3-99.3
	c24.6-44.6,57.5-82,97.5-113.1c31-24,65.3-43.6,101.7-58C289.8,13.6,342.3,2.4,396.9,1.2c3.1-0.2,6.3-0.6,9.4-1.2h15
	c2.2,0.5,4.5,0.9,6.8,1.2c7.1,0.4,14.3,0.3,21.4,1.1c18.7,2.2,37.5,3.7,56,7.3c47.4,9.1,93,25.9,134.9,49.8
	c41.7,23.8,78.4,53.6,108.9,90.6c21.7,26,39.4,55.1,52.4,86.3c14.7,35.5,23.5,72.4,24.5,111 M160.6,752.8c1,0.2,2.1,0.3,3.1,0.3
	c52.6-10.6,95.3-37.3,128.7-79.2c3.2-4,6-6.4,11.5-4c3.7,1.6,8,1.8,12,2.8c27.4,6.5,55.1,10.8,83.3,11.4c14.3,0.3,28.6,0,42.9-1
	c15.6-1.1,31.3-2.6,46.8-5.2c29.6-5,58.5-13.3,86.3-24.7c41.5-17,79.3-39.9,112.5-69.9c26.9-24.3,49.7-52,67.4-83.9
	c21-37.6,33.5-77.9,36.2-120.8c1.4-20.2,0.6-40.6-2.6-60.6c-3.7-23.8-10.3-47-19.7-69.1c-20.5-47.9-51.6-87.9-91.5-121.2
	c-34.6-28.9-73.3-50.7-115.7-66.3C522.1,46.9,480.5,38.3,438.2,36c-18.6-0.9-37.3-0.6-55.9,1c-20.5,1.6-41.1,4-61.3,8.2
	c-39.7,8.1-77.8,22.4-113.1,42.2c-37.9,21.3-71.7,47.8-100,81c-22.3,25.9-40.2,55.2-53,86.8c-11.1,27.4-17.8,56.4-19.7,85.9
	c-0.9,14.2,0.2,28.6,0.8,42.9c0.7,16.9,4.3,33.3,8.7,49.6c13.7,49.8,39.8,92.4,75.1,129.6c20.5,21.4,43.5,40.2,68.5,56
	c5.5,3.5,10.8,6.7,7.7,14.7c-0.4,1.2,0,2.7-0.1,4c-0.8,9.1-0.7,18.3-2.5,27.2c-5.4,27.3-15.1,53.2-28,77.9
	C163.9,746,162.4,749.2,160.6,752.8z"/>
<path class="st0" d="M427,449.6h-43.5c0-4.2-0.3-8.3,0-12.4c1.2-15,3.3-29.8,8.5-44c5-13.7,13.7-25,23.4-35.5
	c13.1-14.2,27.3-27.4,40.3-41.7c11.1-12.2,19-26.6,19.3-43.5c0.4-21-6-39.7-23.5-52.7c-8.6-6.5-19.2-8-29.8-9.3
	c-11.7-1.5-23.6-0.6-34.9,2.7c-21.9,6.2-35.7,20.7-40.8,43c-2.4,10.6-4,21.3-6,32.3h-42.9c1.1-26.4,7-51,22.9-72.5
	c16.7-22.5,39.1-36,66.6-40.5c26.2-4.3,52.4-3.8,77,7.5c32.1,14.7,52.3,39.4,57.4,75.1c2.3,16.2,2.7,32.7-4.2,47.8
	c-4.5,9.4-10.3,18.1-17.4,25.7c-15,16.5-31.3,31.8-46.5,48.1c-10.3,11-20.3,22.5-23.2,38c-1.4,7.1-1.9,14.4-2.6,21.6
	C426.7,442.6,427,445.9,427,449.6z"/>
<path class="st0" d="M430.7,492.6v50h-46.9v-50H430.7z"/>
</svg>
