<?xml version="1.0" standalone="no"?>
<!DOCTYPE svg PUBLIC "-//W3C//DTD SVG 20010904//EN"
 "http://www.w3.org/TR/2001/REC-SVG-20010904/DTD/svg10.dtd">
<svg version="1.0" xmlns="http://www.w3.org/2000/svg"
 width="700.000000pt" height="700.000000pt" viewBox="0 0 700.000000 700.000000"
 preserveAspectRatio="xMidYMid meet">
<metadata>
Created by potrace 1.11, written by Peter Selinger 2001-2013
</metadata>
<g transform="translate(0.000000,700.000000) scale(0.100000,-0.100000)"
fill="#000000" stroke="none">
<path d="M570 3505 c0 -1922 2 -3495 6 -3495 3 0 273 268 600 595 l594 594 0
2901 0 2900 -600 0 -600 0 0 -3495z"/>
<path d="M2490 4465 l0 -2535 106 107 c58 60 218 221 355 360 l249 252 0 2175
0 2176 -355 0 -355 0 0 -2535z"/>
<path d="M3590 5035 l0 -1966 39 38 c21 21 170 166 331 323 161 157 308 300
327 318 l33 33 0 1609 0 1610 -365 0 -365 0 0 -1965z"/>
<path d="M4900 5675 c0 -729 2 -1325 5 -1325 3 0 347 342 765 760 l760 760 0
565 0 565 -765 0 -765 0 0 -1325z"/>
</g>
</svg>
