<svg version="1.1" id="Layer_556_xA0_Изображение_1_" xmlns="http://www.w3.org/2000/svg" x="0" y="0" viewBox="0 0 75 75" xml:space="preserve"><style>.st0{fill:#e5046a}</style><path class="st0" d="M5.6 32.5V14.1c.2-.7.7-1.1 1.4-1.3 8.4-2.3 16.4-5.4 24-9.5 2-1 4.1-2.2 6.1-3.3h.8c.2.1.3.2.5.3 2.7 1.5 5.4 3 8.1 4.3C53.4 8 60.6 10.8 68 12.8c.7.2 1.2.6 1.5 1.3v18.4c0 .2 0 .3-.1.5-.2 2-.3 4.1-.7 6.1-.8 4.7-2.3 9.2-4.5 13.4-3.6 6.9-8.6 12.5-14.9 17-2.4 1.7-5 3.3-7.8 4.4-1.1.4-2.2.7-3.4 1h-1.2c-.2 0-.3-.1-.5-.1-2-.4-3.8-1.2-5.6-2.2C21.2 67.4 14.1 60 9.5 50.1c-2-4.4-3.2-9.2-3.7-14.1-.1-1.2-.2-2.3-.2-3.5zm60.7-16.8c-.1 0-.3-.1-.4-.1-1.4-.4-2.9-.9-4.3-1.3C53.3 11.5 45.4 8 37.9 3.6c-.3-.2-.5-.2-.8 0-7.9 4.6-16.2 8.3-24.9 11-1.2.4-2.3.7-3.5 1.1v14.7c0 2.5.2 5 .6 7.5.7 4.7 2.2 9.1 4.4 13.3 3.9 7.4 9.5 13.2 16.6 17.5 1.9 1.2 3.9 2.2 6 2.9.8.3 1.7.3 2.5 0 1.1-.4 2.2-.8 3.2-1.3 5.2-2.6 9.6-6.1 13.5-10.4 7.1-8.2 10.7-17.7 10.8-28.5.1-5.1 0-10.1 0-15.2v-.5z"/><path class="st0" d="M32.4 40l.3-.3 7.7-7.7 7.8-7.8c1.5-1.4 3.2-1.9 5.2-1.3 1.9.6 3.1 1.9 3.5 3.9.4 1.8-.1 3.3-1.4 4.6C49.3 37.6 43.1 43.8 37 50l-1 1c-2 1.9-5.2 1.9-7.2-.1l-9.3-9.3c-2.7-2.7-1.6-7.4 2.1-8.5 2-.6 3.7-.2 5.2 1.3l5.4 5.4.2.2zm-11.2-2.1c0 .6.2 1.1.6 1.5l9.1 9.1c1 1 2.1 1 3.1 0l4-4 15-15c.1-.1.2-.2.3-.4.3-.4.5-.8.5-1.2 0-.8-.4-1.5-1.2-1.8-.8-.3-1.6-.2-2.2.4L39.5 37.4l-5.9 5.9c-.7.7-1.6.7-2.3.1l-4.9-4.9-2-2c-.6-.6-1.3-.6-2.1-.3-.7.3-1.1.9-1.1 1.7zm-9.4-15.7v-3c0-.8.4-1.3 1.1-1.5 2.9-1 5.7-2 8.6-3 .9-.3 1.7.1 2.1.9.3.8 0 1.8-.9 2.1-2.4.9-4.8 1.8-7.3 2.6-.3.1-.4.2-.4.5v4.5c0 .8-.5 1.4-1.2 1.6-.7.1-1.5-.2-1.8-.9-.1-.2-.2-.5-.2-.8v-3zm32.6 40.1c0-.6.2-1 .6-1.3 3.5-2.7 6.6-5.9 9-9.7.5-.8 1.5-1 2.2-.5.8.5.9 1.5.4 2.3-1.3 2-2.7 3.8-4.4 5.5-1.6 1.8-3.4 3.4-5.3 4.8-1 .7-2.2.3-2.5-.8v-.3zm-2.3 4.2c-.9 0-1.6-.7-1.6-1.6 0-.9.8-1.6 1.7-1.6.9 0 1.6.7 1.6 1.6 0 .8-.8 1.6-1.7 1.6zm-14-52.3c0 .9-.7 1.6-1.6 1.6-.9 0-1.6-.7-1.6-1.6 0-.9.7-1.6 1.6-1.6.9 0 1.6.7 1.6 1.6z"/></svg>