<?xml version="1.0" encoding="utf-8"?>
<!-- Generator: Adobe Illustrator 23.0.1, SVG Export Plug-In . SVG Version: 6.00 Build 0)  -->
<svg version="1.1" id="Слой_1" xmlns="http://www.w3.org/2000/svg" xmlns:xlink="http://www.w3.org/1999/xlink" x="0px" y="0px"
	 viewBox="0 0 54 54" style="enable-background:new 0 0 54 54;" xml:space="preserve">
<style type="text/css">
	.st0{fill:#61A8DE;}
	.st1{fill:#201600;}
	.st2{fill:#FFFFFF;}
</style>
<g>
	<circle class="st0" cx="27" cy="27" r="26.9"/>
	<path class="st1" d="M27,54c-7.2,0-14-2.8-19.1-7.9C2.8,41,0,34.2,0,27S2.8,13,7.9,7.9C13,2.8,19.8,0,27,0s14,2.8,19.1,7.9
		S54,19.8,54,27s-2.8,14-7.9,19.1S34.2,54,27,54z M27,0.1C19.8,0.1,13.1,2.9,8,8c-5.1,5.1-7.9,11.8-7.9,19c0,7.2,2.8,13.9,7.9,19
		c5.1,5.1,11.8,7.9,19,7.9c7.2,0,13.9-2.8,19-7.9c5.1-5.1,7.9-11.8,7.9-19c0-7.2-2.8-13.9-7.9-19C40.9,2.9,34.2,0.1,27,0.1z"/>
</g>
<path class="st2" d="M42.5,11.9l-36,14c-1.2,0.5-1.1,2.1,0.1,2.5l9.2,2.7L19.1,42c0.4,1.1,1.8,1.5,2.6,0.6l4.7-4.8l9.3,6.8
	c1.1,0.8,2.8,0.2,3-1.2L45,14.1C45.3,12.6,43.9,11.4,42.5,11.9L42.5,11.9z M38,18.5L21.2,33.3c-0.2,0.1-0.3,0.3-0.3,0.6l-0.6,5.7
	c0,0.2-0.3,0.2-0.3,0l-2.7-8.5c-0.1-0.4,0-0.8,0.4-1l19.8-12.3C37.9,17.5,38.4,18.1,38,18.5L38,18.5z"/>
</svg>
