<svg xmlns="http://www.w3.org/2000/svg" width="28" height="16" viewBox="0 0 28 16">
  <defs>
    <style>
      .cls-1 {
        fill: #ff095a;
        fill-rule: evenodd;
      }
    </style>
  </defs>
  <path id="Forma_1" data-name="Forma 1" class="cls-1" d="M646.466,367.423h4.009v-1.434a0.978,0.978,0,0,1,.966-0.989h13.925a0.978,0.978,0,0,1,.966.989v2.982h3.762a0.464,0.464,0,0,1,.406.239l1.894,3.388h1.139a0.472,0.472,0,0,1,.467.477v5.352a0.473,0.473,0,0,1-.467.478H672.17a2.519,2.519,0,0,1-2.941,2.049,2.548,2.548,0,0,1-2-2.049h-1.362a0.469,0.469,0,0,1-.2-0.052,0.924,0.924,0,0,1-.294.052h-6.1a2.52,2.52,0,0,1-2.941,2.049,2.547,2.547,0,0,1-2-2.049h-2.884a0.978,0.978,0,0,1-.966-0.989v-4.363H647.46a0.478,0.478,0,0,1,0-.955h3.015v-1.635h-0.527a0.478,0.478,0,0,1,0-.955h0.527v-1.63h-4.009A0.478,0.478,0,0,1,646.466,367.423Zm23.357,2.523h-3.491V372.6h4.984Zm-0.126,10.1h0a1.625,1.625,0,1,0-1.587-1.625A1.606,1.606,0,0,0,669.7,380.047Zm-2.469-2.1a2.52,2.52,0,0,1,2.942-2.049,2.546,2.546,0,0,1,2,2.049h0.9v-4.392h-6.734v4.392h0.9Zm-10.439,2.1h0a1.625,1.625,0,1,0-1.587-1.625A1.606,1.606,0,0,0,656.789,380.047ZM651.4,367.442h2.23a0.478,0.478,0,0,1,0,.955h-2.221v1.616h5.707a0.478,0.478,0,0,1,0,.955h-5.7V372.6h3.211a0.478,0.478,0,0,1,0,.956h-3.2v4.391h2.888a2.505,2.505,0,0,1,4.942,0l6.132-.028-0.032-11.946-13.958.033v1.434Z" transform="translate(-646 -365)"/>
</svg>
