<?xml version="1.0" encoding="utf-8"?>
<!-- Generator: Adobe Illustrator 23.0.1, SVG Export Plug-In . SVG Version: 6.00 Build 0)  -->
<svg version="1.1" id="Слой_1" xmlns="http://www.w3.org/2000/svg" xmlns:xlink="http://www.w3.org/1999/xlink" x="0px" y="0px"
	 viewBox="0 0 54 54" style="enable-background:new 0 0 54 54;" xml:space="preserve">
<style type="text/css">
	.st0{fill:#201600;}
	.st1{fill:#FFFFFF;}
	.st2{fill:#7D3DAF;}
</style>
<path class="st0" d="M16,53.8c-1.2,0-2.4-0.9-2.4-2.4v-5.5c-5-1.5-10.1-6.7-11.3-11.5l0-0.1c-1.5-7-1.5-14.2,0-21.2l0-0.1
	C3.5,8,9.2,2.5,14.4,1.4l0.1,0c4.1-0.8,8.4-1.2,12.6-1.2s8.4,0.4,12.6,1.2l0.1,0C44.8,2.5,50.5,8,51.8,13.1l0,0.1
	c1.5,7,1.5,14.2,0,21.2l0,0.1c-1.3,5.1-6.9,10.5-12.1,11.7l-0.1,0c-4.2,0.8-8.4,1.2-12.6,1.2c-1.2,0-2.4,0-3.6-0.1l-5.6,5.9
	C17.3,53.6,16.7,53.8,16,53.8L16,53.8z M15.4,41.3c0.2,0,0.4,0.3,0.4,0.5V51c0,0.1,0.1,0.2,0.1,0.3c0.1,0.1,0.2,0.1,0.2,0.1
	c0.1,0,0.2,0,0.2-0.1l4.4-4.5c0,0,3.5-3.6,4.1-4.3c0.1-0.1,0.2-0.1,0.4-0.1c0.6,0,1.2,0,1.7,0c3.9,0,7.8-0.4,11.6-1.1
	c3.3-0.7,7.5-4.8,8.3-8c1.4-6.3,1.4-12.7,0-19.1c-0.8-3.2-5-7.2-8.3-8C34.8,5.5,30.9,5.1,27,5.1s-7.8,0.4-11.6,1.1
	C12.1,7,7.9,11,7,14.2c-1.4,6.3-1.4,12.7,0,19.1C7.9,36.5,12.1,40.5,15.4,41.3C15.4,41.3,15.4,41.3,15.4,41.3L15.4,41.3z"/>
<path class="st1" d="M51.6,13.2L51.6,13.2c-1.3-5.1-6.9-10.5-12-11.6l-0.1,0C31.2,0,22.8,0,14.5,1.5l-0.1,0
	C9.2,2.7,3.6,8.1,2.4,13.1l0,0.1c-1.5,7-1.5,14.1,0,21.2l0,0.1c1.2,4.8,6.4,10,11.3,11.4v5.6c0,2,2.5,3,3.9,1.6l5.7-5.9
	c1.2,0.1,2.5,0.1,3.7,0.1c4.2,0,8.4-0.4,12.5-1.2l0.1,0c5.2-1.1,10.8-6.5,12-11.5l0-0.1C53.2,27.3,53.2,20.2,51.6,13.2L51.6,13.2z
	 M47.1,33.3c-0.8,3.3-5.1,7.4-8.5,8.1c-4.4,0.8-8.9,1.2-13.4,1.1c-0.1,0-0.2,0-0.2,0.1c-0.6,0.6-4.1,4.3-4.1,4.3l-4.4,4.5
	c-0.3,0.3-0.9,0.1-0.9-0.4v-9.3c0-0.2-0.1-0.3-0.3-0.3c-3.4-0.8-7.6-4.8-8.5-8.1c-1.4-6.3-1.4-12.8,0-19.1c0.8-3.3,5.1-7.4,8.5-8.1
	c7.7-1.5,15.6-1.5,23.3,0c3.4,0.8,7.6,4.8,8.5,8.1C48.5,20.5,48.5,27,47.1,33.3L47.1,33.3z"/>
<path class="st2" d="M47.1,33.3c-0.8,3.3-5.1,7.4-8.5,8.1c-4.4,0.8-8.9,1.2-13.4,1.1c-0.1,0-0.2,0-0.2,0.1c-0.6,0.6-4.1,4.3-4.1,4.3
	l-4.4,4.5c-0.3,0.3-0.9,0.1-0.9-0.4v-9.3c0-0.2-0.1-0.3-0.3-0.3c-3.4-0.8-7.6-4.8-8.5-8.1c-1.4-6.3-1.4-12.8,0-19.1
	c0.8-3.3,5.1-7.4,8.5-8.1c7.7-1.5,15.6-1.5,23.3,0c3.4,0.8,7.6,4.8,8.5,8.1C48.5,20.5,48.5,27,47.1,33.3L47.1,33.3z"/>
<path class="st1" d="M34.4,37.6c-0.5-0.2-1-0.3-1.5-0.5c-4.8-2-9.2-4.5-12.6-8.4c-2-2.2-3.5-4.7-4.8-7.4c-0.6-1.3-1.1-2.6-1.7-3.9
	c-0.5-1.2,0.2-2.4,1-3.3c0.7-0.8,1.6-1.5,2.6-2c0.8-0.4,1.5-0.2,2.1,0.5c1.2,1.4,2.3,2.9,3.2,4.5c0.6,1,0.4,2.2-0.6,2.9
	c-0.2,0.2-0.5,0.4-0.7,0.5c-0.2,0.2-0.4,0.3-0.5,0.6c-0.3,0.4-0.3,0.9-0.1,1.3c1.2,3.4,3.3,6.1,6.8,7.5c0.5,0.2,1.1,0.5,1.7,0.4
	c1.1-0.1,1.4-1.3,2.1-1.9c0.7-0.6,1.7-0.6,2.4-0.1c0.8,0.5,1.5,1,2.3,1.6c0.7,0.5,1.5,1,2.2,1.6c0.7,0.6,0.9,1.3,0.5,2.1
	c-0.7,1.4-1.7,2.6-3.1,3.4C35.3,37.4,34.8,37.5,34.4,37.6C33.8,37.4,34.8,37.5,34.4,37.6L34.4,37.6z M27,10.5
	c6.2,0.2,11.4,4.3,12.5,10.5c0.2,1,0.3,2.1,0.3,3.2c0,0.5-0.2,0.9-0.7,0.9c-0.5,0-0.7-0.4-0.8-0.9c-0.1-0.9-0.1-1.8-0.2-2.7
	c-0.6-4.7-4.3-8.5-9-9.3c-0.7-0.1-1.4-0.2-2.1-0.2c-0.5,0-1-0.1-1.1-0.6c-0.1-0.5,0.3-0.8,0.8-0.9C26.8,10.5,26.9,10.5,27,10.5
	C33.3,10.7,26.9,10.5,27,10.5L27,10.5z"/>
<path class="st1" d="M36.5,22.8c0,0.1,0,0.3-0.1,0.4c-0.2,0.6-1.1,0.7-1.3,0.1C35,23.1,35,22.9,35,22.7c0-1.3-0.3-2.6-1-3.8
	c-0.7-1.2-1.7-2.2-3-2.8c-0.7-0.4-1.5-0.6-2.4-0.7c-0.4-0.1-0.7-0.1-1.1-0.1c-0.4-0.1-0.7-0.3-0.6-0.8c0-0.4,0.3-0.7,0.7-0.7
	c1.4,0.1,2.8,0.4,4.1,1.1c2.6,1.4,4.1,3.5,4.5,6.4c0,0.1,0.1,0.3,0.1,0.4C36.4,22.1,36.5,22.4,36.5,22.8
	C36.5,22.9,36.5,22.4,36.5,22.8L36.5,22.8z"/>
<path class="st1" d="M32.6,22.7c-0.5,0-0.8-0.3-0.9-0.8c0-0.3-0.1-0.7-0.1-1c-0.2-0.6-0.5-1.2-1-1.6c-0.3-0.2-0.5-0.3-0.8-0.4
	c-0.4-0.1-0.8-0.1-1.2-0.2c-0.4-0.1-0.6-0.4-0.6-0.8c0.1-0.4,0.4-0.6,0.8-0.6c2.4,0.2,4.1,1.4,4.4,4.3c0,0.2,0,0.4,0,0.6
	C33.1,22.5,32.9,22.7,32.6,22.7C32.1,22.7,32.9,22.7,32.6,22.7L32.6,22.7z"/>
</svg>
