<?xml version="1.0" encoding="utf-8"?>
<!-- Generator: Adobe Illustrator 23.0.3, SVG Export Plug-In . SVG Version: 6.00 Build 0)  -->
<svg version="1.1" xmlns="http://www.w3.org/2000/svg" xmlns:xlink="http://www.w3.org/1999/xlink" x="0px" y="0px"
	 viewBox="0 0 841.9 595.3" style="enable-background:new 0 0 841.9 595.3;" xml:space="preserve">
<style type="text/css">
	.st0{fill:#FAB41E;}
	.st1{fill:#E40520;}
	.st2{fill:#FFFFFF;}
	.st3{fill:none;stroke:#FFFFFF;stroke-width:0.215;}
	.st4{fill-rule:evenodd;clip-rule:evenodd;fill:#4DB45E;}
	.st5{fill-rule:evenodd;clip-rule:evenodd;fill:url(#path24_1_);}
	.st6{fill:url(#SVGID_1_);}
	.st7{fill:#005CA9;}
	.st8{fill:#F7A823;}
</style>
<g id="Layer_1">
</g>
<g id="Слой_2">
</g>
<g id="Слой_3">
</g>
<g id="Слой_4">
	<g>
		<g>
			<polygon class="st7" points="369.9,417.9 307.3,417.9 346.4,177.5 409,177.5 			"/>
			<path class="st7" d="M254.6,177.5l-59.7,165.4l-7.1-35.6l0,0l-21.1-108.1c0,0-2.6-21.7-29.7-21.7H38.4l-1.2,4.1
				c0,0,30.2,6.3,65.5,27.5l54.4,209h65.2L322,177.4L254.6,177.5L254.6,177.5z"/>
			<path class="st7" d="M747.1,417.9h57.5l-50.1-240.5h-50.4c-23.2,0-28.9,17.9-28.9,17.9L581.9,418h65.2l13.1-35.7h79.6
				L747.1,417.9z M678.2,332.9l32.9-90l18.5,90H678.2z"/>
			<path class="st7" d="M586.7,235.3l8.9-51.7c0,0-27.6-10.5-56.3-10.5c-31.1,0-104.9,13.6-104.9,79.6c0,62.1,86.6,62.9,86.6,95.5
				s-77.7,26.8-103.3,6.2l-9.3,54c0,0,28,13.6,70.7,13.6s107.2-22.1,107.2-82.3c0-62.5-87.4-68.4-87.4-95.5
				C499,217,560,220.5,586.7,235.3z"/>
		</g>
		<path class="st8" d="M187.9,307.2l-21.1-108.1c0,0-2.6-21.7-29.7-21.7H38.4l-1.2,4.1c0,0,47.4,9.8,93,46.6
			C173.6,263.3,187.9,307.2,187.9,307.2z"/>
	</g>
</g>
</svg>
