<?xml version="1.0" encoding="utf-8"?>
<!-- Generator: Adobe Illustrator 23.0.1, SVG Export Plug-In . SVG Version: 6.00 Build 0)  -->
<svg version="1.1" id="Слой_1" xmlns="http://www.w3.org/2000/svg" xmlns:xlink="http://www.w3.org/1999/xlink" x="0px" y="0px"
	 viewBox="0 0 54 54" style="enable-background:new 0 0 54 54;" xml:space="preserve">
<style type="text/css">
	.st0{fill:#FFFFFF;}
	.st1{fill:#64B161;}
	.st2{fill-rule:evenodd;clip-rule:evenodd;fill:#FFFFFF;}
</style>
<path d="M0.1,54.1C0.1,54.1,0.1,54,0.1,54.1C0,54,0,54,0,53.9l3.8-13.8c-2.3-4-3.6-8.7-3.6-13.4C0.2,12,12.3-0.1,27-0.1
	c7.2,0,13.9,2.8,19,7.9c5.1,5.1,7.9,11.8,7.9,19c0,14.8-12,26.8-26.8,26.8h0c-4.5,0-8.9-1.1-12.8-3.2L0.1,54.1L0.1,54.1z M14.9,45.3
	C14.9,45.3,15,45.3,14.9,45.3l0.9,0.5c3.4,2,7.3,3.1,11.2,3.1c12.2,0,22.1-9.9,22.1-22.1c0-5.9-2.3-11.5-6.5-15.6
	C38.5,7,32.9,4.7,27,4.7c-12.2,0-22.1,9.9-22.1,22.1c0,4.2,1.2,8.2,3.4,11.8l0.5,0.8c0,0,0,0.1,0,0.1l-2.2,8L14.9,45.3
	C14.9,45.3,14.9,45.3,14.9,45.3z"/>
<path class="st0" d="M0.1,53.9l3.8-13.8c-2.3-4-3.6-8.6-3.6-13.3C0.3,12,12.3,0.1,27,0.1c7.1,0,13.9,2.8,18.9,7.8s7.8,11.8,7.8,18.9
	c0,14.7-12,26.7-26.7,26.7h0c-4.5,0-8.9-1.1-12.8-3.3L0.1,53.9z M14.9,45.4l0.8,0.5C19.1,47.9,23,49,27,49h0
	c12.2,0,22.2-10,22.2-22.2c0-5.9-2.3-11.5-6.5-15.7S33,4.6,27,4.6c-12.2,0-22.2,10-22.2,22.2C4.8,31,6,35,8.2,38.6l0.5,0.8l-2.2,8.2
	L14.9,45.4z"/>
<path class="st1" d="M1,53l3.7-13.4c-2.3-3.9-3.4-8.3-3.4-12.9C1.3,12.6,12.8,1,27,1c6.9,0,13.4,2.7,18.2,7.6s7.5,11.3,7.5,18.2
	C52.8,41,41.2,52.6,27,52.6h0c-4.3,0-8.6-1.1-12.3-3.1L1,53z"/>
<path class="st0" d="M0.1,53.9l3.8-13.8c-2.3-4-3.6-8.6-3.6-13.3C0.3,12,12.3,0.1,27,0.1c7.1,0,13.9,2.8,18.9,7.8s7.8,11.8,7.8,18.9
	c0,14.7-12,26.7-26.7,26.7h0c-4.5,0-8.9-1.1-12.8-3.3L0.1,53.9z M14.9,45.4l0.8,0.5C19.1,47.9,23,49,27,49h0
	c12.2,0,22.2-10,22.2-22.2c0-5.9-2.3-11.5-6.5-15.7S33,4.6,27,4.6c-12.2,0-22.2,10-22.2,22.2C4.8,31,6,35,8.2,38.6l0.5,0.8l-2.2,8.2
	L14.9,45.4z"/>
<path class="st2" d="M20.4,15.6c-0.5-1.1-1-1.1-1.5-1.2c-0.4,0-0.8,0-1.3,0c-0.4,0-1.2,0.2-1.8,0.8c-0.6,0.7-2.3,2.3-2.3,5.6
	s2.4,6.5,2.7,6.9s4.6,7.4,11.4,10.1c5.6,2.2,6.8,1.8,8,1.7s4-1.6,4.5-3.2c0.6-1.6,0.6-2.9,0.4-3.2c-0.2-0.3-0.6-0.4-1.3-0.8
	c-0.7-0.3-4-1.9-4.6-2.2s-1.1-0.3-1.5,0.3c-0.4,0.7-1.7,2.2-2.1,2.6c-0.4,0.4-0.8,0.5-1.4,0.2c-0.7-0.3-2.8-1-5.4-3.3
	c-2-1.8-3.3-4-3.7-4.6s0-1,0.3-1.4c0.5-0.7,1.4-1.8,1.7-2.3s0.1-0.8-0.1-1.2C22.3,20.2,21,16.9,20.4,15.6L20.4,15.6z"/>
</svg>
