<svg version="1.1" id="Слой_1" xmlns="http://www.w3.org/2000/svg" x="0" y="0" viewBox="0 0 102.3 48.5" xml:space="preserve">
    <path d="M97.2 48.5h-92c-2.8 0-5.1-2.3-5.1-5.1V5.1C0 2.3 2.3 0 5.1 0h92c2.8 0 5.1 2.3 5.1 5.1v38.2a5 5 0 0 1-5 5.2z"/>
    <path fill="#494f61" d="M47.7 32.8c-.6-.4-1.1-1.1-1.3-1.9-.3-1.1-.4-2.2-.4-3.3v-1.9c0-1.1.1-2.3.4-3.4.2-.8.7-1.4 1.3-1.9.7-.4 1.5-.6 2.4-.6.8 0 1.6.2 2.3.6.6.5 1.1 1.1 1.3 1.9.3 1.1.4 2.2.4 3.4v1.9c0 1.1-.1 2.3-.4 3.4-.2.7-.6 1.4-1.3 1.9-.7.4-1.6.6-2.4.6-.9-.1-1.7-.3-2.3-.7zm3.3-2.1c.2-.7.3-1.4.2-2.1v-4.1c0-.7 0-1.4-.2-2.1-.1-.4-.5-.7-.9-.7s-.7.3-.8.7c-.2.7-.3 1.4-.2 2.1v4.1c0 .7 0 1.4.2 2.1.1.4.5.6.9.6.3.1.7-.2.8-.6zm41.9-3.1v.7c0 .6 0 1.3.1 1.9 0 .3.1.6.3.9.2.2.4.3.7.3.4 0 .7-.2.9-.5.2-.5.3-1.1.3-1.7l2.5.1v.5c0 1.2-.3 2.1-1 2.7-.7.6-1.6.9-2.8.9-1.4 0-2.5-.5-3-1.4-.6-.9-.9-2.3-.9-4.2v-2.3c0-2 .3-3.4.9-4.3.6-.9 1.6-1.4 3.1-1.4 1 0 1.8.2 2.3.6.6.4 1 1 1.1 1.7.3 1.1.4 2.2.3 3.3v2.2h-4.8zm.4-5.5c-.2.3-.3.6-.3.9-.1.6-.1 1.3-.1 1.9v.9h2.2V25c0-.6 0-1.3-.1-1.9 0-.3-.1-.6-.3-.9-.2-.2-.4-.3-.7-.3-.3-.1-.5 0-.7.2zm-52.8 5.3l-3.3-12.1h2.9l1.2 5.5c.3 1.3.5 2.5.7 3.5.1-.7.3-1.8.7-3.4l1.2-5.5h2.9l-3.4 12.1v5.8h-2.9v-5.9zm23.2-7.3v13.1h-2.3l-.3-1.6H61c-.6 1.2-1.6 1.8-2.8 1.8-.9 0-1.5-.3-1.9-.9-.4-.6-.6-1.5-.6-2.7V20h2.9v9.6c0 .4 0 .9.2 1.2.1.2.4.4.6.4.3 0 .5-.1.7-.2.2-.1.4-.3.5-.6V20.1h3.1zm15 0v13.1h-2.3l-.3-1.6H76c-.6 1.2-1.6 1.8-2.8 1.8-.9 0-1.5-.3-1.9-.9-.4-.6-.6-1.5-.6-2.7V20h2.9v9.6c0 .4 0 .9.2 1.2.1.2.4.4.6.4.3 0 .5-.1.7-.2.2-.1.4-.3.5-.6V20.1h3.1z"/>
    <path fill="#494f61" d="M62.9 17.7h3v15.5h2.8V17.7h3v-2.4h-8.8zM31 14.4c-2.3-.6-11.6-.6-11.6-.6s-9.3 0-11.6.6c-1.3.3-2.3 1.3-2.6 2.6-.6 2.3-.6 7.2-.6 7.2s0 4.8.6 7.2c.3 1.3 1.3 2.3 2.6 2.6 2.3.6 11.6.6 11.6.6s9.3 0 11.6-.6c1.3-.3 2.3-1.3 2.6-2.6.6-2.3.6-7.2.6-7.2s0-4.8-.6-7.2c-.3-1.2-1.3-2.2-2.6-2.6zM16.2 28.7v-8.9l7.7 4.5-7.7 4.4zM88.5 22.2c-.1-.7-.4-1.3-.9-1.8-.5-.4-1-.6-1.6-.6-.5 0-1.1.2-1.5.5-.5.3-.8.7-1.1 1.2v-6.9h-2.8v18.5H83l.3-1.2h.1c.2.4.6.8 1 1 .5.3 1 .4 1.5.4.9 0 1.8-.5 2.2-1.4.5-.9.7-2.3.7-4.3v-2.1c0-1-.1-2.2-.3-3.3zm-2.8 7.6c0 .4-.2.8-.4 1.1-.2.2-.5.4-.7.3-.2 0-.5-.1-.7-.2-.2-.1-.4-.3-.5-.5v-7.4c.1-.3.3-.6.5-.9.2-.2.5-.3.8-.3.3 0 .5.1.7.4.2.4.3.8.3 1.2.1.8.1 1.6.1 2.4v1.7c0 .7-.1 1.4-.1 2.2z"/>
</svg>
